  0
SECTION
  2
BLOCKS
  0
ENDSEC
  0
SECTION
  2
ENTITIES
  0
LINE
  8
0
 10
-25
 11
-25
 20
-27.436
 21
-0.564
  0
LINE
  8
0
 10
-25
 11
-24.91
 20
-0.564
 21
-0.505
  0
LINE
  8
0
 10
-24.91
 11
-22.995
 20
-0.505
 21
-0.02
  0
LINE
  8
0
 10
-22.995
 11
-22.5
 20
-0.02
 21
-0.062
  0
LINE
  8
0
 10
-22.5
 11
-22.5
 20
-0.062
 21
0
  0
LINE
  8
0
 10
-22.5
 11
42.5
 20
0
 21
0
  0
LINE
  8
0
 10
42.5
 11
42.5
 20
0
 21
-0.062
  0
LINE
  8
0
 10
42.5
 11
43.973
 20
-0.062
 21
-0.184
  0
LINE
  8
0
 10
43.973
 11
45
 20
-0.184
 21
-0.634
  0
LINE
  8
0
 10
45
 11
45
 20
-0.634
 21
-27.366
  0
LINE
  8
0
 10
45
 11
43.973
 20
-27.366
 21
-27.816
  0
LINE
  8
0
 10
43.973
 11
42.5
 20
-27.816
 21
-27.938
  0
LINE
  8
0
 10
42.5
 11
42.5
 20
-27.938
 21
-28
  0
LINE
  8
0
 10
42.5
 11
-22.5
 20
-28
 21
-28
  0
LINE
  8
0
 10
-22.5
 11
-22.5
 20
-28
 21
-27.938
  0
LINE
  8
0
 10
-22.5
 11
-22.995
 20
-27.938
 21
-27.98
  0
LINE
  8
0
 10
-22.995
 11
-24.91
 20
-27.98
 21
-27.495
  0
LINE
  8
0
 10
-24.91
 11
-25
 20
-27.495
 21
-27.436
  0
LINE
  8
0
 10
-19.784
 11
-19.784
 20
-14.861
 21
-13.139
  0
LINE
  8
0
 10
-19.784
 11
-18.567
 20
-13.139
 21
-11.921
  0
LINE
  8
0
 10
-18.567
 11
-16.844
 20
-11.921
 21
-11.921
  0
LINE
  8
0
 10
-16.844
 11
-15.627
 20
-11.921
 21
-13.139
  0
LINE
  8
0
 10
-15.627
 11
-15.627
 20
-13.139
 21
-14.861
  0
LINE
  8
0
 10
-15.627
 11
-16.844
 20
-14.861
 21
-16.079
  0
LINE
  8
0
 10
-16.844
 11
-18.567
 20
-16.079
 21
-16.079
  0
LINE
  8
0
 10
-18.567
 11
-19.784
 20
-16.079
 21
-14.861
  0
LINE
  8
0
 10
-5.563
 11
-4.981
 20
-24.055
 21
-22.807
  0
LINE
  8
0
 10
-4.981
 11
-3.686
 20
-22.807
 21
-22.336
  0
LINE
  8
0
 10
-3.686
 11
-2.438
 20
-22.336
 21
-22.918
  0
LINE
  8
0
 10
-2.438
 11
-1.966
 20
-22.918
 21
-24.212
  0
LINE
  8
0
 10
-1.966
 11
-2.549
 20
-24.212
 21
-25.461
  0
LINE
  8
0
 10
-2.549
 11
-3.843
 20
-25.461
 21
-25.932
  0
LINE
  8
0
 10
-3.843
 11
-5.092
 20
-25.932
 21
-25.35
  0
LINE
  8
0
 10
-5.092
 11
-5.563
 20
-25.35
 21
-24.055
  0
LINE
  8
0
 10
-1.148
 11
-1.148
 20
-14.987
 21
-13.013
  0
LINE
  8
0
 10
-1.148
 11
-0.693
 20
-13.013
 21
-11.093
  0
LINE
  8
0
 10
-0.693
 11
0.193
 20
-11.093
 21
-9.329
  0
LINE
  8
0
 10
0.193
 11
1.461
 20
-9.329
 21
-7.817
  0
LINE
  8
0
 10
1.461
 11
3.044
 20
-7.817
 21
-6.639
  0
LINE
  8
0
 10
3.044
 11
4.857
 20
-6.639
 21
-5.857
  0
LINE
  8
0
 10
4.857
 11
6.8
 20
-5.857
 21
-5.514
  0
LINE
  8
0
 10
6.8
 11
8.771
 20
-5.514
 21
-5.629
  0
LINE
  8
0
 10
8.771
 11
10.661
 20
-5.629
 21
-6.195
  0
LINE
  8
0
 10
10.661
 11
12.37
 20
-6.195
 21
-7.182
  0
LINE
  8
0
 10
12.37
 11
13.806
 20
-7.182
 21
-8.536
  0
LINE
  8
0
 10
13.806
 11
14.89
 20
-8.536
 21
-10.185
  0
LINE
  8
0
 10
14.89
 11
15.565
 20
-10.185
 21
-12.04
  0
LINE
  8
0
 10
15.565
 11
15.794
 20
-12.04
 21
-14
  0
LINE
  8
0
 10
15.794
 11
15.565
 20
-14
 21
-15.96
  0
LINE
  8
0
 10
15.565
 11
14.89
 20
-15.96
 21
-17.815
  0
LINE
  8
0
 10
14.89
 11
13.806
 20
-17.815
 21
-19.464
  0
LINE
  8
0
 10
13.806
 11
12.37
 20
-19.464
 21
-20.818
  0
LINE
  8
0
 10
12.37
 11
10.661
 20
-20.818
 21
-21.805
  0
LINE
  8
0
 10
10.661
 11
8.771
 20
-21.805
 21
-22.371
  0
LINE
  8
0
 10
8.771
 11
6.8
 20
-22.371
 21
-22.486
  0
LINE
  8
0
 10
6.8
 11
4.857
 20
-22.486
 21
-22.143
  0
LINE
  8
0
 10
4.857
 11
3.044
 20
-22.143
 21
-21.361
  0
LINE
  8
0
 10
3.044
 11
1.461
 20
-21.361
 21
-20.183
  0
LINE
  8
0
 10
1.461
 11
0.193
 20
-20.183
 21
-18.671
  0
LINE
  8
0
 10
0.193
 11
-0.693
 20
-18.671
 21
-16.907
  0
LINE
  8
0
 10
-0.693
 11
-1.148
 20
-16.907
 21
-14.987
  0
LINE
  8
0
 10
16.555
 11
17.138
 20
-3.788
 21
-2.539
  0
LINE
  8
0
 10
17.138
 11
18.432
 20
-2.539
 21
-2.068
  0
LINE
  8
0
 10
18.432
 11
19.681
 20
-2.068
 21
-2.65
  0
LINE
  8
0
 10
19.681
 11
20.152
 20
-2.65
 21
-3.945
  0
LINE
  8
0
 10
20.152
 11
19.57
 20
-3.945
 21
-5.193
  0
LINE
  8
0
 10
19.57
 11
18.275
 20
-5.193
 21
-5.664
  0
LINE
  8
0
 10
18.275
 11
17.027
 20
-5.664
 21
-5.082
  0
LINE
  8
0
 10
17.027
 11
16.555
 20
-5.082
 21
-3.788
  0
LINE
  8
0
 10
30.216
 11
30.216
 20
-14.861
 21
-13.139
  0
LINE
  8
0
 10
30.216
 11
31.433
 20
-13.139
 21
-11.921
  0
LINE
  8
0
 10
31.433
 11
33.156
 20
-11.921
 21
-11.921
  0
LINE
  8
0
 10
33.156
 11
34.373
 20
-11.921
 21
-13.139
  0
LINE
  8
0
 10
34.373
 11
34.373
 20
-13.139
 21
-14.861
  0
LINE
  8
0
 10
34.373
 11
33.156
 20
-14.861
 21
-16.079
  0
LINE
  8
0
 10
33.156
 11
31.433
 20
-16.079
 21
-16.079
  0
LINE
  8
0
 10
31.433
 11
30.216
 20
-16.079
 21
-14.861
  0
ENDSEC
  0
SECTION
  2
OBJECTS
  0
DICTIONARY
  0
ENDSEC
  0
EOF
