  0
SECTION
  2
BLOCKS
  0
ENDSEC
  0
SECTION
  2
ENTITIES
  0
LINE
  8
0
 10
7.75
 11
7.755
 20
57.5
 21
57.552
  0
LINE
  8
0
 10
7.755
 11
7.772
 20
57.552
 21
57.602
  0
LINE
  8
0
 10
7.772
 11
7.798
 20
57.602
 21
57.647
  0
LINE
  8
0
 10
7.798
 11
7.833
 20
57.647
 21
57.686
  0
LINE
  8
0
 10
7.833
 11
7.875
 20
57.686
 21
57.717
  0
LINE
  8
0
 10
7.875
 11
7.923
 20
57.717
 21
57.738
  0
LINE
  8
0
 10
7.923
 11
7.974
 20
57.738
 21
57.749
  0
LINE
  8
0
 10
7.974
 11
8.026
 20
57.749
 21
57.749
  0
LINE
  8
0
 10
8.026
 11
8.077
 20
57.749
 21
57.738
  0
LINE
  8
0
 10
8.077
 11
8.125
 20
57.738
 21
57.717
  0
LINE
  8
0
 10
8.125
 11
8.167
 20
57.717
 21
57.686
  0
LINE
  8
0
 10
8.167
 11
8.202
 20
57.686
 21
57.647
  0
LINE
  8
0
 10
8.202
 11
8.228
 20
57.647
 21
57.602
  0
LINE
  8
0
 10
8.228
 11
8.245
 20
57.602
 21
57.552
  0
LINE
  8
0
 10
8.245
 11
8.25
 20
57.552
 21
57.5
  0
LINE
  8
0
 10
8.25
 11
8.245
 20
57.5
 21
57.448
  0
LINE
  8
0
 10
8.245
 11
8.228
 20
57.448
 21
57.398
  0
LINE
  8
0
 10
8.228
 11
8.202
 20
57.398
 21
57.353
  0
LINE
  8
0
 10
8.202
 11
8.167
 20
57.353
 21
57.314
  0
LINE
  8
0
 10
8.167
 11
8.125
 20
57.314
 21
57.283
  0
LINE
  8
0
 10
8.125
 11
8.077
 20
57.283
 21
57.262
  0
LINE
  8
0
 10
8.077
 11
8.026
 20
57.262
 21
57.251
  0
LINE
  8
0
 10
8.026
 11
7.974
 20
57.251
 21
57.251
  0
LINE
  8
0
 10
7.974
 11
7.923
 20
57.251
 21
57.262
  0
LINE
  8
0
 10
7.923
 11
7.875
 20
57.262
 21
57.283
  0
LINE
  8
0
 10
7.875
 11
7.833
 20
57.283
 21
57.314
  0
LINE
  8
0
 10
7.833
 11
7.798
 20
57.314
 21
57.353
  0
LINE
  8
0
 10
7.798
 11
7.772
 20
57.353
 21
57.398
  0
LINE
  8
0
 10
7.772
 11
7.755
 20
57.398
 21
57.448
  0
LINE
  8
0
 10
7.755
 11
7.75
 20
57.448
 21
57.5
  0
LINE
  8
0
 10
7.75
 11
7.755
 20
181.5
 21
181.552
  0
LINE
  8
0
 10
7.755
 11
7.772
 20
181.552
 21
181.602
  0
LINE
  8
0
 10
7.772
 11
7.798
 20
181.602
 21
181.647
  0
LINE
  8
0
 10
7.798
 11
7.833
 20
181.647
 21
181.686
  0
LINE
  8
0
 10
7.833
 11
7.875
 20
181.686
 21
181.717
  0
LINE
  8
0
 10
7.875
 11
7.923
 20
181.717
 21
181.738
  0
LINE
  8
0
 10
7.923
 11
7.974
 20
181.738
 21
181.749
  0
LINE
  8
0
 10
7.974
 11
8.026
 20
181.749
 21
181.749
  0
LINE
  8
0
 10
8.026
 11
8.077
 20
181.749
 21
181.738
  0
LINE
  8
0
 10
8.077
 11
8.125
 20
181.738
 21
181.717
  0
LINE
  8
0
 10
8.125
 11
8.167
 20
181.717
 21
181.686
  0
LINE
  8
0
 10
8.167
 11
8.202
 20
181.686
 21
181.647
  0
LINE
  8
0
 10
8.202
 11
8.228
 20
181.647
 21
181.602
  0
LINE
  8
0
 10
8.228
 11
8.245
 20
181.602
 21
181.552
  0
LINE
  8
0
 10
8.245
 11
8.25
 20
181.552
 21
181.5
  0
LINE
  8
0
 10
8.25
 11
8.245
 20
181.5
 21
181.448
  0
LINE
  8
0
 10
8.245
 11
8.228
 20
181.448
 21
181.398
  0
LINE
  8
0
 10
8.228
 11
8.202
 20
181.398
 21
181.353
  0
LINE
  8
0
 10
8.202
 11
8.167
 20
181.353
 21
181.314
  0
LINE
  8
0
 10
8.167
 11
8.125
 20
181.314
 21
181.283
  0
LINE
  8
0
 10
8.125
 11
8.077
 20
181.283
 21
181.262
  0
LINE
  8
0
 10
8.077
 11
8.026
 20
181.262
 21
181.251
  0
LINE
  8
0
 10
8.026
 11
7.974
 20
181.251
 21
181.251
  0
LINE
  8
0
 10
7.974
 11
7.923
 20
181.251
 21
181.262
  0
LINE
  8
0
 10
7.923
 11
7.875
 20
181.262
 21
181.283
  0
LINE
  8
0
 10
7.875
 11
7.833
 20
181.283
 21
181.314
  0
LINE
  8
0
 10
7.833
 11
7.798
 20
181.314
 21
181.353
  0
LINE
  8
0
 10
7.798
 11
7.772
 20
181.353
 21
181.398
  0
LINE
  8
0
 10
7.772
 11
7.755
 20
181.398
 21
181.448
  0
LINE
  8
0
 10
7.755
 11
7.75
 20
181.448
 21
181.5
  0
LINE
  8
0
 10
14.75
 11
14.755
 20
15
 21
15.052
  0
LINE
  8
0
 10
14.755
 11
14.772
 20
15.052
 21
15.102
  0
LINE
  8
0
 10
14.772
 11
14.798
 20
15.102
 21
15.147
  0
LINE
  8
0
 10
14.798
 11
14.833
 20
15.147
 21
15.186
  0
LINE
  8
0
 10
14.833
 11
14.875
 20
15.186
 21
15.217
  0
LINE
  8
0
 10
14.875
 11
14.923
 20
15.217
 21
15.238
  0
LINE
  8
0
 10
14.923
 11
14.974
 20
15.238
 21
15.249
  0
LINE
  8
0
 10
14.974
 11
15.026
 20
15.249
 21
15.249
  0
LINE
  8
0
 10
15.026
 11
15.077
 20
15.249
 21
15.238
  0
LINE
  8
0
 10
15.077
 11
15.125
 20
15.238
 21
15.217
  0
LINE
  8
0
 10
15.125
 11
15.167
 20
15.217
 21
15.186
  0
LINE
  8
0
 10
15.167
 11
15.202
 20
15.186
 21
15.147
  0
LINE
  8
0
 10
15.202
 11
15.228
 20
15.147
 21
15.102
  0
LINE
  8
0
 10
15.228
 11
15.245
 20
15.102
 21
15.052
  0
LINE
  8
0
 10
15.245
 11
15.25
 20
15.052
 21
15
  0
LINE
  8
0
 10
15.25
 11
15.245
 20
15
 21
14.948
  0
LINE
  8
0
 10
15.245
 11
15.228
 20
14.948
 21
14.898
  0
LINE
  8
0
 10
15.228
 11
15.202
 20
14.898
 21
14.853
  0
LINE
  8
0
 10
15.202
 11
15.167
 20
14.853
 21
14.814
  0
LINE
  8
0
 10
15.167
 11
15.125
 20
14.814
 21
14.783
  0
LINE
  8
0
 10
15.125
 11
15.077
 20
14.783
 21
14.762
  0
LINE
  8
0
 10
15.077
 11
15.026
 20
14.762
 21
14.751
  0
LINE
  8
0
 10
15.026
 11
14.974
 20
14.751
 21
14.751
  0
LINE
  8
0
 10
14.974
 11
14.923
 20
14.751
 21
14.762
  0
LINE
  8
0
 10
14.923
 11
14.875
 20
14.762
 21
14.783
  0
LINE
  8
0
 10
14.875
 11
14.833
 20
14.783
 21
14.814
  0
LINE
  8
0
 10
14.833
 11
14.798
 20
14.814
 21
14.853
  0
LINE
  8
0
 10
14.798
 11
14.772
 20
14.853
 21
14.898
  0
LINE
  8
0
 10
14.772
 11
14.755
 20
14.898
 21
14.948
  0
LINE
  8
0
 10
14.755
 11
14.75
 20
14.948
 21
15
  0
LINE
  8
0
 10
14.75
 11
14.755
 20
224
 21
224.052
  0
LINE
  8
0
 10
14.755
 11
14.772
 20
224.052
 21
224.102
  0
LINE
  8
0
 10
14.772
 11
14.798
 20
224.102
 21
224.147
  0
LINE
  8
0
 10
14.798
 11
14.833
 20
224.147
 21
224.186
  0
LINE
  8
0
 10
14.833
 11
14.875
 20
224.186
 21
224.217
  0
LINE
  8
0
 10
14.875
 11
14.923
 20
224.217
 21
224.238
  0
LINE
  8
0
 10
14.923
 11
14.974
 20
224.238
 21
224.249
  0
LINE
  8
0
 10
14.974
 11
15.026
 20
224.249
 21
224.249
  0
LINE
  8
0
 10
15.026
 11
15.077
 20
224.249
 21
224.238
  0
LINE
  8
0
 10
15.077
 11
15.125
 20
224.238
 21
224.217
  0
LINE
  8
0
 10
15.125
 11
15.167
 20
224.217
 21
224.186
  0
LINE
  8
0
 10
15.167
 11
15.202
 20
224.186
 21
224.147
  0
LINE
  8
0
 10
15.202
 11
15.228
 20
224.147
 21
224.102
  0
LINE
  8
0
 10
15.228
 11
15.245
 20
224.102
 21
224.052
  0
LINE
  8
0
 10
15.245
 11
15.25
 20
224.052
 21
224
  0
LINE
  8
0
 10
15.25
 11
15.245
 20
224
 21
223.948
  0
LINE
  8
0
 10
15.245
 11
15.228
 20
223.948
 21
223.898
  0
LINE
  8
0
 10
15.228
 11
15.202
 20
223.898
 21
223.853
  0
LINE
  8
0
 10
15.202
 11
15.167
 20
223.853
 21
223.814
  0
LINE
  8
0
 10
15.167
 11
15.125
 20
223.814
 21
223.783
  0
LINE
  8
0
 10
15.125
 11
15.077
 20
223.783
 21
223.762
  0
LINE
  8
0
 10
15.077
 11
15.026
 20
223.762
 21
223.751
  0
LINE
  8
0
 10
15.026
 11
14.974
 20
223.751
 21
223.751
  0
LINE
  8
0
 10
14.974
 11
14.923
 20
223.751
 21
223.762
  0
LINE
  8
0
 10
14.923
 11
14.875
 20
223.762
 21
223.783
  0
LINE
  8
0
 10
14.875
 11
14.833
 20
223.783
 21
223.814
  0
LINE
  8
0
 10
14.833
 11
14.798
 20
223.814
 21
223.853
  0
LINE
  8
0
 10
14.798
 11
14.772
 20
223.853
 21
223.898
  0
LINE
  8
0
 10
14.772
 11
14.755
 20
223.898
 21
223.948
  0
LINE
  8
0
 10
14.755
 11
14.75
 20
223.948
 21
224
  0
LINE
  8
0
 10
0
 11
0
 20
0
 21
239
  0
LINE
  8
0
 10
0
 11
44.5
 20
239
 21
239
  0
LINE
  8
0
 10
44.5
 11
44.5
 20
239
 21
214
  0
LINE
  8
0
 10
44.5
 11
84.5
 20
214
 21
214
  0
LINE
  8
0
 10
84.5
 11
84.5
 20
214
 21
239
  0
LINE
  8
0
 10
84.5
 11
154.5
 20
239
 21
239
  0
LINE
  8
0
 10
154.5
 11
154.5
 20
239
 21
214
  0
LINE
  8
0
 10
154.5
 11
194.5
 20
214
 21
214
  0
LINE
  8
0
 10
194.5
 11
194.5
 20
214
 21
239
  0
LINE
  8
0
 10
194.5
 11
239
 20
239
 21
239
  0
LINE
  8
0
 10
239
 11
239
 20
239
 21
0
  0
LINE
  8
0
 10
239
 11
194.5
 20
0
 21
0
  0
LINE
  8
0
 10
194.5
 11
194.5
 20
0
 21
25
  0
LINE
  8
0
 10
194.5
 11
154.5
 20
25
 21
25
  0
LINE
  8
0
 10
154.5
 11
154.5
 20
25
 21
0
  0
LINE
  8
0
 10
154.5
 11
84.5
 20
0
 21
0
  0
LINE
  8
0
 10
84.5
 11
84.5
 20
0
 21
25
  0
LINE
  8
0
 10
84.5
 11
44.5
 20
25
 21
25
  0
LINE
  8
0
 10
44.5
 11
44.5
 20
25
 21
0
  0
LINE
  8
0
 10
44.5
 11
0
 20
0
 21
0
  0
LINE
  8
0
 10
223.75
 11
223.755
 20
15
 21
15.052
  0
LINE
  8
0
 10
223.755
 11
223.772
 20
15.052
 21
15.102
  0
LINE
  8
0
 10
223.772
 11
223.798
 20
15.102
 21
15.147
  0
LINE
  8
0
 10
223.798
 11
223.833
 20
15.147
 21
15.186
  0
LINE
  8
0
 10
223.833
 11
223.875
 20
15.186
 21
15.217
  0
LINE
  8
0
 10
223.875
 11
223.923
 20
15.217
 21
15.238
  0
LINE
  8
0
 10
223.923
 11
223.974
 20
15.238
 21
15.249
  0
LINE
  8
0
 10
223.974
 11
224.026
 20
15.249
 21
15.249
  0
LINE
  8
0
 10
224.026
 11
224.077
 20
15.249
 21
15.238
  0
LINE
  8
0
 10
224.077
 11
224.125
 20
15.238
 21
15.217
  0
LINE
  8
0
 10
224.125
 11
224.167
 20
15.217
 21
15.186
  0
LINE
  8
0
 10
224.167
 11
224.202
 20
15.186
 21
15.147
  0
LINE
  8
0
 10
224.202
 11
224.228
 20
15.147
 21
15.102
  0
LINE
  8
0
 10
224.228
 11
224.245
 20
15.102
 21
15.052
  0
LINE
  8
0
 10
224.245
 11
224.25
 20
15.052
 21
15
  0
LINE
  8
0
 10
224.25
 11
224.245
 20
15
 21
14.948
  0
LINE
  8
0
 10
224.245
 11
224.228
 20
14.948
 21
14.898
  0
LINE
  8
0
 10
224.228
 11
224.202
 20
14.898
 21
14.853
  0
LINE
  8
0
 10
224.202
 11
224.167
 20
14.853
 21
14.814
  0
LINE
  8
0
 10
224.167
 11
224.125
 20
14.814
 21
14.783
  0
LINE
  8
0
 10
224.125
 11
224.077
 20
14.783
 21
14.762
  0
LINE
  8
0
 10
224.077
 11
224.026
 20
14.762
 21
14.751
  0
LINE
  8
0
 10
224.026
 11
223.974
 20
14.751
 21
14.751
  0
LINE
  8
0
 10
223.974
 11
223.923
 20
14.751
 21
14.762
  0
LINE
  8
0
 10
223.923
 11
223.875
 20
14.762
 21
14.783
  0
LINE
  8
0
 10
223.875
 11
223.833
 20
14.783
 21
14.814
  0
LINE
  8
0
 10
223.833
 11
223.798
 20
14.814
 21
14.853
  0
LINE
  8
0
 10
223.798
 11
223.772
 20
14.853
 21
14.898
  0
LINE
  8
0
 10
223.772
 11
223.755
 20
14.898
 21
14.948
  0
LINE
  8
0
 10
223.755
 11
223.75
 20
14.948
 21
15
  0
LINE
  8
0
 10
223.75
 11
223.755
 20
224
 21
224.052
  0
LINE
  8
0
 10
223.755
 11
223.772
 20
224.052
 21
224.102
  0
LINE
  8
0
 10
223.772
 11
223.798
 20
224.102
 21
224.147
  0
LINE
  8
0
 10
223.798
 11
223.833
 20
224.147
 21
224.186
  0
LINE
  8
0
 10
223.833
 11
223.875
 20
224.186
 21
224.217
  0
LINE
  8
0
 10
223.875
 11
223.923
 20
224.217
 21
224.238
  0
LINE
  8
0
 10
223.923
 11
223.974
 20
224.238
 21
224.249
  0
LINE
  8
0
 10
223.974
 11
224.026
 20
224.249
 21
224.249
  0
LINE
  8
0
 10
224.026
 11
224.077
 20
224.249
 21
224.238
  0
LINE
  8
0
 10
224.077
 11
224.125
 20
224.238
 21
224.217
  0
LINE
  8
0
 10
224.125
 11
224.167
 20
224.217
 21
224.186
  0
LINE
  8
0
 10
224.167
 11
224.202
 20
224.186
 21
224.147
  0
LINE
  8
0
 10
224.202
 11
224.228
 20
224.147
 21
224.102
  0
LINE
  8
0
 10
224.228
 11
224.245
 20
224.102
 21
224.052
  0
LINE
  8
0
 10
224.245
 11
224.25
 20
224.052
 21
224
  0
LINE
  8
0
 10
224.25
 11
224.245
 20
224
 21
223.948
  0
LINE
  8
0
 10
224.245
 11
224.228
 20
223.948
 21
223.898
  0
LINE
  8
0
 10
224.228
 11
224.202
 20
223.898
 21
223.853
  0
LINE
  8
0
 10
224.202
 11
224.167
 20
223.853
 21
223.814
  0
LINE
  8
0
 10
224.167
 11
224.125
 20
223.814
 21
223.783
  0
LINE
  8
0
 10
224.125
 11
224.077
 20
223.783
 21
223.762
  0
LINE
  8
0
 10
224.077
 11
224.026
 20
223.762
 21
223.751
  0
LINE
  8
0
 10
224.026
 11
223.974
 20
223.751
 21
223.751
  0
LINE
  8
0
 10
223.974
 11
223.923
 20
223.751
 21
223.762
  0
LINE
  8
0
 10
223.923
 11
223.875
 20
223.762
 21
223.783
  0
LINE
  8
0
 10
223.875
 11
223.833
 20
223.783
 21
223.814
  0
LINE
  8
0
 10
223.833
 11
223.798
 20
223.814
 21
223.853
  0
LINE
  8
0
 10
223.798
 11
223.772
 20
223.853
 21
223.898
  0
LINE
  8
0
 10
223.772
 11
223.755
 20
223.898
 21
223.948
  0
LINE
  8
0
 10
223.755
 11
223.75
 20
223.948
 21
224
  0
LINE
  8
0
 10
230.75
 11
230.755
 20
57.5
 21
57.552
  0
LINE
  8
0
 10
230.755
 11
230.772
 20
57.552
 21
57.602
  0
LINE
  8
0
 10
230.772
 11
230.798
 20
57.602
 21
57.647
  0
LINE
  8
0
 10
230.798
 11
230.833
 20
57.647
 21
57.686
  0
LINE
  8
0
 10
230.833
 11
230.875
 20
57.686
 21
57.717
  0
LINE
  8
0
 10
230.875
 11
230.923
 20
57.717
 21
57.738
  0
LINE
  8
0
 10
230.923
 11
230.974
 20
57.738
 21
57.749
  0
LINE
  8
0
 10
230.974
 11
231.026
 20
57.749
 21
57.749
  0
LINE
  8
0
 10
231.026
 11
231.077
 20
57.749
 21
57.738
  0
LINE
  8
0
 10
231.077
 11
231.125
 20
57.738
 21
57.717
  0
LINE
  8
0
 10
231.125
 11
231.167
 20
57.717
 21
57.686
  0
LINE
  8
0
 10
231.167
 11
231.202
 20
57.686
 21
57.647
  0
LINE
  8
0
 10
231.202
 11
231.228
 20
57.647
 21
57.602
  0
LINE
  8
0
 10
231.228
 11
231.245
 20
57.602
 21
57.552
  0
LINE
  8
0
 10
231.245
 11
231.25
 20
57.552
 21
57.5
  0
LINE
  8
0
 10
231.25
 11
231.245
 20
57.5
 21
57.448
  0
LINE
  8
0
 10
231.245
 11
231.228
 20
57.448
 21
57.398
  0
LINE
  8
0
 10
231.228
 11
231.202
 20
57.398
 21
57.353
  0
LINE
  8
0
 10
231.202
 11
231.167
 20
57.353
 21
57.314
  0
LINE
  8
0
 10
231.167
 11
231.125
 20
57.314
 21
57.283
  0
LINE
  8
0
 10
231.125
 11
231.077
 20
57.283
 21
57.262
  0
LINE
  8
0
 10
231.077
 11
231.026
 20
57.262
 21
57.251
  0
LINE
  8
0
 10
231.026
 11
230.974
 20
57.251
 21
57.251
  0
LINE
  8
0
 10
230.974
 11
230.923
 20
57.251
 21
57.262
  0
LINE
  8
0
 10
230.923
 11
230.875
 20
57.262
 21
57.283
  0
LINE
  8
0
 10
230.875
 11
230.833
 20
57.283
 21
57.314
  0
LINE
  8
0
 10
230.833
 11
230.798
 20
57.314
 21
57.353
  0
LINE
  8
0
 10
230.798
 11
230.772
 20
57.353
 21
57.398
  0
LINE
  8
0
 10
230.772
 11
230.755
 20
57.398
 21
57.448
  0
LINE
  8
0
 10
230.755
 11
230.75
 20
57.448
 21
57.5
  0
LINE
  8
0
 10
230.75
 11
230.755
 20
181.5
 21
181.552
  0
LINE
  8
0
 10
230.755
 11
230.772
 20
181.552
 21
181.602
  0
LINE
  8
0
 10
230.772
 11
230.798
 20
181.602
 21
181.647
  0
LINE
  8
0
 10
230.798
 11
230.833
 20
181.647
 21
181.686
  0
LINE
  8
0
 10
230.833
 11
230.875
 20
181.686
 21
181.717
  0
LINE
  8
0
 10
230.875
 11
230.923
 20
181.717
 21
181.738
  0
LINE
  8
0
 10
230.923
 11
230.974
 20
181.738
 21
181.749
  0
LINE
  8
0
 10
230.974
 11
231.026
 20
181.749
 21
181.749
  0
LINE
  8
0
 10
231.026
 11
231.077
 20
181.749
 21
181.738
  0
LINE
  8
0
 10
231.077
 11
231.125
 20
181.738
 21
181.717
  0
LINE
  8
0
 10
231.125
 11
231.167
 20
181.717
 21
181.686
  0
LINE
  8
0
 10
231.167
 11
231.202
 20
181.686
 21
181.647
  0
LINE
  8
0
 10
231.202
 11
231.228
 20
181.647
 21
181.602
  0
LINE
  8
0
 10
231.228
 11
231.245
 20
181.602
 21
181.552
  0
LINE
  8
0
 10
231.245
 11
231.25
 20
181.552
 21
181.5
  0
LINE
  8
0
 10
231.25
 11
231.245
 20
181.5
 21
181.448
  0
LINE
  8
0
 10
231.245
 11
231.228
 20
181.448
 21
181.398
  0
LINE
  8
0
 10
231.228
 11
231.202
 20
181.398
 21
181.353
  0
LINE
  8
0
 10
231.202
 11
231.167
 20
181.353
 21
181.314
  0
LINE
  8
0
 10
231.167
 11
231.125
 20
181.314
 21
181.283
  0
LINE
  8
0
 10
231.125
 11
231.077
 20
181.283
 21
181.262
  0
LINE
  8
0
 10
231.077
 11
231.026
 20
181.262
 21
181.251
  0
LINE
  8
0
 10
231.026
 11
230.974
 20
181.251
 21
181.251
  0
LINE
  8
0
 10
230.974
 11
230.923
 20
181.251
 21
181.262
  0
LINE
  8
0
 10
230.923
 11
230.875
 20
181.262
 21
181.283
  0
LINE
  8
0
 10
230.875
 11
230.833
 20
181.283
 21
181.314
  0
LINE
  8
0
 10
230.833
 11
230.798
 20
181.314
 21
181.353
  0
LINE
  8
0
 10
230.798
 11
230.772
 20
181.353
 21
181.398
  0
LINE
  8
0
 10
230.772
 11
230.755
 20
181.398
 21
181.448
  0
LINE
  8
0
 10
230.755
 11
230.75
 20
181.448
 21
181.5
  0
ENDSEC
  0
SECTION
  2
OBJECTS
  0
DICTIONARY
  0
ENDSEC
  0
EOF
