  0
SECTION
  2
BLOCKS
  0
ENDSEC
  0
SECTION
  2
ENTITIES
  0
LINE
  8
0
 10
0
 11
0
 20
0
 21
140
  0
LINE
  8
0
 10
0
 11
239
 20
140
 21
140
  0
LINE
  8
0
 10
239
 11
239
 20
140
 21
0
  0
LINE
  8
0
 10
239
 11
0
 20
0
 21
0
  0
LINE
  8
0
 10
7.75
 11
7.755
 20
8
 21
8.052
  0
LINE
  8
0
 10
7.755
 11
7.772
 20
8.052
 21
8.102
  0
LINE
  8
0
 10
7.772
 11
7.798
 20
8.102
 21
8.147
  0
LINE
  8
0
 10
7.798
 11
7.833
 20
8.147
 21
8.186
  0
LINE
  8
0
 10
7.833
 11
7.875
 20
8.186
 21
8.217
  0
LINE
  8
0
 10
7.875
 11
7.923
 20
8.217
 21
8.238
  0
LINE
  8
0
 10
7.923
 11
7.974
 20
8.238
 21
8.249
  0
LINE
  8
0
 10
7.974
 11
8.026
 20
8.249
 21
8.249
  0
LINE
  8
0
 10
8.026
 11
8.077
 20
8.249
 21
8.238
  0
LINE
  8
0
 10
8.077
 11
8.125
 20
8.238
 21
8.217
  0
LINE
  8
0
 10
8.125
 11
8.167
 20
8.217
 21
8.186
  0
LINE
  8
0
 10
8.167
 11
8.202
 20
8.186
 21
8.147
  0
LINE
  8
0
 10
8.202
 11
8.228
 20
8.147
 21
8.102
  0
LINE
  8
0
 10
8.228
 11
8.245
 20
8.102
 21
8.052
  0
LINE
  8
0
 10
8.245
 11
8.25
 20
8.052
 21
8
  0
LINE
  8
0
 10
8.25
 11
8.245
 20
8
 21
7.948
  0
LINE
  8
0
 10
8.245
 11
8.228
 20
7.948
 21
7.898
  0
LINE
  8
0
 10
8.228
 11
8.202
 20
7.898
 21
7.853
  0
LINE
  8
0
 10
8.202
 11
8.167
 20
7.853
 21
7.814
  0
LINE
  8
0
 10
8.167
 11
8.125
 20
7.814
 21
7.783
  0
LINE
  8
0
 10
8.125
 11
8.077
 20
7.783
 21
7.762
  0
LINE
  8
0
 10
8.077
 11
8.026
 20
7.762
 21
7.751
  0
LINE
  8
0
 10
8.026
 11
7.974
 20
7.751
 21
7.751
  0
LINE
  8
0
 10
7.974
 11
7.923
 20
7.751
 21
7.762
  0
LINE
  8
0
 10
7.923
 11
7.875
 20
7.762
 21
7.783
  0
LINE
  8
0
 10
7.875
 11
7.833
 20
7.783
 21
7.814
  0
LINE
  8
0
 10
7.833
 11
7.798
 20
7.814
 21
7.853
  0
LINE
  8
0
 10
7.798
 11
7.772
 20
7.853
 21
7.898
  0
LINE
  8
0
 10
7.772
 11
7.755
 20
7.898
 21
7.948
  0
LINE
  8
0
 10
7.755
 11
7.75
 20
7.948
 21
8
  0
LINE
  8
0
 10
7.75
 11
7.755
 20
132
 21
132.052
  0
LINE
  8
0
 10
7.755
 11
7.772
 20
132.052
 21
132.102
  0
LINE
  8
0
 10
7.772
 11
7.798
 20
132.102
 21
132.147
  0
LINE
  8
0
 10
7.798
 11
7.833
 20
132.147
 21
132.186
  0
LINE
  8
0
 10
7.833
 11
7.875
 20
132.186
 21
132.217
  0
LINE
  8
0
 10
7.875
 11
7.923
 20
132.217
 21
132.238
  0
LINE
  8
0
 10
7.923
 11
7.974
 20
132.238
 21
132.249
  0
LINE
  8
0
 10
7.974
 11
8.026
 20
132.249
 21
132.249
  0
LINE
  8
0
 10
8.026
 11
8.077
 20
132.249
 21
132.238
  0
LINE
  8
0
 10
8.077
 11
8.125
 20
132.238
 21
132.217
  0
LINE
  8
0
 10
8.125
 11
8.167
 20
132.217
 21
132.186
  0
LINE
  8
0
 10
8.167
 11
8.202
 20
132.186
 21
132.147
  0
LINE
  8
0
 10
8.202
 11
8.228
 20
132.147
 21
132.102
  0
LINE
  8
0
 10
8.228
 11
8.245
 20
132.102
 21
132.052
  0
LINE
  8
0
 10
8.245
 11
8.25
 20
132.052
 21
132
  0
LINE
  8
0
 10
8.25
 11
8.245
 20
132
 21
131.948
  0
LINE
  8
0
 10
8.245
 11
8.228
 20
131.948
 21
131.898
  0
LINE
  8
0
 10
8.228
 11
8.202
 20
131.898
 21
131.853
  0
LINE
  8
0
 10
8.202
 11
8.167
 20
131.853
 21
131.814
  0
LINE
  8
0
 10
8.167
 11
8.125
 20
131.814
 21
131.783
  0
LINE
  8
0
 10
8.125
 11
8.077
 20
131.783
 21
131.762
  0
LINE
  8
0
 10
8.077
 11
8.026
 20
131.762
 21
131.751
  0
LINE
  8
0
 10
8.026
 11
7.974
 20
131.751
 21
131.751
  0
LINE
  8
0
 10
7.974
 11
7.923
 20
131.751
 21
131.762
  0
LINE
  8
0
 10
7.923
 11
7.875
 20
131.762
 21
131.783
  0
LINE
  8
0
 10
7.875
 11
7.833
 20
131.783
 21
131.814
  0
LINE
  8
0
 10
7.833
 11
7.798
 20
131.814
 21
131.853
  0
LINE
  8
0
 10
7.798
 11
7.772
 20
131.853
 21
131.898
  0
LINE
  8
0
 10
7.772
 11
7.755
 20
131.898
 21
131.948
  0
LINE
  8
0
 10
7.755
 11
7.75
 20
131.948
 21
132
  0
LINE
  8
0
 10
29.75
 11
29.755
 20
5
 21
5.052
  0
LINE
  8
0
 10
29.755
 11
29.772
 20
5.052
 21
5.102
  0
LINE
  8
0
 10
29.772
 11
29.798
 20
5.102
 21
5.147
  0
LINE
  8
0
 10
29.798
 11
29.833
 20
5.147
 21
5.186
  0
LINE
  8
0
 10
29.833
 11
29.875
 20
5.186
 21
5.217
  0
LINE
  8
0
 10
29.875
 11
29.923
 20
5.217
 21
5.238
  0
LINE
  8
0
 10
29.923
 11
29.974
 20
5.238
 21
5.249
  0
LINE
  8
0
 10
29.974
 11
30.026
 20
5.249
 21
5.249
  0
LINE
  8
0
 10
30.026
 11
30.077
 20
5.249
 21
5.238
  0
LINE
  8
0
 10
30.077
 11
30.125
 20
5.238
 21
5.217
  0
LINE
  8
0
 10
30.125
 11
30.167
 20
5.217
 21
5.186
  0
LINE
  8
0
 10
30.167
 11
30.202
 20
5.186
 21
5.147
  0
LINE
  8
0
 10
30.202
 11
30.228
 20
5.147
 21
5.102
  0
LINE
  8
0
 10
30.228
 11
30.245
 20
5.102
 21
5.052
  0
LINE
  8
0
 10
30.245
 11
30.25
 20
5.052
 21
5
  0
LINE
  8
0
 10
30.25
 11
30.245
 20
5
 21
4.948
  0
LINE
  8
0
 10
30.245
 11
30.228
 20
4.948
 21
4.898
  0
LINE
  8
0
 10
30.228
 11
30.202
 20
4.898
 21
4.853
  0
LINE
  8
0
 10
30.202
 11
30.167
 20
4.853
 21
4.814
  0
LINE
  8
0
 10
30.167
 11
30.125
 20
4.814
 21
4.783
  0
LINE
  8
0
 10
30.125
 11
30.077
 20
4.783
 21
4.762
  0
LINE
  8
0
 10
30.077
 11
30.026
 20
4.762
 21
4.751
  0
LINE
  8
0
 10
30.026
 11
29.974
 20
4.751
 21
4.751
  0
LINE
  8
0
 10
29.974
 11
29.923
 20
4.751
 21
4.762
  0
LINE
  8
0
 10
29.923
 11
29.875
 20
4.762
 21
4.783
  0
LINE
  8
0
 10
29.875
 11
29.833
 20
4.783
 21
4.814
  0
LINE
  8
0
 10
29.833
 11
29.798
 20
4.814
 21
4.853
  0
LINE
  8
0
 10
29.798
 11
29.772
 20
4.853
 21
4.898
  0
LINE
  8
0
 10
29.772
 11
29.755
 20
4.898
 21
4.948
  0
LINE
  8
0
 10
29.755
 11
29.75
 20
4.948
 21
5
  0
LINE
  8
0
 10
29.75
 11
29.755
 20
19
 21
19.052
  0
LINE
  8
0
 10
29.755
 11
29.772
 20
19.052
 21
19.102
  0
LINE
  8
0
 10
29.772
 11
29.798
 20
19.102
 21
19.147
  0
LINE
  8
0
 10
29.798
 11
29.833
 20
19.147
 21
19.186
  0
LINE
  8
0
 10
29.833
 11
29.875
 20
19.186
 21
19.217
  0
LINE
  8
0
 10
29.875
 11
29.923
 20
19.217
 21
19.238
  0
LINE
  8
0
 10
29.923
 11
29.974
 20
19.238
 21
19.249
  0
LINE
  8
0
 10
29.974
 11
30.026
 20
19.249
 21
19.249
  0
LINE
  8
0
 10
30.026
 11
30.077
 20
19.249
 21
19.238
  0
LINE
  8
0
 10
30.077
 11
30.125
 20
19.238
 21
19.217
  0
LINE
  8
0
 10
30.125
 11
30.167
 20
19.217
 21
19.186
  0
LINE
  8
0
 10
30.167
 11
30.202
 20
19.186
 21
19.147
  0
LINE
  8
0
 10
30.202
 11
30.228
 20
19.147
 21
19.102
  0
LINE
  8
0
 10
30.228
 11
30.245
 20
19.102
 21
19.052
  0
LINE
  8
0
 10
30.245
 11
30.25
 20
19.052
 21
19
  0
LINE
  8
0
 10
30.25
 11
30.245
 20
19
 21
18.948
  0
LINE
  8
0
 10
30.245
 11
30.228
 20
18.948
 21
18.898
  0
LINE
  8
0
 10
30.228
 11
30.202
 20
18.898
 21
18.853
  0
LINE
  8
0
 10
30.202
 11
30.167
 20
18.853
 21
18.814
  0
LINE
  8
0
 10
30.167
 11
30.125
 20
18.814
 21
18.783
  0
LINE
  8
0
 10
30.125
 11
30.077
 20
18.783
 21
18.762
  0
LINE
  8
0
 10
30.077
 11
30.026
 20
18.762
 21
18.751
  0
LINE
  8
0
 10
30.026
 11
29.974
 20
18.751
 21
18.751
  0
LINE
  8
0
 10
29.974
 11
29.923
 20
18.751
 21
18.762
  0
LINE
  8
0
 10
29.923
 11
29.875
 20
18.762
 21
18.783
  0
LINE
  8
0
 10
29.875
 11
29.833
 20
18.783
 21
18.814
  0
LINE
  8
0
 10
29.833
 11
29.798
 20
18.814
 21
18.853
  0
LINE
  8
0
 10
29.798
 11
29.772
 20
18.853
 21
18.898
  0
LINE
  8
0
 10
29.772
 11
29.755
 20
18.898
 21
18.948
  0
LINE
  8
0
 10
29.755
 11
29.75
 20
18.948
 21
19
  0
LINE
  8
0
 10
29.75
 11
29.755
 20
121
 21
121.052
  0
LINE
  8
0
 10
29.755
 11
29.772
 20
121.052
 21
121.102
  0
LINE
  8
0
 10
29.772
 11
29.798
 20
121.102
 21
121.147
  0
LINE
  8
0
 10
29.798
 11
29.833
 20
121.147
 21
121.186
  0
LINE
  8
0
 10
29.833
 11
29.875
 20
121.186
 21
121.217
  0
LINE
  8
0
 10
29.875
 11
29.923
 20
121.217
 21
121.238
  0
LINE
  8
0
 10
29.923
 11
29.974
 20
121.238
 21
121.249
  0
LINE
  8
0
 10
29.974
 11
30.026
 20
121.249
 21
121.249
  0
LINE
  8
0
 10
30.026
 11
30.077
 20
121.249
 21
121.238
  0
LINE
  8
0
 10
30.077
 11
30.125
 20
121.238
 21
121.217
  0
LINE
  8
0
 10
30.125
 11
30.167
 20
121.217
 21
121.186
  0
LINE
  8
0
 10
30.167
 11
30.202
 20
121.186
 21
121.147
  0
LINE
  8
0
 10
30.202
 11
30.228
 20
121.147
 21
121.102
  0
LINE
  8
0
 10
30.228
 11
30.245
 20
121.102
 21
121.052
  0
LINE
  8
0
 10
30.245
 11
30.25
 20
121.052
 21
121
  0
LINE
  8
0
 10
30.25
 11
30.245
 20
121
 21
120.948
  0
LINE
  8
0
 10
30.245
 11
30.228
 20
120.948
 21
120.898
  0
LINE
  8
0
 10
30.228
 11
30.202
 20
120.898
 21
120.853
  0
LINE
  8
0
 10
30.202
 11
30.167
 20
120.853
 21
120.814
  0
LINE
  8
0
 10
30.167
 11
30.125
 20
120.814
 21
120.783
  0
LINE
  8
0
 10
30.125
 11
30.077
 20
120.783
 21
120.762
  0
LINE
  8
0
 10
30.077
 11
30.026
 20
120.762
 21
120.751
  0
LINE
  8
0
 10
30.026
 11
29.974
 20
120.751
 21
120.751
  0
LINE
  8
0
 10
29.974
 11
29.923
 20
120.751
 21
120.762
  0
LINE
  8
0
 10
29.923
 11
29.875
 20
120.762
 21
120.783
  0
LINE
  8
0
 10
29.875
 11
29.833
 20
120.783
 21
120.814
  0
LINE
  8
0
 10
29.833
 11
29.798
 20
120.814
 21
120.853
  0
LINE
  8
0
 10
29.798
 11
29.772
 20
120.853
 21
120.898
  0
LINE
  8
0
 10
29.772
 11
29.755
 20
120.898
 21
120.948
  0
LINE
  8
0
 10
29.755
 11
29.75
 20
120.948
 21
121
  0
LINE
  8
0
 10
29.75
 11
29.755
 20
135
 21
135.052
  0
LINE
  8
0
 10
29.755
 11
29.772
 20
135.052
 21
135.102
  0
LINE
  8
0
 10
29.772
 11
29.798
 20
135.102
 21
135.147
  0
LINE
  8
0
 10
29.798
 11
29.833
 20
135.147
 21
135.186
  0
LINE
  8
0
 10
29.833
 11
29.875
 20
135.186
 21
135.217
  0
LINE
  8
0
 10
29.875
 11
29.923
 20
135.217
 21
135.238
  0
LINE
  8
0
 10
29.923
 11
29.974
 20
135.238
 21
135.249
  0
LINE
  8
0
 10
29.974
 11
30.026
 20
135.249
 21
135.249
  0
LINE
  8
0
 10
30.026
 11
30.077
 20
135.249
 21
135.238
  0
LINE
  8
0
 10
30.077
 11
30.125
 20
135.238
 21
135.217
  0
LINE
  8
0
 10
30.125
 11
30.167
 20
135.217
 21
135.186
  0
LINE
  8
0
 10
30.167
 11
30.202
 20
135.186
 21
135.147
  0
LINE
  8
0
 10
30.202
 11
30.228
 20
135.147
 21
135.102
  0
LINE
  8
0
 10
30.228
 11
30.245
 20
135.102
 21
135.052
  0
LINE
  8
0
 10
30.245
 11
30.25
 20
135.052
 21
135
  0
LINE
  8
0
 10
30.25
 11
30.245
 20
135
 21
134.948
  0
LINE
  8
0
 10
30.245
 11
30.228
 20
134.948
 21
134.898
  0
LINE
  8
0
 10
30.228
 11
30.202
 20
134.898
 21
134.853
  0
LINE
  8
0
 10
30.202
 11
30.167
 20
134.853
 21
134.814
  0
LINE
  8
0
 10
30.167
 11
30.125
 20
134.814
 21
134.783
  0
LINE
  8
0
 10
30.125
 11
30.077
 20
134.783
 21
134.762
  0
LINE
  8
0
 10
30.077
 11
30.026
 20
134.762
 21
134.751
  0
LINE
  8
0
 10
30.026
 11
29.974
 20
134.751
 21
134.751
  0
LINE
  8
0
 10
29.974
 11
29.923
 20
134.751
 21
134.762
  0
LINE
  8
0
 10
29.923
 11
29.875
 20
134.762
 21
134.783
  0
LINE
  8
0
 10
29.875
 11
29.833
 20
134.783
 21
134.814
  0
LINE
  8
0
 10
29.833
 11
29.798
 20
134.814
 21
134.853
  0
LINE
  8
0
 10
29.798
 11
29.772
 20
134.853
 21
134.898
  0
LINE
  8
0
 10
29.772
 11
29.755
 20
134.898
 21
134.948
  0
LINE
  8
0
 10
29.755
 11
29.75
 20
134.948
 21
135
  0
LINE
  8
0
 10
60.75
 11
60.755
 20
5
 21
5.052
  0
LINE
  8
0
 10
60.755
 11
60.772
 20
5.052
 21
5.102
  0
LINE
  8
0
 10
60.772
 11
60.798
 20
5.102
 21
5.147
  0
LINE
  8
0
 10
60.798
 11
60.833
 20
5.147
 21
5.186
  0
LINE
  8
0
 10
60.833
 11
60.875
 20
5.186
 21
5.217
  0
LINE
  8
0
 10
60.875
 11
60.923
 20
5.217
 21
5.238
  0
LINE
  8
0
 10
60.923
 11
60.974
 20
5.238
 21
5.249
  0
LINE
  8
0
 10
60.974
 11
61.026
 20
5.249
 21
5.249
  0
LINE
  8
0
 10
61.026
 11
61.077
 20
5.249
 21
5.238
  0
LINE
  8
0
 10
61.077
 11
61.125
 20
5.238
 21
5.217
  0
LINE
  8
0
 10
61.125
 11
61.167
 20
5.217
 21
5.186
  0
LINE
  8
0
 10
61.167
 11
61.202
 20
5.186
 21
5.147
  0
LINE
  8
0
 10
61.202
 11
61.228
 20
5.147
 21
5.102
  0
LINE
  8
0
 10
61.228
 11
61.245
 20
5.102
 21
5.052
  0
LINE
  8
0
 10
61.245
 11
61.25
 20
5.052
 21
5
  0
LINE
  8
0
 10
61.25
 11
61.245
 20
5
 21
4.948
  0
LINE
  8
0
 10
61.245
 11
61.228
 20
4.948
 21
4.898
  0
LINE
  8
0
 10
61.228
 11
61.202
 20
4.898
 21
4.853
  0
LINE
  8
0
 10
61.202
 11
61.167
 20
4.853
 21
4.814
  0
LINE
  8
0
 10
61.167
 11
61.125
 20
4.814
 21
4.783
  0
LINE
  8
0
 10
61.125
 11
61.077
 20
4.783
 21
4.762
  0
LINE
  8
0
 10
61.077
 11
61.026
 20
4.762
 21
4.751
  0
LINE
  8
0
 10
61.026
 11
60.974
 20
4.751
 21
4.751
  0
LINE
  8
0
 10
60.974
 11
60.923
 20
4.751
 21
4.762
  0
LINE
  8
0
 10
60.923
 11
60.875
 20
4.762
 21
4.783
  0
LINE
  8
0
 10
60.875
 11
60.833
 20
4.783
 21
4.814
  0
LINE
  8
0
 10
60.833
 11
60.798
 20
4.814
 21
4.853
  0
LINE
  8
0
 10
60.798
 11
60.772
 20
4.853
 21
4.898
  0
LINE
  8
0
 10
60.772
 11
60.755
 20
4.898
 21
4.948
  0
LINE
  8
0
 10
60.755
 11
60.75
 20
4.948
 21
5
  0
LINE
  8
0
 10
60.75
 11
60.755
 20
19
 21
19.052
  0
LINE
  8
0
 10
60.755
 11
60.772
 20
19.052
 21
19.102
  0
LINE
  8
0
 10
60.772
 11
60.798
 20
19.102
 21
19.147
  0
LINE
  8
0
 10
60.798
 11
60.833
 20
19.147
 21
19.186
  0
LINE
  8
0
 10
60.833
 11
60.875
 20
19.186
 21
19.217
  0
LINE
  8
0
 10
60.875
 11
60.923
 20
19.217
 21
19.238
  0
LINE
  8
0
 10
60.923
 11
60.974
 20
19.238
 21
19.249
  0
LINE
  8
0
 10
60.974
 11
61.026
 20
19.249
 21
19.249
  0
LINE
  8
0
 10
61.026
 11
61.077
 20
19.249
 21
19.238
  0
LINE
  8
0
 10
61.077
 11
61.125
 20
19.238
 21
19.217
  0
LINE
  8
0
 10
61.125
 11
61.167
 20
19.217
 21
19.186
  0
LINE
  8
0
 10
61.167
 11
61.202
 20
19.186
 21
19.147
  0
LINE
  8
0
 10
61.202
 11
61.228
 20
19.147
 21
19.102
  0
LINE
  8
0
 10
61.228
 11
61.245
 20
19.102
 21
19.052
  0
LINE
  8
0
 10
61.245
 11
61.25
 20
19.052
 21
19
  0
LINE
  8
0
 10
61.25
 11
61.245
 20
19
 21
18.948
  0
LINE
  8
0
 10
61.245
 11
61.228
 20
18.948
 21
18.898
  0
LINE
  8
0
 10
61.228
 11
61.202
 20
18.898
 21
18.853
  0
LINE
  8
0
 10
61.202
 11
61.167
 20
18.853
 21
18.814
  0
LINE
  8
0
 10
61.167
 11
61.125
 20
18.814
 21
18.783
  0
LINE
  8
0
 10
61.125
 11
61.077
 20
18.783
 21
18.762
  0
LINE
  8
0
 10
61.077
 11
61.026
 20
18.762
 21
18.751
  0
LINE
  8
0
 10
61.026
 11
60.974
 20
18.751
 21
18.751
  0
LINE
  8
0
 10
60.974
 11
60.923
 20
18.751
 21
18.762
  0
LINE
  8
0
 10
60.923
 11
60.875
 20
18.762
 21
18.783
  0
LINE
  8
0
 10
60.875
 11
60.833
 20
18.783
 21
18.814
  0
LINE
  8
0
 10
60.833
 11
60.798
 20
18.814
 21
18.853
  0
LINE
  8
0
 10
60.798
 11
60.772
 20
18.853
 21
18.898
  0
LINE
  8
0
 10
60.772
 11
60.755
 20
18.898
 21
18.948
  0
LINE
  8
0
 10
60.755
 11
60.75
 20
18.948
 21
19
  0
LINE
  8
0
 10
60.75
 11
60.755
 20
121
 21
121.052
  0
LINE
  8
0
 10
60.755
 11
60.772
 20
121.052
 21
121.102
  0
LINE
  8
0
 10
60.772
 11
60.798
 20
121.102
 21
121.147
  0
LINE
  8
0
 10
60.798
 11
60.833
 20
121.147
 21
121.186
  0
LINE
  8
0
 10
60.833
 11
60.875
 20
121.186
 21
121.217
  0
LINE
  8
0
 10
60.875
 11
60.923
 20
121.217
 21
121.238
  0
LINE
  8
0
 10
60.923
 11
60.974
 20
121.238
 21
121.249
  0
LINE
  8
0
 10
60.974
 11
61.026
 20
121.249
 21
121.249
  0
LINE
  8
0
 10
61.026
 11
61.077
 20
121.249
 21
121.238
  0
LINE
  8
0
 10
61.077
 11
61.125
 20
121.238
 21
121.217
  0
LINE
  8
0
 10
61.125
 11
61.167
 20
121.217
 21
121.186
  0
LINE
  8
0
 10
61.167
 11
61.202
 20
121.186
 21
121.147
  0
LINE
  8
0
 10
61.202
 11
61.228
 20
121.147
 21
121.102
  0
LINE
  8
0
 10
61.228
 11
61.245
 20
121.102
 21
121.052
  0
LINE
  8
0
 10
61.245
 11
61.25
 20
121.052
 21
121
  0
LINE
  8
0
 10
61.25
 11
61.245
 20
121
 21
120.948
  0
LINE
  8
0
 10
61.245
 11
61.228
 20
120.948
 21
120.898
  0
LINE
  8
0
 10
61.228
 11
61.202
 20
120.898
 21
120.853
  0
LINE
  8
0
 10
61.202
 11
61.167
 20
120.853
 21
120.814
  0
LINE
  8
0
 10
61.167
 11
61.125
 20
120.814
 21
120.783
  0
LINE
  8
0
 10
61.125
 11
61.077
 20
120.783
 21
120.762
  0
LINE
  8
0
 10
61.077
 11
61.026
 20
120.762
 21
120.751
  0
LINE
  8
0
 10
61.026
 11
60.974
 20
120.751
 21
120.751
  0
LINE
  8
0
 10
60.974
 11
60.923
 20
120.751
 21
120.762
  0
LINE
  8
0
 10
60.923
 11
60.875
 20
120.762
 21
120.783
  0
LINE
  8
0
 10
60.875
 11
60.833
 20
120.783
 21
120.814
  0
LINE
  8
0
 10
60.833
 11
60.798
 20
120.814
 21
120.853
  0
LINE
  8
0
 10
60.798
 11
60.772
 20
120.853
 21
120.898
  0
LINE
  8
0
 10
60.772
 11
60.755
 20
120.898
 21
120.948
  0
LINE
  8
0
 10
60.755
 11
60.75
 20
120.948
 21
121
  0
LINE
  8
0
 10
60.75
 11
60.755
 20
135
 21
135.052
  0
LINE
  8
0
 10
60.755
 11
60.772
 20
135.052
 21
135.102
  0
LINE
  8
0
 10
60.772
 11
60.798
 20
135.102
 21
135.147
  0
LINE
  8
0
 10
60.798
 11
60.833
 20
135.147
 21
135.186
  0
LINE
  8
0
 10
60.833
 11
60.875
 20
135.186
 21
135.217
  0
LINE
  8
0
 10
60.875
 11
60.923
 20
135.217
 21
135.238
  0
LINE
  8
0
 10
60.923
 11
60.974
 20
135.238
 21
135.249
  0
LINE
  8
0
 10
60.974
 11
61.026
 20
135.249
 21
135.249
  0
LINE
  8
0
 10
61.026
 11
61.077
 20
135.249
 21
135.238
  0
LINE
  8
0
 10
61.077
 11
61.125
 20
135.238
 21
135.217
  0
LINE
  8
0
 10
61.125
 11
61.167
 20
135.217
 21
135.186
  0
LINE
  8
0
 10
61.167
 11
61.202
 20
135.186
 21
135.147
  0
LINE
  8
0
 10
61.202
 11
61.228
 20
135.147
 21
135.102
  0
LINE
  8
0
 10
61.228
 11
61.245
 20
135.102
 21
135.052
  0
LINE
  8
0
 10
61.245
 11
61.25
 20
135.052
 21
135
  0
LINE
  8
0
 10
61.25
 11
61.245
 20
135
 21
134.948
  0
LINE
  8
0
 10
61.245
 11
61.228
 20
134.948
 21
134.898
  0
LINE
  8
0
 10
61.228
 11
61.202
 20
134.898
 21
134.853
  0
LINE
  8
0
 10
61.202
 11
61.167
 20
134.853
 21
134.814
  0
LINE
  8
0
 10
61.167
 11
61.125
 20
134.814
 21
134.783
  0
LINE
  8
0
 10
61.125
 11
61.077
 20
134.783
 21
134.762
  0
LINE
  8
0
 10
61.077
 11
61.026
 20
134.762
 21
134.751
  0
LINE
  8
0
 10
61.026
 11
60.974
 20
134.751
 21
134.751
  0
LINE
  8
0
 10
60.974
 11
60.923
 20
134.751
 21
134.762
  0
LINE
  8
0
 10
60.923
 11
60.875
 20
134.762
 21
134.783
  0
LINE
  8
0
 10
60.875
 11
60.833
 20
134.783
 21
134.814
  0
LINE
  8
0
 10
60.833
 11
60.798
 20
134.814
 21
134.853
  0
LINE
  8
0
 10
60.798
 11
60.772
 20
134.853
 21
134.898
  0
LINE
  8
0
 10
60.772
 11
60.755
 20
134.898
 21
134.948
  0
LINE
  8
0
 10
60.755
 11
60.75
 20
134.948
 21
135
  0
LINE
  8
0
 10
128.75
 11
128.755
 20
15
 21
15.052
  0
LINE
  8
0
 10
128.755
 11
128.772
 20
15.052
 21
15.102
  0
LINE
  8
0
 10
128.772
 11
128.798
 20
15.102
 21
15.147
  0
LINE
  8
0
 10
128.798
 11
128.833
 20
15.147
 21
15.186
  0
LINE
  8
0
 10
128.833
 11
128.875
 20
15.186
 21
15.217
  0
LINE
  8
0
 10
128.875
 11
128.923
 20
15.217
 21
15.238
  0
LINE
  8
0
 10
128.923
 11
128.974
 20
15.238
 21
15.249
  0
LINE
  8
0
 10
128.974
 11
129.026
 20
15.249
 21
15.249
  0
LINE
  8
0
 10
129.026
 11
129.077
 20
15.249
 21
15.238
  0
LINE
  8
0
 10
129.077
 11
129.125
 20
15.238
 21
15.217
  0
LINE
  8
0
 10
129.125
 11
129.167
 20
15.217
 21
15.186
  0
LINE
  8
0
 10
129.167
 11
129.202
 20
15.186
 21
15.147
  0
LINE
  8
0
 10
129.202
 11
129.228
 20
15.147
 21
15.102
  0
LINE
  8
0
 10
129.228
 11
129.245
 20
15.102
 21
15.052
  0
LINE
  8
0
 10
129.245
 11
129.25
 20
15.052
 21
15
  0
LINE
  8
0
 10
129.25
 11
129.245
 20
15
 21
14.948
  0
LINE
  8
0
 10
129.245
 11
129.228
 20
14.948
 21
14.898
  0
LINE
  8
0
 10
129.228
 11
129.202
 20
14.898
 21
14.853
  0
LINE
  8
0
 10
129.202
 11
129.167
 20
14.853
 21
14.814
  0
LINE
  8
0
 10
129.167
 11
129.125
 20
14.814
 21
14.783
  0
LINE
  8
0
 10
129.125
 11
129.077
 20
14.783
 21
14.762
  0
LINE
  8
0
 10
129.077
 11
129.026
 20
14.762
 21
14.751
  0
LINE
  8
0
 10
129.026
 11
128.974
 20
14.751
 21
14.751
  0
LINE
  8
0
 10
128.974
 11
128.923
 20
14.751
 21
14.762
  0
LINE
  8
0
 10
128.923
 11
128.875
 20
14.762
 21
14.783
  0
LINE
  8
0
 10
128.875
 11
128.833
 20
14.783
 21
14.814
  0
LINE
  8
0
 10
128.833
 11
128.798
 20
14.814
 21
14.853
  0
LINE
  8
0
 10
128.798
 11
128.772
 20
14.853
 21
14.898
  0
LINE
  8
0
 10
128.772
 11
128.755
 20
14.898
 21
14.948
  0
LINE
  8
0
 10
128.755
 11
128.75
 20
14.948
 21
15
  0
LINE
  8
0
 10
128.75
 11
128.755
 20
125
 21
125.052
  0
LINE
  8
0
 10
128.755
 11
128.772
 20
125.052
 21
125.102
  0
LINE
  8
0
 10
128.772
 11
128.798
 20
125.102
 21
125.147
  0
LINE
  8
0
 10
128.798
 11
128.833
 20
125.147
 21
125.186
  0
LINE
  8
0
 10
128.833
 11
128.875
 20
125.186
 21
125.217
  0
LINE
  8
0
 10
128.875
 11
128.923
 20
125.217
 21
125.238
  0
LINE
  8
0
 10
128.923
 11
128.974
 20
125.238
 21
125.249
  0
LINE
  8
0
 10
128.974
 11
129.026
 20
125.249
 21
125.249
  0
LINE
  8
0
 10
129.026
 11
129.077
 20
125.249
 21
125.238
  0
LINE
  8
0
 10
129.077
 11
129.125
 20
125.238
 21
125.217
  0
LINE
  8
0
 10
129.125
 11
129.167
 20
125.217
 21
125.186
  0
LINE
  8
0
 10
129.167
 11
129.202
 20
125.186
 21
125.147
  0
LINE
  8
0
 10
129.202
 11
129.228
 20
125.147
 21
125.102
  0
LINE
  8
0
 10
129.228
 11
129.245
 20
125.102
 21
125.052
  0
LINE
  8
0
 10
129.245
 11
129.25
 20
125.052
 21
125
  0
LINE
  8
0
 10
129.25
 11
129.245
 20
125
 21
124.948
  0
LINE
  8
0
 10
129.245
 11
129.228
 20
124.948
 21
124.898
  0
LINE
  8
0
 10
129.228
 11
129.202
 20
124.898
 21
124.853
  0
LINE
  8
0
 10
129.202
 11
129.167
 20
124.853
 21
124.814
  0
LINE
  8
0
 10
129.167
 11
129.125
 20
124.814
 21
124.783
  0
LINE
  8
0
 10
129.125
 11
129.077
 20
124.783
 21
124.762
  0
LINE
  8
0
 10
129.077
 11
129.026
 20
124.762
 21
124.751
  0
LINE
  8
0
 10
129.026
 11
128.974
 20
124.751
 21
124.751
  0
LINE
  8
0
 10
128.974
 11
128.923
 20
124.751
 21
124.762
  0
LINE
  8
0
 10
128.923
 11
128.875
 20
124.762
 21
124.783
  0
LINE
  8
0
 10
128.875
 11
128.833
 20
124.783
 21
124.814
  0
LINE
  8
0
 10
128.833
 11
128.798
 20
124.814
 21
124.853
  0
LINE
  8
0
 10
128.798
 11
128.772
 20
124.853
 21
124.898
  0
LINE
  8
0
 10
128.772
 11
128.755
 20
124.898
 21
124.948
  0
LINE
  8
0
 10
128.755
 11
128.75
 20
124.948
 21
125
  0
LINE
  8
0
 10
145.75
 11
145.755
 20
15
 21
15.052
  0
LINE
  8
0
 10
145.755
 11
145.772
 20
15.052
 21
15.102
  0
LINE
  8
0
 10
145.772
 11
145.798
 20
15.102
 21
15.147
  0
LINE
  8
0
 10
145.798
 11
145.833
 20
15.147
 21
15.186
  0
LINE
  8
0
 10
145.833
 11
145.875
 20
15.186
 21
15.217
  0
LINE
  8
0
 10
145.875
 11
145.923
 20
15.217
 21
15.238
  0
LINE
  8
0
 10
145.923
 11
145.974
 20
15.238
 21
15.249
  0
LINE
  8
0
 10
145.974
 11
146.026
 20
15.249
 21
15.249
  0
LINE
  8
0
 10
146.026
 11
146.077
 20
15.249
 21
15.238
  0
LINE
  8
0
 10
146.077
 11
146.125
 20
15.238
 21
15.217
  0
LINE
  8
0
 10
146.125
 11
146.167
 20
15.217
 21
15.186
  0
LINE
  8
0
 10
146.167
 11
146.202
 20
15.186
 21
15.147
  0
LINE
  8
0
 10
146.202
 11
146.228
 20
15.147
 21
15.102
  0
LINE
  8
0
 10
146.228
 11
146.245
 20
15.102
 21
15.052
  0
LINE
  8
0
 10
146.245
 11
146.25
 20
15.052
 21
15
  0
LINE
  8
0
 10
146.25
 11
146.245
 20
15
 21
14.948
  0
LINE
  8
0
 10
146.245
 11
146.228
 20
14.948
 21
14.898
  0
LINE
  8
0
 10
146.228
 11
146.202
 20
14.898
 21
14.853
  0
LINE
  8
0
 10
146.202
 11
146.167
 20
14.853
 21
14.814
  0
LINE
  8
0
 10
146.167
 11
146.125
 20
14.814
 21
14.783
  0
LINE
  8
0
 10
146.125
 11
146.077
 20
14.783
 21
14.762
  0
LINE
  8
0
 10
146.077
 11
146.026
 20
14.762
 21
14.751
  0
LINE
  8
0
 10
146.026
 11
145.974
 20
14.751
 21
14.751
  0
LINE
  8
0
 10
145.974
 11
145.923
 20
14.751
 21
14.762
  0
LINE
  8
0
 10
145.923
 11
145.875
 20
14.762
 21
14.783
  0
LINE
  8
0
 10
145.875
 11
145.833
 20
14.783
 21
14.814
  0
LINE
  8
0
 10
145.833
 11
145.798
 20
14.814
 21
14.853
  0
LINE
  8
0
 10
145.798
 11
145.772
 20
14.853
 21
14.898
  0
LINE
  8
0
 10
145.772
 11
145.755
 20
14.898
 21
14.948
  0
LINE
  8
0
 10
145.755
 11
145.75
 20
14.948
 21
15
  0
LINE
  8
0
 10
145.75
 11
145.755
 20
125
 21
125.052
  0
LINE
  8
0
 10
145.755
 11
145.772
 20
125.052
 21
125.102
  0
LINE
  8
0
 10
145.772
 11
145.798
 20
125.102
 21
125.147
  0
LINE
  8
0
 10
145.798
 11
145.833
 20
125.147
 21
125.186
  0
LINE
  8
0
 10
145.833
 11
145.875
 20
125.186
 21
125.217
  0
LINE
  8
0
 10
145.875
 11
145.923
 20
125.217
 21
125.238
  0
LINE
  8
0
 10
145.923
 11
145.974
 20
125.238
 21
125.249
  0
LINE
  8
0
 10
145.974
 11
146.026
 20
125.249
 21
125.249
  0
LINE
  8
0
 10
146.026
 11
146.077
 20
125.249
 21
125.238
  0
LINE
  8
0
 10
146.077
 11
146.125
 20
125.238
 21
125.217
  0
LINE
  8
0
 10
146.125
 11
146.167
 20
125.217
 21
125.186
  0
LINE
  8
0
 10
146.167
 11
146.202
 20
125.186
 21
125.147
  0
LINE
  8
0
 10
146.202
 11
146.228
 20
125.147
 21
125.102
  0
LINE
  8
0
 10
146.228
 11
146.245
 20
125.102
 21
125.052
  0
LINE
  8
0
 10
146.245
 11
146.25
 20
125.052
 21
125
  0
LINE
  8
0
 10
146.25
 11
146.245
 20
125
 21
124.948
  0
LINE
  8
0
 10
146.245
 11
146.228
 20
124.948
 21
124.898
  0
LINE
  8
0
 10
146.228
 11
146.202
 20
124.898
 21
124.853
  0
LINE
  8
0
 10
146.202
 11
146.167
 20
124.853
 21
124.814
  0
LINE
  8
0
 10
146.167
 11
146.125
 20
124.814
 21
124.783
  0
LINE
  8
0
 10
146.125
 11
146.077
 20
124.783
 21
124.762
  0
LINE
  8
0
 10
146.077
 11
146.026
 20
124.762
 21
124.751
  0
LINE
  8
0
 10
146.026
 11
145.974
 20
124.751
 21
124.751
  0
LINE
  8
0
 10
145.974
 11
145.923
 20
124.751
 21
124.762
  0
LINE
  8
0
 10
145.923
 11
145.875
 20
124.762
 21
124.783
  0
LINE
  8
0
 10
145.875
 11
145.833
 20
124.783
 21
124.814
  0
LINE
  8
0
 10
145.833
 11
145.798
 20
124.814
 21
124.853
  0
LINE
  8
0
 10
145.798
 11
145.772
 20
124.853
 21
124.898
  0
LINE
  8
0
 10
145.772
 11
145.755
 20
124.898
 21
124.948
  0
LINE
  8
0
 10
145.755
 11
145.75
 20
124.948
 21
125
  0
LINE
  8
0
 10
177.75
 11
177.755
 20
5
 21
5.052
  0
LINE
  8
0
 10
177.755
 11
177.772
 20
5.052
 21
5.102
  0
LINE
  8
0
 10
177.772
 11
177.798
 20
5.102
 21
5.147
  0
LINE
  8
0
 10
177.798
 11
177.833
 20
5.147
 21
5.186
  0
LINE
  8
0
 10
177.833
 11
177.875
 20
5.186
 21
5.217
  0
LINE
  8
0
 10
177.875
 11
177.923
 20
5.217
 21
5.238
  0
LINE
  8
0
 10
177.923
 11
177.974
 20
5.238
 21
5.249
  0
LINE
  8
0
 10
177.974
 11
178.026
 20
5.249
 21
5.249
  0
LINE
  8
0
 10
178.026
 11
178.077
 20
5.249
 21
5.238
  0
LINE
  8
0
 10
178.077
 11
178.125
 20
5.238
 21
5.217
  0
LINE
  8
0
 10
178.125
 11
178.167
 20
5.217
 21
5.186
  0
LINE
  8
0
 10
178.167
 11
178.202
 20
5.186
 21
5.147
  0
LINE
  8
0
 10
178.202
 11
178.228
 20
5.147
 21
5.102
  0
LINE
  8
0
 10
178.228
 11
178.245
 20
5.102
 21
5.052
  0
LINE
  8
0
 10
178.245
 11
178.25
 20
5.052
 21
5
  0
LINE
  8
0
 10
178.25
 11
178.245
 20
5
 21
4.948
  0
LINE
  8
0
 10
178.245
 11
178.228
 20
4.948
 21
4.898
  0
LINE
  8
0
 10
178.228
 11
178.202
 20
4.898
 21
4.853
  0
LINE
  8
0
 10
178.202
 11
178.167
 20
4.853
 21
4.814
  0
LINE
  8
0
 10
178.167
 11
178.125
 20
4.814
 21
4.783
  0
LINE
  8
0
 10
178.125
 11
178.077
 20
4.783
 21
4.762
  0
LINE
  8
0
 10
178.077
 11
178.026
 20
4.762
 21
4.751
  0
LINE
  8
0
 10
178.026
 11
177.974
 20
4.751
 21
4.751
  0
LINE
  8
0
 10
177.974
 11
177.923
 20
4.751
 21
4.762
  0
LINE
  8
0
 10
177.923
 11
177.875
 20
4.762
 21
4.783
  0
LINE
  8
0
 10
177.875
 11
177.833
 20
4.783
 21
4.814
  0
LINE
  8
0
 10
177.833
 11
177.798
 20
4.814
 21
4.853
  0
LINE
  8
0
 10
177.798
 11
177.772
 20
4.853
 21
4.898
  0
LINE
  8
0
 10
177.772
 11
177.755
 20
4.898
 21
4.948
  0
LINE
  8
0
 10
177.755
 11
177.75
 20
4.948
 21
5
  0
LINE
  8
0
 10
177.75
 11
177.755
 20
19
 21
19.052
  0
LINE
  8
0
 10
177.755
 11
177.772
 20
19.052
 21
19.102
  0
LINE
  8
0
 10
177.772
 11
177.798
 20
19.102
 21
19.147
  0
LINE
  8
0
 10
177.798
 11
177.833
 20
19.147
 21
19.186
  0
LINE
  8
0
 10
177.833
 11
177.875
 20
19.186
 21
19.217
  0
LINE
  8
0
 10
177.875
 11
177.923
 20
19.217
 21
19.238
  0
LINE
  8
0
 10
177.923
 11
177.974
 20
19.238
 21
19.249
  0
LINE
  8
0
 10
177.974
 11
178.026
 20
19.249
 21
19.249
  0
LINE
  8
0
 10
178.026
 11
178.077
 20
19.249
 21
19.238
  0
LINE
  8
0
 10
178.077
 11
178.125
 20
19.238
 21
19.217
  0
LINE
  8
0
 10
178.125
 11
178.167
 20
19.217
 21
19.186
  0
LINE
  8
0
 10
178.167
 11
178.202
 20
19.186
 21
19.147
  0
LINE
  8
0
 10
178.202
 11
178.228
 20
19.147
 21
19.102
  0
LINE
  8
0
 10
178.228
 11
178.245
 20
19.102
 21
19.052
  0
LINE
  8
0
 10
178.245
 11
178.25
 20
19.052
 21
19
  0
LINE
  8
0
 10
178.25
 11
178.245
 20
19
 21
18.948
  0
LINE
  8
0
 10
178.245
 11
178.228
 20
18.948
 21
18.898
  0
LINE
  8
0
 10
178.228
 11
178.202
 20
18.898
 21
18.853
  0
LINE
  8
0
 10
178.202
 11
178.167
 20
18.853
 21
18.814
  0
LINE
  8
0
 10
178.167
 11
178.125
 20
18.814
 21
18.783
  0
LINE
  8
0
 10
178.125
 11
178.077
 20
18.783
 21
18.762
  0
LINE
  8
0
 10
178.077
 11
178.026
 20
18.762
 21
18.751
  0
LINE
  8
0
 10
178.026
 11
177.974
 20
18.751
 21
18.751
  0
LINE
  8
0
 10
177.974
 11
177.923
 20
18.751
 21
18.762
  0
LINE
  8
0
 10
177.923
 11
177.875
 20
18.762
 21
18.783
  0
LINE
  8
0
 10
177.875
 11
177.833
 20
18.783
 21
18.814
  0
LINE
  8
0
 10
177.833
 11
177.798
 20
18.814
 21
18.853
  0
LINE
  8
0
 10
177.798
 11
177.772
 20
18.853
 21
18.898
  0
LINE
  8
0
 10
177.772
 11
177.755
 20
18.898
 21
18.948
  0
LINE
  8
0
 10
177.755
 11
177.75
 20
18.948
 21
19
  0
LINE
  8
0
 10
177.75
 11
177.755
 20
63
 21
63.052
  0
LINE
  8
0
 10
177.755
 11
177.772
 20
63.052
 21
63.102
  0
LINE
  8
0
 10
177.772
 11
177.798
 20
63.102
 21
63.147
  0
LINE
  8
0
 10
177.798
 11
177.833
 20
63.147
 21
63.186
  0
LINE
  8
0
 10
177.833
 11
177.875
 20
63.186
 21
63.217
  0
LINE
  8
0
 10
177.875
 11
177.923
 20
63.217
 21
63.238
  0
LINE
  8
0
 10
177.923
 11
177.974
 20
63.238
 21
63.249
  0
LINE
  8
0
 10
177.974
 11
178.026
 20
63.249
 21
63.249
  0
LINE
  8
0
 10
178.026
 11
178.077
 20
63.249
 21
63.238
  0
LINE
  8
0
 10
178.077
 11
178.125
 20
63.238
 21
63.217
  0
LINE
  8
0
 10
178.125
 11
178.167
 20
63.217
 21
63.186
  0
LINE
  8
0
 10
178.167
 11
178.202
 20
63.186
 21
63.147
  0
LINE
  8
0
 10
178.202
 11
178.228
 20
63.147
 21
63.102
  0
LINE
  8
0
 10
178.228
 11
178.245
 20
63.102
 21
63.052
  0
LINE
  8
0
 10
178.245
 11
178.25
 20
63.052
 21
63
  0
LINE
  8
0
 10
178.25
 11
178.245
 20
63
 21
62.948
  0
LINE
  8
0
 10
178.245
 11
178.228
 20
62.948
 21
62.898
  0
LINE
  8
0
 10
178.228
 11
178.202
 20
62.898
 21
62.853
  0
LINE
  8
0
 10
178.202
 11
178.167
 20
62.853
 21
62.814
  0
LINE
  8
0
 10
178.167
 11
178.125
 20
62.814
 21
62.783
  0
LINE
  8
0
 10
178.125
 11
178.077
 20
62.783
 21
62.762
  0
LINE
  8
0
 10
178.077
 11
178.026
 20
62.762
 21
62.751
  0
LINE
  8
0
 10
178.026
 11
177.974
 20
62.751
 21
62.751
  0
LINE
  8
0
 10
177.974
 11
177.923
 20
62.751
 21
62.762
  0
LINE
  8
0
 10
177.923
 11
177.875
 20
62.762
 21
62.783
  0
LINE
  8
0
 10
177.875
 11
177.833
 20
62.783
 21
62.814
  0
LINE
  8
0
 10
177.833
 11
177.798
 20
62.814
 21
62.853
  0
LINE
  8
0
 10
177.798
 11
177.772
 20
62.853
 21
62.898
  0
LINE
  8
0
 10
177.772
 11
177.755
 20
62.898
 21
62.948
  0
LINE
  8
0
 10
177.755
 11
177.75
 20
62.948
 21
63
  0
LINE
  8
0
 10
177.75
 11
177.755
 20
77
 21
77.052
  0
LINE
  8
0
 10
177.755
 11
177.772
 20
77.052
 21
77.102
  0
LINE
  8
0
 10
177.772
 11
177.798
 20
77.102
 21
77.147
  0
LINE
  8
0
 10
177.798
 11
177.833
 20
77.147
 21
77.186
  0
LINE
  8
0
 10
177.833
 11
177.875
 20
77.186
 21
77.217
  0
LINE
  8
0
 10
177.875
 11
177.923
 20
77.217
 21
77.238
  0
LINE
  8
0
 10
177.923
 11
177.974
 20
77.238
 21
77.249
  0
LINE
  8
0
 10
177.974
 11
178.026
 20
77.249
 21
77.249
  0
LINE
  8
0
 10
178.026
 11
178.077
 20
77.249
 21
77.238
  0
LINE
  8
0
 10
178.077
 11
178.125
 20
77.238
 21
77.217
  0
LINE
  8
0
 10
178.125
 11
178.167
 20
77.217
 21
77.186
  0
LINE
  8
0
 10
178.167
 11
178.202
 20
77.186
 21
77.147
  0
LINE
  8
0
 10
178.202
 11
178.228
 20
77.147
 21
77.102
  0
LINE
  8
0
 10
178.228
 11
178.245
 20
77.102
 21
77.052
  0
LINE
  8
0
 10
178.245
 11
178.25
 20
77.052
 21
77
  0
LINE
  8
0
 10
178.25
 11
178.245
 20
77
 21
76.948
  0
LINE
  8
0
 10
178.245
 11
178.228
 20
76.948
 21
76.898
  0
LINE
  8
0
 10
178.228
 11
178.202
 20
76.898
 21
76.853
  0
LINE
  8
0
 10
178.202
 11
178.167
 20
76.853
 21
76.814
  0
LINE
  8
0
 10
178.167
 11
178.125
 20
76.814
 21
76.783
  0
LINE
  8
0
 10
178.125
 11
178.077
 20
76.783
 21
76.762
  0
LINE
  8
0
 10
178.077
 11
178.026
 20
76.762
 21
76.751
  0
LINE
  8
0
 10
178.026
 11
177.974
 20
76.751
 21
76.751
  0
LINE
  8
0
 10
177.974
 11
177.923
 20
76.751
 21
76.762
  0
LINE
  8
0
 10
177.923
 11
177.875
 20
76.762
 21
76.783
  0
LINE
  8
0
 10
177.875
 11
177.833
 20
76.783
 21
76.814
  0
LINE
  8
0
 10
177.833
 11
177.798
 20
76.814
 21
76.853
  0
LINE
  8
0
 10
177.798
 11
177.772
 20
76.853
 21
76.898
  0
LINE
  8
0
 10
177.772
 11
177.755
 20
76.898
 21
76.948
  0
LINE
  8
0
 10
177.755
 11
177.75
 20
76.948
 21
77
  0
LINE
  8
0
 10
177.75
 11
177.755
 20
121
 21
121.052
  0
LINE
  8
0
 10
177.755
 11
177.772
 20
121.052
 21
121.102
  0
LINE
  8
0
 10
177.772
 11
177.798
 20
121.102
 21
121.147
  0
LINE
  8
0
 10
177.798
 11
177.833
 20
121.147
 21
121.186
  0
LINE
  8
0
 10
177.833
 11
177.875
 20
121.186
 21
121.217
  0
LINE
  8
0
 10
177.875
 11
177.923
 20
121.217
 21
121.238
  0
LINE
  8
0
 10
177.923
 11
177.974
 20
121.238
 21
121.249
  0
LINE
  8
0
 10
177.974
 11
178.026
 20
121.249
 21
121.249
  0
LINE
  8
0
 10
178.026
 11
178.077
 20
121.249
 21
121.238
  0
LINE
  8
0
 10
178.077
 11
178.125
 20
121.238
 21
121.217
  0
LINE
  8
0
 10
178.125
 11
178.167
 20
121.217
 21
121.186
  0
LINE
  8
0
 10
178.167
 11
178.202
 20
121.186
 21
121.147
  0
LINE
  8
0
 10
178.202
 11
178.228
 20
121.147
 21
121.102
  0
LINE
  8
0
 10
178.228
 11
178.245
 20
121.102
 21
121.052
  0
LINE
  8
0
 10
178.245
 11
178.25
 20
121.052
 21
121
  0
LINE
  8
0
 10
178.25
 11
178.245
 20
121
 21
120.948
  0
LINE
  8
0
 10
178.245
 11
178.228
 20
120.948
 21
120.898
  0
LINE
  8
0
 10
178.228
 11
178.202
 20
120.898
 21
120.853
  0
LINE
  8
0
 10
178.202
 11
178.167
 20
120.853
 21
120.814
  0
LINE
  8
0
 10
178.167
 11
178.125
 20
120.814
 21
120.783
  0
LINE
  8
0
 10
178.125
 11
178.077
 20
120.783
 21
120.762
  0
LINE
  8
0
 10
178.077
 11
178.026
 20
120.762
 21
120.751
  0
LINE
  8
0
 10
178.026
 11
177.974
 20
120.751
 21
120.751
  0
LINE
  8
0
 10
177.974
 11
177.923
 20
120.751
 21
120.762
  0
LINE
  8
0
 10
177.923
 11
177.875
 20
120.762
 21
120.783
  0
LINE
  8
0
 10
177.875
 11
177.833
 20
120.783
 21
120.814
  0
LINE
  8
0
 10
177.833
 11
177.798
 20
120.814
 21
120.853
  0
LINE
  8
0
 10
177.798
 11
177.772
 20
120.853
 21
120.898
  0
LINE
  8
0
 10
177.772
 11
177.755
 20
120.898
 21
120.948
  0
LINE
  8
0
 10
177.755
 11
177.75
 20
120.948
 21
121
  0
LINE
  8
0
 10
177.75
 11
177.755
 20
135
 21
135.052
  0
LINE
  8
0
 10
177.755
 11
177.772
 20
135.052
 21
135.102
  0
LINE
  8
0
 10
177.772
 11
177.798
 20
135.102
 21
135.147
  0
LINE
  8
0
 10
177.798
 11
177.833
 20
135.147
 21
135.186
  0
LINE
  8
0
 10
177.833
 11
177.875
 20
135.186
 21
135.217
  0
LINE
  8
0
 10
177.875
 11
177.923
 20
135.217
 21
135.238
  0
LINE
  8
0
 10
177.923
 11
177.974
 20
135.238
 21
135.249
  0
LINE
  8
0
 10
177.974
 11
178.026
 20
135.249
 21
135.249
  0
LINE
  8
0
 10
178.026
 11
178.077
 20
135.249
 21
135.238
  0
LINE
  8
0
 10
178.077
 11
178.125
 20
135.238
 21
135.217
  0
LINE
  8
0
 10
178.125
 11
178.167
 20
135.217
 21
135.186
  0
LINE
  8
0
 10
178.167
 11
178.202
 20
135.186
 21
135.147
  0
LINE
  8
0
 10
178.202
 11
178.228
 20
135.147
 21
135.102
  0
LINE
  8
0
 10
178.228
 11
178.245
 20
135.102
 21
135.052
  0
LINE
  8
0
 10
178.245
 11
178.25
 20
135.052
 21
135
  0
LINE
  8
0
 10
178.25
 11
178.245
 20
135
 21
134.948
  0
LINE
  8
0
 10
178.245
 11
178.228
 20
134.948
 21
134.898
  0
LINE
  8
0
 10
178.228
 11
178.202
 20
134.898
 21
134.853
  0
LINE
  8
0
 10
178.202
 11
178.167
 20
134.853
 21
134.814
  0
LINE
  8
0
 10
178.167
 11
178.125
 20
134.814
 21
134.783
  0
LINE
  8
0
 10
178.125
 11
178.077
 20
134.783
 21
134.762
  0
LINE
  8
0
 10
178.077
 11
178.026
 20
134.762
 21
134.751
  0
LINE
  8
0
 10
178.026
 11
177.974
 20
134.751
 21
134.751
  0
LINE
  8
0
 10
177.974
 11
177.923
 20
134.751
 21
134.762
  0
LINE
  8
0
 10
177.923
 11
177.875
 20
134.762
 21
134.783
  0
LINE
  8
0
 10
177.875
 11
177.833
 20
134.783
 21
134.814
  0
LINE
  8
0
 10
177.833
 11
177.798
 20
134.814
 21
134.853
  0
LINE
  8
0
 10
177.798
 11
177.772
 20
134.853
 21
134.898
  0
LINE
  8
0
 10
177.772
 11
177.755
 20
134.898
 21
134.948
  0
LINE
  8
0
 10
177.755
 11
177.75
 20
134.948
 21
135
  0
LINE
  8
0
 10
208.75
 11
208.755
 20
5
 21
5.052
  0
LINE
  8
0
 10
208.755
 11
208.772
 20
5.052
 21
5.102
  0
LINE
  8
0
 10
208.772
 11
208.798
 20
5.102
 21
5.147
  0
LINE
  8
0
 10
208.798
 11
208.833
 20
5.147
 21
5.186
  0
LINE
  8
0
 10
208.833
 11
208.875
 20
5.186
 21
5.217
  0
LINE
  8
0
 10
208.875
 11
208.923
 20
5.217
 21
5.238
  0
LINE
  8
0
 10
208.923
 11
208.974
 20
5.238
 21
5.249
  0
LINE
  8
0
 10
208.974
 11
209.026
 20
5.249
 21
5.249
  0
LINE
  8
0
 10
209.026
 11
209.077
 20
5.249
 21
5.238
  0
LINE
  8
0
 10
209.077
 11
209.125
 20
5.238
 21
5.217
  0
LINE
  8
0
 10
209.125
 11
209.167
 20
5.217
 21
5.186
  0
LINE
  8
0
 10
209.167
 11
209.202
 20
5.186
 21
5.147
  0
LINE
  8
0
 10
209.202
 11
209.228
 20
5.147
 21
5.102
  0
LINE
  8
0
 10
209.228
 11
209.245
 20
5.102
 21
5.052
  0
LINE
  8
0
 10
209.245
 11
209.25
 20
5.052
 21
5
  0
LINE
  8
0
 10
209.25
 11
209.245
 20
5
 21
4.948
  0
LINE
  8
0
 10
209.245
 11
209.228
 20
4.948
 21
4.898
  0
LINE
  8
0
 10
209.228
 11
209.202
 20
4.898
 21
4.853
  0
LINE
  8
0
 10
209.202
 11
209.167
 20
4.853
 21
4.814
  0
LINE
  8
0
 10
209.167
 11
209.125
 20
4.814
 21
4.783
  0
LINE
  8
0
 10
209.125
 11
209.077
 20
4.783
 21
4.762
  0
LINE
  8
0
 10
209.077
 11
209.026
 20
4.762
 21
4.751
  0
LINE
  8
0
 10
209.026
 11
208.974
 20
4.751
 21
4.751
  0
LINE
  8
0
 10
208.974
 11
208.923
 20
4.751
 21
4.762
  0
LINE
  8
0
 10
208.923
 11
208.875
 20
4.762
 21
4.783
  0
LINE
  8
0
 10
208.875
 11
208.833
 20
4.783
 21
4.814
  0
LINE
  8
0
 10
208.833
 11
208.798
 20
4.814
 21
4.853
  0
LINE
  8
0
 10
208.798
 11
208.772
 20
4.853
 21
4.898
  0
LINE
  8
0
 10
208.772
 11
208.755
 20
4.898
 21
4.948
  0
LINE
  8
0
 10
208.755
 11
208.75
 20
4.948
 21
5
  0
LINE
  8
0
 10
208.75
 11
208.755
 20
19
 21
19.052
  0
LINE
  8
0
 10
208.755
 11
208.772
 20
19.052
 21
19.102
  0
LINE
  8
0
 10
208.772
 11
208.798
 20
19.102
 21
19.147
  0
LINE
  8
0
 10
208.798
 11
208.833
 20
19.147
 21
19.186
  0
LINE
  8
0
 10
208.833
 11
208.875
 20
19.186
 21
19.217
  0
LINE
  8
0
 10
208.875
 11
208.923
 20
19.217
 21
19.238
  0
LINE
  8
0
 10
208.923
 11
208.974
 20
19.238
 21
19.249
  0
LINE
  8
0
 10
208.974
 11
209.026
 20
19.249
 21
19.249
  0
LINE
  8
0
 10
209.026
 11
209.077
 20
19.249
 21
19.238
  0
LINE
  8
0
 10
209.077
 11
209.125
 20
19.238
 21
19.217
  0
LINE
  8
0
 10
209.125
 11
209.167
 20
19.217
 21
19.186
  0
LINE
  8
0
 10
209.167
 11
209.202
 20
19.186
 21
19.147
  0
LINE
  8
0
 10
209.202
 11
209.228
 20
19.147
 21
19.102
  0
LINE
  8
0
 10
209.228
 11
209.245
 20
19.102
 21
19.052
  0
LINE
  8
0
 10
209.245
 11
209.25
 20
19.052
 21
19
  0
LINE
  8
0
 10
209.25
 11
209.245
 20
19
 21
18.948
  0
LINE
  8
0
 10
209.245
 11
209.228
 20
18.948
 21
18.898
  0
LINE
  8
0
 10
209.228
 11
209.202
 20
18.898
 21
18.853
  0
LINE
  8
0
 10
209.202
 11
209.167
 20
18.853
 21
18.814
  0
LINE
  8
0
 10
209.167
 11
209.125
 20
18.814
 21
18.783
  0
LINE
  8
0
 10
209.125
 11
209.077
 20
18.783
 21
18.762
  0
LINE
  8
0
 10
209.077
 11
209.026
 20
18.762
 21
18.751
  0
LINE
  8
0
 10
209.026
 11
208.974
 20
18.751
 21
18.751
  0
LINE
  8
0
 10
208.974
 11
208.923
 20
18.751
 21
18.762
  0
LINE
  8
0
 10
208.923
 11
208.875
 20
18.762
 21
18.783
  0
LINE
  8
0
 10
208.875
 11
208.833
 20
18.783
 21
18.814
  0
LINE
  8
0
 10
208.833
 11
208.798
 20
18.814
 21
18.853
  0
LINE
  8
0
 10
208.798
 11
208.772
 20
18.853
 21
18.898
  0
LINE
  8
0
 10
208.772
 11
208.755
 20
18.898
 21
18.948
  0
LINE
  8
0
 10
208.755
 11
208.75
 20
18.948
 21
19
  0
LINE
  8
0
 10
208.75
 11
208.755
 20
63
 21
63.052
  0
LINE
  8
0
 10
208.755
 11
208.772
 20
63.052
 21
63.102
  0
LINE
  8
0
 10
208.772
 11
208.798
 20
63.102
 21
63.147
  0
LINE
  8
0
 10
208.798
 11
208.833
 20
63.147
 21
63.186
  0
LINE
  8
0
 10
208.833
 11
208.875
 20
63.186
 21
63.217
  0
LINE
  8
0
 10
208.875
 11
208.923
 20
63.217
 21
63.238
  0
LINE
  8
0
 10
208.923
 11
208.974
 20
63.238
 21
63.249
  0
LINE
  8
0
 10
208.974
 11
209.026
 20
63.249
 21
63.249
  0
LINE
  8
0
 10
209.026
 11
209.077
 20
63.249
 21
63.238
  0
LINE
  8
0
 10
209.077
 11
209.125
 20
63.238
 21
63.217
  0
LINE
  8
0
 10
209.125
 11
209.167
 20
63.217
 21
63.186
  0
LINE
  8
0
 10
209.167
 11
209.202
 20
63.186
 21
63.147
  0
LINE
  8
0
 10
209.202
 11
209.228
 20
63.147
 21
63.102
  0
LINE
  8
0
 10
209.228
 11
209.245
 20
63.102
 21
63.052
  0
LINE
  8
0
 10
209.245
 11
209.25
 20
63.052
 21
63
  0
LINE
  8
0
 10
209.25
 11
209.245
 20
63
 21
62.948
  0
LINE
  8
0
 10
209.245
 11
209.228
 20
62.948
 21
62.898
  0
LINE
  8
0
 10
209.228
 11
209.202
 20
62.898
 21
62.853
  0
LINE
  8
0
 10
209.202
 11
209.167
 20
62.853
 21
62.814
  0
LINE
  8
0
 10
209.167
 11
209.125
 20
62.814
 21
62.783
  0
LINE
  8
0
 10
209.125
 11
209.077
 20
62.783
 21
62.762
  0
LINE
  8
0
 10
209.077
 11
209.026
 20
62.762
 21
62.751
  0
LINE
  8
0
 10
209.026
 11
208.974
 20
62.751
 21
62.751
  0
LINE
  8
0
 10
208.974
 11
208.923
 20
62.751
 21
62.762
  0
LINE
  8
0
 10
208.923
 11
208.875
 20
62.762
 21
62.783
  0
LINE
  8
0
 10
208.875
 11
208.833
 20
62.783
 21
62.814
  0
LINE
  8
0
 10
208.833
 11
208.798
 20
62.814
 21
62.853
  0
LINE
  8
0
 10
208.798
 11
208.772
 20
62.853
 21
62.898
  0
LINE
  8
0
 10
208.772
 11
208.755
 20
62.898
 21
62.948
  0
LINE
  8
0
 10
208.755
 11
208.75
 20
62.948
 21
63
  0
LINE
  8
0
 10
208.75
 11
208.755
 20
77
 21
77.052
  0
LINE
  8
0
 10
208.755
 11
208.772
 20
77.052
 21
77.102
  0
LINE
  8
0
 10
208.772
 11
208.798
 20
77.102
 21
77.147
  0
LINE
  8
0
 10
208.798
 11
208.833
 20
77.147
 21
77.186
  0
LINE
  8
0
 10
208.833
 11
208.875
 20
77.186
 21
77.217
  0
LINE
  8
0
 10
208.875
 11
208.923
 20
77.217
 21
77.238
  0
LINE
  8
0
 10
208.923
 11
208.974
 20
77.238
 21
77.249
  0
LINE
  8
0
 10
208.974
 11
209.026
 20
77.249
 21
77.249
  0
LINE
  8
0
 10
209.026
 11
209.077
 20
77.249
 21
77.238
  0
LINE
  8
0
 10
209.077
 11
209.125
 20
77.238
 21
77.217
  0
LINE
  8
0
 10
209.125
 11
209.167
 20
77.217
 21
77.186
  0
LINE
  8
0
 10
209.167
 11
209.202
 20
77.186
 21
77.147
  0
LINE
  8
0
 10
209.202
 11
209.228
 20
77.147
 21
77.102
  0
LINE
  8
0
 10
209.228
 11
209.245
 20
77.102
 21
77.052
  0
LINE
  8
0
 10
209.245
 11
209.25
 20
77.052
 21
77
  0
LINE
  8
0
 10
209.25
 11
209.245
 20
77
 21
76.948
  0
LINE
  8
0
 10
209.245
 11
209.228
 20
76.948
 21
76.898
  0
LINE
  8
0
 10
209.228
 11
209.202
 20
76.898
 21
76.853
  0
LINE
  8
0
 10
209.202
 11
209.167
 20
76.853
 21
76.814
  0
LINE
  8
0
 10
209.167
 11
209.125
 20
76.814
 21
76.783
  0
LINE
  8
0
 10
209.125
 11
209.077
 20
76.783
 21
76.762
  0
LINE
  8
0
 10
209.077
 11
209.026
 20
76.762
 21
76.751
  0
LINE
  8
0
 10
209.026
 11
208.974
 20
76.751
 21
76.751
  0
LINE
  8
0
 10
208.974
 11
208.923
 20
76.751
 21
76.762
  0
LINE
  8
0
 10
208.923
 11
208.875
 20
76.762
 21
76.783
  0
LINE
  8
0
 10
208.875
 11
208.833
 20
76.783
 21
76.814
  0
LINE
  8
0
 10
208.833
 11
208.798
 20
76.814
 21
76.853
  0
LINE
  8
0
 10
208.798
 11
208.772
 20
76.853
 21
76.898
  0
LINE
  8
0
 10
208.772
 11
208.755
 20
76.898
 21
76.948
  0
LINE
  8
0
 10
208.755
 11
208.75
 20
76.948
 21
77
  0
LINE
  8
0
 10
208.75
 11
208.755
 20
121
 21
121.052
  0
LINE
  8
0
 10
208.755
 11
208.772
 20
121.052
 21
121.102
  0
LINE
  8
0
 10
208.772
 11
208.798
 20
121.102
 21
121.147
  0
LINE
  8
0
 10
208.798
 11
208.833
 20
121.147
 21
121.186
  0
LINE
  8
0
 10
208.833
 11
208.875
 20
121.186
 21
121.217
  0
LINE
  8
0
 10
208.875
 11
208.923
 20
121.217
 21
121.238
  0
LINE
  8
0
 10
208.923
 11
208.974
 20
121.238
 21
121.249
  0
LINE
  8
0
 10
208.974
 11
209.026
 20
121.249
 21
121.249
  0
LINE
  8
0
 10
209.026
 11
209.077
 20
121.249
 21
121.238
  0
LINE
  8
0
 10
209.077
 11
209.125
 20
121.238
 21
121.217
  0
LINE
  8
0
 10
209.125
 11
209.167
 20
121.217
 21
121.186
  0
LINE
  8
0
 10
209.167
 11
209.202
 20
121.186
 21
121.147
  0
LINE
  8
0
 10
209.202
 11
209.228
 20
121.147
 21
121.102
  0
LINE
  8
0
 10
209.228
 11
209.245
 20
121.102
 21
121.052
  0
LINE
  8
0
 10
209.245
 11
209.25
 20
121.052
 21
121
  0
LINE
  8
0
 10
209.25
 11
209.245
 20
121
 21
120.948
  0
LINE
  8
0
 10
209.245
 11
209.228
 20
120.948
 21
120.898
  0
LINE
  8
0
 10
209.228
 11
209.202
 20
120.898
 21
120.853
  0
LINE
  8
0
 10
209.202
 11
209.167
 20
120.853
 21
120.814
  0
LINE
  8
0
 10
209.167
 11
209.125
 20
120.814
 21
120.783
  0
LINE
  8
0
 10
209.125
 11
209.077
 20
120.783
 21
120.762
  0
LINE
  8
0
 10
209.077
 11
209.026
 20
120.762
 21
120.751
  0
LINE
  8
0
 10
209.026
 11
208.974
 20
120.751
 21
120.751
  0
LINE
  8
0
 10
208.974
 11
208.923
 20
120.751
 21
120.762
  0
LINE
  8
0
 10
208.923
 11
208.875
 20
120.762
 21
120.783
  0
LINE
  8
0
 10
208.875
 11
208.833
 20
120.783
 21
120.814
  0
LINE
  8
0
 10
208.833
 11
208.798
 20
120.814
 21
120.853
  0
LINE
  8
0
 10
208.798
 11
208.772
 20
120.853
 21
120.898
  0
LINE
  8
0
 10
208.772
 11
208.755
 20
120.898
 21
120.948
  0
LINE
  8
0
 10
208.755
 11
208.75
 20
120.948
 21
121
  0
LINE
  8
0
 10
208.75
 11
208.755
 20
135
 21
135.052
  0
LINE
  8
0
 10
208.755
 11
208.772
 20
135.052
 21
135.102
  0
LINE
  8
0
 10
208.772
 11
208.798
 20
135.102
 21
135.147
  0
LINE
  8
0
 10
208.798
 11
208.833
 20
135.147
 21
135.186
  0
LINE
  8
0
 10
208.833
 11
208.875
 20
135.186
 21
135.217
  0
LINE
  8
0
 10
208.875
 11
208.923
 20
135.217
 21
135.238
  0
LINE
  8
0
 10
208.923
 11
208.974
 20
135.238
 21
135.249
  0
LINE
  8
0
 10
208.974
 11
209.026
 20
135.249
 21
135.249
  0
LINE
  8
0
 10
209.026
 11
209.077
 20
135.249
 21
135.238
  0
LINE
  8
0
 10
209.077
 11
209.125
 20
135.238
 21
135.217
  0
LINE
  8
0
 10
209.125
 11
209.167
 20
135.217
 21
135.186
  0
LINE
  8
0
 10
209.167
 11
209.202
 20
135.186
 21
135.147
  0
LINE
  8
0
 10
209.202
 11
209.228
 20
135.147
 21
135.102
  0
LINE
  8
0
 10
209.228
 11
209.245
 20
135.102
 21
135.052
  0
LINE
  8
0
 10
209.245
 11
209.25
 20
135.052
 21
135
  0
LINE
  8
0
 10
209.25
 11
209.245
 20
135
 21
134.948
  0
LINE
  8
0
 10
209.245
 11
209.228
 20
134.948
 21
134.898
  0
LINE
  8
0
 10
209.228
 11
209.202
 20
134.898
 21
134.853
  0
LINE
  8
0
 10
209.202
 11
209.167
 20
134.853
 21
134.814
  0
LINE
  8
0
 10
209.167
 11
209.125
 20
134.814
 21
134.783
  0
LINE
  8
0
 10
209.125
 11
209.077
 20
134.783
 21
134.762
  0
LINE
  8
0
 10
209.077
 11
209.026
 20
134.762
 21
134.751
  0
LINE
  8
0
 10
209.026
 11
208.974
 20
134.751
 21
134.751
  0
LINE
  8
0
 10
208.974
 11
208.923
 20
134.751
 21
134.762
  0
LINE
  8
0
 10
208.923
 11
208.875
 20
134.762
 21
134.783
  0
LINE
  8
0
 10
208.875
 11
208.833
 20
134.783
 21
134.814
  0
LINE
  8
0
 10
208.833
 11
208.798
 20
134.814
 21
134.853
  0
LINE
  8
0
 10
208.798
 11
208.772
 20
134.853
 21
134.898
  0
LINE
  8
0
 10
208.772
 11
208.755
 20
134.898
 21
134.948
  0
LINE
  8
0
 10
208.755
 11
208.75
 20
134.948
 21
135
  0
LINE
  8
0
 10
230.75
 11
230.755
 20
8
 21
8.052
  0
LINE
  8
0
 10
230.755
 11
230.772
 20
8.052
 21
8.102
  0
LINE
  8
0
 10
230.772
 11
230.798
 20
8.102
 21
8.147
  0
LINE
  8
0
 10
230.798
 11
230.833
 20
8.147
 21
8.186
  0
LINE
  8
0
 10
230.833
 11
230.875
 20
8.186
 21
8.217
  0
LINE
  8
0
 10
230.875
 11
230.923
 20
8.217
 21
8.238
  0
LINE
  8
0
 10
230.923
 11
230.974
 20
8.238
 21
8.249
  0
LINE
  8
0
 10
230.974
 11
231.026
 20
8.249
 21
8.249
  0
LINE
  8
0
 10
231.026
 11
231.077
 20
8.249
 21
8.238
  0
LINE
  8
0
 10
231.077
 11
231.125
 20
8.238
 21
8.217
  0
LINE
  8
0
 10
231.125
 11
231.167
 20
8.217
 21
8.186
  0
LINE
  8
0
 10
231.167
 11
231.202
 20
8.186
 21
8.147
  0
LINE
  8
0
 10
231.202
 11
231.228
 20
8.147
 21
8.102
  0
LINE
  8
0
 10
231.228
 11
231.245
 20
8.102
 21
8.052
  0
LINE
  8
0
 10
231.245
 11
231.25
 20
8.052
 21
8
  0
LINE
  8
0
 10
231.25
 11
231.245
 20
8
 21
7.948
  0
LINE
  8
0
 10
231.245
 11
231.228
 20
7.948
 21
7.898
  0
LINE
  8
0
 10
231.228
 11
231.202
 20
7.898
 21
7.853
  0
LINE
  8
0
 10
231.202
 11
231.167
 20
7.853
 21
7.814
  0
LINE
  8
0
 10
231.167
 11
231.125
 20
7.814
 21
7.783
  0
LINE
  8
0
 10
231.125
 11
231.077
 20
7.783
 21
7.762
  0
LINE
  8
0
 10
231.077
 11
231.026
 20
7.762
 21
7.751
  0
LINE
  8
0
 10
231.026
 11
230.974
 20
7.751
 21
7.751
  0
LINE
  8
0
 10
230.974
 11
230.923
 20
7.751
 21
7.762
  0
LINE
  8
0
 10
230.923
 11
230.875
 20
7.762
 21
7.783
  0
LINE
  8
0
 10
230.875
 11
230.833
 20
7.783
 21
7.814
  0
LINE
  8
0
 10
230.833
 11
230.798
 20
7.814
 21
7.853
  0
LINE
  8
0
 10
230.798
 11
230.772
 20
7.853
 21
7.898
  0
LINE
  8
0
 10
230.772
 11
230.755
 20
7.898
 21
7.948
  0
LINE
  8
0
 10
230.755
 11
230.75
 20
7.948
 21
8
  0
LINE
  8
0
 10
230.75
 11
230.755
 20
132
 21
132.052
  0
LINE
  8
0
 10
230.755
 11
230.772
 20
132.052
 21
132.102
  0
LINE
  8
0
 10
230.772
 11
230.798
 20
132.102
 21
132.147
  0
LINE
  8
0
 10
230.798
 11
230.833
 20
132.147
 21
132.186
  0
LINE
  8
0
 10
230.833
 11
230.875
 20
132.186
 21
132.217
  0
LINE
  8
0
 10
230.875
 11
230.923
 20
132.217
 21
132.238
  0
LINE
  8
0
 10
230.923
 11
230.974
 20
132.238
 21
132.249
  0
LINE
  8
0
 10
230.974
 11
231.026
 20
132.249
 21
132.249
  0
LINE
  8
0
 10
231.026
 11
231.077
 20
132.249
 21
132.238
  0
LINE
  8
0
 10
231.077
 11
231.125
 20
132.238
 21
132.217
  0
LINE
  8
0
 10
231.125
 11
231.167
 20
132.217
 21
132.186
  0
LINE
  8
0
 10
231.167
 11
231.202
 20
132.186
 21
132.147
  0
LINE
  8
0
 10
231.202
 11
231.228
 20
132.147
 21
132.102
  0
LINE
  8
0
 10
231.228
 11
231.245
 20
132.102
 21
132.052
  0
LINE
  8
0
 10
231.245
 11
231.25
 20
132.052
 21
132
  0
LINE
  8
0
 10
231.25
 11
231.245
 20
132
 21
131.948
  0
LINE
  8
0
 10
231.245
 11
231.228
 20
131.948
 21
131.898
  0
LINE
  8
0
 10
231.228
 11
231.202
 20
131.898
 21
131.853
  0
LINE
  8
0
 10
231.202
 11
231.167
 20
131.853
 21
131.814
  0
LINE
  8
0
 10
231.167
 11
231.125
 20
131.814
 21
131.783
  0
LINE
  8
0
 10
231.125
 11
231.077
 20
131.783
 21
131.762
  0
LINE
  8
0
 10
231.077
 11
231.026
 20
131.762
 21
131.751
  0
LINE
  8
0
 10
231.026
 11
230.974
 20
131.751
 21
131.751
  0
LINE
  8
0
 10
230.974
 11
230.923
 20
131.751
 21
131.762
  0
LINE
  8
0
 10
230.923
 11
230.875
 20
131.762
 21
131.783
  0
LINE
  8
0
 10
230.875
 11
230.833
 20
131.783
 21
131.814
  0
LINE
  8
0
 10
230.833
 11
230.798
 20
131.814
 21
131.853
  0
LINE
  8
0
 10
230.798
 11
230.772
 20
131.853
 21
131.898
  0
LINE
  8
0
 10
230.772
 11
230.755
 20
131.898
 21
131.948
  0
LINE
  8
0
 10
230.755
 11
230.75
 20
131.948
 21
132
  0
ENDSEC
  0
SECTION
  2
OBJECTS
  0
DICTIONARY
  0
ENDSEC
  0
EOF
