  0
SECTION
  2
BLOCKS
  0
ENDSEC
  0
SECTION
  2
ENTITIES
  0
LINE
  8
0
 10
6.5
 11
6.533
 20
57.5
 21
57.812
  0
LINE
  8
0
 10
6.533
 11
6.63
 20
57.812
 21
58.11
  0
LINE
  8
0
 10
6.63
 11
6.786
 20
58.11
 21
58.382
  0
LINE
  8
0
 10
6.786
 11
6.996
 20
58.382
 21
58.615
  0
LINE
  8
0
 10
6.996
 11
7.25
 20
58.615
 21
58.799
  0
LINE
  8
0
 10
7.25
 11
7.536
 20
58.799
 21
58.927
  0
LINE
  8
0
 10
7.536
 11
7.843
 20
58.927
 21
58.992
  0
LINE
  8
0
 10
7.843
 11
8.157
 20
58.992
 21
58.992
  0
LINE
  8
0
 10
8.157
 11
8.464
 20
58.992
 21
58.927
  0
LINE
  8
0
 10
8.464
 11
8.75
 20
58.927
 21
58.799
  0
LINE
  8
0
 10
8.75
 11
9.004
 20
58.799
 21
58.615
  0
LINE
  8
0
 10
9.004
 11
9.214
 20
58.615
 21
58.382
  0
LINE
  8
0
 10
9.214
 11
9.37
 20
58.382
 21
58.11
  0
LINE
  8
0
 10
9.37
 11
9.467
 20
58.11
 21
57.812
  0
LINE
  8
0
 10
9.467
 11
9.5
 20
57.812
 21
57.5
  0
LINE
  8
0
 10
9.5
 11
9.467
 20
57.5
 21
57.188
  0
LINE
  8
0
 10
9.467
 11
9.37
 20
57.188
 21
56.89
  0
LINE
  8
0
 10
9.37
 11
9.214
 20
56.89
 21
56.618
  0
LINE
  8
0
 10
9.214
 11
9.004
 20
56.618
 21
56.385
  0
LINE
  8
0
 10
9.004
 11
8.75
 20
56.385
 21
56.201
  0
LINE
  8
0
 10
8.75
 11
8.464
 20
56.201
 21
56.073
  0
LINE
  8
0
 10
8.464
 11
8.157
 20
56.073
 21
56.008
  0
LINE
  8
0
 10
8.157
 11
7.843
 20
56.008
 21
56.008
  0
LINE
  8
0
 10
7.843
 11
7.536
 20
56.008
 21
56.073
  0
LINE
  8
0
 10
7.536
 11
7.25
 20
56.073
 21
56.201
  0
LINE
  8
0
 10
7.25
 11
6.996
 20
56.201
 21
56.385
  0
LINE
  8
0
 10
6.996
 11
6.786
 20
56.385
 21
56.618
  0
LINE
  8
0
 10
6.786
 11
6.63
 20
56.618
 21
56.89
  0
LINE
  8
0
 10
6.63
 11
6.533
 20
56.89
 21
57.188
  0
LINE
  8
0
 10
6.533
 11
6.5
 20
57.188
 21
57.5
  0
LINE
  8
0
 10
6.5
 11
6.533
 20
181.5
 21
181.812
  0
LINE
  8
0
 10
6.533
 11
6.63
 20
181.812
 21
182.11
  0
LINE
  8
0
 10
6.63
 11
6.786
 20
182.11
 21
182.382
  0
LINE
  8
0
 10
6.786
 11
6.996
 20
182.382
 21
182.615
  0
LINE
  8
0
 10
6.996
 11
7.25
 20
182.615
 21
182.799
  0
LINE
  8
0
 10
7.25
 11
7.536
 20
182.799
 21
182.927
  0
LINE
  8
0
 10
7.536
 11
7.843
 20
182.927
 21
182.992
  0
LINE
  8
0
 10
7.843
 11
8.157
 20
182.992
 21
182.992
  0
LINE
  8
0
 10
8.157
 11
8.464
 20
182.992
 21
182.927
  0
LINE
  8
0
 10
8.464
 11
8.75
 20
182.927
 21
182.799
  0
LINE
  8
0
 10
8.75
 11
9.004
 20
182.799
 21
182.615
  0
LINE
  8
0
 10
9.004
 11
9.214
 20
182.615
 21
182.382
  0
LINE
  8
0
 10
9.214
 11
9.37
 20
182.382
 21
182.11
  0
LINE
  8
0
 10
9.37
 11
9.467
 20
182.11
 21
181.812
  0
LINE
  8
0
 10
9.467
 11
9.5
 20
181.812
 21
181.5
  0
LINE
  8
0
 10
9.5
 11
9.467
 20
181.5
 21
181.188
  0
LINE
  8
0
 10
9.467
 11
9.37
 20
181.188
 21
180.89
  0
LINE
  8
0
 10
9.37
 11
9.214
 20
180.89
 21
180.618
  0
LINE
  8
0
 10
9.214
 11
9.004
 20
180.618
 21
180.385
  0
LINE
  8
0
 10
9.004
 11
8.75
 20
180.385
 21
180.201
  0
LINE
  8
0
 10
8.75
 11
8.464
 20
180.201
 21
180.073
  0
LINE
  8
0
 10
8.464
 11
8.157
 20
180.073
 21
180.008
  0
LINE
  8
0
 10
8.157
 11
7.843
 20
180.008
 21
180.008
  0
LINE
  8
0
 10
7.843
 11
7.536
 20
180.008
 21
180.073
  0
LINE
  8
0
 10
7.536
 11
7.25
 20
180.073
 21
180.201
  0
LINE
  8
0
 10
7.25
 11
6.996
 20
180.201
 21
180.385
  0
LINE
  8
0
 10
6.996
 11
6.786
 20
180.385
 21
180.618
  0
LINE
  8
0
 10
6.786
 11
6.63
 20
180.618
 21
180.89
  0
LINE
  8
0
 10
6.63
 11
6.533
 20
180.89
 21
181.188
  0
LINE
  8
0
 10
6.533
 11
6.5
 20
181.188
 21
181.5
  0
LINE
  8
0
 10
13.5
 11
13.533
 20
15
 21
15.312
  0
LINE
  8
0
 10
13.533
 11
13.63
 20
15.312
 21
15.61
  0
LINE
  8
0
 10
13.63
 11
13.786
 20
15.61
 21
15.882
  0
LINE
  8
0
 10
13.786
 11
13.996
 20
15.882
 21
16.115
  0
LINE
  8
0
 10
13.996
 11
14.25
 20
16.115
 21
16.299
  0
LINE
  8
0
 10
14.25
 11
14.536
 20
16.299
 21
16.427
  0
LINE
  8
0
 10
14.536
 11
14.843
 20
16.427
 21
16.492
  0
LINE
  8
0
 10
14.843
 11
15.157
 20
16.492
 21
16.492
  0
LINE
  8
0
 10
15.157
 11
15.464
 20
16.492
 21
16.427
  0
LINE
  8
0
 10
15.464
 11
15.75
 20
16.427
 21
16.299
  0
LINE
  8
0
 10
15.75
 11
16.004
 20
16.299
 21
16.115
  0
LINE
  8
0
 10
16.004
 11
16.214
 20
16.115
 21
15.882
  0
LINE
  8
0
 10
16.214
 11
16.37
 20
15.882
 21
15.61
  0
LINE
  8
0
 10
16.37
 11
16.467
 20
15.61
 21
15.312
  0
LINE
  8
0
 10
16.467
 11
16.5
 20
15.312
 21
15
  0
LINE
  8
0
 10
16.5
 11
16.467
 20
15
 21
14.688
  0
LINE
  8
0
 10
16.467
 11
16.37
 20
14.688
 21
14.39
  0
LINE
  8
0
 10
16.37
 11
16.214
 20
14.39
 21
14.118
  0
LINE
  8
0
 10
16.214
 11
16.004
 20
14.118
 21
13.885
  0
LINE
  8
0
 10
16.004
 11
15.75
 20
13.885
 21
13.701
  0
LINE
  8
0
 10
15.75
 11
15.464
 20
13.701
 21
13.573
  0
LINE
  8
0
 10
15.464
 11
15.157
 20
13.573
 21
13.508
  0
LINE
  8
0
 10
15.157
 11
14.843
 20
13.508
 21
13.508
  0
LINE
  8
0
 10
14.843
 11
14.536
 20
13.508
 21
13.573
  0
LINE
  8
0
 10
14.536
 11
14.25
 20
13.573
 21
13.701
  0
LINE
  8
0
 10
14.25
 11
13.996
 20
13.701
 21
13.885
  0
LINE
  8
0
 10
13.996
 11
13.786
 20
13.885
 21
14.118
  0
LINE
  8
0
 10
13.786
 11
13.63
 20
14.118
 21
14.39
  0
LINE
  8
0
 10
13.63
 11
13.533
 20
14.39
 21
14.688
  0
LINE
  8
0
 10
13.533
 11
13.5
 20
14.688
 21
15
  0
LINE
  8
0
 10
13.5
 11
13.533
 20
224
 21
224.312
  0
LINE
  8
0
 10
13.533
 11
13.63
 20
224.312
 21
224.61
  0
LINE
  8
0
 10
13.63
 11
13.786
 20
224.61
 21
224.882
  0
LINE
  8
0
 10
13.786
 11
13.996
 20
224.882
 21
225.115
  0
LINE
  8
0
 10
13.996
 11
14.25
 20
225.115
 21
225.299
  0
LINE
  8
0
 10
14.25
 11
14.536
 20
225.299
 21
225.427
  0
LINE
  8
0
 10
14.536
 11
14.843
 20
225.427
 21
225.492
  0
LINE
  8
0
 10
14.843
 11
15.157
 20
225.492
 21
225.492
  0
LINE
  8
0
 10
15.157
 11
15.464
 20
225.492
 21
225.427
  0
LINE
  8
0
 10
15.464
 11
15.75
 20
225.427
 21
225.299
  0
LINE
  8
0
 10
15.75
 11
16.004
 20
225.299
 21
225.115
  0
LINE
  8
0
 10
16.004
 11
16.214
 20
225.115
 21
224.882
  0
LINE
  8
0
 10
16.214
 11
16.37
 20
224.882
 21
224.61
  0
LINE
  8
0
 10
16.37
 11
16.467
 20
224.61
 21
224.312
  0
LINE
  8
0
 10
16.467
 11
16.5
 20
224.312
 21
224
  0
LINE
  8
0
 10
16.5
 11
16.467
 20
224
 21
223.688
  0
LINE
  8
0
 10
16.467
 11
16.37
 20
223.688
 21
223.39
  0
LINE
  8
0
 10
16.37
 11
16.214
 20
223.39
 21
223.118
  0
LINE
  8
0
 10
16.214
 11
16.004
 20
223.118
 21
222.885
  0
LINE
  8
0
 10
16.004
 11
15.75
 20
222.885
 21
222.701
  0
LINE
  8
0
 10
15.75
 11
15.464
 20
222.701
 21
222.573
  0
LINE
  8
0
 10
15.464
 11
15.157
 20
222.573
 21
222.508
  0
LINE
  8
0
 10
15.157
 11
14.843
 20
222.508
 21
222.508
  0
LINE
  8
0
 10
14.843
 11
14.536
 20
222.508
 21
222.573
  0
LINE
  8
0
 10
14.536
 11
14.25
 20
222.573
 21
222.701
  0
LINE
  8
0
 10
14.25
 11
13.996
 20
222.701
 21
222.885
  0
LINE
  8
0
 10
13.996
 11
13.786
 20
222.885
 21
223.118
  0
LINE
  8
0
 10
13.786
 11
13.63
 20
223.118
 21
223.39
  0
LINE
  8
0
 10
13.63
 11
13.533
 20
223.39
 21
223.688
  0
LINE
  8
0
 10
13.533
 11
13.5
 20
223.688
 21
224
  0
LINE
  8
0
 10
0
 11
0
 20
0
 21
239
  0
LINE
  8
0
 10
0
 11
44.5
 20
239
 21
239
  0
LINE
  8
0
 10
44.5
 11
44.5
 20
239
 21
214
  0
LINE
  8
0
 10
44.5
 11
84.5
 20
214
 21
214
  0
LINE
  8
0
 10
84.5
 11
84.5
 20
214
 21
239
  0
LINE
  8
0
 10
84.5
 11
154.5
 20
239
 21
239
  0
LINE
  8
0
 10
154.5
 11
154.5
 20
239
 21
214
  0
LINE
  8
0
 10
154.5
 11
194.5
 20
214
 21
214
  0
LINE
  8
0
 10
194.5
 11
194.5
 20
214
 21
239
  0
LINE
  8
0
 10
194.5
 11
239
 20
239
 21
239
  0
LINE
  8
0
 10
239
 11
239
 20
239
 21
0
  0
LINE
  8
0
 10
239
 11
194.5
 20
0
 21
0
  0
LINE
  8
0
 10
194.5
 11
194.5
 20
0
 21
25
  0
LINE
  8
0
 10
194.5
 11
154.5
 20
25
 21
25
  0
LINE
  8
0
 10
154.5
 11
154.5
 20
25
 21
0
  0
LINE
  8
0
 10
154.5
 11
84.5
 20
0
 21
0
  0
LINE
  8
0
 10
84.5
 11
84.5
 20
0
 21
25
  0
LINE
  8
0
 10
84.5
 11
44.5
 20
25
 21
25
  0
LINE
  8
0
 10
44.5
 11
44.5
 20
25
 21
0
  0
LINE
  8
0
 10
44.5
 11
0
 20
0
 21
0
  0
LINE
  8
0
 10
222.5
 11
222.533
 20
15
 21
15.312
  0
LINE
  8
0
 10
222.533
 11
222.63
 20
15.312
 21
15.61
  0
LINE
  8
0
 10
222.63
 11
222.786
 20
15.61
 21
15.882
  0
LINE
  8
0
 10
222.786
 11
222.996
 20
15.882
 21
16.115
  0
LINE
  8
0
 10
222.996
 11
223.25
 20
16.115
 21
16.299
  0
LINE
  8
0
 10
223.25
 11
223.536
 20
16.299
 21
16.427
  0
LINE
  8
0
 10
223.536
 11
223.843
 20
16.427
 21
16.492
  0
LINE
  8
0
 10
223.843
 11
224.157
 20
16.492
 21
16.492
  0
LINE
  8
0
 10
224.157
 11
224.464
 20
16.492
 21
16.427
  0
LINE
  8
0
 10
224.464
 11
224.75
 20
16.427
 21
16.299
  0
LINE
  8
0
 10
224.75
 11
225.004
 20
16.299
 21
16.115
  0
LINE
  8
0
 10
225.004
 11
225.214
 20
16.115
 21
15.882
  0
LINE
  8
0
 10
225.214
 11
225.37
 20
15.882
 21
15.61
  0
LINE
  8
0
 10
225.37
 11
225.467
 20
15.61
 21
15.312
  0
LINE
  8
0
 10
225.467
 11
225.5
 20
15.312
 21
15
  0
LINE
  8
0
 10
225.5
 11
225.467
 20
15
 21
14.688
  0
LINE
  8
0
 10
225.467
 11
225.37
 20
14.688
 21
14.39
  0
LINE
  8
0
 10
225.37
 11
225.214
 20
14.39
 21
14.118
  0
LINE
  8
0
 10
225.214
 11
225.004
 20
14.118
 21
13.885
  0
LINE
  8
0
 10
225.004
 11
224.75
 20
13.885
 21
13.701
  0
LINE
  8
0
 10
224.75
 11
224.464
 20
13.701
 21
13.573
  0
LINE
  8
0
 10
224.464
 11
224.157
 20
13.573
 21
13.508
  0
LINE
  8
0
 10
224.157
 11
223.843
 20
13.508
 21
13.508
  0
LINE
  8
0
 10
223.843
 11
223.536
 20
13.508
 21
13.573
  0
LINE
  8
0
 10
223.536
 11
223.25
 20
13.573
 21
13.701
  0
LINE
  8
0
 10
223.25
 11
222.996
 20
13.701
 21
13.885
  0
LINE
  8
0
 10
222.996
 11
222.786
 20
13.885
 21
14.118
  0
LINE
  8
0
 10
222.786
 11
222.63
 20
14.118
 21
14.39
  0
LINE
  8
0
 10
222.63
 11
222.533
 20
14.39
 21
14.688
  0
LINE
  8
0
 10
222.533
 11
222.5
 20
14.688
 21
15
  0
LINE
  8
0
 10
222.5
 11
222.533
 20
224
 21
224.312
  0
LINE
  8
0
 10
222.533
 11
222.63
 20
224.312
 21
224.61
  0
LINE
  8
0
 10
222.63
 11
222.786
 20
224.61
 21
224.882
  0
LINE
  8
0
 10
222.786
 11
222.996
 20
224.882
 21
225.115
  0
LINE
  8
0
 10
222.996
 11
223.25
 20
225.115
 21
225.299
  0
LINE
  8
0
 10
223.25
 11
223.536
 20
225.299
 21
225.427
  0
LINE
  8
0
 10
223.536
 11
223.843
 20
225.427
 21
225.492
  0
LINE
  8
0
 10
223.843
 11
224.157
 20
225.492
 21
225.492
  0
LINE
  8
0
 10
224.157
 11
224.464
 20
225.492
 21
225.427
  0
LINE
  8
0
 10
224.464
 11
224.75
 20
225.427
 21
225.299
  0
LINE
  8
0
 10
224.75
 11
225.004
 20
225.299
 21
225.115
  0
LINE
  8
0
 10
225.004
 11
225.214
 20
225.115
 21
224.882
  0
LINE
  8
0
 10
225.214
 11
225.37
 20
224.882
 21
224.61
  0
LINE
  8
0
 10
225.37
 11
225.467
 20
224.61
 21
224.312
  0
LINE
  8
0
 10
225.467
 11
225.5
 20
224.312
 21
224
  0
LINE
  8
0
 10
225.5
 11
225.467
 20
224
 21
223.688
  0
LINE
  8
0
 10
225.467
 11
225.37
 20
223.688
 21
223.39
  0
LINE
  8
0
 10
225.37
 11
225.214
 20
223.39
 21
223.118
  0
LINE
  8
0
 10
225.214
 11
225.004
 20
223.118
 21
222.885
  0
LINE
  8
0
 10
225.004
 11
224.75
 20
222.885
 21
222.701
  0
LINE
  8
0
 10
224.75
 11
224.464
 20
222.701
 21
222.573
  0
LINE
  8
0
 10
224.464
 11
224.157
 20
222.573
 21
222.508
  0
LINE
  8
0
 10
224.157
 11
223.843
 20
222.508
 21
222.508
  0
LINE
  8
0
 10
223.843
 11
223.536
 20
222.508
 21
222.573
  0
LINE
  8
0
 10
223.536
 11
223.25
 20
222.573
 21
222.701
  0
LINE
  8
0
 10
223.25
 11
222.996
 20
222.701
 21
222.885
  0
LINE
  8
0
 10
222.996
 11
222.786
 20
222.885
 21
223.118
  0
LINE
  8
0
 10
222.786
 11
222.63
 20
223.118
 21
223.39
  0
LINE
  8
0
 10
222.63
 11
222.533
 20
223.39
 21
223.688
  0
LINE
  8
0
 10
222.533
 11
222.5
 20
223.688
 21
224
  0
LINE
  8
0
 10
229.5
 11
229.533
 20
57.5
 21
57.812
  0
LINE
  8
0
 10
229.533
 11
229.63
 20
57.812
 21
58.11
  0
LINE
  8
0
 10
229.63
 11
229.786
 20
58.11
 21
58.382
  0
LINE
  8
0
 10
229.786
 11
229.996
 20
58.382
 21
58.615
  0
LINE
  8
0
 10
229.996
 11
230.25
 20
58.615
 21
58.799
  0
LINE
  8
0
 10
230.25
 11
230.536
 20
58.799
 21
58.927
  0
LINE
  8
0
 10
230.536
 11
230.843
 20
58.927
 21
58.992
  0
LINE
  8
0
 10
230.843
 11
231.157
 20
58.992
 21
58.992
  0
LINE
  8
0
 10
231.157
 11
231.464
 20
58.992
 21
58.927
  0
LINE
  8
0
 10
231.464
 11
231.75
 20
58.927
 21
58.799
  0
LINE
  8
0
 10
231.75
 11
232.004
 20
58.799
 21
58.615
  0
LINE
  8
0
 10
232.004
 11
232.214
 20
58.615
 21
58.382
  0
LINE
  8
0
 10
232.214
 11
232.37
 20
58.382
 21
58.11
  0
LINE
  8
0
 10
232.37
 11
232.467
 20
58.11
 21
57.812
  0
LINE
  8
0
 10
232.467
 11
232.5
 20
57.812
 21
57.5
  0
LINE
  8
0
 10
232.5
 11
232.467
 20
57.5
 21
57.188
  0
LINE
  8
0
 10
232.467
 11
232.37
 20
57.188
 21
56.89
  0
LINE
  8
0
 10
232.37
 11
232.214
 20
56.89
 21
56.618
  0
LINE
  8
0
 10
232.214
 11
232.004
 20
56.618
 21
56.385
  0
LINE
  8
0
 10
232.004
 11
231.75
 20
56.385
 21
56.201
  0
LINE
  8
0
 10
231.75
 11
231.464
 20
56.201
 21
56.073
  0
LINE
  8
0
 10
231.464
 11
231.157
 20
56.073
 21
56.008
  0
LINE
  8
0
 10
231.157
 11
230.843
 20
56.008
 21
56.008
  0
LINE
  8
0
 10
230.843
 11
230.536
 20
56.008
 21
56.073
  0
LINE
  8
0
 10
230.536
 11
230.25
 20
56.073
 21
56.201
  0
LINE
  8
0
 10
230.25
 11
229.996
 20
56.201
 21
56.385
  0
LINE
  8
0
 10
229.996
 11
229.786
 20
56.385
 21
56.618
  0
LINE
  8
0
 10
229.786
 11
229.63
 20
56.618
 21
56.89
  0
LINE
  8
0
 10
229.63
 11
229.533
 20
56.89
 21
57.188
  0
LINE
  8
0
 10
229.533
 11
229.5
 20
57.188
 21
57.5
  0
LINE
  8
0
 10
229.5
 11
229.533
 20
181.5
 21
181.812
  0
LINE
  8
0
 10
229.533
 11
229.63
 20
181.812
 21
182.11
  0
LINE
  8
0
 10
229.63
 11
229.786
 20
182.11
 21
182.382
  0
LINE
  8
0
 10
229.786
 11
229.996
 20
182.382
 21
182.615
  0
LINE
  8
0
 10
229.996
 11
230.25
 20
182.615
 21
182.799
  0
LINE
  8
0
 10
230.25
 11
230.536
 20
182.799
 21
182.927
  0
LINE
  8
0
 10
230.536
 11
230.843
 20
182.927
 21
182.992
  0
LINE
  8
0
 10
230.843
 11
231.157
 20
182.992
 21
182.992
  0
LINE
  8
0
 10
231.157
 11
231.464
 20
182.992
 21
182.927
  0
LINE
  8
0
 10
231.464
 11
231.75
 20
182.927
 21
182.799
  0
LINE
  8
0
 10
231.75
 11
232.004
 20
182.799
 21
182.615
  0
LINE
  8
0
 10
232.004
 11
232.214
 20
182.615
 21
182.382
  0
LINE
  8
0
 10
232.214
 11
232.37
 20
182.382
 21
182.11
  0
LINE
  8
0
 10
232.37
 11
232.467
 20
182.11
 21
181.812
  0
LINE
  8
0
 10
232.467
 11
232.5
 20
181.812
 21
181.5
  0
LINE
  8
0
 10
232.5
 11
232.467
 20
181.5
 21
181.188
  0
LINE
  8
0
 10
232.467
 11
232.37
 20
181.188
 21
180.89
  0
LINE
  8
0
 10
232.37
 11
232.214
 20
180.89
 21
180.618
  0
LINE
  8
0
 10
232.214
 11
232.004
 20
180.618
 21
180.385
  0
LINE
  8
0
 10
232.004
 11
231.75
 20
180.385
 21
180.201
  0
LINE
  8
0
 10
231.75
 11
231.464
 20
180.201
 21
180.073
  0
LINE
  8
0
 10
231.464
 11
231.157
 20
180.073
 21
180.008
  0
LINE
  8
0
 10
231.157
 11
230.843
 20
180.008
 21
180.008
  0
LINE
  8
0
 10
230.843
 11
230.536
 20
180.008
 21
180.073
  0
LINE
  8
0
 10
230.536
 11
230.25
 20
180.073
 21
180.201
  0
LINE
  8
0
 10
230.25
 11
229.996
 20
180.201
 21
180.385
  0
LINE
  8
0
 10
229.996
 11
229.786
 20
180.385
 21
180.618
  0
LINE
  8
0
 10
229.786
 11
229.63
 20
180.618
 21
180.89
  0
LINE
  8
0
 10
229.63
 11
229.533
 20
180.89
 21
181.188
  0
LINE
  8
0
 10
229.533
 11
229.5
 20
181.188
 21
181.5
  0
ENDSEC
  0
SECTION
  2
OBJECTS
  0
DICTIONARY
  0
ENDSEC
  0
EOF
