  0
SECTION
  2
BLOCKS
  0
ENDSEC
  0
SECTION
  2
ENTITIES
  0
LINE
  8
0
 10
0
 11
0
 20
0
 21
140
  0
LINE
  8
0
 10
0
 11
239
 20
140
 21
140
  0
LINE
  8
0
 10
239
 11
239
 20
140
 21
0
  0
LINE
  8
0
 10
239
 11
0
 20
0
 21
0
  0
LINE
  8
0
 10
6.5
 11
6.533
 20
8
 21
8.312
  0
LINE
  8
0
 10
6.533
 11
6.63
 20
8.312
 21
8.61
  0
LINE
  8
0
 10
6.63
 11
6.786
 20
8.61
 21
8.882
  0
LINE
  8
0
 10
6.786
 11
6.996
 20
8.882
 21
9.115
  0
LINE
  8
0
 10
6.996
 11
7.25
 20
9.115
 21
9.299
  0
LINE
  8
0
 10
7.25
 11
7.536
 20
9.299
 21
9.427
  0
LINE
  8
0
 10
7.536
 11
7.843
 20
9.427
 21
9.492
  0
LINE
  8
0
 10
7.843
 11
8.157
 20
9.492
 21
9.492
  0
LINE
  8
0
 10
8.157
 11
8.464
 20
9.492
 21
9.427
  0
LINE
  8
0
 10
8.464
 11
8.75
 20
9.427
 21
9.299
  0
LINE
  8
0
 10
8.75
 11
9.004
 20
9.299
 21
9.115
  0
LINE
  8
0
 10
9.004
 11
9.214
 20
9.115
 21
8.882
  0
LINE
  8
0
 10
9.214
 11
9.37
 20
8.882
 21
8.61
  0
LINE
  8
0
 10
9.37
 11
9.467
 20
8.61
 21
8.312
  0
LINE
  8
0
 10
9.467
 11
9.5
 20
8.312
 21
8
  0
LINE
  8
0
 10
9.5
 11
9.467
 20
8
 21
7.688
  0
LINE
  8
0
 10
9.467
 11
9.37
 20
7.688
 21
7.39
  0
LINE
  8
0
 10
9.37
 11
9.214
 20
7.39
 21
7.118
  0
LINE
  8
0
 10
9.214
 11
9.004
 20
7.118
 21
6.885
  0
LINE
  8
0
 10
9.004
 11
8.75
 20
6.885
 21
6.701
  0
LINE
  8
0
 10
8.75
 11
8.464
 20
6.701
 21
6.573
  0
LINE
  8
0
 10
8.464
 11
8.157
 20
6.573
 21
6.508
  0
LINE
  8
0
 10
8.157
 11
7.843
 20
6.508
 21
6.508
  0
LINE
  8
0
 10
7.843
 11
7.536
 20
6.508
 21
6.573
  0
LINE
  8
0
 10
7.536
 11
7.25
 20
6.573
 21
6.701
  0
LINE
  8
0
 10
7.25
 11
6.996
 20
6.701
 21
6.885
  0
LINE
  8
0
 10
6.996
 11
6.786
 20
6.885
 21
7.118
  0
LINE
  8
0
 10
6.786
 11
6.63
 20
7.118
 21
7.39
  0
LINE
  8
0
 10
6.63
 11
6.533
 20
7.39
 21
7.688
  0
LINE
  8
0
 10
6.533
 11
6.5
 20
7.688
 21
8
  0
LINE
  8
0
 10
6.5
 11
6.533
 20
132
 21
132.312
  0
LINE
  8
0
 10
6.533
 11
6.63
 20
132.312
 21
132.61
  0
LINE
  8
0
 10
6.63
 11
6.786
 20
132.61
 21
132.882
  0
LINE
  8
0
 10
6.786
 11
6.996
 20
132.882
 21
133.115
  0
LINE
  8
0
 10
6.996
 11
7.25
 20
133.115
 21
133.299
  0
LINE
  8
0
 10
7.25
 11
7.536
 20
133.299
 21
133.427
  0
LINE
  8
0
 10
7.536
 11
7.843
 20
133.427
 21
133.492
  0
LINE
  8
0
 10
7.843
 11
8.157
 20
133.492
 21
133.492
  0
LINE
  8
0
 10
8.157
 11
8.464
 20
133.492
 21
133.427
  0
LINE
  8
0
 10
8.464
 11
8.75
 20
133.427
 21
133.299
  0
LINE
  8
0
 10
8.75
 11
9.004
 20
133.299
 21
133.115
  0
LINE
  8
0
 10
9.004
 11
9.214
 20
133.115
 21
132.882
  0
LINE
  8
0
 10
9.214
 11
9.37
 20
132.882
 21
132.61
  0
LINE
  8
0
 10
9.37
 11
9.467
 20
132.61
 21
132.312
  0
LINE
  8
0
 10
9.467
 11
9.5
 20
132.312
 21
132
  0
LINE
  8
0
 10
9.5
 11
9.467
 20
132
 21
131.688
  0
LINE
  8
0
 10
9.467
 11
9.37
 20
131.688
 21
131.39
  0
LINE
  8
0
 10
9.37
 11
9.214
 20
131.39
 21
131.118
  0
LINE
  8
0
 10
9.214
 11
9.004
 20
131.118
 21
130.885
  0
LINE
  8
0
 10
9.004
 11
8.75
 20
130.885
 21
130.701
  0
LINE
  8
0
 10
8.75
 11
8.464
 20
130.701
 21
130.573
  0
LINE
  8
0
 10
8.464
 11
8.157
 20
130.573
 21
130.508
  0
LINE
  8
0
 10
8.157
 11
7.843
 20
130.508
 21
130.508
  0
LINE
  8
0
 10
7.843
 11
7.536
 20
130.508
 21
130.573
  0
LINE
  8
0
 10
7.536
 11
7.25
 20
130.573
 21
130.701
  0
LINE
  8
0
 10
7.25
 11
6.996
 20
130.701
 21
130.885
  0
LINE
  8
0
 10
6.996
 11
6.786
 20
130.885
 21
131.118
  0
LINE
  8
0
 10
6.786
 11
6.63
 20
131.118
 21
131.39
  0
LINE
  8
0
 10
6.63
 11
6.533
 20
131.39
 21
131.688
  0
LINE
  8
0
 10
6.533
 11
6.5
 20
131.688
 21
132
  0
LINE
  8
0
 10
28.5
 11
28.533
 20
5
 21
5.312
  0
LINE
  8
0
 10
28.533
 11
28.63
 20
5.312
 21
5.61
  0
LINE
  8
0
 10
28.63
 11
28.786
 20
5.61
 21
5.882
  0
LINE
  8
0
 10
28.786
 11
28.996
 20
5.882
 21
6.115
  0
LINE
  8
0
 10
28.996
 11
29.25
 20
6.115
 21
6.299
  0
LINE
  8
0
 10
29.25
 11
29.536
 20
6.299
 21
6.427
  0
LINE
  8
0
 10
29.536
 11
29.843
 20
6.427
 21
6.492
  0
LINE
  8
0
 10
29.843
 11
30.157
 20
6.492
 21
6.492
  0
LINE
  8
0
 10
30.157
 11
30.464
 20
6.492
 21
6.427
  0
LINE
  8
0
 10
30.464
 11
30.75
 20
6.427
 21
6.299
  0
LINE
  8
0
 10
30.75
 11
31.004
 20
6.299
 21
6.115
  0
LINE
  8
0
 10
31.004
 11
31.214
 20
6.115
 21
5.882
  0
LINE
  8
0
 10
31.214
 11
31.37
 20
5.882
 21
5.61
  0
LINE
  8
0
 10
31.37
 11
31.467
 20
5.61
 21
5.312
  0
LINE
  8
0
 10
31.467
 11
31.5
 20
5.312
 21
5
  0
LINE
  8
0
 10
31.5
 11
31.467
 20
5
 21
4.688
  0
LINE
  8
0
 10
31.467
 11
31.37
 20
4.688
 21
4.39
  0
LINE
  8
0
 10
31.37
 11
31.214
 20
4.39
 21
4.118
  0
LINE
  8
0
 10
31.214
 11
31.004
 20
4.118
 21
3.885
  0
LINE
  8
0
 10
31.004
 11
30.75
 20
3.885
 21
3.701
  0
LINE
  8
0
 10
30.75
 11
30.464
 20
3.701
 21
3.573
  0
LINE
  8
0
 10
30.464
 11
30.157
 20
3.573
 21
3.508
  0
LINE
  8
0
 10
30.157
 11
29.843
 20
3.508
 21
3.508
  0
LINE
  8
0
 10
29.843
 11
29.536
 20
3.508
 21
3.573
  0
LINE
  8
0
 10
29.536
 11
29.25
 20
3.573
 21
3.701
  0
LINE
  8
0
 10
29.25
 11
28.996
 20
3.701
 21
3.885
  0
LINE
  8
0
 10
28.996
 11
28.786
 20
3.885
 21
4.118
  0
LINE
  8
0
 10
28.786
 11
28.63
 20
4.118
 21
4.39
  0
LINE
  8
0
 10
28.63
 11
28.533
 20
4.39
 21
4.688
  0
LINE
  8
0
 10
28.533
 11
28.5
 20
4.688
 21
5
  0
LINE
  8
0
 10
28.5
 11
28.533
 20
19
 21
19.312
  0
LINE
  8
0
 10
28.533
 11
28.63
 20
19.312
 21
19.61
  0
LINE
  8
0
 10
28.63
 11
28.786
 20
19.61
 21
19.882
  0
LINE
  8
0
 10
28.786
 11
28.996
 20
19.882
 21
20.115
  0
LINE
  8
0
 10
28.996
 11
29.25
 20
20.115
 21
20.299
  0
LINE
  8
0
 10
29.25
 11
29.536
 20
20.299
 21
20.427
  0
LINE
  8
0
 10
29.536
 11
29.843
 20
20.427
 21
20.492
  0
LINE
  8
0
 10
29.843
 11
30.157
 20
20.492
 21
20.492
  0
LINE
  8
0
 10
30.157
 11
30.464
 20
20.492
 21
20.427
  0
LINE
  8
0
 10
30.464
 11
30.75
 20
20.427
 21
20.299
  0
LINE
  8
0
 10
30.75
 11
31.004
 20
20.299
 21
20.115
  0
LINE
  8
0
 10
31.004
 11
31.214
 20
20.115
 21
19.882
  0
LINE
  8
0
 10
31.214
 11
31.37
 20
19.882
 21
19.61
  0
LINE
  8
0
 10
31.37
 11
31.467
 20
19.61
 21
19.312
  0
LINE
  8
0
 10
31.467
 11
31.5
 20
19.312
 21
19
  0
LINE
  8
0
 10
31.5
 11
31.467
 20
19
 21
18.688
  0
LINE
  8
0
 10
31.467
 11
31.37
 20
18.688
 21
18.39
  0
LINE
  8
0
 10
31.37
 11
31.214
 20
18.39
 21
18.118
  0
LINE
  8
0
 10
31.214
 11
31.004
 20
18.118
 21
17.885
  0
LINE
  8
0
 10
31.004
 11
30.75
 20
17.885
 21
17.701
  0
LINE
  8
0
 10
30.75
 11
30.464
 20
17.701
 21
17.573
  0
LINE
  8
0
 10
30.464
 11
30.157
 20
17.573
 21
17.508
  0
LINE
  8
0
 10
30.157
 11
29.843
 20
17.508
 21
17.508
  0
LINE
  8
0
 10
29.843
 11
29.536
 20
17.508
 21
17.573
  0
LINE
  8
0
 10
29.536
 11
29.25
 20
17.573
 21
17.701
  0
LINE
  8
0
 10
29.25
 11
28.996
 20
17.701
 21
17.885
  0
LINE
  8
0
 10
28.996
 11
28.786
 20
17.885
 21
18.118
  0
LINE
  8
0
 10
28.786
 11
28.63
 20
18.118
 21
18.39
  0
LINE
  8
0
 10
28.63
 11
28.533
 20
18.39
 21
18.688
  0
LINE
  8
0
 10
28.533
 11
28.5
 20
18.688
 21
19
  0
LINE
  8
0
 10
28.5
 11
28.533
 20
121
 21
121.312
  0
LINE
  8
0
 10
28.533
 11
28.63
 20
121.312
 21
121.61
  0
LINE
  8
0
 10
28.63
 11
28.786
 20
121.61
 21
121.882
  0
LINE
  8
0
 10
28.786
 11
28.996
 20
121.882
 21
122.115
  0
LINE
  8
0
 10
28.996
 11
29.25
 20
122.115
 21
122.299
  0
LINE
  8
0
 10
29.25
 11
29.536
 20
122.299
 21
122.427
  0
LINE
  8
0
 10
29.536
 11
29.843
 20
122.427
 21
122.492
  0
LINE
  8
0
 10
29.843
 11
30.157
 20
122.492
 21
122.492
  0
LINE
  8
0
 10
30.157
 11
30.464
 20
122.492
 21
122.427
  0
LINE
  8
0
 10
30.464
 11
30.75
 20
122.427
 21
122.299
  0
LINE
  8
0
 10
30.75
 11
31.004
 20
122.299
 21
122.115
  0
LINE
  8
0
 10
31.004
 11
31.214
 20
122.115
 21
121.882
  0
LINE
  8
0
 10
31.214
 11
31.37
 20
121.882
 21
121.61
  0
LINE
  8
0
 10
31.37
 11
31.467
 20
121.61
 21
121.312
  0
LINE
  8
0
 10
31.467
 11
31.5
 20
121.312
 21
121
  0
LINE
  8
0
 10
31.5
 11
31.467
 20
121
 21
120.688
  0
LINE
  8
0
 10
31.467
 11
31.37
 20
120.688
 21
120.39
  0
LINE
  8
0
 10
31.37
 11
31.214
 20
120.39
 21
120.118
  0
LINE
  8
0
 10
31.214
 11
31.004
 20
120.118
 21
119.885
  0
LINE
  8
0
 10
31.004
 11
30.75
 20
119.885
 21
119.701
  0
LINE
  8
0
 10
30.75
 11
30.464
 20
119.701
 21
119.573
  0
LINE
  8
0
 10
30.464
 11
30.157
 20
119.573
 21
119.508
  0
LINE
  8
0
 10
30.157
 11
29.843
 20
119.508
 21
119.508
  0
LINE
  8
0
 10
29.843
 11
29.536
 20
119.508
 21
119.573
  0
LINE
  8
0
 10
29.536
 11
29.25
 20
119.573
 21
119.701
  0
LINE
  8
0
 10
29.25
 11
28.996
 20
119.701
 21
119.885
  0
LINE
  8
0
 10
28.996
 11
28.786
 20
119.885
 21
120.118
  0
LINE
  8
0
 10
28.786
 11
28.63
 20
120.118
 21
120.39
  0
LINE
  8
0
 10
28.63
 11
28.533
 20
120.39
 21
120.688
  0
LINE
  8
0
 10
28.533
 11
28.5
 20
120.688
 21
121
  0
LINE
  8
0
 10
28.5
 11
28.533
 20
135
 21
135.312
  0
LINE
  8
0
 10
28.533
 11
28.63
 20
135.312
 21
135.61
  0
LINE
  8
0
 10
28.63
 11
28.786
 20
135.61
 21
135.882
  0
LINE
  8
0
 10
28.786
 11
28.996
 20
135.882
 21
136.115
  0
LINE
  8
0
 10
28.996
 11
29.25
 20
136.115
 21
136.299
  0
LINE
  8
0
 10
29.25
 11
29.536
 20
136.299
 21
136.427
  0
LINE
  8
0
 10
29.536
 11
29.843
 20
136.427
 21
136.492
  0
LINE
  8
0
 10
29.843
 11
30.157
 20
136.492
 21
136.492
  0
LINE
  8
0
 10
30.157
 11
30.464
 20
136.492
 21
136.427
  0
LINE
  8
0
 10
30.464
 11
30.75
 20
136.427
 21
136.299
  0
LINE
  8
0
 10
30.75
 11
31.004
 20
136.299
 21
136.115
  0
LINE
  8
0
 10
31.004
 11
31.214
 20
136.115
 21
135.882
  0
LINE
  8
0
 10
31.214
 11
31.37
 20
135.882
 21
135.61
  0
LINE
  8
0
 10
31.37
 11
31.467
 20
135.61
 21
135.312
  0
LINE
  8
0
 10
31.467
 11
31.5
 20
135.312
 21
135
  0
LINE
  8
0
 10
31.5
 11
31.467
 20
135
 21
134.688
  0
LINE
  8
0
 10
31.467
 11
31.37
 20
134.688
 21
134.39
  0
LINE
  8
0
 10
31.37
 11
31.214
 20
134.39
 21
134.118
  0
LINE
  8
0
 10
31.214
 11
31.004
 20
134.118
 21
133.885
  0
LINE
  8
0
 10
31.004
 11
30.75
 20
133.885
 21
133.701
  0
LINE
  8
0
 10
30.75
 11
30.464
 20
133.701
 21
133.573
  0
LINE
  8
0
 10
30.464
 11
30.157
 20
133.573
 21
133.508
  0
LINE
  8
0
 10
30.157
 11
29.843
 20
133.508
 21
133.508
  0
LINE
  8
0
 10
29.843
 11
29.536
 20
133.508
 21
133.573
  0
LINE
  8
0
 10
29.536
 11
29.25
 20
133.573
 21
133.701
  0
LINE
  8
0
 10
29.25
 11
28.996
 20
133.701
 21
133.885
  0
LINE
  8
0
 10
28.996
 11
28.786
 20
133.885
 21
134.118
  0
LINE
  8
0
 10
28.786
 11
28.63
 20
134.118
 21
134.39
  0
LINE
  8
0
 10
28.63
 11
28.533
 20
134.39
 21
134.688
  0
LINE
  8
0
 10
28.533
 11
28.5
 20
134.688
 21
135
  0
LINE
  8
0
 10
59.5
 11
59.533
 20
5
 21
5.312
  0
LINE
  8
0
 10
59.533
 11
59.63
 20
5.312
 21
5.61
  0
LINE
  8
0
 10
59.63
 11
59.786
 20
5.61
 21
5.882
  0
LINE
  8
0
 10
59.786
 11
59.996
 20
5.882
 21
6.115
  0
LINE
  8
0
 10
59.996
 11
60.25
 20
6.115
 21
6.299
  0
LINE
  8
0
 10
60.25
 11
60.536
 20
6.299
 21
6.427
  0
LINE
  8
0
 10
60.536
 11
60.843
 20
6.427
 21
6.492
  0
LINE
  8
0
 10
60.843
 11
61.157
 20
6.492
 21
6.492
  0
LINE
  8
0
 10
61.157
 11
61.464
 20
6.492
 21
6.427
  0
LINE
  8
0
 10
61.464
 11
61.75
 20
6.427
 21
6.299
  0
LINE
  8
0
 10
61.75
 11
62.004
 20
6.299
 21
6.115
  0
LINE
  8
0
 10
62.004
 11
62.214
 20
6.115
 21
5.882
  0
LINE
  8
0
 10
62.214
 11
62.37
 20
5.882
 21
5.61
  0
LINE
  8
0
 10
62.37
 11
62.467
 20
5.61
 21
5.312
  0
LINE
  8
0
 10
62.467
 11
62.5
 20
5.312
 21
5
  0
LINE
  8
0
 10
62.5
 11
62.467
 20
5
 21
4.688
  0
LINE
  8
0
 10
62.467
 11
62.37
 20
4.688
 21
4.39
  0
LINE
  8
0
 10
62.37
 11
62.214
 20
4.39
 21
4.118
  0
LINE
  8
0
 10
62.214
 11
62.004
 20
4.118
 21
3.885
  0
LINE
  8
0
 10
62.004
 11
61.75
 20
3.885
 21
3.701
  0
LINE
  8
0
 10
61.75
 11
61.464
 20
3.701
 21
3.573
  0
LINE
  8
0
 10
61.464
 11
61.157
 20
3.573
 21
3.508
  0
LINE
  8
0
 10
61.157
 11
60.843
 20
3.508
 21
3.508
  0
LINE
  8
0
 10
60.843
 11
60.536
 20
3.508
 21
3.573
  0
LINE
  8
0
 10
60.536
 11
60.25
 20
3.573
 21
3.701
  0
LINE
  8
0
 10
60.25
 11
59.996
 20
3.701
 21
3.885
  0
LINE
  8
0
 10
59.996
 11
59.786
 20
3.885
 21
4.118
  0
LINE
  8
0
 10
59.786
 11
59.63
 20
4.118
 21
4.39
  0
LINE
  8
0
 10
59.63
 11
59.533
 20
4.39
 21
4.688
  0
LINE
  8
0
 10
59.533
 11
59.5
 20
4.688
 21
5
  0
LINE
  8
0
 10
59.5
 11
59.533
 20
19
 21
19.312
  0
LINE
  8
0
 10
59.533
 11
59.63
 20
19.312
 21
19.61
  0
LINE
  8
0
 10
59.63
 11
59.786
 20
19.61
 21
19.882
  0
LINE
  8
0
 10
59.786
 11
59.996
 20
19.882
 21
20.115
  0
LINE
  8
0
 10
59.996
 11
60.25
 20
20.115
 21
20.299
  0
LINE
  8
0
 10
60.25
 11
60.536
 20
20.299
 21
20.427
  0
LINE
  8
0
 10
60.536
 11
60.843
 20
20.427
 21
20.492
  0
LINE
  8
0
 10
60.843
 11
61.157
 20
20.492
 21
20.492
  0
LINE
  8
0
 10
61.157
 11
61.464
 20
20.492
 21
20.427
  0
LINE
  8
0
 10
61.464
 11
61.75
 20
20.427
 21
20.299
  0
LINE
  8
0
 10
61.75
 11
62.004
 20
20.299
 21
20.115
  0
LINE
  8
0
 10
62.004
 11
62.214
 20
20.115
 21
19.882
  0
LINE
  8
0
 10
62.214
 11
62.37
 20
19.882
 21
19.61
  0
LINE
  8
0
 10
62.37
 11
62.467
 20
19.61
 21
19.312
  0
LINE
  8
0
 10
62.467
 11
62.5
 20
19.312
 21
19
  0
LINE
  8
0
 10
62.5
 11
62.467
 20
19
 21
18.688
  0
LINE
  8
0
 10
62.467
 11
62.37
 20
18.688
 21
18.39
  0
LINE
  8
0
 10
62.37
 11
62.214
 20
18.39
 21
18.118
  0
LINE
  8
0
 10
62.214
 11
62.004
 20
18.118
 21
17.885
  0
LINE
  8
0
 10
62.004
 11
61.75
 20
17.885
 21
17.701
  0
LINE
  8
0
 10
61.75
 11
61.464
 20
17.701
 21
17.573
  0
LINE
  8
0
 10
61.464
 11
61.157
 20
17.573
 21
17.508
  0
LINE
  8
0
 10
61.157
 11
60.843
 20
17.508
 21
17.508
  0
LINE
  8
0
 10
60.843
 11
60.536
 20
17.508
 21
17.573
  0
LINE
  8
0
 10
60.536
 11
60.25
 20
17.573
 21
17.701
  0
LINE
  8
0
 10
60.25
 11
59.996
 20
17.701
 21
17.885
  0
LINE
  8
0
 10
59.996
 11
59.786
 20
17.885
 21
18.118
  0
LINE
  8
0
 10
59.786
 11
59.63
 20
18.118
 21
18.39
  0
LINE
  8
0
 10
59.63
 11
59.533
 20
18.39
 21
18.688
  0
LINE
  8
0
 10
59.533
 11
59.5
 20
18.688
 21
19
  0
LINE
  8
0
 10
59.5
 11
59.533
 20
121
 21
121.312
  0
LINE
  8
0
 10
59.533
 11
59.63
 20
121.312
 21
121.61
  0
LINE
  8
0
 10
59.63
 11
59.786
 20
121.61
 21
121.882
  0
LINE
  8
0
 10
59.786
 11
59.996
 20
121.882
 21
122.115
  0
LINE
  8
0
 10
59.996
 11
60.25
 20
122.115
 21
122.299
  0
LINE
  8
0
 10
60.25
 11
60.536
 20
122.299
 21
122.427
  0
LINE
  8
0
 10
60.536
 11
60.843
 20
122.427
 21
122.492
  0
LINE
  8
0
 10
60.843
 11
61.157
 20
122.492
 21
122.492
  0
LINE
  8
0
 10
61.157
 11
61.464
 20
122.492
 21
122.427
  0
LINE
  8
0
 10
61.464
 11
61.75
 20
122.427
 21
122.299
  0
LINE
  8
0
 10
61.75
 11
62.004
 20
122.299
 21
122.115
  0
LINE
  8
0
 10
62.004
 11
62.214
 20
122.115
 21
121.882
  0
LINE
  8
0
 10
62.214
 11
62.37
 20
121.882
 21
121.61
  0
LINE
  8
0
 10
62.37
 11
62.467
 20
121.61
 21
121.312
  0
LINE
  8
0
 10
62.467
 11
62.5
 20
121.312
 21
121
  0
LINE
  8
0
 10
62.5
 11
62.467
 20
121
 21
120.688
  0
LINE
  8
0
 10
62.467
 11
62.37
 20
120.688
 21
120.39
  0
LINE
  8
0
 10
62.37
 11
62.214
 20
120.39
 21
120.118
  0
LINE
  8
0
 10
62.214
 11
62.004
 20
120.118
 21
119.885
  0
LINE
  8
0
 10
62.004
 11
61.75
 20
119.885
 21
119.701
  0
LINE
  8
0
 10
61.75
 11
61.464
 20
119.701
 21
119.573
  0
LINE
  8
0
 10
61.464
 11
61.157
 20
119.573
 21
119.508
  0
LINE
  8
0
 10
61.157
 11
60.843
 20
119.508
 21
119.508
  0
LINE
  8
0
 10
60.843
 11
60.536
 20
119.508
 21
119.573
  0
LINE
  8
0
 10
60.536
 11
60.25
 20
119.573
 21
119.701
  0
LINE
  8
0
 10
60.25
 11
59.996
 20
119.701
 21
119.885
  0
LINE
  8
0
 10
59.996
 11
59.786
 20
119.885
 21
120.118
  0
LINE
  8
0
 10
59.786
 11
59.63
 20
120.118
 21
120.39
  0
LINE
  8
0
 10
59.63
 11
59.533
 20
120.39
 21
120.688
  0
LINE
  8
0
 10
59.533
 11
59.5
 20
120.688
 21
121
  0
LINE
  8
0
 10
59.5
 11
59.533
 20
135
 21
135.312
  0
LINE
  8
0
 10
59.533
 11
59.63
 20
135.312
 21
135.61
  0
LINE
  8
0
 10
59.63
 11
59.786
 20
135.61
 21
135.882
  0
LINE
  8
0
 10
59.786
 11
59.996
 20
135.882
 21
136.115
  0
LINE
  8
0
 10
59.996
 11
60.25
 20
136.115
 21
136.299
  0
LINE
  8
0
 10
60.25
 11
60.536
 20
136.299
 21
136.427
  0
LINE
  8
0
 10
60.536
 11
60.843
 20
136.427
 21
136.492
  0
LINE
  8
0
 10
60.843
 11
61.157
 20
136.492
 21
136.492
  0
LINE
  8
0
 10
61.157
 11
61.464
 20
136.492
 21
136.427
  0
LINE
  8
0
 10
61.464
 11
61.75
 20
136.427
 21
136.299
  0
LINE
  8
0
 10
61.75
 11
62.004
 20
136.299
 21
136.115
  0
LINE
  8
0
 10
62.004
 11
62.214
 20
136.115
 21
135.882
  0
LINE
  8
0
 10
62.214
 11
62.37
 20
135.882
 21
135.61
  0
LINE
  8
0
 10
62.37
 11
62.467
 20
135.61
 21
135.312
  0
LINE
  8
0
 10
62.467
 11
62.5
 20
135.312
 21
135
  0
LINE
  8
0
 10
62.5
 11
62.467
 20
135
 21
134.688
  0
LINE
  8
0
 10
62.467
 11
62.37
 20
134.688
 21
134.39
  0
LINE
  8
0
 10
62.37
 11
62.214
 20
134.39
 21
134.118
  0
LINE
  8
0
 10
62.214
 11
62.004
 20
134.118
 21
133.885
  0
LINE
  8
0
 10
62.004
 11
61.75
 20
133.885
 21
133.701
  0
LINE
  8
0
 10
61.75
 11
61.464
 20
133.701
 21
133.573
  0
LINE
  8
0
 10
61.464
 11
61.157
 20
133.573
 21
133.508
  0
LINE
  8
0
 10
61.157
 11
60.843
 20
133.508
 21
133.508
  0
LINE
  8
0
 10
60.843
 11
60.536
 20
133.508
 21
133.573
  0
LINE
  8
0
 10
60.536
 11
60.25
 20
133.573
 21
133.701
  0
LINE
  8
0
 10
60.25
 11
59.996
 20
133.701
 21
133.885
  0
LINE
  8
0
 10
59.996
 11
59.786
 20
133.885
 21
134.118
  0
LINE
  8
0
 10
59.786
 11
59.63
 20
134.118
 21
134.39
  0
LINE
  8
0
 10
59.63
 11
59.533
 20
134.39
 21
134.688
  0
LINE
  8
0
 10
59.533
 11
59.5
 20
134.688
 21
135
  0
LINE
  8
0
 10
127.5
 11
127.533
 20
15
 21
15.312
  0
LINE
  8
0
 10
127.533
 11
127.63
 20
15.312
 21
15.61
  0
LINE
  8
0
 10
127.63
 11
127.786
 20
15.61
 21
15.882
  0
LINE
  8
0
 10
127.786
 11
127.996
 20
15.882
 21
16.115
  0
LINE
  8
0
 10
127.996
 11
128.25
 20
16.115
 21
16.299
  0
LINE
  8
0
 10
128.25
 11
128.536
 20
16.299
 21
16.427
  0
LINE
  8
0
 10
128.536
 11
128.843
 20
16.427
 21
16.492
  0
LINE
  8
0
 10
128.843
 11
129.157
 20
16.492
 21
16.492
  0
LINE
  8
0
 10
129.157
 11
129.464
 20
16.492
 21
16.427
  0
LINE
  8
0
 10
129.464
 11
129.75
 20
16.427
 21
16.299
  0
LINE
  8
0
 10
129.75
 11
130.004
 20
16.299
 21
16.115
  0
LINE
  8
0
 10
130.004
 11
130.214
 20
16.115
 21
15.882
  0
LINE
  8
0
 10
130.214
 11
130.37
 20
15.882
 21
15.61
  0
LINE
  8
0
 10
130.37
 11
130.467
 20
15.61
 21
15.312
  0
LINE
  8
0
 10
130.467
 11
130.5
 20
15.312
 21
15
  0
LINE
  8
0
 10
130.5
 11
130.467
 20
15
 21
14.688
  0
LINE
  8
0
 10
130.467
 11
130.37
 20
14.688
 21
14.39
  0
LINE
  8
0
 10
130.37
 11
130.214
 20
14.39
 21
14.118
  0
LINE
  8
0
 10
130.214
 11
130.004
 20
14.118
 21
13.885
  0
LINE
  8
0
 10
130.004
 11
129.75
 20
13.885
 21
13.701
  0
LINE
  8
0
 10
129.75
 11
129.464
 20
13.701
 21
13.573
  0
LINE
  8
0
 10
129.464
 11
129.157
 20
13.573
 21
13.508
  0
LINE
  8
0
 10
129.157
 11
128.843
 20
13.508
 21
13.508
  0
LINE
  8
0
 10
128.843
 11
128.536
 20
13.508
 21
13.573
  0
LINE
  8
0
 10
128.536
 11
128.25
 20
13.573
 21
13.701
  0
LINE
  8
0
 10
128.25
 11
127.996
 20
13.701
 21
13.885
  0
LINE
  8
0
 10
127.996
 11
127.786
 20
13.885
 21
14.118
  0
LINE
  8
0
 10
127.786
 11
127.63
 20
14.118
 21
14.39
  0
LINE
  8
0
 10
127.63
 11
127.533
 20
14.39
 21
14.688
  0
LINE
  8
0
 10
127.533
 11
127.5
 20
14.688
 21
15
  0
LINE
  8
0
 10
127.5
 11
127.533
 20
125
 21
125.312
  0
LINE
  8
0
 10
127.533
 11
127.63
 20
125.312
 21
125.61
  0
LINE
  8
0
 10
127.63
 11
127.786
 20
125.61
 21
125.882
  0
LINE
  8
0
 10
127.786
 11
127.996
 20
125.882
 21
126.115
  0
LINE
  8
0
 10
127.996
 11
128.25
 20
126.115
 21
126.299
  0
LINE
  8
0
 10
128.25
 11
128.536
 20
126.299
 21
126.427
  0
LINE
  8
0
 10
128.536
 11
128.843
 20
126.427
 21
126.492
  0
LINE
  8
0
 10
128.843
 11
129.157
 20
126.492
 21
126.492
  0
LINE
  8
0
 10
129.157
 11
129.464
 20
126.492
 21
126.427
  0
LINE
  8
0
 10
129.464
 11
129.75
 20
126.427
 21
126.299
  0
LINE
  8
0
 10
129.75
 11
130.004
 20
126.299
 21
126.115
  0
LINE
  8
0
 10
130.004
 11
130.214
 20
126.115
 21
125.882
  0
LINE
  8
0
 10
130.214
 11
130.37
 20
125.882
 21
125.61
  0
LINE
  8
0
 10
130.37
 11
130.467
 20
125.61
 21
125.312
  0
LINE
  8
0
 10
130.467
 11
130.5
 20
125.312
 21
125
  0
LINE
  8
0
 10
130.5
 11
130.467
 20
125
 21
124.688
  0
LINE
  8
0
 10
130.467
 11
130.37
 20
124.688
 21
124.39
  0
LINE
  8
0
 10
130.37
 11
130.214
 20
124.39
 21
124.118
  0
LINE
  8
0
 10
130.214
 11
130.004
 20
124.118
 21
123.885
  0
LINE
  8
0
 10
130.004
 11
129.75
 20
123.885
 21
123.701
  0
LINE
  8
0
 10
129.75
 11
129.464
 20
123.701
 21
123.573
  0
LINE
  8
0
 10
129.464
 11
129.157
 20
123.573
 21
123.508
  0
LINE
  8
0
 10
129.157
 11
128.843
 20
123.508
 21
123.508
  0
LINE
  8
0
 10
128.843
 11
128.536
 20
123.508
 21
123.573
  0
LINE
  8
0
 10
128.536
 11
128.25
 20
123.573
 21
123.701
  0
LINE
  8
0
 10
128.25
 11
127.996
 20
123.701
 21
123.885
  0
LINE
  8
0
 10
127.996
 11
127.786
 20
123.885
 21
124.118
  0
LINE
  8
0
 10
127.786
 11
127.63
 20
124.118
 21
124.39
  0
LINE
  8
0
 10
127.63
 11
127.533
 20
124.39
 21
124.688
  0
LINE
  8
0
 10
127.533
 11
127.5
 20
124.688
 21
125
  0
LINE
  8
0
 10
144.5
 11
144.533
 20
15
 21
15.312
  0
LINE
  8
0
 10
144.533
 11
144.63
 20
15.312
 21
15.61
  0
LINE
  8
0
 10
144.63
 11
144.786
 20
15.61
 21
15.882
  0
LINE
  8
0
 10
144.786
 11
144.996
 20
15.882
 21
16.115
  0
LINE
  8
0
 10
144.996
 11
145.25
 20
16.115
 21
16.299
  0
LINE
  8
0
 10
145.25
 11
145.536
 20
16.299
 21
16.427
  0
LINE
  8
0
 10
145.536
 11
145.843
 20
16.427
 21
16.492
  0
LINE
  8
0
 10
145.843
 11
146.157
 20
16.492
 21
16.492
  0
LINE
  8
0
 10
146.157
 11
146.464
 20
16.492
 21
16.427
  0
LINE
  8
0
 10
146.464
 11
146.75
 20
16.427
 21
16.299
  0
LINE
  8
0
 10
146.75
 11
147.004
 20
16.299
 21
16.115
  0
LINE
  8
0
 10
147.004
 11
147.214
 20
16.115
 21
15.882
  0
LINE
  8
0
 10
147.214
 11
147.37
 20
15.882
 21
15.61
  0
LINE
  8
0
 10
147.37
 11
147.467
 20
15.61
 21
15.312
  0
LINE
  8
0
 10
147.467
 11
147.5
 20
15.312
 21
15
  0
LINE
  8
0
 10
147.5
 11
147.467
 20
15
 21
14.688
  0
LINE
  8
0
 10
147.467
 11
147.37
 20
14.688
 21
14.39
  0
LINE
  8
0
 10
147.37
 11
147.214
 20
14.39
 21
14.118
  0
LINE
  8
0
 10
147.214
 11
147.004
 20
14.118
 21
13.885
  0
LINE
  8
0
 10
147.004
 11
146.75
 20
13.885
 21
13.701
  0
LINE
  8
0
 10
146.75
 11
146.464
 20
13.701
 21
13.573
  0
LINE
  8
0
 10
146.464
 11
146.157
 20
13.573
 21
13.508
  0
LINE
  8
0
 10
146.157
 11
145.843
 20
13.508
 21
13.508
  0
LINE
  8
0
 10
145.843
 11
145.536
 20
13.508
 21
13.573
  0
LINE
  8
0
 10
145.536
 11
145.25
 20
13.573
 21
13.701
  0
LINE
  8
0
 10
145.25
 11
144.996
 20
13.701
 21
13.885
  0
LINE
  8
0
 10
144.996
 11
144.786
 20
13.885
 21
14.118
  0
LINE
  8
0
 10
144.786
 11
144.63
 20
14.118
 21
14.39
  0
LINE
  8
0
 10
144.63
 11
144.533
 20
14.39
 21
14.688
  0
LINE
  8
0
 10
144.533
 11
144.5
 20
14.688
 21
15
  0
LINE
  8
0
 10
144.5
 11
144.533
 20
125
 21
125.312
  0
LINE
  8
0
 10
144.533
 11
144.63
 20
125.312
 21
125.61
  0
LINE
  8
0
 10
144.63
 11
144.786
 20
125.61
 21
125.882
  0
LINE
  8
0
 10
144.786
 11
144.996
 20
125.882
 21
126.115
  0
LINE
  8
0
 10
144.996
 11
145.25
 20
126.115
 21
126.299
  0
LINE
  8
0
 10
145.25
 11
145.536
 20
126.299
 21
126.427
  0
LINE
  8
0
 10
145.536
 11
145.843
 20
126.427
 21
126.492
  0
LINE
  8
0
 10
145.843
 11
146.157
 20
126.492
 21
126.492
  0
LINE
  8
0
 10
146.157
 11
146.464
 20
126.492
 21
126.427
  0
LINE
  8
0
 10
146.464
 11
146.75
 20
126.427
 21
126.299
  0
LINE
  8
0
 10
146.75
 11
147.004
 20
126.299
 21
126.115
  0
LINE
  8
0
 10
147.004
 11
147.214
 20
126.115
 21
125.882
  0
LINE
  8
0
 10
147.214
 11
147.37
 20
125.882
 21
125.61
  0
LINE
  8
0
 10
147.37
 11
147.467
 20
125.61
 21
125.312
  0
LINE
  8
0
 10
147.467
 11
147.5
 20
125.312
 21
125
  0
LINE
  8
0
 10
147.5
 11
147.467
 20
125
 21
124.688
  0
LINE
  8
0
 10
147.467
 11
147.37
 20
124.688
 21
124.39
  0
LINE
  8
0
 10
147.37
 11
147.214
 20
124.39
 21
124.118
  0
LINE
  8
0
 10
147.214
 11
147.004
 20
124.118
 21
123.885
  0
LINE
  8
0
 10
147.004
 11
146.75
 20
123.885
 21
123.701
  0
LINE
  8
0
 10
146.75
 11
146.464
 20
123.701
 21
123.573
  0
LINE
  8
0
 10
146.464
 11
146.157
 20
123.573
 21
123.508
  0
LINE
  8
0
 10
146.157
 11
145.843
 20
123.508
 21
123.508
  0
LINE
  8
0
 10
145.843
 11
145.536
 20
123.508
 21
123.573
  0
LINE
  8
0
 10
145.536
 11
145.25
 20
123.573
 21
123.701
  0
LINE
  8
0
 10
145.25
 11
144.996
 20
123.701
 21
123.885
  0
LINE
  8
0
 10
144.996
 11
144.786
 20
123.885
 21
124.118
  0
LINE
  8
0
 10
144.786
 11
144.63
 20
124.118
 21
124.39
  0
LINE
  8
0
 10
144.63
 11
144.533
 20
124.39
 21
124.688
  0
LINE
  8
0
 10
144.533
 11
144.5
 20
124.688
 21
125
  0
LINE
  8
0
 10
176.5
 11
176.533
 20
5
 21
5.312
  0
LINE
  8
0
 10
176.533
 11
176.63
 20
5.312
 21
5.61
  0
LINE
  8
0
 10
176.63
 11
176.786
 20
5.61
 21
5.882
  0
LINE
  8
0
 10
176.786
 11
176.996
 20
5.882
 21
6.115
  0
LINE
  8
0
 10
176.996
 11
177.25
 20
6.115
 21
6.299
  0
LINE
  8
0
 10
177.25
 11
177.536
 20
6.299
 21
6.427
  0
LINE
  8
0
 10
177.536
 11
177.843
 20
6.427
 21
6.492
  0
LINE
  8
0
 10
177.843
 11
178.157
 20
6.492
 21
6.492
  0
LINE
  8
0
 10
178.157
 11
178.464
 20
6.492
 21
6.427
  0
LINE
  8
0
 10
178.464
 11
178.75
 20
6.427
 21
6.299
  0
LINE
  8
0
 10
178.75
 11
179.004
 20
6.299
 21
6.115
  0
LINE
  8
0
 10
179.004
 11
179.214
 20
6.115
 21
5.882
  0
LINE
  8
0
 10
179.214
 11
179.37
 20
5.882
 21
5.61
  0
LINE
  8
0
 10
179.37
 11
179.467
 20
5.61
 21
5.312
  0
LINE
  8
0
 10
179.467
 11
179.5
 20
5.312
 21
5
  0
LINE
  8
0
 10
179.5
 11
179.467
 20
5
 21
4.688
  0
LINE
  8
0
 10
179.467
 11
179.37
 20
4.688
 21
4.39
  0
LINE
  8
0
 10
179.37
 11
179.214
 20
4.39
 21
4.118
  0
LINE
  8
0
 10
179.214
 11
179.004
 20
4.118
 21
3.885
  0
LINE
  8
0
 10
179.004
 11
178.75
 20
3.885
 21
3.701
  0
LINE
  8
0
 10
178.75
 11
178.464
 20
3.701
 21
3.573
  0
LINE
  8
0
 10
178.464
 11
178.157
 20
3.573
 21
3.508
  0
LINE
  8
0
 10
178.157
 11
177.843
 20
3.508
 21
3.508
  0
LINE
  8
0
 10
177.843
 11
177.536
 20
3.508
 21
3.573
  0
LINE
  8
0
 10
177.536
 11
177.25
 20
3.573
 21
3.701
  0
LINE
  8
0
 10
177.25
 11
176.996
 20
3.701
 21
3.885
  0
LINE
  8
0
 10
176.996
 11
176.786
 20
3.885
 21
4.118
  0
LINE
  8
0
 10
176.786
 11
176.63
 20
4.118
 21
4.39
  0
LINE
  8
0
 10
176.63
 11
176.533
 20
4.39
 21
4.688
  0
LINE
  8
0
 10
176.533
 11
176.5
 20
4.688
 21
5
  0
LINE
  8
0
 10
176.5
 11
176.533
 20
19
 21
19.312
  0
LINE
  8
0
 10
176.533
 11
176.63
 20
19.312
 21
19.61
  0
LINE
  8
0
 10
176.63
 11
176.786
 20
19.61
 21
19.882
  0
LINE
  8
0
 10
176.786
 11
176.996
 20
19.882
 21
20.115
  0
LINE
  8
0
 10
176.996
 11
177.25
 20
20.115
 21
20.299
  0
LINE
  8
0
 10
177.25
 11
177.536
 20
20.299
 21
20.427
  0
LINE
  8
0
 10
177.536
 11
177.843
 20
20.427
 21
20.492
  0
LINE
  8
0
 10
177.843
 11
178.157
 20
20.492
 21
20.492
  0
LINE
  8
0
 10
178.157
 11
178.464
 20
20.492
 21
20.427
  0
LINE
  8
0
 10
178.464
 11
178.75
 20
20.427
 21
20.299
  0
LINE
  8
0
 10
178.75
 11
179.004
 20
20.299
 21
20.115
  0
LINE
  8
0
 10
179.004
 11
179.214
 20
20.115
 21
19.882
  0
LINE
  8
0
 10
179.214
 11
179.37
 20
19.882
 21
19.61
  0
LINE
  8
0
 10
179.37
 11
179.467
 20
19.61
 21
19.312
  0
LINE
  8
0
 10
179.467
 11
179.5
 20
19.312
 21
19
  0
LINE
  8
0
 10
179.5
 11
179.467
 20
19
 21
18.688
  0
LINE
  8
0
 10
179.467
 11
179.37
 20
18.688
 21
18.39
  0
LINE
  8
0
 10
179.37
 11
179.214
 20
18.39
 21
18.118
  0
LINE
  8
0
 10
179.214
 11
179.004
 20
18.118
 21
17.885
  0
LINE
  8
0
 10
179.004
 11
178.75
 20
17.885
 21
17.701
  0
LINE
  8
0
 10
178.75
 11
178.464
 20
17.701
 21
17.573
  0
LINE
  8
0
 10
178.464
 11
178.157
 20
17.573
 21
17.508
  0
LINE
  8
0
 10
178.157
 11
177.843
 20
17.508
 21
17.508
  0
LINE
  8
0
 10
177.843
 11
177.536
 20
17.508
 21
17.573
  0
LINE
  8
0
 10
177.536
 11
177.25
 20
17.573
 21
17.701
  0
LINE
  8
0
 10
177.25
 11
176.996
 20
17.701
 21
17.885
  0
LINE
  8
0
 10
176.996
 11
176.786
 20
17.885
 21
18.118
  0
LINE
  8
0
 10
176.786
 11
176.63
 20
18.118
 21
18.39
  0
LINE
  8
0
 10
176.63
 11
176.533
 20
18.39
 21
18.688
  0
LINE
  8
0
 10
176.533
 11
176.5
 20
18.688
 21
19
  0
LINE
  8
0
 10
176.5
 11
176.533
 20
63
 21
63.312
  0
LINE
  8
0
 10
176.533
 11
176.63
 20
63.312
 21
63.61
  0
LINE
  8
0
 10
176.63
 11
176.786
 20
63.61
 21
63.882
  0
LINE
  8
0
 10
176.786
 11
176.996
 20
63.882
 21
64.115
  0
LINE
  8
0
 10
176.996
 11
177.25
 20
64.115
 21
64.299
  0
LINE
  8
0
 10
177.25
 11
177.536
 20
64.299
 21
64.427
  0
LINE
  8
0
 10
177.536
 11
177.843
 20
64.427
 21
64.492
  0
LINE
  8
0
 10
177.843
 11
178.157
 20
64.492
 21
64.492
  0
LINE
  8
0
 10
178.157
 11
178.464
 20
64.492
 21
64.427
  0
LINE
  8
0
 10
178.464
 11
178.75
 20
64.427
 21
64.299
  0
LINE
  8
0
 10
178.75
 11
179.004
 20
64.299
 21
64.115
  0
LINE
  8
0
 10
179.004
 11
179.214
 20
64.115
 21
63.882
  0
LINE
  8
0
 10
179.214
 11
179.37
 20
63.882
 21
63.61
  0
LINE
  8
0
 10
179.37
 11
179.467
 20
63.61
 21
63.312
  0
LINE
  8
0
 10
179.467
 11
179.5
 20
63.312
 21
63
  0
LINE
  8
0
 10
179.5
 11
179.467
 20
63
 21
62.688
  0
LINE
  8
0
 10
179.467
 11
179.37
 20
62.688
 21
62.39
  0
LINE
  8
0
 10
179.37
 11
179.214
 20
62.39
 21
62.118
  0
LINE
  8
0
 10
179.214
 11
179.004
 20
62.118
 21
61.885
  0
LINE
  8
0
 10
179.004
 11
178.75
 20
61.885
 21
61.701
  0
LINE
  8
0
 10
178.75
 11
178.464
 20
61.701
 21
61.573
  0
LINE
  8
0
 10
178.464
 11
178.157
 20
61.573
 21
61.508
  0
LINE
  8
0
 10
178.157
 11
177.843
 20
61.508
 21
61.508
  0
LINE
  8
0
 10
177.843
 11
177.536
 20
61.508
 21
61.573
  0
LINE
  8
0
 10
177.536
 11
177.25
 20
61.573
 21
61.701
  0
LINE
  8
0
 10
177.25
 11
176.996
 20
61.701
 21
61.885
  0
LINE
  8
0
 10
176.996
 11
176.786
 20
61.885
 21
62.118
  0
LINE
  8
0
 10
176.786
 11
176.63
 20
62.118
 21
62.39
  0
LINE
  8
0
 10
176.63
 11
176.533
 20
62.39
 21
62.688
  0
LINE
  8
0
 10
176.533
 11
176.5
 20
62.688
 21
63
  0
LINE
  8
0
 10
176.5
 11
176.533
 20
77
 21
77.312
  0
LINE
  8
0
 10
176.533
 11
176.63
 20
77.312
 21
77.61
  0
LINE
  8
0
 10
176.63
 11
176.786
 20
77.61
 21
77.882
  0
LINE
  8
0
 10
176.786
 11
176.996
 20
77.882
 21
78.115
  0
LINE
  8
0
 10
176.996
 11
177.25
 20
78.115
 21
78.299
  0
LINE
  8
0
 10
177.25
 11
177.536
 20
78.299
 21
78.427
  0
LINE
  8
0
 10
177.536
 11
177.843
 20
78.427
 21
78.492
  0
LINE
  8
0
 10
177.843
 11
178.157
 20
78.492
 21
78.492
  0
LINE
  8
0
 10
178.157
 11
178.464
 20
78.492
 21
78.427
  0
LINE
  8
0
 10
178.464
 11
178.75
 20
78.427
 21
78.299
  0
LINE
  8
0
 10
178.75
 11
179.004
 20
78.299
 21
78.115
  0
LINE
  8
0
 10
179.004
 11
179.214
 20
78.115
 21
77.882
  0
LINE
  8
0
 10
179.214
 11
179.37
 20
77.882
 21
77.61
  0
LINE
  8
0
 10
179.37
 11
179.467
 20
77.61
 21
77.312
  0
LINE
  8
0
 10
179.467
 11
179.5
 20
77.312
 21
77
  0
LINE
  8
0
 10
179.5
 11
179.467
 20
77
 21
76.688
  0
LINE
  8
0
 10
179.467
 11
179.37
 20
76.688
 21
76.39
  0
LINE
  8
0
 10
179.37
 11
179.214
 20
76.39
 21
76.118
  0
LINE
  8
0
 10
179.214
 11
179.004
 20
76.118
 21
75.885
  0
LINE
  8
0
 10
179.004
 11
178.75
 20
75.885
 21
75.701
  0
LINE
  8
0
 10
178.75
 11
178.464
 20
75.701
 21
75.573
  0
LINE
  8
0
 10
178.464
 11
178.157
 20
75.573
 21
75.508
  0
LINE
  8
0
 10
178.157
 11
177.843
 20
75.508
 21
75.508
  0
LINE
  8
0
 10
177.843
 11
177.536
 20
75.508
 21
75.573
  0
LINE
  8
0
 10
177.536
 11
177.25
 20
75.573
 21
75.701
  0
LINE
  8
0
 10
177.25
 11
176.996
 20
75.701
 21
75.885
  0
LINE
  8
0
 10
176.996
 11
176.786
 20
75.885
 21
76.118
  0
LINE
  8
0
 10
176.786
 11
176.63
 20
76.118
 21
76.39
  0
LINE
  8
0
 10
176.63
 11
176.533
 20
76.39
 21
76.688
  0
LINE
  8
0
 10
176.533
 11
176.5
 20
76.688
 21
77
  0
LINE
  8
0
 10
176.5
 11
176.533
 20
121
 21
121.312
  0
LINE
  8
0
 10
176.533
 11
176.63
 20
121.312
 21
121.61
  0
LINE
  8
0
 10
176.63
 11
176.786
 20
121.61
 21
121.882
  0
LINE
  8
0
 10
176.786
 11
176.996
 20
121.882
 21
122.115
  0
LINE
  8
0
 10
176.996
 11
177.25
 20
122.115
 21
122.299
  0
LINE
  8
0
 10
177.25
 11
177.536
 20
122.299
 21
122.427
  0
LINE
  8
0
 10
177.536
 11
177.843
 20
122.427
 21
122.492
  0
LINE
  8
0
 10
177.843
 11
178.157
 20
122.492
 21
122.492
  0
LINE
  8
0
 10
178.157
 11
178.464
 20
122.492
 21
122.427
  0
LINE
  8
0
 10
178.464
 11
178.75
 20
122.427
 21
122.299
  0
LINE
  8
0
 10
178.75
 11
179.004
 20
122.299
 21
122.115
  0
LINE
  8
0
 10
179.004
 11
179.214
 20
122.115
 21
121.882
  0
LINE
  8
0
 10
179.214
 11
179.37
 20
121.882
 21
121.61
  0
LINE
  8
0
 10
179.37
 11
179.467
 20
121.61
 21
121.312
  0
LINE
  8
0
 10
179.467
 11
179.5
 20
121.312
 21
121
  0
LINE
  8
0
 10
179.5
 11
179.467
 20
121
 21
120.688
  0
LINE
  8
0
 10
179.467
 11
179.37
 20
120.688
 21
120.39
  0
LINE
  8
0
 10
179.37
 11
179.214
 20
120.39
 21
120.118
  0
LINE
  8
0
 10
179.214
 11
179.004
 20
120.118
 21
119.885
  0
LINE
  8
0
 10
179.004
 11
178.75
 20
119.885
 21
119.701
  0
LINE
  8
0
 10
178.75
 11
178.464
 20
119.701
 21
119.573
  0
LINE
  8
0
 10
178.464
 11
178.157
 20
119.573
 21
119.508
  0
LINE
  8
0
 10
178.157
 11
177.843
 20
119.508
 21
119.508
  0
LINE
  8
0
 10
177.843
 11
177.536
 20
119.508
 21
119.573
  0
LINE
  8
0
 10
177.536
 11
177.25
 20
119.573
 21
119.701
  0
LINE
  8
0
 10
177.25
 11
176.996
 20
119.701
 21
119.885
  0
LINE
  8
0
 10
176.996
 11
176.786
 20
119.885
 21
120.118
  0
LINE
  8
0
 10
176.786
 11
176.63
 20
120.118
 21
120.39
  0
LINE
  8
0
 10
176.63
 11
176.533
 20
120.39
 21
120.688
  0
LINE
  8
0
 10
176.533
 11
176.5
 20
120.688
 21
121
  0
LINE
  8
0
 10
176.5
 11
176.533
 20
135
 21
135.312
  0
LINE
  8
0
 10
176.533
 11
176.63
 20
135.312
 21
135.61
  0
LINE
  8
0
 10
176.63
 11
176.786
 20
135.61
 21
135.882
  0
LINE
  8
0
 10
176.786
 11
176.996
 20
135.882
 21
136.115
  0
LINE
  8
0
 10
176.996
 11
177.25
 20
136.115
 21
136.299
  0
LINE
  8
0
 10
177.25
 11
177.536
 20
136.299
 21
136.427
  0
LINE
  8
0
 10
177.536
 11
177.843
 20
136.427
 21
136.492
  0
LINE
  8
0
 10
177.843
 11
178.157
 20
136.492
 21
136.492
  0
LINE
  8
0
 10
178.157
 11
178.464
 20
136.492
 21
136.427
  0
LINE
  8
0
 10
178.464
 11
178.75
 20
136.427
 21
136.299
  0
LINE
  8
0
 10
178.75
 11
179.004
 20
136.299
 21
136.115
  0
LINE
  8
0
 10
179.004
 11
179.214
 20
136.115
 21
135.882
  0
LINE
  8
0
 10
179.214
 11
179.37
 20
135.882
 21
135.61
  0
LINE
  8
0
 10
179.37
 11
179.467
 20
135.61
 21
135.312
  0
LINE
  8
0
 10
179.467
 11
179.5
 20
135.312
 21
135
  0
LINE
  8
0
 10
179.5
 11
179.467
 20
135
 21
134.688
  0
LINE
  8
0
 10
179.467
 11
179.37
 20
134.688
 21
134.39
  0
LINE
  8
0
 10
179.37
 11
179.214
 20
134.39
 21
134.118
  0
LINE
  8
0
 10
179.214
 11
179.004
 20
134.118
 21
133.885
  0
LINE
  8
0
 10
179.004
 11
178.75
 20
133.885
 21
133.701
  0
LINE
  8
0
 10
178.75
 11
178.464
 20
133.701
 21
133.573
  0
LINE
  8
0
 10
178.464
 11
178.157
 20
133.573
 21
133.508
  0
LINE
  8
0
 10
178.157
 11
177.843
 20
133.508
 21
133.508
  0
LINE
  8
0
 10
177.843
 11
177.536
 20
133.508
 21
133.573
  0
LINE
  8
0
 10
177.536
 11
177.25
 20
133.573
 21
133.701
  0
LINE
  8
0
 10
177.25
 11
176.996
 20
133.701
 21
133.885
  0
LINE
  8
0
 10
176.996
 11
176.786
 20
133.885
 21
134.118
  0
LINE
  8
0
 10
176.786
 11
176.63
 20
134.118
 21
134.39
  0
LINE
  8
0
 10
176.63
 11
176.533
 20
134.39
 21
134.688
  0
LINE
  8
0
 10
176.533
 11
176.5
 20
134.688
 21
135
  0
LINE
  8
0
 10
207.5
 11
207.533
 20
5
 21
5.312
  0
LINE
  8
0
 10
207.533
 11
207.63
 20
5.312
 21
5.61
  0
LINE
  8
0
 10
207.63
 11
207.786
 20
5.61
 21
5.882
  0
LINE
  8
0
 10
207.786
 11
207.996
 20
5.882
 21
6.115
  0
LINE
  8
0
 10
207.996
 11
208.25
 20
6.115
 21
6.299
  0
LINE
  8
0
 10
208.25
 11
208.536
 20
6.299
 21
6.427
  0
LINE
  8
0
 10
208.536
 11
208.843
 20
6.427
 21
6.492
  0
LINE
  8
0
 10
208.843
 11
209.157
 20
6.492
 21
6.492
  0
LINE
  8
0
 10
209.157
 11
209.464
 20
6.492
 21
6.427
  0
LINE
  8
0
 10
209.464
 11
209.75
 20
6.427
 21
6.299
  0
LINE
  8
0
 10
209.75
 11
210.004
 20
6.299
 21
6.115
  0
LINE
  8
0
 10
210.004
 11
210.214
 20
6.115
 21
5.882
  0
LINE
  8
0
 10
210.214
 11
210.37
 20
5.882
 21
5.61
  0
LINE
  8
0
 10
210.37
 11
210.467
 20
5.61
 21
5.312
  0
LINE
  8
0
 10
210.467
 11
210.5
 20
5.312
 21
5
  0
LINE
  8
0
 10
210.5
 11
210.467
 20
5
 21
4.688
  0
LINE
  8
0
 10
210.467
 11
210.37
 20
4.688
 21
4.39
  0
LINE
  8
0
 10
210.37
 11
210.214
 20
4.39
 21
4.118
  0
LINE
  8
0
 10
210.214
 11
210.004
 20
4.118
 21
3.885
  0
LINE
  8
0
 10
210.004
 11
209.75
 20
3.885
 21
3.701
  0
LINE
  8
0
 10
209.75
 11
209.464
 20
3.701
 21
3.573
  0
LINE
  8
0
 10
209.464
 11
209.157
 20
3.573
 21
3.508
  0
LINE
  8
0
 10
209.157
 11
208.843
 20
3.508
 21
3.508
  0
LINE
  8
0
 10
208.843
 11
208.536
 20
3.508
 21
3.573
  0
LINE
  8
0
 10
208.536
 11
208.25
 20
3.573
 21
3.701
  0
LINE
  8
0
 10
208.25
 11
207.996
 20
3.701
 21
3.885
  0
LINE
  8
0
 10
207.996
 11
207.786
 20
3.885
 21
4.118
  0
LINE
  8
0
 10
207.786
 11
207.63
 20
4.118
 21
4.39
  0
LINE
  8
0
 10
207.63
 11
207.533
 20
4.39
 21
4.688
  0
LINE
  8
0
 10
207.533
 11
207.5
 20
4.688
 21
5
  0
LINE
  8
0
 10
207.5
 11
207.533
 20
19
 21
19.312
  0
LINE
  8
0
 10
207.533
 11
207.63
 20
19.312
 21
19.61
  0
LINE
  8
0
 10
207.63
 11
207.786
 20
19.61
 21
19.882
  0
LINE
  8
0
 10
207.786
 11
207.996
 20
19.882
 21
20.115
  0
LINE
  8
0
 10
207.996
 11
208.25
 20
20.115
 21
20.299
  0
LINE
  8
0
 10
208.25
 11
208.536
 20
20.299
 21
20.427
  0
LINE
  8
0
 10
208.536
 11
208.843
 20
20.427
 21
20.492
  0
LINE
  8
0
 10
208.843
 11
209.157
 20
20.492
 21
20.492
  0
LINE
  8
0
 10
209.157
 11
209.464
 20
20.492
 21
20.427
  0
LINE
  8
0
 10
209.464
 11
209.75
 20
20.427
 21
20.299
  0
LINE
  8
0
 10
209.75
 11
210.004
 20
20.299
 21
20.115
  0
LINE
  8
0
 10
210.004
 11
210.214
 20
20.115
 21
19.882
  0
LINE
  8
0
 10
210.214
 11
210.37
 20
19.882
 21
19.61
  0
LINE
  8
0
 10
210.37
 11
210.467
 20
19.61
 21
19.312
  0
LINE
  8
0
 10
210.467
 11
210.5
 20
19.312
 21
19
  0
LINE
  8
0
 10
210.5
 11
210.467
 20
19
 21
18.688
  0
LINE
  8
0
 10
210.467
 11
210.37
 20
18.688
 21
18.39
  0
LINE
  8
0
 10
210.37
 11
210.214
 20
18.39
 21
18.118
  0
LINE
  8
0
 10
210.214
 11
210.004
 20
18.118
 21
17.885
  0
LINE
  8
0
 10
210.004
 11
209.75
 20
17.885
 21
17.701
  0
LINE
  8
0
 10
209.75
 11
209.464
 20
17.701
 21
17.573
  0
LINE
  8
0
 10
209.464
 11
209.157
 20
17.573
 21
17.508
  0
LINE
  8
0
 10
209.157
 11
208.843
 20
17.508
 21
17.508
  0
LINE
  8
0
 10
208.843
 11
208.536
 20
17.508
 21
17.573
  0
LINE
  8
0
 10
208.536
 11
208.25
 20
17.573
 21
17.701
  0
LINE
  8
0
 10
208.25
 11
207.996
 20
17.701
 21
17.885
  0
LINE
  8
0
 10
207.996
 11
207.786
 20
17.885
 21
18.118
  0
LINE
  8
0
 10
207.786
 11
207.63
 20
18.118
 21
18.39
  0
LINE
  8
0
 10
207.63
 11
207.533
 20
18.39
 21
18.688
  0
LINE
  8
0
 10
207.533
 11
207.5
 20
18.688
 21
19
  0
LINE
  8
0
 10
207.5
 11
207.533
 20
63
 21
63.312
  0
LINE
  8
0
 10
207.533
 11
207.63
 20
63.312
 21
63.61
  0
LINE
  8
0
 10
207.63
 11
207.786
 20
63.61
 21
63.882
  0
LINE
  8
0
 10
207.786
 11
207.996
 20
63.882
 21
64.115
  0
LINE
  8
0
 10
207.996
 11
208.25
 20
64.115
 21
64.299
  0
LINE
  8
0
 10
208.25
 11
208.536
 20
64.299
 21
64.427
  0
LINE
  8
0
 10
208.536
 11
208.843
 20
64.427
 21
64.492
  0
LINE
  8
0
 10
208.843
 11
209.157
 20
64.492
 21
64.492
  0
LINE
  8
0
 10
209.157
 11
209.464
 20
64.492
 21
64.427
  0
LINE
  8
0
 10
209.464
 11
209.75
 20
64.427
 21
64.299
  0
LINE
  8
0
 10
209.75
 11
210.004
 20
64.299
 21
64.115
  0
LINE
  8
0
 10
210.004
 11
210.214
 20
64.115
 21
63.882
  0
LINE
  8
0
 10
210.214
 11
210.37
 20
63.882
 21
63.61
  0
LINE
  8
0
 10
210.37
 11
210.467
 20
63.61
 21
63.312
  0
LINE
  8
0
 10
210.467
 11
210.5
 20
63.312
 21
63
  0
LINE
  8
0
 10
210.5
 11
210.467
 20
63
 21
62.688
  0
LINE
  8
0
 10
210.467
 11
210.37
 20
62.688
 21
62.39
  0
LINE
  8
0
 10
210.37
 11
210.214
 20
62.39
 21
62.118
  0
LINE
  8
0
 10
210.214
 11
210.004
 20
62.118
 21
61.885
  0
LINE
  8
0
 10
210.004
 11
209.75
 20
61.885
 21
61.701
  0
LINE
  8
0
 10
209.75
 11
209.464
 20
61.701
 21
61.573
  0
LINE
  8
0
 10
209.464
 11
209.157
 20
61.573
 21
61.508
  0
LINE
  8
0
 10
209.157
 11
208.843
 20
61.508
 21
61.508
  0
LINE
  8
0
 10
208.843
 11
208.536
 20
61.508
 21
61.573
  0
LINE
  8
0
 10
208.536
 11
208.25
 20
61.573
 21
61.701
  0
LINE
  8
0
 10
208.25
 11
207.996
 20
61.701
 21
61.885
  0
LINE
  8
0
 10
207.996
 11
207.786
 20
61.885
 21
62.118
  0
LINE
  8
0
 10
207.786
 11
207.63
 20
62.118
 21
62.39
  0
LINE
  8
0
 10
207.63
 11
207.533
 20
62.39
 21
62.688
  0
LINE
  8
0
 10
207.533
 11
207.5
 20
62.688
 21
63
  0
LINE
  8
0
 10
207.5
 11
207.533
 20
77
 21
77.312
  0
LINE
  8
0
 10
207.533
 11
207.63
 20
77.312
 21
77.61
  0
LINE
  8
0
 10
207.63
 11
207.786
 20
77.61
 21
77.882
  0
LINE
  8
0
 10
207.786
 11
207.996
 20
77.882
 21
78.115
  0
LINE
  8
0
 10
207.996
 11
208.25
 20
78.115
 21
78.299
  0
LINE
  8
0
 10
208.25
 11
208.536
 20
78.299
 21
78.427
  0
LINE
  8
0
 10
208.536
 11
208.843
 20
78.427
 21
78.492
  0
LINE
  8
0
 10
208.843
 11
209.157
 20
78.492
 21
78.492
  0
LINE
  8
0
 10
209.157
 11
209.464
 20
78.492
 21
78.427
  0
LINE
  8
0
 10
209.464
 11
209.75
 20
78.427
 21
78.299
  0
LINE
  8
0
 10
209.75
 11
210.004
 20
78.299
 21
78.115
  0
LINE
  8
0
 10
210.004
 11
210.214
 20
78.115
 21
77.882
  0
LINE
  8
0
 10
210.214
 11
210.37
 20
77.882
 21
77.61
  0
LINE
  8
0
 10
210.37
 11
210.467
 20
77.61
 21
77.312
  0
LINE
  8
0
 10
210.467
 11
210.5
 20
77.312
 21
77
  0
LINE
  8
0
 10
210.5
 11
210.467
 20
77
 21
76.688
  0
LINE
  8
0
 10
210.467
 11
210.37
 20
76.688
 21
76.39
  0
LINE
  8
0
 10
210.37
 11
210.214
 20
76.39
 21
76.118
  0
LINE
  8
0
 10
210.214
 11
210.004
 20
76.118
 21
75.885
  0
LINE
  8
0
 10
210.004
 11
209.75
 20
75.885
 21
75.701
  0
LINE
  8
0
 10
209.75
 11
209.464
 20
75.701
 21
75.573
  0
LINE
  8
0
 10
209.464
 11
209.157
 20
75.573
 21
75.508
  0
LINE
  8
0
 10
209.157
 11
208.843
 20
75.508
 21
75.508
  0
LINE
  8
0
 10
208.843
 11
208.536
 20
75.508
 21
75.573
  0
LINE
  8
0
 10
208.536
 11
208.25
 20
75.573
 21
75.701
  0
LINE
  8
0
 10
208.25
 11
207.996
 20
75.701
 21
75.885
  0
LINE
  8
0
 10
207.996
 11
207.786
 20
75.885
 21
76.118
  0
LINE
  8
0
 10
207.786
 11
207.63
 20
76.118
 21
76.39
  0
LINE
  8
0
 10
207.63
 11
207.533
 20
76.39
 21
76.688
  0
LINE
  8
0
 10
207.533
 11
207.5
 20
76.688
 21
77
  0
LINE
  8
0
 10
207.5
 11
207.533
 20
121
 21
121.312
  0
LINE
  8
0
 10
207.533
 11
207.63
 20
121.312
 21
121.61
  0
LINE
  8
0
 10
207.63
 11
207.786
 20
121.61
 21
121.882
  0
LINE
  8
0
 10
207.786
 11
207.996
 20
121.882
 21
122.115
  0
LINE
  8
0
 10
207.996
 11
208.25
 20
122.115
 21
122.299
  0
LINE
  8
0
 10
208.25
 11
208.536
 20
122.299
 21
122.427
  0
LINE
  8
0
 10
208.536
 11
208.843
 20
122.427
 21
122.492
  0
LINE
  8
0
 10
208.843
 11
209.157
 20
122.492
 21
122.492
  0
LINE
  8
0
 10
209.157
 11
209.464
 20
122.492
 21
122.427
  0
LINE
  8
0
 10
209.464
 11
209.75
 20
122.427
 21
122.299
  0
LINE
  8
0
 10
209.75
 11
210.004
 20
122.299
 21
122.115
  0
LINE
  8
0
 10
210.004
 11
210.214
 20
122.115
 21
121.882
  0
LINE
  8
0
 10
210.214
 11
210.37
 20
121.882
 21
121.61
  0
LINE
  8
0
 10
210.37
 11
210.467
 20
121.61
 21
121.312
  0
LINE
  8
0
 10
210.467
 11
210.5
 20
121.312
 21
121
  0
LINE
  8
0
 10
210.5
 11
210.467
 20
121
 21
120.688
  0
LINE
  8
0
 10
210.467
 11
210.37
 20
120.688
 21
120.39
  0
LINE
  8
0
 10
210.37
 11
210.214
 20
120.39
 21
120.118
  0
LINE
  8
0
 10
210.214
 11
210.004
 20
120.118
 21
119.885
  0
LINE
  8
0
 10
210.004
 11
209.75
 20
119.885
 21
119.701
  0
LINE
  8
0
 10
209.75
 11
209.464
 20
119.701
 21
119.573
  0
LINE
  8
0
 10
209.464
 11
209.157
 20
119.573
 21
119.508
  0
LINE
  8
0
 10
209.157
 11
208.843
 20
119.508
 21
119.508
  0
LINE
  8
0
 10
208.843
 11
208.536
 20
119.508
 21
119.573
  0
LINE
  8
0
 10
208.536
 11
208.25
 20
119.573
 21
119.701
  0
LINE
  8
0
 10
208.25
 11
207.996
 20
119.701
 21
119.885
  0
LINE
  8
0
 10
207.996
 11
207.786
 20
119.885
 21
120.118
  0
LINE
  8
0
 10
207.786
 11
207.63
 20
120.118
 21
120.39
  0
LINE
  8
0
 10
207.63
 11
207.533
 20
120.39
 21
120.688
  0
LINE
  8
0
 10
207.533
 11
207.5
 20
120.688
 21
121
  0
LINE
  8
0
 10
207.5
 11
207.533
 20
135
 21
135.312
  0
LINE
  8
0
 10
207.533
 11
207.63
 20
135.312
 21
135.61
  0
LINE
  8
0
 10
207.63
 11
207.786
 20
135.61
 21
135.882
  0
LINE
  8
0
 10
207.786
 11
207.996
 20
135.882
 21
136.115
  0
LINE
  8
0
 10
207.996
 11
208.25
 20
136.115
 21
136.299
  0
LINE
  8
0
 10
208.25
 11
208.536
 20
136.299
 21
136.427
  0
LINE
  8
0
 10
208.536
 11
208.843
 20
136.427
 21
136.492
  0
LINE
  8
0
 10
208.843
 11
209.157
 20
136.492
 21
136.492
  0
LINE
  8
0
 10
209.157
 11
209.464
 20
136.492
 21
136.427
  0
LINE
  8
0
 10
209.464
 11
209.75
 20
136.427
 21
136.299
  0
LINE
  8
0
 10
209.75
 11
210.004
 20
136.299
 21
136.115
  0
LINE
  8
0
 10
210.004
 11
210.214
 20
136.115
 21
135.882
  0
LINE
  8
0
 10
210.214
 11
210.37
 20
135.882
 21
135.61
  0
LINE
  8
0
 10
210.37
 11
210.467
 20
135.61
 21
135.312
  0
LINE
  8
0
 10
210.467
 11
210.5
 20
135.312
 21
135
  0
LINE
  8
0
 10
210.5
 11
210.467
 20
135
 21
134.688
  0
LINE
  8
0
 10
210.467
 11
210.37
 20
134.688
 21
134.39
  0
LINE
  8
0
 10
210.37
 11
210.214
 20
134.39
 21
134.118
  0
LINE
  8
0
 10
210.214
 11
210.004
 20
134.118
 21
133.885
  0
LINE
  8
0
 10
210.004
 11
209.75
 20
133.885
 21
133.701
  0
LINE
  8
0
 10
209.75
 11
209.464
 20
133.701
 21
133.573
  0
LINE
  8
0
 10
209.464
 11
209.157
 20
133.573
 21
133.508
  0
LINE
  8
0
 10
209.157
 11
208.843
 20
133.508
 21
133.508
  0
LINE
  8
0
 10
208.843
 11
208.536
 20
133.508
 21
133.573
  0
LINE
  8
0
 10
208.536
 11
208.25
 20
133.573
 21
133.701
  0
LINE
  8
0
 10
208.25
 11
207.996
 20
133.701
 21
133.885
  0
LINE
  8
0
 10
207.996
 11
207.786
 20
133.885
 21
134.118
  0
LINE
  8
0
 10
207.786
 11
207.63
 20
134.118
 21
134.39
  0
LINE
  8
0
 10
207.63
 11
207.533
 20
134.39
 21
134.688
  0
LINE
  8
0
 10
207.533
 11
207.5
 20
134.688
 21
135
  0
LINE
  8
0
 10
229.5
 11
229.533
 20
8
 21
8.312
  0
LINE
  8
0
 10
229.533
 11
229.63
 20
8.312
 21
8.61
  0
LINE
  8
0
 10
229.63
 11
229.786
 20
8.61
 21
8.882
  0
LINE
  8
0
 10
229.786
 11
229.996
 20
8.882
 21
9.115
  0
LINE
  8
0
 10
229.996
 11
230.25
 20
9.115
 21
9.299
  0
LINE
  8
0
 10
230.25
 11
230.536
 20
9.299
 21
9.427
  0
LINE
  8
0
 10
230.536
 11
230.843
 20
9.427
 21
9.492
  0
LINE
  8
0
 10
230.843
 11
231.157
 20
9.492
 21
9.492
  0
LINE
  8
0
 10
231.157
 11
231.464
 20
9.492
 21
9.427
  0
LINE
  8
0
 10
231.464
 11
231.75
 20
9.427
 21
9.299
  0
LINE
  8
0
 10
231.75
 11
232.004
 20
9.299
 21
9.115
  0
LINE
  8
0
 10
232.004
 11
232.214
 20
9.115
 21
8.882
  0
LINE
  8
0
 10
232.214
 11
232.37
 20
8.882
 21
8.61
  0
LINE
  8
0
 10
232.37
 11
232.467
 20
8.61
 21
8.312
  0
LINE
  8
0
 10
232.467
 11
232.5
 20
8.312
 21
8
  0
LINE
  8
0
 10
232.5
 11
232.467
 20
8
 21
7.688
  0
LINE
  8
0
 10
232.467
 11
232.37
 20
7.688
 21
7.39
  0
LINE
  8
0
 10
232.37
 11
232.214
 20
7.39
 21
7.118
  0
LINE
  8
0
 10
232.214
 11
232.004
 20
7.118
 21
6.885
  0
LINE
  8
0
 10
232.004
 11
231.75
 20
6.885
 21
6.701
  0
LINE
  8
0
 10
231.75
 11
231.464
 20
6.701
 21
6.573
  0
LINE
  8
0
 10
231.464
 11
231.157
 20
6.573
 21
6.508
  0
LINE
  8
0
 10
231.157
 11
230.843
 20
6.508
 21
6.508
  0
LINE
  8
0
 10
230.843
 11
230.536
 20
6.508
 21
6.573
  0
LINE
  8
0
 10
230.536
 11
230.25
 20
6.573
 21
6.701
  0
LINE
  8
0
 10
230.25
 11
229.996
 20
6.701
 21
6.885
  0
LINE
  8
0
 10
229.996
 11
229.786
 20
6.885
 21
7.118
  0
LINE
  8
0
 10
229.786
 11
229.63
 20
7.118
 21
7.39
  0
LINE
  8
0
 10
229.63
 11
229.533
 20
7.39
 21
7.688
  0
LINE
  8
0
 10
229.533
 11
229.5
 20
7.688
 21
8
  0
LINE
  8
0
 10
229.5
 11
229.533
 20
132
 21
132.312
  0
LINE
  8
0
 10
229.533
 11
229.63
 20
132.312
 21
132.61
  0
LINE
  8
0
 10
229.63
 11
229.786
 20
132.61
 21
132.882
  0
LINE
  8
0
 10
229.786
 11
229.996
 20
132.882
 21
133.115
  0
LINE
  8
0
 10
229.996
 11
230.25
 20
133.115
 21
133.299
  0
LINE
  8
0
 10
230.25
 11
230.536
 20
133.299
 21
133.427
  0
LINE
  8
0
 10
230.536
 11
230.843
 20
133.427
 21
133.492
  0
LINE
  8
0
 10
230.843
 11
231.157
 20
133.492
 21
133.492
  0
LINE
  8
0
 10
231.157
 11
231.464
 20
133.492
 21
133.427
  0
LINE
  8
0
 10
231.464
 11
231.75
 20
133.427
 21
133.299
  0
LINE
  8
0
 10
231.75
 11
232.004
 20
133.299
 21
133.115
  0
LINE
  8
0
 10
232.004
 11
232.214
 20
133.115
 21
132.882
  0
LINE
  8
0
 10
232.214
 11
232.37
 20
132.882
 21
132.61
  0
LINE
  8
0
 10
232.37
 11
232.467
 20
132.61
 21
132.312
  0
LINE
  8
0
 10
232.467
 11
232.5
 20
132.312
 21
132
  0
LINE
  8
0
 10
232.5
 11
232.467
 20
132
 21
131.688
  0
LINE
  8
0
 10
232.467
 11
232.37
 20
131.688
 21
131.39
  0
LINE
  8
0
 10
232.37
 11
232.214
 20
131.39
 21
131.118
  0
LINE
  8
0
 10
232.214
 11
232.004
 20
131.118
 21
130.885
  0
LINE
  8
0
 10
232.004
 11
231.75
 20
130.885
 21
130.701
  0
LINE
  8
0
 10
231.75
 11
231.464
 20
130.701
 21
130.573
  0
LINE
  8
0
 10
231.464
 11
231.157
 20
130.573
 21
130.508
  0
LINE
  8
0
 10
231.157
 11
230.843
 20
130.508
 21
130.508
  0
LINE
  8
0
 10
230.843
 11
230.536
 20
130.508
 21
130.573
  0
LINE
  8
0
 10
230.536
 11
230.25
 20
130.573
 21
130.701
  0
LINE
  8
0
 10
230.25
 11
229.996
 20
130.701
 21
130.885
  0
LINE
  8
0
 10
229.996
 11
229.786
 20
130.885
 21
131.118
  0
LINE
  8
0
 10
229.786
 11
229.63
 20
131.118
 21
131.39
  0
LINE
  8
0
 10
229.63
 11
229.533
 20
131.39
 21
131.688
  0
LINE
  8
0
 10
229.533
 11
229.5
 20
131.688
 21
132
  0
ENDSEC
  0
SECTION
  2
OBJECTS
  0
DICTIONARY
  0
ENDSEC
  0
EOF
