  0
SECTION
  2
BLOCKS
  0
ENDSEC
  0
SECTION
  2
ENTITIES
  0
LINE
  8
0
 10
6.4
 11
6.435
 20
8
 21
8.333
  0
LINE
  8
0
 10
6.435
 11
6.538
 20
8.333
 21
8.651
  0
LINE
  8
0
 10
6.538
 11
6.706
 20
8.651
 21
8.94
  0
LINE
  8
0
 10
6.706
 11
6.929
 20
8.94
 21
9.189
  0
LINE
  8
0
 10
6.929
 11
7.2
 20
9.189
 21
9.386
  0
LINE
  8
0
 10
7.2
 11
7.506
 20
9.386
 21
9.522
  0
LINE
  8
0
 10
7.506
 11
7.833
 20
9.522
 21
9.591
  0
LINE
  8
0
 10
7.833
 11
8.167
 20
9.591
 21
9.591
  0
LINE
  8
0
 10
8.167
 11
8.494
 20
9.591
 21
9.522
  0
LINE
  8
0
 10
8.494
 11
8.8
 20
9.522
 21
9.386
  0
LINE
  8
0
 10
8.8
 11
9.071
 20
9.386
 21
9.189
  0
LINE
  8
0
 10
9.071
 11
9.294
 20
9.189
 21
8.94
  0
LINE
  8
0
 10
9.294
 11
9.462
 20
8.94
 21
8.651
  0
LINE
  8
0
 10
9.462
 11
9.565
 20
8.651
 21
8.333
  0
LINE
  8
0
 10
9.565
 11
9.6
 20
8.333
 21
8
  0
LINE
  8
0
 10
9.6
 11
9.565
 20
8
 21
7.667
  0
LINE
  8
0
 10
9.565
 11
9.462
 20
7.667
 21
7.349
  0
LINE
  8
0
 10
9.462
 11
9.294
 20
7.349
 21
7.06
  0
LINE
  8
0
 10
9.294
 11
9.071
 20
7.06
 21
6.811
  0
LINE
  8
0
 10
9.071
 11
8.8
 20
6.811
 21
6.614
  0
LINE
  8
0
 10
8.8
 11
8.494
 20
6.614
 21
6.478
  0
LINE
  8
0
 10
8.494
 11
8.167
 20
6.478
 21
6.409
  0
LINE
  8
0
 10
8.167
 11
7.833
 20
6.409
 21
6.409
  0
LINE
  8
0
 10
7.833
 11
7.506
 20
6.409
 21
6.478
  0
LINE
  8
0
 10
7.506
 11
7.2
 20
6.478
 21
6.614
  0
LINE
  8
0
 10
7.2
 11
6.929
 20
6.614
 21
6.811
  0
LINE
  8
0
 10
6.929
 11
6.706
 20
6.811
 21
7.06
  0
LINE
  8
0
 10
6.706
 11
6.538
 20
7.06
 21
7.349
  0
LINE
  8
0
 10
6.538
 11
6.435
 20
7.349
 21
7.667
  0
LINE
  8
0
 10
6.435
 11
6.4
 20
7.667
 21
8
  0
LINE
  8
0
 10
6.4
 11
6.435
 20
132
 21
132.333
  0
LINE
  8
0
 10
6.435
 11
6.538
 20
132.333
 21
132.651
  0
LINE
  8
0
 10
6.538
 11
6.706
 20
132.651
 21
132.94
  0
LINE
  8
0
 10
6.706
 11
6.929
 20
132.94
 21
133.189
  0
LINE
  8
0
 10
6.929
 11
7.2
 20
133.189
 21
133.386
  0
LINE
  8
0
 10
7.2
 11
7.506
 20
133.386
 21
133.522
  0
LINE
  8
0
 10
7.506
 11
7.833
 20
133.522
 21
133.591
  0
LINE
  8
0
 10
7.833
 11
8.167
 20
133.591
 21
133.591
  0
LINE
  8
0
 10
8.167
 11
8.494
 20
133.591
 21
133.522
  0
LINE
  8
0
 10
8.494
 11
8.8
 20
133.522
 21
133.386
  0
LINE
  8
0
 10
8.8
 11
9.071
 20
133.386
 21
133.189
  0
LINE
  8
0
 10
9.071
 11
9.294
 20
133.189
 21
132.94
  0
LINE
  8
0
 10
9.294
 11
9.462
 20
132.94
 21
132.651
  0
LINE
  8
0
 10
9.462
 11
9.565
 20
132.651
 21
132.333
  0
LINE
  8
0
 10
9.565
 11
9.6
 20
132.333
 21
132
  0
LINE
  8
0
 10
9.6
 11
9.565
 20
132
 21
131.667
  0
LINE
  8
0
 10
9.565
 11
9.462
 20
131.667
 21
131.349
  0
LINE
  8
0
 10
9.462
 11
9.294
 20
131.349
 21
131.06
  0
LINE
  8
0
 10
9.294
 11
9.071
 20
131.06
 21
130.811
  0
LINE
  8
0
 10
9.071
 11
8.8
 20
130.811
 21
130.614
  0
LINE
  8
0
 10
8.8
 11
8.494
 20
130.614
 21
130.478
  0
LINE
  8
0
 10
8.494
 11
8.167
 20
130.478
 21
130.409
  0
LINE
  8
0
 10
8.167
 11
7.833
 20
130.409
 21
130.409
  0
LINE
  8
0
 10
7.833
 11
7.506
 20
130.409
 21
130.478
  0
LINE
  8
0
 10
7.506
 11
7.2
 20
130.478
 21
130.614
  0
LINE
  8
0
 10
7.2
 11
6.929
 20
130.614
 21
130.811
  0
LINE
  8
0
 10
6.929
 11
6.706
 20
130.811
 21
131.06
  0
LINE
  8
0
 10
6.706
 11
6.538
 20
131.06
 21
131.349
  0
LINE
  8
0
 10
6.538
 11
6.435
 20
131.349
 21
131.667
  0
LINE
  8
0
 10
6.435
 11
6.4
 20
131.667
 21
132
  0
LINE
  8
0
 10
28.4
 11
28.435
 20
5
 21
5.333
  0
LINE
  8
0
 10
28.435
 11
28.538
 20
5.333
 21
5.651
  0
LINE
  8
0
 10
28.538
 11
28.706
 20
5.651
 21
5.94
  0
LINE
  8
0
 10
28.706
 11
28.929
 20
5.94
 21
6.189
  0
LINE
  8
0
 10
28.929
 11
29.2
 20
6.189
 21
6.386
  0
LINE
  8
0
 10
29.2
 11
29.506
 20
6.386
 21
6.522
  0
LINE
  8
0
 10
29.506
 11
29.833
 20
6.522
 21
6.591
  0
LINE
  8
0
 10
29.833
 11
30.167
 20
6.591
 21
6.591
  0
LINE
  8
0
 10
30.167
 11
30.494
 20
6.591
 21
6.522
  0
LINE
  8
0
 10
30.494
 11
30.8
 20
6.522
 21
6.386
  0
LINE
  8
0
 10
30.8
 11
31.071
 20
6.386
 21
6.189
  0
LINE
  8
0
 10
31.071
 11
31.294
 20
6.189
 21
5.94
  0
LINE
  8
0
 10
31.294
 11
31.462
 20
5.94
 21
5.651
  0
LINE
  8
0
 10
31.462
 11
31.565
 20
5.651
 21
5.333
  0
LINE
  8
0
 10
31.565
 11
31.6
 20
5.333
 21
5
  0
LINE
  8
0
 10
31.6
 11
31.565
 20
5
 21
4.667
  0
LINE
  8
0
 10
31.565
 11
31.462
 20
4.667
 21
4.349
  0
LINE
  8
0
 10
31.462
 11
31.294
 20
4.349
 21
4.06
  0
LINE
  8
0
 10
31.294
 11
31.071
 20
4.06
 21
3.811
  0
LINE
  8
0
 10
31.071
 11
30.8
 20
3.811
 21
3.614
  0
LINE
  8
0
 10
30.8
 11
30.494
 20
3.614
 21
3.478
  0
LINE
  8
0
 10
30.494
 11
30.167
 20
3.478
 21
3.409
  0
LINE
  8
0
 10
30.167
 11
29.833
 20
3.409
 21
3.409
  0
LINE
  8
0
 10
29.833
 11
29.506
 20
3.409
 21
3.478
  0
LINE
  8
0
 10
29.506
 11
29.2
 20
3.478
 21
3.614
  0
LINE
  8
0
 10
29.2
 11
28.929
 20
3.614
 21
3.811
  0
LINE
  8
0
 10
28.929
 11
28.706
 20
3.811
 21
4.06
  0
LINE
  8
0
 10
28.706
 11
28.538
 20
4.06
 21
4.349
  0
LINE
  8
0
 10
28.538
 11
28.435
 20
4.349
 21
4.667
  0
LINE
  8
0
 10
28.435
 11
28.4
 20
4.667
 21
5
  0
LINE
  8
0
 10
28.4
 11
28.435
 20
19
 21
19.333
  0
LINE
  8
0
 10
28.435
 11
28.538
 20
19.333
 21
19.651
  0
LINE
  8
0
 10
28.538
 11
28.706
 20
19.651
 21
19.94
  0
LINE
  8
0
 10
28.706
 11
28.929
 20
19.94
 21
20.189
  0
LINE
  8
0
 10
28.929
 11
29.2
 20
20.189
 21
20.386
  0
LINE
  8
0
 10
29.2
 11
29.506
 20
20.386
 21
20.522
  0
LINE
  8
0
 10
29.506
 11
29.833
 20
20.522
 21
20.591
  0
LINE
  8
0
 10
29.833
 11
30.167
 20
20.591
 21
20.591
  0
LINE
  8
0
 10
30.167
 11
30.494
 20
20.591
 21
20.522
  0
LINE
  8
0
 10
30.494
 11
30.8
 20
20.522
 21
20.386
  0
LINE
  8
0
 10
30.8
 11
31.071
 20
20.386
 21
20.189
  0
LINE
  8
0
 10
31.071
 11
31.294
 20
20.189
 21
19.94
  0
LINE
  8
0
 10
31.294
 11
31.462
 20
19.94
 21
19.651
  0
LINE
  8
0
 10
31.462
 11
31.565
 20
19.651
 21
19.333
  0
LINE
  8
0
 10
31.565
 11
31.6
 20
19.333
 21
19
  0
LINE
  8
0
 10
31.6
 11
31.565
 20
19
 21
18.667
  0
LINE
  8
0
 10
31.565
 11
31.462
 20
18.667
 21
18.349
  0
LINE
  8
0
 10
31.462
 11
31.294
 20
18.349
 21
18.06
  0
LINE
  8
0
 10
31.294
 11
31.071
 20
18.06
 21
17.811
  0
LINE
  8
0
 10
31.071
 11
30.8
 20
17.811
 21
17.614
  0
LINE
  8
0
 10
30.8
 11
30.494
 20
17.614
 21
17.478
  0
LINE
  8
0
 10
30.494
 11
30.167
 20
17.478
 21
17.409
  0
LINE
  8
0
 10
30.167
 11
29.833
 20
17.409
 21
17.409
  0
LINE
  8
0
 10
29.833
 11
29.506
 20
17.409
 21
17.478
  0
LINE
  8
0
 10
29.506
 11
29.2
 20
17.478
 21
17.614
  0
LINE
  8
0
 10
29.2
 11
28.929
 20
17.614
 21
17.811
  0
LINE
  8
0
 10
28.929
 11
28.706
 20
17.811
 21
18.06
  0
LINE
  8
0
 10
28.706
 11
28.538
 20
18.06
 21
18.349
  0
LINE
  8
0
 10
28.538
 11
28.435
 20
18.349
 21
18.667
  0
LINE
  8
0
 10
28.435
 11
28.4
 20
18.667
 21
19
  0
LINE
  8
0
 10
28.4
 11
28.435
 20
121
 21
121.333
  0
LINE
  8
0
 10
28.435
 11
28.538
 20
121.333
 21
121.651
  0
LINE
  8
0
 10
28.538
 11
28.706
 20
121.651
 21
121.94
  0
LINE
  8
0
 10
28.706
 11
28.929
 20
121.94
 21
122.189
  0
LINE
  8
0
 10
28.929
 11
29.2
 20
122.189
 21
122.386
  0
LINE
  8
0
 10
29.2
 11
29.506
 20
122.386
 21
122.522
  0
LINE
  8
0
 10
29.506
 11
29.833
 20
122.522
 21
122.591
  0
LINE
  8
0
 10
29.833
 11
30.167
 20
122.591
 21
122.591
  0
LINE
  8
0
 10
30.167
 11
30.494
 20
122.591
 21
122.522
  0
LINE
  8
0
 10
30.494
 11
30.8
 20
122.522
 21
122.386
  0
LINE
  8
0
 10
30.8
 11
31.071
 20
122.386
 21
122.189
  0
LINE
  8
0
 10
31.071
 11
31.294
 20
122.189
 21
121.94
  0
LINE
  8
0
 10
31.294
 11
31.462
 20
121.94
 21
121.651
  0
LINE
  8
0
 10
31.462
 11
31.565
 20
121.651
 21
121.333
  0
LINE
  8
0
 10
31.565
 11
31.6
 20
121.333
 21
121
  0
LINE
  8
0
 10
31.6
 11
31.565
 20
121
 21
120.667
  0
LINE
  8
0
 10
31.565
 11
31.462
 20
120.667
 21
120.349
  0
LINE
  8
0
 10
31.462
 11
31.294
 20
120.349
 21
120.06
  0
LINE
  8
0
 10
31.294
 11
31.071
 20
120.06
 21
119.811
  0
LINE
  8
0
 10
31.071
 11
30.8
 20
119.811
 21
119.614
  0
LINE
  8
0
 10
30.8
 11
30.494
 20
119.614
 21
119.478
  0
LINE
  8
0
 10
30.494
 11
30.167
 20
119.478
 21
119.409
  0
LINE
  8
0
 10
30.167
 11
29.833
 20
119.409
 21
119.409
  0
LINE
  8
0
 10
29.833
 11
29.506
 20
119.409
 21
119.478
  0
LINE
  8
0
 10
29.506
 11
29.2
 20
119.478
 21
119.614
  0
LINE
  8
0
 10
29.2
 11
28.929
 20
119.614
 21
119.811
  0
LINE
  8
0
 10
28.929
 11
28.706
 20
119.811
 21
120.06
  0
LINE
  8
0
 10
28.706
 11
28.538
 20
120.06
 21
120.349
  0
LINE
  8
0
 10
28.538
 11
28.435
 20
120.349
 21
120.667
  0
LINE
  8
0
 10
28.435
 11
28.4
 20
120.667
 21
121
  0
LINE
  8
0
 10
28.4
 11
28.435
 20
135
 21
135.333
  0
LINE
  8
0
 10
28.435
 11
28.538
 20
135.333
 21
135.651
  0
LINE
  8
0
 10
28.538
 11
28.706
 20
135.651
 21
135.94
  0
LINE
  8
0
 10
28.706
 11
28.929
 20
135.94
 21
136.189
  0
LINE
  8
0
 10
28.929
 11
29.2
 20
136.189
 21
136.386
  0
LINE
  8
0
 10
29.2
 11
29.506
 20
136.386
 21
136.522
  0
LINE
  8
0
 10
29.506
 11
29.833
 20
136.522
 21
136.591
  0
LINE
  8
0
 10
29.833
 11
30.167
 20
136.591
 21
136.591
  0
LINE
  8
0
 10
30.167
 11
30.494
 20
136.591
 21
136.522
  0
LINE
  8
0
 10
30.494
 11
30.8
 20
136.522
 21
136.386
  0
LINE
  8
0
 10
30.8
 11
31.071
 20
136.386
 21
136.189
  0
LINE
  8
0
 10
31.071
 11
31.294
 20
136.189
 21
135.94
  0
LINE
  8
0
 10
31.294
 11
31.462
 20
135.94
 21
135.651
  0
LINE
  8
0
 10
31.462
 11
31.565
 20
135.651
 21
135.333
  0
LINE
  8
0
 10
31.565
 11
31.6
 20
135.333
 21
135
  0
LINE
  8
0
 10
31.6
 11
31.565
 20
135
 21
134.667
  0
LINE
  8
0
 10
31.565
 11
31.462
 20
134.667
 21
134.349
  0
LINE
  8
0
 10
31.462
 11
31.294
 20
134.349
 21
134.06
  0
LINE
  8
0
 10
31.294
 11
31.071
 20
134.06
 21
133.811
  0
LINE
  8
0
 10
31.071
 11
30.8
 20
133.811
 21
133.614
  0
LINE
  8
0
 10
30.8
 11
30.494
 20
133.614
 21
133.478
  0
LINE
  8
0
 10
30.494
 11
30.167
 20
133.478
 21
133.409
  0
LINE
  8
0
 10
30.167
 11
29.833
 20
133.409
 21
133.409
  0
LINE
  8
0
 10
29.833
 11
29.506
 20
133.409
 21
133.478
  0
LINE
  8
0
 10
29.506
 11
29.2
 20
133.478
 21
133.614
  0
LINE
  8
0
 10
29.2
 11
28.929
 20
133.614
 21
133.811
  0
LINE
  8
0
 10
28.929
 11
28.706
 20
133.811
 21
134.06
  0
LINE
  8
0
 10
28.706
 11
28.538
 20
134.06
 21
134.349
  0
LINE
  8
0
 10
28.538
 11
28.435
 20
134.349
 21
134.667
  0
LINE
  8
0
 10
28.435
 11
28.4
 20
134.667
 21
135
  0
LINE
  8
0
 10
59.4
 11
59.435
 20
5
 21
5.333
  0
LINE
  8
0
 10
59.435
 11
59.538
 20
5.333
 21
5.651
  0
LINE
  8
0
 10
59.538
 11
59.706
 20
5.651
 21
5.94
  0
LINE
  8
0
 10
59.706
 11
59.929
 20
5.94
 21
6.189
  0
LINE
  8
0
 10
59.929
 11
60.2
 20
6.189
 21
6.386
  0
LINE
  8
0
 10
60.2
 11
60.506
 20
6.386
 21
6.522
  0
LINE
  8
0
 10
60.506
 11
60.833
 20
6.522
 21
6.591
  0
LINE
  8
0
 10
60.833
 11
61.167
 20
6.591
 21
6.591
  0
LINE
  8
0
 10
61.167
 11
61.494
 20
6.591
 21
6.522
  0
LINE
  8
0
 10
61.494
 11
61.8
 20
6.522
 21
6.386
  0
LINE
  8
0
 10
61.8
 11
62.071
 20
6.386
 21
6.189
  0
LINE
  8
0
 10
62.071
 11
62.294
 20
6.189
 21
5.94
  0
LINE
  8
0
 10
62.294
 11
62.462
 20
5.94
 21
5.651
  0
LINE
  8
0
 10
62.462
 11
62.565
 20
5.651
 21
5.333
  0
LINE
  8
0
 10
62.565
 11
62.6
 20
5.333
 21
5
  0
LINE
  8
0
 10
62.6
 11
62.565
 20
5
 21
4.667
  0
LINE
  8
0
 10
62.565
 11
62.462
 20
4.667
 21
4.349
  0
LINE
  8
0
 10
62.462
 11
62.294
 20
4.349
 21
4.06
  0
LINE
  8
0
 10
62.294
 11
62.071
 20
4.06
 21
3.811
  0
LINE
  8
0
 10
62.071
 11
61.8
 20
3.811
 21
3.614
  0
LINE
  8
0
 10
61.8
 11
61.494
 20
3.614
 21
3.478
  0
LINE
  8
0
 10
61.494
 11
61.167
 20
3.478
 21
3.409
  0
LINE
  8
0
 10
61.167
 11
60.833
 20
3.409
 21
3.409
  0
LINE
  8
0
 10
60.833
 11
60.506
 20
3.409
 21
3.478
  0
LINE
  8
0
 10
60.506
 11
60.2
 20
3.478
 21
3.614
  0
LINE
  8
0
 10
60.2
 11
59.929
 20
3.614
 21
3.811
  0
LINE
  8
0
 10
59.929
 11
59.706
 20
3.811
 21
4.06
  0
LINE
  8
0
 10
59.706
 11
59.538
 20
4.06
 21
4.349
  0
LINE
  8
0
 10
59.538
 11
59.435
 20
4.349
 21
4.667
  0
LINE
  8
0
 10
59.435
 11
59.4
 20
4.667
 21
5
  0
LINE
  8
0
 10
59.4
 11
59.435
 20
19
 21
19.333
  0
LINE
  8
0
 10
59.435
 11
59.538
 20
19.333
 21
19.651
  0
LINE
  8
0
 10
59.538
 11
59.706
 20
19.651
 21
19.94
  0
LINE
  8
0
 10
59.706
 11
59.929
 20
19.94
 21
20.189
  0
LINE
  8
0
 10
59.929
 11
60.2
 20
20.189
 21
20.386
  0
LINE
  8
0
 10
60.2
 11
60.506
 20
20.386
 21
20.522
  0
LINE
  8
0
 10
60.506
 11
60.833
 20
20.522
 21
20.591
  0
LINE
  8
0
 10
60.833
 11
61.167
 20
20.591
 21
20.591
  0
LINE
  8
0
 10
61.167
 11
61.494
 20
20.591
 21
20.522
  0
LINE
  8
0
 10
61.494
 11
61.8
 20
20.522
 21
20.386
  0
LINE
  8
0
 10
61.8
 11
62.071
 20
20.386
 21
20.189
  0
LINE
  8
0
 10
62.071
 11
62.294
 20
20.189
 21
19.94
  0
LINE
  8
0
 10
62.294
 11
62.462
 20
19.94
 21
19.651
  0
LINE
  8
0
 10
62.462
 11
62.565
 20
19.651
 21
19.333
  0
LINE
  8
0
 10
62.565
 11
62.6
 20
19.333
 21
19
  0
LINE
  8
0
 10
62.6
 11
62.565
 20
19
 21
18.667
  0
LINE
  8
0
 10
62.565
 11
62.462
 20
18.667
 21
18.349
  0
LINE
  8
0
 10
62.462
 11
62.294
 20
18.349
 21
18.06
  0
LINE
  8
0
 10
62.294
 11
62.071
 20
18.06
 21
17.811
  0
LINE
  8
0
 10
62.071
 11
61.8
 20
17.811
 21
17.614
  0
LINE
  8
0
 10
61.8
 11
61.494
 20
17.614
 21
17.478
  0
LINE
  8
0
 10
61.494
 11
61.167
 20
17.478
 21
17.409
  0
LINE
  8
0
 10
61.167
 11
60.833
 20
17.409
 21
17.409
  0
LINE
  8
0
 10
60.833
 11
60.506
 20
17.409
 21
17.478
  0
LINE
  8
0
 10
60.506
 11
60.2
 20
17.478
 21
17.614
  0
LINE
  8
0
 10
60.2
 11
59.929
 20
17.614
 21
17.811
  0
LINE
  8
0
 10
59.929
 11
59.706
 20
17.811
 21
18.06
  0
LINE
  8
0
 10
59.706
 11
59.538
 20
18.06
 21
18.349
  0
LINE
  8
0
 10
59.538
 11
59.435
 20
18.349
 21
18.667
  0
LINE
  8
0
 10
59.435
 11
59.4
 20
18.667
 21
19
  0
LINE
  8
0
 10
59.4
 11
59.435
 20
121
 21
121.333
  0
LINE
  8
0
 10
59.435
 11
59.538
 20
121.333
 21
121.651
  0
LINE
  8
0
 10
59.538
 11
59.706
 20
121.651
 21
121.94
  0
LINE
  8
0
 10
59.706
 11
59.929
 20
121.94
 21
122.189
  0
LINE
  8
0
 10
59.929
 11
60.2
 20
122.189
 21
122.386
  0
LINE
  8
0
 10
60.2
 11
60.506
 20
122.386
 21
122.522
  0
LINE
  8
0
 10
60.506
 11
60.833
 20
122.522
 21
122.591
  0
LINE
  8
0
 10
60.833
 11
61.167
 20
122.591
 21
122.591
  0
LINE
  8
0
 10
61.167
 11
61.494
 20
122.591
 21
122.522
  0
LINE
  8
0
 10
61.494
 11
61.8
 20
122.522
 21
122.386
  0
LINE
  8
0
 10
61.8
 11
62.071
 20
122.386
 21
122.189
  0
LINE
  8
0
 10
62.071
 11
62.294
 20
122.189
 21
121.94
  0
LINE
  8
0
 10
62.294
 11
62.462
 20
121.94
 21
121.651
  0
LINE
  8
0
 10
62.462
 11
62.565
 20
121.651
 21
121.333
  0
LINE
  8
0
 10
62.565
 11
62.6
 20
121.333
 21
121
  0
LINE
  8
0
 10
62.6
 11
62.565
 20
121
 21
120.667
  0
LINE
  8
0
 10
62.565
 11
62.462
 20
120.667
 21
120.349
  0
LINE
  8
0
 10
62.462
 11
62.294
 20
120.349
 21
120.06
  0
LINE
  8
0
 10
62.294
 11
62.071
 20
120.06
 21
119.811
  0
LINE
  8
0
 10
62.071
 11
61.8
 20
119.811
 21
119.614
  0
LINE
  8
0
 10
61.8
 11
61.494
 20
119.614
 21
119.478
  0
LINE
  8
0
 10
61.494
 11
61.167
 20
119.478
 21
119.409
  0
LINE
  8
0
 10
61.167
 11
60.833
 20
119.409
 21
119.409
  0
LINE
  8
0
 10
60.833
 11
60.506
 20
119.409
 21
119.478
  0
LINE
  8
0
 10
60.506
 11
60.2
 20
119.478
 21
119.614
  0
LINE
  8
0
 10
60.2
 11
59.929
 20
119.614
 21
119.811
  0
LINE
  8
0
 10
59.929
 11
59.706
 20
119.811
 21
120.06
  0
LINE
  8
0
 10
59.706
 11
59.538
 20
120.06
 21
120.349
  0
LINE
  8
0
 10
59.538
 11
59.435
 20
120.349
 21
120.667
  0
LINE
  8
0
 10
59.435
 11
59.4
 20
120.667
 21
121
  0
LINE
  8
0
 10
59.4
 11
59.435
 20
135
 21
135.333
  0
LINE
  8
0
 10
59.435
 11
59.538
 20
135.333
 21
135.651
  0
LINE
  8
0
 10
59.538
 11
59.706
 20
135.651
 21
135.94
  0
LINE
  8
0
 10
59.706
 11
59.929
 20
135.94
 21
136.189
  0
LINE
  8
0
 10
59.929
 11
60.2
 20
136.189
 21
136.386
  0
LINE
  8
0
 10
60.2
 11
60.506
 20
136.386
 21
136.522
  0
LINE
  8
0
 10
60.506
 11
60.833
 20
136.522
 21
136.591
  0
LINE
  8
0
 10
60.833
 11
61.167
 20
136.591
 21
136.591
  0
LINE
  8
0
 10
61.167
 11
61.494
 20
136.591
 21
136.522
  0
LINE
  8
0
 10
61.494
 11
61.8
 20
136.522
 21
136.386
  0
LINE
  8
0
 10
61.8
 11
62.071
 20
136.386
 21
136.189
  0
LINE
  8
0
 10
62.071
 11
62.294
 20
136.189
 21
135.94
  0
LINE
  8
0
 10
62.294
 11
62.462
 20
135.94
 21
135.651
  0
LINE
  8
0
 10
62.462
 11
62.565
 20
135.651
 21
135.333
  0
LINE
  8
0
 10
62.565
 11
62.6
 20
135.333
 21
135
  0
LINE
  8
0
 10
62.6
 11
62.565
 20
135
 21
134.667
  0
LINE
  8
0
 10
62.565
 11
62.462
 20
134.667
 21
134.349
  0
LINE
  8
0
 10
62.462
 11
62.294
 20
134.349
 21
134.06
  0
LINE
  8
0
 10
62.294
 11
62.071
 20
134.06
 21
133.811
  0
LINE
  8
0
 10
62.071
 11
61.8
 20
133.811
 21
133.614
  0
LINE
  8
0
 10
61.8
 11
61.494
 20
133.614
 21
133.478
  0
LINE
  8
0
 10
61.494
 11
61.167
 20
133.478
 21
133.409
  0
LINE
  8
0
 10
61.167
 11
60.833
 20
133.409
 21
133.409
  0
LINE
  8
0
 10
60.833
 11
60.506
 20
133.409
 21
133.478
  0
LINE
  8
0
 10
60.506
 11
60.2
 20
133.478
 21
133.614
  0
LINE
  8
0
 10
60.2
 11
59.929
 20
133.614
 21
133.811
  0
LINE
  8
0
 10
59.929
 11
59.706
 20
133.811
 21
134.06
  0
LINE
  8
0
 10
59.706
 11
59.538
 20
134.06
 21
134.349
  0
LINE
  8
0
 10
59.538
 11
59.435
 20
134.349
 21
134.667
  0
LINE
  8
0
 10
59.435
 11
59.4
 20
134.667
 21
135
  0
LINE
  8
0
 10
126.9
 11
126.935
 20
15
 21
15.333
  0
LINE
  8
0
 10
126.935
 11
127.038
 20
15.333
 21
15.651
  0
LINE
  8
0
 10
127.038
 11
127.206
 20
15.651
 21
15.94
  0
LINE
  8
0
 10
127.206
 11
127.429
 20
15.94
 21
16.189
  0
LINE
  8
0
 10
127.429
 11
127.7
 20
16.189
 21
16.386
  0
LINE
  8
0
 10
127.7
 11
128.006
 20
16.386
 21
16.522
  0
LINE
  8
0
 10
128.006
 11
128.333
 20
16.522
 21
16.591
  0
LINE
  8
0
 10
128.333
 11
128.667
 20
16.591
 21
16.591
  0
LINE
  8
0
 10
128.667
 11
128.994
 20
16.591
 21
16.522
  0
LINE
  8
0
 10
128.994
 11
129.3
 20
16.522
 21
16.386
  0
LINE
  8
0
 10
129.3
 11
129.571
 20
16.386
 21
16.189
  0
LINE
  8
0
 10
129.571
 11
129.794
 20
16.189
 21
15.94
  0
LINE
  8
0
 10
129.794
 11
129.962
 20
15.94
 21
15.651
  0
LINE
  8
0
 10
129.962
 11
130.065
 20
15.651
 21
15.333
  0
LINE
  8
0
 10
130.065
 11
130.1
 20
15.333
 21
15
  0
LINE
  8
0
 10
130.1
 11
130.065
 20
15
 21
14.667
  0
LINE
  8
0
 10
130.065
 11
129.962
 20
14.667
 21
14.349
  0
LINE
  8
0
 10
129.962
 11
129.794
 20
14.349
 21
14.06
  0
LINE
  8
0
 10
129.794
 11
129.571
 20
14.06
 21
13.811
  0
LINE
  8
0
 10
129.571
 11
129.3
 20
13.811
 21
13.614
  0
LINE
  8
0
 10
129.3
 11
128.994
 20
13.614
 21
13.478
  0
LINE
  8
0
 10
128.994
 11
128.667
 20
13.478
 21
13.409
  0
LINE
  8
0
 10
128.667
 11
128.333
 20
13.409
 21
13.409
  0
LINE
  8
0
 10
128.333
 11
128.006
 20
13.409
 21
13.478
  0
LINE
  8
0
 10
128.006
 11
127.7
 20
13.478
 21
13.614
  0
LINE
  8
0
 10
127.7
 11
127.429
 20
13.614
 21
13.811
  0
LINE
  8
0
 10
127.429
 11
127.206
 20
13.811
 21
14.06
  0
LINE
  8
0
 10
127.206
 11
127.038
 20
14.06
 21
14.349
  0
LINE
  8
0
 10
127.038
 11
126.935
 20
14.349
 21
14.667
  0
LINE
  8
0
 10
126.935
 11
126.9
 20
14.667
 21
15
  0
LINE
  8
0
 10
126.9
 11
126.935
 20
125
 21
125.333
  0
LINE
  8
0
 10
126.935
 11
127.038
 20
125.333
 21
125.651
  0
LINE
  8
0
 10
127.038
 11
127.206
 20
125.651
 21
125.94
  0
LINE
  8
0
 10
127.206
 11
127.429
 20
125.94
 21
126.189
  0
LINE
  8
0
 10
127.429
 11
127.7
 20
126.189
 21
126.386
  0
LINE
  8
0
 10
127.7
 11
128.006
 20
126.386
 21
126.522
  0
LINE
  8
0
 10
128.006
 11
128.333
 20
126.522
 21
126.591
  0
LINE
  8
0
 10
128.333
 11
128.667
 20
126.591
 21
126.591
  0
LINE
  8
0
 10
128.667
 11
128.994
 20
126.591
 21
126.522
  0
LINE
  8
0
 10
128.994
 11
129.3
 20
126.522
 21
126.386
  0
LINE
  8
0
 10
129.3
 11
129.571
 20
126.386
 21
126.189
  0
LINE
  8
0
 10
129.571
 11
129.794
 20
126.189
 21
125.94
  0
LINE
  8
0
 10
129.794
 11
129.962
 20
125.94
 21
125.651
  0
LINE
  8
0
 10
129.962
 11
130.065
 20
125.651
 21
125.333
  0
LINE
  8
0
 10
130.065
 11
130.1
 20
125.333
 21
125
  0
LINE
  8
0
 10
130.1
 11
130.065
 20
125
 21
124.667
  0
LINE
  8
0
 10
130.065
 11
129.962
 20
124.667
 21
124.349
  0
LINE
  8
0
 10
129.962
 11
129.794
 20
124.349
 21
124.06
  0
LINE
  8
0
 10
129.794
 11
129.571
 20
124.06
 21
123.811
  0
LINE
  8
0
 10
129.571
 11
129.3
 20
123.811
 21
123.614
  0
LINE
  8
0
 10
129.3
 11
128.994
 20
123.614
 21
123.478
  0
LINE
  8
0
 10
128.994
 11
128.667
 20
123.478
 21
123.409
  0
LINE
  8
0
 10
128.667
 11
128.333
 20
123.409
 21
123.409
  0
LINE
  8
0
 10
128.333
 11
128.006
 20
123.409
 21
123.478
  0
LINE
  8
0
 10
128.006
 11
127.7
 20
123.478
 21
123.614
  0
LINE
  8
0
 10
127.7
 11
127.429
 20
123.614
 21
123.811
  0
LINE
  8
0
 10
127.429
 11
127.206
 20
123.811
 21
124.06
  0
LINE
  8
0
 10
127.206
 11
127.038
 20
124.06
 21
124.349
  0
LINE
  8
0
 10
127.038
 11
126.935
 20
124.349
 21
124.667
  0
LINE
  8
0
 10
126.935
 11
126.9
 20
124.667
 21
125
  0
LINE
  8
0
 10
144.9
 11
144.935
 20
15
 21
15.333
  0
LINE
  8
0
 10
144.935
 11
145.038
 20
15.333
 21
15.651
  0
LINE
  8
0
 10
145.038
 11
145.206
 20
15.651
 21
15.94
  0
LINE
  8
0
 10
145.206
 11
145.429
 20
15.94
 21
16.189
  0
LINE
  8
0
 10
145.429
 11
145.7
 20
16.189
 21
16.386
  0
LINE
  8
0
 10
145.7
 11
146.006
 20
16.386
 21
16.522
  0
LINE
  8
0
 10
146.006
 11
146.333
 20
16.522
 21
16.591
  0
LINE
  8
0
 10
146.333
 11
146.667
 20
16.591
 21
16.591
  0
LINE
  8
0
 10
146.667
 11
146.994
 20
16.591
 21
16.522
  0
LINE
  8
0
 10
146.994
 11
147.3
 20
16.522
 21
16.386
  0
LINE
  8
0
 10
147.3
 11
147.571
 20
16.386
 21
16.189
  0
LINE
  8
0
 10
147.571
 11
147.794
 20
16.189
 21
15.94
  0
LINE
  8
0
 10
147.794
 11
147.962
 20
15.94
 21
15.651
  0
LINE
  8
0
 10
147.962
 11
148.065
 20
15.651
 21
15.333
  0
LINE
  8
0
 10
148.065
 11
148.1
 20
15.333
 21
15
  0
LINE
  8
0
 10
148.1
 11
148.065
 20
15
 21
14.667
  0
LINE
  8
0
 10
148.065
 11
147.962
 20
14.667
 21
14.349
  0
LINE
  8
0
 10
147.962
 11
147.794
 20
14.349
 21
14.06
  0
LINE
  8
0
 10
147.794
 11
147.571
 20
14.06
 21
13.811
  0
LINE
  8
0
 10
147.571
 11
147.3
 20
13.811
 21
13.614
  0
LINE
  8
0
 10
147.3
 11
146.994
 20
13.614
 21
13.478
  0
LINE
  8
0
 10
146.994
 11
146.667
 20
13.478
 21
13.409
  0
LINE
  8
0
 10
146.667
 11
146.333
 20
13.409
 21
13.409
  0
LINE
  8
0
 10
146.333
 11
146.006
 20
13.409
 21
13.478
  0
LINE
  8
0
 10
146.006
 11
145.7
 20
13.478
 21
13.614
  0
LINE
  8
0
 10
145.7
 11
145.429
 20
13.614
 21
13.811
  0
LINE
  8
0
 10
145.429
 11
145.206
 20
13.811
 21
14.06
  0
LINE
  8
0
 10
145.206
 11
145.038
 20
14.06
 21
14.349
  0
LINE
  8
0
 10
145.038
 11
144.935
 20
14.349
 21
14.667
  0
LINE
  8
0
 10
144.935
 11
144.9
 20
14.667
 21
15
  0
LINE
  8
0
 10
144.9
 11
144.935
 20
125
 21
125.333
  0
LINE
  8
0
 10
144.935
 11
145.038
 20
125.333
 21
125.651
  0
LINE
  8
0
 10
145.038
 11
145.206
 20
125.651
 21
125.94
  0
LINE
  8
0
 10
145.206
 11
145.429
 20
125.94
 21
126.189
  0
LINE
  8
0
 10
145.429
 11
145.7
 20
126.189
 21
126.386
  0
LINE
  8
0
 10
145.7
 11
146.006
 20
126.386
 21
126.522
  0
LINE
  8
0
 10
146.006
 11
146.333
 20
126.522
 21
126.591
  0
LINE
  8
0
 10
146.333
 11
146.667
 20
126.591
 21
126.591
  0
LINE
  8
0
 10
146.667
 11
146.994
 20
126.591
 21
126.522
  0
LINE
  8
0
 10
146.994
 11
147.3
 20
126.522
 21
126.386
  0
LINE
  8
0
 10
147.3
 11
147.571
 20
126.386
 21
126.189
  0
LINE
  8
0
 10
147.571
 11
147.794
 20
126.189
 21
125.94
  0
LINE
  8
0
 10
147.794
 11
147.962
 20
125.94
 21
125.651
  0
LINE
  8
0
 10
147.962
 11
148.065
 20
125.651
 21
125.333
  0
LINE
  8
0
 10
148.065
 11
148.1
 20
125.333
 21
125
  0
LINE
  8
0
 10
148.1
 11
148.065
 20
125
 21
124.667
  0
LINE
  8
0
 10
148.065
 11
147.962
 20
124.667
 21
124.349
  0
LINE
  8
0
 10
147.962
 11
147.794
 20
124.349
 21
124.06
  0
LINE
  8
0
 10
147.794
 11
147.571
 20
124.06
 21
123.811
  0
LINE
  8
0
 10
147.571
 11
147.3
 20
123.811
 21
123.614
  0
LINE
  8
0
 10
147.3
 11
146.994
 20
123.614
 21
123.478
  0
LINE
  8
0
 10
146.994
 11
146.667
 20
123.478
 21
123.409
  0
LINE
  8
0
 10
146.667
 11
146.333
 20
123.409
 21
123.409
  0
LINE
  8
0
 10
146.333
 11
146.006
 20
123.409
 21
123.478
  0
LINE
  8
0
 10
146.006
 11
145.7
 20
123.478
 21
123.614
  0
LINE
  8
0
 10
145.7
 11
145.429
 20
123.614
 21
123.811
  0
LINE
  8
0
 10
145.429
 11
145.206
 20
123.811
 21
124.06
  0
LINE
  8
0
 10
145.206
 11
145.038
 20
124.06
 21
124.349
  0
LINE
  8
0
 10
145.038
 11
144.935
 20
124.349
 21
124.667
  0
LINE
  8
0
 10
144.935
 11
144.9
 20
124.667
 21
125
  0
LINE
  8
0
 10
176.4
 11
176.435
 20
5
 21
5.333
  0
LINE
  8
0
 10
176.435
 11
176.538
 20
5.333
 21
5.651
  0
LINE
  8
0
 10
176.538
 11
176.706
 20
5.651
 21
5.94
  0
LINE
  8
0
 10
176.706
 11
176.929
 20
5.94
 21
6.189
  0
LINE
  8
0
 10
176.929
 11
177.2
 20
6.189
 21
6.386
  0
LINE
  8
0
 10
177.2
 11
177.506
 20
6.386
 21
6.522
  0
LINE
  8
0
 10
177.506
 11
177.833
 20
6.522
 21
6.591
  0
LINE
  8
0
 10
177.833
 11
178.167
 20
6.591
 21
6.591
  0
LINE
  8
0
 10
178.167
 11
178.494
 20
6.591
 21
6.522
  0
LINE
  8
0
 10
178.494
 11
178.8
 20
6.522
 21
6.386
  0
LINE
  8
0
 10
178.8
 11
179.071
 20
6.386
 21
6.189
  0
LINE
  8
0
 10
179.071
 11
179.294
 20
6.189
 21
5.94
  0
LINE
  8
0
 10
179.294
 11
179.462
 20
5.94
 21
5.651
  0
LINE
  8
0
 10
179.462
 11
179.565
 20
5.651
 21
5.333
  0
LINE
  8
0
 10
179.565
 11
179.6
 20
5.333
 21
5
  0
LINE
  8
0
 10
179.6
 11
179.565
 20
5
 21
4.667
  0
LINE
  8
0
 10
179.565
 11
179.462
 20
4.667
 21
4.349
  0
LINE
  8
0
 10
179.462
 11
179.294
 20
4.349
 21
4.06
  0
LINE
  8
0
 10
179.294
 11
179.071
 20
4.06
 21
3.811
  0
LINE
  8
0
 10
179.071
 11
178.8
 20
3.811
 21
3.614
  0
LINE
  8
0
 10
178.8
 11
178.494
 20
3.614
 21
3.478
  0
LINE
  8
0
 10
178.494
 11
178.167
 20
3.478
 21
3.409
  0
LINE
  8
0
 10
178.167
 11
177.833
 20
3.409
 21
3.409
  0
LINE
  8
0
 10
177.833
 11
177.506
 20
3.409
 21
3.478
  0
LINE
  8
0
 10
177.506
 11
177.2
 20
3.478
 21
3.614
  0
LINE
  8
0
 10
177.2
 11
176.929
 20
3.614
 21
3.811
  0
LINE
  8
0
 10
176.929
 11
176.706
 20
3.811
 21
4.06
  0
LINE
  8
0
 10
176.706
 11
176.538
 20
4.06
 21
4.349
  0
LINE
  8
0
 10
176.538
 11
176.435
 20
4.349
 21
4.667
  0
LINE
  8
0
 10
176.435
 11
176.4
 20
4.667
 21
5
  0
LINE
  8
0
 10
176.4
 11
176.435
 20
19
 21
19.333
  0
LINE
  8
0
 10
176.435
 11
176.538
 20
19.333
 21
19.651
  0
LINE
  8
0
 10
176.538
 11
176.706
 20
19.651
 21
19.94
  0
LINE
  8
0
 10
176.706
 11
176.929
 20
19.94
 21
20.189
  0
LINE
  8
0
 10
176.929
 11
177.2
 20
20.189
 21
20.386
  0
LINE
  8
0
 10
177.2
 11
177.506
 20
20.386
 21
20.522
  0
LINE
  8
0
 10
177.506
 11
177.833
 20
20.522
 21
20.591
  0
LINE
  8
0
 10
177.833
 11
178.167
 20
20.591
 21
20.591
  0
LINE
  8
0
 10
178.167
 11
178.494
 20
20.591
 21
20.522
  0
LINE
  8
0
 10
178.494
 11
178.8
 20
20.522
 21
20.386
  0
LINE
  8
0
 10
178.8
 11
179.071
 20
20.386
 21
20.189
  0
LINE
  8
0
 10
179.071
 11
179.294
 20
20.189
 21
19.94
  0
LINE
  8
0
 10
179.294
 11
179.462
 20
19.94
 21
19.651
  0
LINE
  8
0
 10
179.462
 11
179.565
 20
19.651
 21
19.333
  0
LINE
  8
0
 10
179.565
 11
179.6
 20
19.333
 21
19
  0
LINE
  8
0
 10
179.6
 11
179.565
 20
19
 21
18.667
  0
LINE
  8
0
 10
179.565
 11
179.462
 20
18.667
 21
18.349
  0
LINE
  8
0
 10
179.462
 11
179.294
 20
18.349
 21
18.06
  0
LINE
  8
0
 10
179.294
 11
179.071
 20
18.06
 21
17.811
  0
LINE
  8
0
 10
179.071
 11
178.8
 20
17.811
 21
17.614
  0
LINE
  8
0
 10
178.8
 11
178.494
 20
17.614
 21
17.478
  0
LINE
  8
0
 10
178.494
 11
178.167
 20
17.478
 21
17.409
  0
LINE
  8
0
 10
178.167
 11
177.833
 20
17.409
 21
17.409
  0
LINE
  8
0
 10
177.833
 11
177.506
 20
17.409
 21
17.478
  0
LINE
  8
0
 10
177.506
 11
177.2
 20
17.478
 21
17.614
  0
LINE
  8
0
 10
177.2
 11
176.929
 20
17.614
 21
17.811
  0
LINE
  8
0
 10
176.929
 11
176.706
 20
17.811
 21
18.06
  0
LINE
  8
0
 10
176.706
 11
176.538
 20
18.06
 21
18.349
  0
LINE
  8
0
 10
176.538
 11
176.435
 20
18.349
 21
18.667
  0
LINE
  8
0
 10
176.435
 11
176.4
 20
18.667
 21
19
  0
LINE
  8
0
 10
176.4
 11
176.435
 20
63
 21
63.333
  0
LINE
  8
0
 10
176.435
 11
176.538
 20
63.333
 21
63.651
  0
LINE
  8
0
 10
176.538
 11
176.706
 20
63.651
 21
63.94
  0
LINE
  8
0
 10
176.706
 11
176.929
 20
63.94
 21
64.189
  0
LINE
  8
0
 10
176.929
 11
177.2
 20
64.189
 21
64.386
  0
LINE
  8
0
 10
177.2
 11
177.506
 20
64.386
 21
64.522
  0
LINE
  8
0
 10
177.506
 11
177.833
 20
64.522
 21
64.591
  0
LINE
  8
0
 10
177.833
 11
178.167
 20
64.591
 21
64.591
  0
LINE
  8
0
 10
178.167
 11
178.494
 20
64.591
 21
64.522
  0
LINE
  8
0
 10
178.494
 11
178.8
 20
64.522
 21
64.386
  0
LINE
  8
0
 10
178.8
 11
179.071
 20
64.386
 21
64.189
  0
LINE
  8
0
 10
179.071
 11
179.294
 20
64.189
 21
63.94
  0
LINE
  8
0
 10
179.294
 11
179.462
 20
63.94
 21
63.651
  0
LINE
  8
0
 10
179.462
 11
179.565
 20
63.651
 21
63.333
  0
LINE
  8
0
 10
179.565
 11
179.6
 20
63.333
 21
63
  0
LINE
  8
0
 10
179.6
 11
179.565
 20
63
 21
62.667
  0
LINE
  8
0
 10
179.565
 11
179.462
 20
62.667
 21
62.349
  0
LINE
  8
0
 10
179.462
 11
179.294
 20
62.349
 21
62.06
  0
LINE
  8
0
 10
179.294
 11
179.071
 20
62.06
 21
61.811
  0
LINE
  8
0
 10
179.071
 11
178.8
 20
61.811
 21
61.614
  0
LINE
  8
0
 10
178.8
 11
178.494
 20
61.614
 21
61.478
  0
LINE
  8
0
 10
178.494
 11
178.167
 20
61.478
 21
61.409
  0
LINE
  8
0
 10
178.167
 11
177.833
 20
61.409
 21
61.409
  0
LINE
  8
0
 10
177.833
 11
177.506
 20
61.409
 21
61.478
  0
LINE
  8
0
 10
177.506
 11
177.2
 20
61.478
 21
61.614
  0
LINE
  8
0
 10
177.2
 11
176.929
 20
61.614
 21
61.811
  0
LINE
  8
0
 10
176.929
 11
176.706
 20
61.811
 21
62.06
  0
LINE
  8
0
 10
176.706
 11
176.538
 20
62.06
 21
62.349
  0
LINE
  8
0
 10
176.538
 11
176.435
 20
62.349
 21
62.667
  0
LINE
  8
0
 10
176.435
 11
176.4
 20
62.667
 21
63
  0
LINE
  8
0
 10
176.4
 11
176.435
 20
77
 21
77.333
  0
LINE
  8
0
 10
176.435
 11
176.538
 20
77.333
 21
77.651
  0
LINE
  8
0
 10
176.538
 11
176.706
 20
77.651
 21
77.94
  0
LINE
  8
0
 10
176.706
 11
176.929
 20
77.94
 21
78.189
  0
LINE
  8
0
 10
176.929
 11
177.2
 20
78.189
 21
78.386
  0
LINE
  8
0
 10
177.2
 11
177.506
 20
78.386
 21
78.522
  0
LINE
  8
0
 10
177.506
 11
177.833
 20
78.522
 21
78.591
  0
LINE
  8
0
 10
177.833
 11
178.167
 20
78.591
 21
78.591
  0
LINE
  8
0
 10
178.167
 11
178.494
 20
78.591
 21
78.522
  0
LINE
  8
0
 10
178.494
 11
178.8
 20
78.522
 21
78.386
  0
LINE
  8
0
 10
178.8
 11
179.071
 20
78.386
 21
78.189
  0
LINE
  8
0
 10
179.071
 11
179.294
 20
78.189
 21
77.94
  0
LINE
  8
0
 10
179.294
 11
179.462
 20
77.94
 21
77.651
  0
LINE
  8
0
 10
179.462
 11
179.565
 20
77.651
 21
77.333
  0
LINE
  8
0
 10
179.565
 11
179.6
 20
77.333
 21
77
  0
LINE
  8
0
 10
179.6
 11
179.565
 20
77
 21
76.667
  0
LINE
  8
0
 10
179.565
 11
179.462
 20
76.667
 21
76.349
  0
LINE
  8
0
 10
179.462
 11
179.294
 20
76.349
 21
76.06
  0
LINE
  8
0
 10
179.294
 11
179.071
 20
76.06
 21
75.811
  0
LINE
  8
0
 10
179.071
 11
178.8
 20
75.811
 21
75.614
  0
LINE
  8
0
 10
178.8
 11
178.494
 20
75.614
 21
75.478
  0
LINE
  8
0
 10
178.494
 11
178.167
 20
75.478
 21
75.409
  0
LINE
  8
0
 10
178.167
 11
177.833
 20
75.409
 21
75.409
  0
LINE
  8
0
 10
177.833
 11
177.506
 20
75.409
 21
75.478
  0
LINE
  8
0
 10
177.506
 11
177.2
 20
75.478
 21
75.614
  0
LINE
  8
0
 10
177.2
 11
176.929
 20
75.614
 21
75.811
  0
LINE
  8
0
 10
176.929
 11
176.706
 20
75.811
 21
76.06
  0
LINE
  8
0
 10
176.706
 11
176.538
 20
76.06
 21
76.349
  0
LINE
  8
0
 10
176.538
 11
176.435
 20
76.349
 21
76.667
  0
LINE
  8
0
 10
176.435
 11
176.4
 20
76.667
 21
77
  0
LINE
  8
0
 10
176.4
 11
176.435
 20
121
 21
121.333
  0
LINE
  8
0
 10
176.435
 11
176.538
 20
121.333
 21
121.651
  0
LINE
  8
0
 10
176.538
 11
176.706
 20
121.651
 21
121.94
  0
LINE
  8
0
 10
176.706
 11
176.929
 20
121.94
 21
122.189
  0
LINE
  8
0
 10
176.929
 11
177.2
 20
122.189
 21
122.386
  0
LINE
  8
0
 10
177.2
 11
177.506
 20
122.386
 21
122.522
  0
LINE
  8
0
 10
177.506
 11
177.833
 20
122.522
 21
122.591
  0
LINE
  8
0
 10
177.833
 11
178.167
 20
122.591
 21
122.591
  0
LINE
  8
0
 10
178.167
 11
178.494
 20
122.591
 21
122.522
  0
LINE
  8
0
 10
178.494
 11
178.8
 20
122.522
 21
122.386
  0
LINE
  8
0
 10
178.8
 11
179.071
 20
122.386
 21
122.189
  0
LINE
  8
0
 10
179.071
 11
179.294
 20
122.189
 21
121.94
  0
LINE
  8
0
 10
179.294
 11
179.462
 20
121.94
 21
121.651
  0
LINE
  8
0
 10
179.462
 11
179.565
 20
121.651
 21
121.333
  0
LINE
  8
0
 10
179.565
 11
179.6
 20
121.333
 21
121
  0
LINE
  8
0
 10
179.6
 11
179.565
 20
121
 21
120.667
  0
LINE
  8
0
 10
179.565
 11
179.462
 20
120.667
 21
120.349
  0
LINE
  8
0
 10
179.462
 11
179.294
 20
120.349
 21
120.06
  0
LINE
  8
0
 10
179.294
 11
179.071
 20
120.06
 21
119.811
  0
LINE
  8
0
 10
179.071
 11
178.8
 20
119.811
 21
119.614
  0
LINE
  8
0
 10
178.8
 11
178.494
 20
119.614
 21
119.478
  0
LINE
  8
0
 10
178.494
 11
178.167
 20
119.478
 21
119.409
  0
LINE
  8
0
 10
178.167
 11
177.833
 20
119.409
 21
119.409
  0
LINE
  8
0
 10
177.833
 11
177.506
 20
119.409
 21
119.478
  0
LINE
  8
0
 10
177.506
 11
177.2
 20
119.478
 21
119.614
  0
LINE
  8
0
 10
177.2
 11
176.929
 20
119.614
 21
119.811
  0
LINE
  8
0
 10
176.929
 11
176.706
 20
119.811
 21
120.06
  0
LINE
  8
0
 10
176.706
 11
176.538
 20
120.06
 21
120.349
  0
LINE
  8
0
 10
176.538
 11
176.435
 20
120.349
 21
120.667
  0
LINE
  8
0
 10
176.435
 11
176.4
 20
120.667
 21
121
  0
LINE
  8
0
 10
176.4
 11
176.435
 20
135
 21
135.333
  0
LINE
  8
0
 10
176.435
 11
176.538
 20
135.333
 21
135.651
  0
LINE
  8
0
 10
176.538
 11
176.706
 20
135.651
 21
135.94
  0
LINE
  8
0
 10
176.706
 11
176.929
 20
135.94
 21
136.189
  0
LINE
  8
0
 10
176.929
 11
177.2
 20
136.189
 21
136.386
  0
LINE
  8
0
 10
177.2
 11
177.506
 20
136.386
 21
136.522
  0
LINE
  8
0
 10
177.506
 11
177.833
 20
136.522
 21
136.591
  0
LINE
  8
0
 10
177.833
 11
178.167
 20
136.591
 21
136.591
  0
LINE
  8
0
 10
178.167
 11
178.494
 20
136.591
 21
136.522
  0
LINE
  8
0
 10
178.494
 11
178.8
 20
136.522
 21
136.386
  0
LINE
  8
0
 10
178.8
 11
179.071
 20
136.386
 21
136.189
  0
LINE
  8
0
 10
179.071
 11
179.294
 20
136.189
 21
135.94
  0
LINE
  8
0
 10
179.294
 11
179.462
 20
135.94
 21
135.651
  0
LINE
  8
0
 10
179.462
 11
179.565
 20
135.651
 21
135.333
  0
LINE
  8
0
 10
179.565
 11
179.6
 20
135.333
 21
135
  0
LINE
  8
0
 10
179.6
 11
179.565
 20
135
 21
134.667
  0
LINE
  8
0
 10
179.565
 11
179.462
 20
134.667
 21
134.349
  0
LINE
  8
0
 10
179.462
 11
179.294
 20
134.349
 21
134.06
  0
LINE
  8
0
 10
179.294
 11
179.071
 20
134.06
 21
133.811
  0
LINE
  8
0
 10
179.071
 11
178.8
 20
133.811
 21
133.614
  0
LINE
  8
0
 10
178.8
 11
178.494
 20
133.614
 21
133.478
  0
LINE
  8
0
 10
178.494
 11
178.167
 20
133.478
 21
133.409
  0
LINE
  8
0
 10
178.167
 11
177.833
 20
133.409
 21
133.409
  0
LINE
  8
0
 10
177.833
 11
177.506
 20
133.409
 21
133.478
  0
LINE
  8
0
 10
177.506
 11
177.2
 20
133.478
 21
133.614
  0
LINE
  8
0
 10
177.2
 11
176.929
 20
133.614
 21
133.811
  0
LINE
  8
0
 10
176.929
 11
176.706
 20
133.811
 21
134.06
  0
LINE
  8
0
 10
176.706
 11
176.538
 20
134.06
 21
134.349
  0
LINE
  8
0
 10
176.538
 11
176.435
 20
134.349
 21
134.667
  0
LINE
  8
0
 10
176.435
 11
176.4
 20
134.667
 21
135
  0
LINE
  8
0
 10
207.4
 11
207.435
 20
5
 21
5.333
  0
LINE
  8
0
 10
207.435
 11
207.538
 20
5.333
 21
5.651
  0
LINE
  8
0
 10
207.538
 11
207.706
 20
5.651
 21
5.94
  0
LINE
  8
0
 10
207.706
 11
207.929
 20
5.94
 21
6.189
  0
LINE
  8
0
 10
207.929
 11
208.2
 20
6.189
 21
6.386
  0
LINE
  8
0
 10
208.2
 11
208.506
 20
6.386
 21
6.522
  0
LINE
  8
0
 10
208.506
 11
208.833
 20
6.522
 21
6.591
  0
LINE
  8
0
 10
208.833
 11
209.167
 20
6.591
 21
6.591
  0
LINE
  8
0
 10
209.167
 11
209.494
 20
6.591
 21
6.522
  0
LINE
  8
0
 10
209.494
 11
209.8
 20
6.522
 21
6.386
  0
LINE
  8
0
 10
209.8
 11
210.071
 20
6.386
 21
6.189
  0
LINE
  8
0
 10
210.071
 11
210.294
 20
6.189
 21
5.94
  0
LINE
  8
0
 10
210.294
 11
210.462
 20
5.94
 21
5.651
  0
LINE
  8
0
 10
210.462
 11
210.565
 20
5.651
 21
5.333
  0
LINE
  8
0
 10
210.565
 11
210.6
 20
5.333
 21
5
  0
LINE
  8
0
 10
210.6
 11
210.565
 20
5
 21
4.667
  0
LINE
  8
0
 10
210.565
 11
210.462
 20
4.667
 21
4.349
  0
LINE
  8
0
 10
210.462
 11
210.294
 20
4.349
 21
4.06
  0
LINE
  8
0
 10
210.294
 11
210.071
 20
4.06
 21
3.811
  0
LINE
  8
0
 10
210.071
 11
209.8
 20
3.811
 21
3.614
  0
LINE
  8
0
 10
209.8
 11
209.494
 20
3.614
 21
3.478
  0
LINE
  8
0
 10
209.494
 11
209.167
 20
3.478
 21
3.409
  0
LINE
  8
0
 10
209.167
 11
208.833
 20
3.409
 21
3.409
  0
LINE
  8
0
 10
208.833
 11
208.506
 20
3.409
 21
3.478
  0
LINE
  8
0
 10
208.506
 11
208.2
 20
3.478
 21
3.614
  0
LINE
  8
0
 10
208.2
 11
207.929
 20
3.614
 21
3.811
  0
LINE
  8
0
 10
207.929
 11
207.706
 20
3.811
 21
4.06
  0
LINE
  8
0
 10
207.706
 11
207.538
 20
4.06
 21
4.349
  0
LINE
  8
0
 10
207.538
 11
207.435
 20
4.349
 21
4.667
  0
LINE
  8
0
 10
207.435
 11
207.4
 20
4.667
 21
5
  0
LINE
  8
0
 10
207.4
 11
207.435
 20
19
 21
19.333
  0
LINE
  8
0
 10
207.435
 11
207.538
 20
19.333
 21
19.651
  0
LINE
  8
0
 10
207.538
 11
207.706
 20
19.651
 21
19.94
  0
LINE
  8
0
 10
207.706
 11
207.929
 20
19.94
 21
20.189
  0
LINE
  8
0
 10
207.929
 11
208.2
 20
20.189
 21
20.386
  0
LINE
  8
0
 10
208.2
 11
208.506
 20
20.386
 21
20.522
  0
LINE
  8
0
 10
208.506
 11
208.833
 20
20.522
 21
20.591
  0
LINE
  8
0
 10
208.833
 11
209.167
 20
20.591
 21
20.591
  0
LINE
  8
0
 10
209.167
 11
209.494
 20
20.591
 21
20.522
  0
LINE
  8
0
 10
209.494
 11
209.8
 20
20.522
 21
20.386
  0
LINE
  8
0
 10
209.8
 11
210.071
 20
20.386
 21
20.189
  0
LINE
  8
0
 10
210.071
 11
210.294
 20
20.189
 21
19.94
  0
LINE
  8
0
 10
210.294
 11
210.462
 20
19.94
 21
19.651
  0
LINE
  8
0
 10
210.462
 11
210.565
 20
19.651
 21
19.333
  0
LINE
  8
0
 10
210.565
 11
210.6
 20
19.333
 21
19
  0
LINE
  8
0
 10
210.6
 11
210.565
 20
19
 21
18.667
  0
LINE
  8
0
 10
210.565
 11
210.462
 20
18.667
 21
18.349
  0
LINE
  8
0
 10
210.462
 11
210.294
 20
18.349
 21
18.06
  0
LINE
  8
0
 10
210.294
 11
210.071
 20
18.06
 21
17.811
  0
LINE
  8
0
 10
210.071
 11
209.8
 20
17.811
 21
17.614
  0
LINE
  8
0
 10
209.8
 11
209.494
 20
17.614
 21
17.478
  0
LINE
  8
0
 10
209.494
 11
209.167
 20
17.478
 21
17.409
  0
LINE
  8
0
 10
209.167
 11
208.833
 20
17.409
 21
17.409
  0
LINE
  8
0
 10
208.833
 11
208.506
 20
17.409
 21
17.478
  0
LINE
  8
0
 10
208.506
 11
208.2
 20
17.478
 21
17.614
  0
LINE
  8
0
 10
208.2
 11
207.929
 20
17.614
 21
17.811
  0
LINE
  8
0
 10
207.929
 11
207.706
 20
17.811
 21
18.06
  0
LINE
  8
0
 10
207.706
 11
207.538
 20
18.06
 21
18.349
  0
LINE
  8
0
 10
207.538
 11
207.435
 20
18.349
 21
18.667
  0
LINE
  8
0
 10
207.435
 11
207.4
 20
18.667
 21
19
  0
LINE
  8
0
 10
207.4
 11
207.435
 20
63
 21
63.333
  0
LINE
  8
0
 10
207.435
 11
207.538
 20
63.333
 21
63.651
  0
LINE
  8
0
 10
207.538
 11
207.706
 20
63.651
 21
63.94
  0
LINE
  8
0
 10
207.706
 11
207.929
 20
63.94
 21
64.189
  0
LINE
  8
0
 10
207.929
 11
208.2
 20
64.189
 21
64.386
  0
LINE
  8
0
 10
208.2
 11
208.506
 20
64.386
 21
64.522
  0
LINE
  8
0
 10
208.506
 11
208.833
 20
64.522
 21
64.591
  0
LINE
  8
0
 10
208.833
 11
209.167
 20
64.591
 21
64.591
  0
LINE
  8
0
 10
209.167
 11
209.494
 20
64.591
 21
64.522
  0
LINE
  8
0
 10
209.494
 11
209.8
 20
64.522
 21
64.386
  0
LINE
  8
0
 10
209.8
 11
210.071
 20
64.386
 21
64.189
  0
LINE
  8
0
 10
210.071
 11
210.294
 20
64.189
 21
63.94
  0
LINE
  8
0
 10
210.294
 11
210.462
 20
63.94
 21
63.651
  0
LINE
  8
0
 10
210.462
 11
210.565
 20
63.651
 21
63.333
  0
LINE
  8
0
 10
210.565
 11
210.6
 20
63.333
 21
63
  0
LINE
  8
0
 10
210.6
 11
210.565
 20
63
 21
62.667
  0
LINE
  8
0
 10
210.565
 11
210.462
 20
62.667
 21
62.349
  0
LINE
  8
0
 10
210.462
 11
210.294
 20
62.349
 21
62.06
  0
LINE
  8
0
 10
210.294
 11
210.071
 20
62.06
 21
61.811
  0
LINE
  8
0
 10
210.071
 11
209.8
 20
61.811
 21
61.614
  0
LINE
  8
0
 10
209.8
 11
209.494
 20
61.614
 21
61.478
  0
LINE
  8
0
 10
209.494
 11
209.167
 20
61.478
 21
61.409
  0
LINE
  8
0
 10
209.167
 11
208.833
 20
61.409
 21
61.409
  0
LINE
  8
0
 10
208.833
 11
208.506
 20
61.409
 21
61.478
  0
LINE
  8
0
 10
208.506
 11
208.2
 20
61.478
 21
61.614
  0
LINE
  8
0
 10
208.2
 11
207.929
 20
61.614
 21
61.811
  0
LINE
  8
0
 10
207.929
 11
207.706
 20
61.811
 21
62.06
  0
LINE
  8
0
 10
207.706
 11
207.538
 20
62.06
 21
62.349
  0
LINE
  8
0
 10
207.538
 11
207.435
 20
62.349
 21
62.667
  0
LINE
  8
0
 10
207.435
 11
207.4
 20
62.667
 21
63
  0
LINE
  8
0
 10
207.4
 11
207.435
 20
77
 21
77.333
  0
LINE
  8
0
 10
207.435
 11
207.538
 20
77.333
 21
77.651
  0
LINE
  8
0
 10
207.538
 11
207.706
 20
77.651
 21
77.94
  0
LINE
  8
0
 10
207.706
 11
207.929
 20
77.94
 21
78.189
  0
LINE
  8
0
 10
207.929
 11
208.2
 20
78.189
 21
78.386
  0
LINE
  8
0
 10
208.2
 11
208.506
 20
78.386
 21
78.522
  0
LINE
  8
0
 10
208.506
 11
208.833
 20
78.522
 21
78.591
  0
LINE
  8
0
 10
208.833
 11
209.167
 20
78.591
 21
78.591
  0
LINE
  8
0
 10
209.167
 11
209.494
 20
78.591
 21
78.522
  0
LINE
  8
0
 10
209.494
 11
209.8
 20
78.522
 21
78.386
  0
LINE
  8
0
 10
209.8
 11
210.071
 20
78.386
 21
78.189
  0
LINE
  8
0
 10
210.071
 11
210.294
 20
78.189
 21
77.94
  0
LINE
  8
0
 10
210.294
 11
210.462
 20
77.94
 21
77.651
  0
LINE
  8
0
 10
210.462
 11
210.565
 20
77.651
 21
77.333
  0
LINE
  8
0
 10
210.565
 11
210.6
 20
77.333
 21
77
  0
LINE
  8
0
 10
210.6
 11
210.565
 20
77
 21
76.667
  0
LINE
  8
0
 10
210.565
 11
210.462
 20
76.667
 21
76.349
  0
LINE
  8
0
 10
210.462
 11
210.294
 20
76.349
 21
76.06
  0
LINE
  8
0
 10
210.294
 11
210.071
 20
76.06
 21
75.811
  0
LINE
  8
0
 10
210.071
 11
209.8
 20
75.811
 21
75.614
  0
LINE
  8
0
 10
209.8
 11
209.494
 20
75.614
 21
75.478
  0
LINE
  8
0
 10
209.494
 11
209.167
 20
75.478
 21
75.409
  0
LINE
  8
0
 10
209.167
 11
208.833
 20
75.409
 21
75.409
  0
LINE
  8
0
 10
208.833
 11
208.506
 20
75.409
 21
75.478
  0
LINE
  8
0
 10
208.506
 11
208.2
 20
75.478
 21
75.614
  0
LINE
  8
0
 10
208.2
 11
207.929
 20
75.614
 21
75.811
  0
LINE
  8
0
 10
207.929
 11
207.706
 20
75.811
 21
76.06
  0
LINE
  8
0
 10
207.706
 11
207.538
 20
76.06
 21
76.349
  0
LINE
  8
0
 10
207.538
 11
207.435
 20
76.349
 21
76.667
  0
LINE
  8
0
 10
207.435
 11
207.4
 20
76.667
 21
77
  0
LINE
  8
0
 10
207.4
 11
207.435
 20
121
 21
121.333
  0
LINE
  8
0
 10
207.435
 11
207.538
 20
121.333
 21
121.651
  0
LINE
  8
0
 10
207.538
 11
207.706
 20
121.651
 21
121.94
  0
LINE
  8
0
 10
207.706
 11
207.929
 20
121.94
 21
122.189
  0
LINE
  8
0
 10
207.929
 11
208.2
 20
122.189
 21
122.386
  0
LINE
  8
0
 10
208.2
 11
208.506
 20
122.386
 21
122.522
  0
LINE
  8
0
 10
208.506
 11
208.833
 20
122.522
 21
122.591
  0
LINE
  8
0
 10
208.833
 11
209.167
 20
122.591
 21
122.591
  0
LINE
  8
0
 10
209.167
 11
209.494
 20
122.591
 21
122.522
  0
LINE
  8
0
 10
209.494
 11
209.8
 20
122.522
 21
122.386
  0
LINE
  8
0
 10
209.8
 11
210.071
 20
122.386
 21
122.189
  0
LINE
  8
0
 10
210.071
 11
210.294
 20
122.189
 21
121.94
  0
LINE
  8
0
 10
210.294
 11
210.462
 20
121.94
 21
121.651
  0
LINE
  8
0
 10
210.462
 11
210.565
 20
121.651
 21
121.333
  0
LINE
  8
0
 10
210.565
 11
210.6
 20
121.333
 21
121
  0
LINE
  8
0
 10
210.6
 11
210.565
 20
121
 21
120.667
  0
LINE
  8
0
 10
210.565
 11
210.462
 20
120.667
 21
120.349
  0
LINE
  8
0
 10
210.462
 11
210.294
 20
120.349
 21
120.06
  0
LINE
  8
0
 10
210.294
 11
210.071
 20
120.06
 21
119.811
  0
LINE
  8
0
 10
210.071
 11
209.8
 20
119.811
 21
119.614
  0
LINE
  8
0
 10
209.8
 11
209.494
 20
119.614
 21
119.478
  0
LINE
  8
0
 10
209.494
 11
209.167
 20
119.478
 21
119.409
  0
LINE
  8
0
 10
209.167
 11
208.833
 20
119.409
 21
119.409
  0
LINE
  8
0
 10
208.833
 11
208.506
 20
119.409
 21
119.478
  0
LINE
  8
0
 10
208.506
 11
208.2
 20
119.478
 21
119.614
  0
LINE
  8
0
 10
208.2
 11
207.929
 20
119.614
 21
119.811
  0
LINE
  8
0
 10
207.929
 11
207.706
 20
119.811
 21
120.06
  0
LINE
  8
0
 10
207.706
 11
207.538
 20
120.06
 21
120.349
  0
LINE
  8
0
 10
207.538
 11
207.435
 20
120.349
 21
120.667
  0
LINE
  8
0
 10
207.435
 11
207.4
 20
120.667
 21
121
  0
LINE
  8
0
 10
207.4
 11
207.435
 20
135
 21
135.333
  0
LINE
  8
0
 10
207.435
 11
207.538
 20
135.333
 21
135.651
  0
LINE
  8
0
 10
207.538
 11
207.706
 20
135.651
 21
135.94
  0
LINE
  8
0
 10
207.706
 11
207.929
 20
135.94
 21
136.189
  0
LINE
  8
0
 10
207.929
 11
208.2
 20
136.189
 21
136.386
  0
LINE
  8
0
 10
208.2
 11
208.506
 20
136.386
 21
136.522
  0
LINE
  8
0
 10
208.506
 11
208.833
 20
136.522
 21
136.591
  0
LINE
  8
0
 10
208.833
 11
209.167
 20
136.591
 21
136.591
  0
LINE
  8
0
 10
209.167
 11
209.494
 20
136.591
 21
136.522
  0
LINE
  8
0
 10
209.494
 11
209.8
 20
136.522
 21
136.386
  0
LINE
  8
0
 10
209.8
 11
210.071
 20
136.386
 21
136.189
  0
LINE
  8
0
 10
210.071
 11
210.294
 20
136.189
 21
135.94
  0
LINE
  8
0
 10
210.294
 11
210.462
 20
135.94
 21
135.651
  0
LINE
  8
0
 10
210.462
 11
210.565
 20
135.651
 21
135.333
  0
LINE
  8
0
 10
210.565
 11
210.6
 20
135.333
 21
135
  0
LINE
  8
0
 10
210.6
 11
210.565
 20
135
 21
134.667
  0
LINE
  8
0
 10
210.565
 11
210.462
 20
134.667
 21
134.349
  0
LINE
  8
0
 10
210.462
 11
210.294
 20
134.349
 21
134.06
  0
LINE
  8
0
 10
210.294
 11
210.071
 20
134.06
 21
133.811
  0
LINE
  8
0
 10
210.071
 11
209.8
 20
133.811
 21
133.614
  0
LINE
  8
0
 10
209.8
 11
209.494
 20
133.614
 21
133.478
  0
LINE
  8
0
 10
209.494
 11
209.167
 20
133.478
 21
133.409
  0
LINE
  8
0
 10
209.167
 11
208.833
 20
133.409
 21
133.409
  0
LINE
  8
0
 10
208.833
 11
208.506
 20
133.409
 21
133.478
  0
LINE
  8
0
 10
208.506
 11
208.2
 20
133.478
 21
133.614
  0
LINE
  8
0
 10
208.2
 11
207.929
 20
133.614
 21
133.811
  0
LINE
  8
0
 10
207.929
 11
207.706
 20
133.811
 21
134.06
  0
LINE
  8
0
 10
207.706
 11
207.538
 20
134.06
 21
134.349
  0
LINE
  8
0
 10
207.538
 11
207.435
 20
134.349
 21
134.667
  0
LINE
  8
0
 10
207.435
 11
207.4
 20
134.667
 21
135
  0
LINE
  8
0
 10
0
 11
0
 20
0
 21
140
  0
LINE
  8
0
 10
0
 11
239
 20
140
 21
140
  0
LINE
  8
0
 10
239
 11
239
 20
140
 21
0
  0
LINE
  8
0
 10
239
 11
0
 20
0
 21
0
  0
LINE
  8
0
 10
229.4
 11
229.435
 20
8
 21
8.333
  0
LINE
  8
0
 10
229.435
 11
229.538
 20
8.333
 21
8.651
  0
LINE
  8
0
 10
229.538
 11
229.706
 20
8.651
 21
8.94
  0
LINE
  8
0
 10
229.706
 11
229.929
 20
8.94
 21
9.189
  0
LINE
  8
0
 10
229.929
 11
230.2
 20
9.189
 21
9.386
  0
LINE
  8
0
 10
230.2
 11
230.506
 20
9.386
 21
9.522
  0
LINE
  8
0
 10
230.506
 11
230.833
 20
9.522
 21
9.591
  0
LINE
  8
0
 10
230.833
 11
231.167
 20
9.591
 21
9.591
  0
LINE
  8
0
 10
231.167
 11
231.494
 20
9.591
 21
9.522
  0
LINE
  8
0
 10
231.494
 11
231.8
 20
9.522
 21
9.386
  0
LINE
  8
0
 10
231.8
 11
232.071
 20
9.386
 21
9.189
  0
LINE
  8
0
 10
232.071
 11
232.294
 20
9.189
 21
8.94
  0
LINE
  8
0
 10
232.294
 11
232.462
 20
8.94
 21
8.651
  0
LINE
  8
0
 10
232.462
 11
232.565
 20
8.651
 21
8.333
  0
LINE
  8
0
 10
232.565
 11
232.6
 20
8.333
 21
8
  0
LINE
  8
0
 10
232.6
 11
232.565
 20
8
 21
7.667
  0
LINE
  8
0
 10
232.565
 11
232.462
 20
7.667
 21
7.349
  0
LINE
  8
0
 10
232.462
 11
232.294
 20
7.349
 21
7.06
  0
LINE
  8
0
 10
232.294
 11
232.071
 20
7.06
 21
6.811
  0
LINE
  8
0
 10
232.071
 11
231.8
 20
6.811
 21
6.614
  0
LINE
  8
0
 10
231.8
 11
231.494
 20
6.614
 21
6.478
  0
LINE
  8
0
 10
231.494
 11
231.167
 20
6.478
 21
6.409
  0
LINE
  8
0
 10
231.167
 11
230.833
 20
6.409
 21
6.409
  0
LINE
  8
0
 10
230.833
 11
230.506
 20
6.409
 21
6.478
  0
LINE
  8
0
 10
230.506
 11
230.2
 20
6.478
 21
6.614
  0
LINE
  8
0
 10
230.2
 11
229.929
 20
6.614
 21
6.811
  0
LINE
  8
0
 10
229.929
 11
229.706
 20
6.811
 21
7.06
  0
LINE
  8
0
 10
229.706
 11
229.538
 20
7.06
 21
7.349
  0
LINE
  8
0
 10
229.538
 11
229.435
 20
7.349
 21
7.667
  0
LINE
  8
0
 10
229.435
 11
229.4
 20
7.667
 21
8
  0
LINE
  8
0
 10
229.4
 11
229.435
 20
132
 21
132.333
  0
LINE
  8
0
 10
229.435
 11
229.538
 20
132.333
 21
132.651
  0
LINE
  8
0
 10
229.538
 11
229.706
 20
132.651
 21
132.94
  0
LINE
  8
0
 10
229.706
 11
229.929
 20
132.94
 21
133.189
  0
LINE
  8
0
 10
229.929
 11
230.2
 20
133.189
 21
133.386
  0
LINE
  8
0
 10
230.2
 11
230.506
 20
133.386
 21
133.522
  0
LINE
  8
0
 10
230.506
 11
230.833
 20
133.522
 21
133.591
  0
LINE
  8
0
 10
230.833
 11
231.167
 20
133.591
 21
133.591
  0
LINE
  8
0
 10
231.167
 11
231.494
 20
133.591
 21
133.522
  0
LINE
  8
0
 10
231.494
 11
231.8
 20
133.522
 21
133.386
  0
LINE
  8
0
 10
231.8
 11
232.071
 20
133.386
 21
133.189
  0
LINE
  8
0
 10
232.071
 11
232.294
 20
133.189
 21
132.94
  0
LINE
  8
0
 10
232.294
 11
232.462
 20
132.94
 21
132.651
  0
LINE
  8
0
 10
232.462
 11
232.565
 20
132.651
 21
132.333
  0
LINE
  8
0
 10
232.565
 11
232.6
 20
132.333
 21
132
  0
LINE
  8
0
 10
232.6
 11
232.565
 20
132
 21
131.667
  0
LINE
  8
0
 10
232.565
 11
232.462
 20
131.667
 21
131.349
  0
LINE
  8
0
 10
232.462
 11
232.294
 20
131.349
 21
131.06
  0
LINE
  8
0
 10
232.294
 11
232.071
 20
131.06
 21
130.811
  0
LINE
  8
0
 10
232.071
 11
231.8
 20
130.811
 21
130.614
  0
LINE
  8
0
 10
231.8
 11
231.494
 20
130.614
 21
130.478
  0
LINE
  8
0
 10
231.494
 11
231.167
 20
130.478
 21
130.409
  0
LINE
  8
0
 10
231.167
 11
230.833
 20
130.409
 21
130.409
  0
LINE
  8
0
 10
230.833
 11
230.506
 20
130.409
 21
130.478
  0
LINE
  8
0
 10
230.506
 11
230.2
 20
130.478
 21
130.614
  0
LINE
  8
0
 10
230.2
 11
229.929
 20
130.614
 21
130.811
  0
LINE
  8
0
 10
229.929
 11
229.706
 20
130.811
 21
131.06
  0
LINE
  8
0
 10
229.706
 11
229.538
 20
131.06
 21
131.349
  0
LINE
  8
0
 10
229.538
 11
229.435
 20
131.349
 21
131.667
  0
LINE
  8
0
 10
229.435
 11
229.4
 20
131.667
 21
132
  0
ENDSEC
  0
SECTION
  2
OBJECTS
  0
DICTIONARY
  0
ENDSEC
  0
EOF
