  0
SECTION
  2
BLOCKS
  0
ENDSEC
  0
SECTION
  2
ENTITIES
  0
LINE
  8
0
 10
0
 11
0
 20
0
 21
239
  0
LINE
  8
0
 10
0
 11
239
 20
239
 21
239
  0
LINE
  8
0
 10
239
 11
239
 20
239
 21
0
  0
LINE
  8
0
 10
239
 11
0
 20
0
 21
0
  0
LINE
  8
0
 10
6.4
 11
6.435
 20
57.5
 21
57.833
  0
LINE
  8
0
 10
6.435
 11
6.538
 20
57.833
 21
58.151
  0
LINE
  8
0
 10
6.538
 11
6.706
 20
58.151
 21
58.44
  0
LINE
  8
0
 10
6.706
 11
6.929
 20
58.44
 21
58.689
  0
LINE
  8
0
 10
6.929
 11
7.2
 20
58.689
 21
58.886
  0
LINE
  8
0
 10
7.2
 11
7.506
 20
58.886
 21
59.022
  0
LINE
  8
0
 10
7.506
 11
7.833
 20
59.022
 21
59.091
  0
LINE
  8
0
 10
7.833
 11
8.167
 20
59.091
 21
59.091
  0
LINE
  8
0
 10
8.167
 11
8.494
 20
59.091
 21
59.022
  0
LINE
  8
0
 10
8.494
 11
8.8
 20
59.022
 21
58.886
  0
LINE
  8
0
 10
8.8
 11
9.071
 20
58.886
 21
58.689
  0
LINE
  8
0
 10
9.071
 11
9.294
 20
58.689
 21
58.44
  0
LINE
  8
0
 10
9.294
 11
9.462
 20
58.44
 21
58.151
  0
LINE
  8
0
 10
9.462
 11
9.565
 20
58.151
 21
57.833
  0
LINE
  8
0
 10
9.565
 11
9.6
 20
57.833
 21
57.5
  0
LINE
  8
0
 10
9.6
 11
9.565
 20
57.5
 21
57.167
  0
LINE
  8
0
 10
9.565
 11
9.462
 20
57.167
 21
56.849
  0
LINE
  8
0
 10
9.462
 11
9.294
 20
56.849
 21
56.56
  0
LINE
  8
0
 10
9.294
 11
9.071
 20
56.56
 21
56.311
  0
LINE
  8
0
 10
9.071
 11
8.8
 20
56.311
 21
56.114
  0
LINE
  8
0
 10
8.8
 11
8.494
 20
56.114
 21
55.978
  0
LINE
  8
0
 10
8.494
 11
8.167
 20
55.978
 21
55.909
  0
LINE
  8
0
 10
8.167
 11
7.833
 20
55.909
 21
55.909
  0
LINE
  8
0
 10
7.833
 11
7.506
 20
55.909
 21
55.978
  0
LINE
  8
0
 10
7.506
 11
7.2
 20
55.978
 21
56.114
  0
LINE
  8
0
 10
7.2
 11
6.929
 20
56.114
 21
56.311
  0
LINE
  8
0
 10
6.929
 11
6.706
 20
56.311
 21
56.56
  0
LINE
  8
0
 10
6.706
 11
6.538
 20
56.56
 21
56.849
  0
LINE
  8
0
 10
6.538
 11
6.435
 20
56.849
 21
57.167
  0
LINE
  8
0
 10
6.435
 11
6.4
 20
57.167
 21
57.5
  0
LINE
  8
0
 10
6.4
 11
6.435
 20
181.5
 21
181.833
  0
LINE
  8
0
 10
6.435
 11
6.538
 20
181.833
 21
182.151
  0
LINE
  8
0
 10
6.538
 11
6.706
 20
182.151
 21
182.44
  0
LINE
  8
0
 10
6.706
 11
6.929
 20
182.44
 21
182.689
  0
LINE
  8
0
 10
6.929
 11
7.2
 20
182.689
 21
182.886
  0
LINE
  8
0
 10
7.2
 11
7.506
 20
182.886
 21
183.022
  0
LINE
  8
0
 10
7.506
 11
7.833
 20
183.022
 21
183.091
  0
LINE
  8
0
 10
7.833
 11
8.167
 20
183.091
 21
183.091
  0
LINE
  8
0
 10
8.167
 11
8.494
 20
183.091
 21
183.022
  0
LINE
  8
0
 10
8.494
 11
8.8
 20
183.022
 21
182.886
  0
LINE
  8
0
 10
8.8
 11
9.071
 20
182.886
 21
182.689
  0
LINE
  8
0
 10
9.071
 11
9.294
 20
182.689
 21
182.44
  0
LINE
  8
0
 10
9.294
 11
9.462
 20
182.44
 21
182.151
  0
LINE
  8
0
 10
9.462
 11
9.565
 20
182.151
 21
181.833
  0
LINE
  8
0
 10
9.565
 11
9.6
 20
181.833
 21
181.5
  0
LINE
  8
0
 10
9.6
 11
9.565
 20
181.5
 21
181.167
  0
LINE
  8
0
 10
9.565
 11
9.462
 20
181.167
 21
180.849
  0
LINE
  8
0
 10
9.462
 11
9.294
 20
180.849
 21
180.56
  0
LINE
  8
0
 10
9.294
 11
9.071
 20
180.56
 21
180.311
  0
LINE
  8
0
 10
9.071
 11
8.8
 20
180.311
 21
180.114
  0
LINE
  8
0
 10
8.8
 11
8.494
 20
180.114
 21
179.978
  0
LINE
  8
0
 10
8.494
 11
8.167
 20
179.978
 21
179.909
  0
LINE
  8
0
 10
8.167
 11
7.833
 20
179.909
 21
179.909
  0
LINE
  8
0
 10
7.833
 11
7.506
 20
179.909
 21
179.978
  0
LINE
  8
0
 10
7.506
 11
7.2
 20
179.978
 21
180.114
  0
LINE
  8
0
 10
7.2
 11
6.929
 20
180.114
 21
180.311
  0
LINE
  8
0
 10
6.929
 11
6.706
 20
180.311
 21
180.56
  0
LINE
  8
0
 10
6.706
 11
6.538
 20
180.56
 21
180.849
  0
LINE
  8
0
 10
6.538
 11
6.435
 20
180.849
 21
181.167
  0
LINE
  8
0
 10
6.435
 11
6.4
 20
181.167
 21
181.5
  0
LINE
  8
0
 10
13.4
 11
13.435
 20
15
 21
15.333
  0
LINE
  8
0
 10
13.435
 11
13.538
 20
15.333
 21
15.651
  0
LINE
  8
0
 10
13.538
 11
13.706
 20
15.651
 21
15.94
  0
LINE
  8
0
 10
13.706
 11
13.929
 20
15.94
 21
16.189
  0
LINE
  8
0
 10
13.929
 11
14.2
 20
16.189
 21
16.386
  0
LINE
  8
0
 10
14.2
 11
14.506
 20
16.386
 21
16.522
  0
LINE
  8
0
 10
14.506
 11
14.833
 20
16.522
 21
16.591
  0
LINE
  8
0
 10
14.833
 11
15.167
 20
16.591
 21
16.591
  0
LINE
  8
0
 10
15.167
 11
15.494
 20
16.591
 21
16.522
  0
LINE
  8
0
 10
15.494
 11
15.8
 20
16.522
 21
16.386
  0
LINE
  8
0
 10
15.8
 11
16.071
 20
16.386
 21
16.189
  0
LINE
  8
0
 10
16.071
 11
16.294
 20
16.189
 21
15.94
  0
LINE
  8
0
 10
16.294
 11
16.462
 20
15.94
 21
15.651
  0
LINE
  8
0
 10
16.462
 11
16.565
 20
15.651
 21
15.333
  0
LINE
  8
0
 10
16.565
 11
16.6
 20
15.333
 21
15
  0
LINE
  8
0
 10
16.6
 11
16.565
 20
15
 21
14.667
  0
LINE
  8
0
 10
16.565
 11
16.462
 20
14.667
 21
14.349
  0
LINE
  8
0
 10
16.462
 11
16.294
 20
14.349
 21
14.06
  0
LINE
  8
0
 10
16.294
 11
16.071
 20
14.06
 21
13.811
  0
LINE
  8
0
 10
16.071
 11
15.8
 20
13.811
 21
13.614
  0
LINE
  8
0
 10
15.8
 11
15.494
 20
13.614
 21
13.478
  0
LINE
  8
0
 10
15.494
 11
15.167
 20
13.478
 21
13.409
  0
LINE
  8
0
 10
15.167
 11
14.833
 20
13.409
 21
13.409
  0
LINE
  8
0
 10
14.833
 11
14.506
 20
13.409
 21
13.478
  0
LINE
  8
0
 10
14.506
 11
14.2
 20
13.478
 21
13.614
  0
LINE
  8
0
 10
14.2
 11
13.929
 20
13.614
 21
13.811
  0
LINE
  8
0
 10
13.929
 11
13.706
 20
13.811
 21
14.06
  0
LINE
  8
0
 10
13.706
 11
13.538
 20
14.06
 21
14.349
  0
LINE
  8
0
 10
13.538
 11
13.435
 20
14.349
 21
14.667
  0
LINE
  8
0
 10
13.435
 11
13.4
 20
14.667
 21
15
  0
LINE
  8
0
 10
13.4
 11
13.435
 20
224
 21
224.333
  0
LINE
  8
0
 10
13.435
 11
13.538
 20
224.333
 21
224.651
  0
LINE
  8
0
 10
13.538
 11
13.706
 20
224.651
 21
224.94
  0
LINE
  8
0
 10
13.706
 11
13.929
 20
224.94
 21
225.189
  0
LINE
  8
0
 10
13.929
 11
14.2
 20
225.189
 21
225.386
  0
LINE
  8
0
 10
14.2
 11
14.506
 20
225.386
 21
225.522
  0
LINE
  8
0
 10
14.506
 11
14.833
 20
225.522
 21
225.591
  0
LINE
  8
0
 10
14.833
 11
15.167
 20
225.591
 21
225.591
  0
LINE
  8
0
 10
15.167
 11
15.494
 20
225.591
 21
225.522
  0
LINE
  8
0
 10
15.494
 11
15.8
 20
225.522
 21
225.386
  0
LINE
  8
0
 10
15.8
 11
16.071
 20
225.386
 21
225.189
  0
LINE
  8
0
 10
16.071
 11
16.294
 20
225.189
 21
224.94
  0
LINE
  8
0
 10
16.294
 11
16.462
 20
224.94
 21
224.651
  0
LINE
  8
0
 10
16.462
 11
16.565
 20
224.651
 21
224.333
  0
LINE
  8
0
 10
16.565
 11
16.6
 20
224.333
 21
224
  0
LINE
  8
0
 10
16.6
 11
16.565
 20
224
 21
223.667
  0
LINE
  8
0
 10
16.565
 11
16.462
 20
223.667
 21
223.349
  0
LINE
  8
0
 10
16.462
 11
16.294
 20
223.349
 21
223.06
  0
LINE
  8
0
 10
16.294
 11
16.071
 20
223.06
 21
222.811
  0
LINE
  8
0
 10
16.071
 11
15.8
 20
222.811
 21
222.614
  0
LINE
  8
0
 10
15.8
 11
15.494
 20
222.614
 21
222.478
  0
LINE
  8
0
 10
15.494
 11
15.167
 20
222.478
 21
222.409
  0
LINE
  8
0
 10
15.167
 11
14.833
 20
222.409
 21
222.409
  0
LINE
  8
0
 10
14.833
 11
14.506
 20
222.409
 21
222.478
  0
LINE
  8
0
 10
14.506
 11
14.2
 20
222.478
 21
222.614
  0
LINE
  8
0
 10
14.2
 11
13.929
 20
222.614
 21
222.811
  0
LINE
  8
0
 10
13.929
 11
13.706
 20
222.811
 21
223.06
  0
LINE
  8
0
 10
13.706
 11
13.538
 20
223.06
 21
223.349
  0
LINE
  8
0
 10
13.538
 11
13.435
 20
223.349
 21
223.667
  0
LINE
  8
0
 10
13.435
 11
13.4
 20
223.667
 21
224
  0
LINE
  8
0
 10
94.075
 11
94.091
 20
231.568
 21
232.165
  0
LINE
  8
0
 10
94.091
 11
94.137
 20
232.165
 21
232.744
  0
LINE
  8
0
 10
94.137
 11
94.213
 20
232.744
 21
233.303
  0
LINE
  8
0
 10
94.213
 11
94.316
 20
233.303
 21
233.839
  0
LINE
  8
0
 10
94.316
 11
94.444
 20
233.839
 21
234.35
  0
LINE
  8
0
 10
94.444
 11
94.598
 20
234.35
 21
234.831
  0
LINE
  8
0
 10
94.598
 11
94.774
 20
234.831
 21
235.28
  0
LINE
  8
0
 10
94.774
 11
94.971
 20
235.28
 21
235.695
  0
LINE
  8
0
 10
94.971
 11
95.188
 20
235.695
 21
236.071
  0
LINE
  8
0
 10
95.188
 11
95.424
 20
236.071
 21
236.408
  0
LINE
  8
0
 10
95.424
 11
95.676
 20
236.408
 21
236.7
  0
LINE
  8
0
 10
95.676
 11
95.943
 20
236.7
 21
236.946
  0
LINE
  8
0
 10
95.943
 11
96.224
 20
236.946
 21
237.142
  0
LINE
  8
0
 10
96.224
 11
96.517
 20
237.142
 21
237.286
  0
LINE
  8
0
 10
96.517
 11
96.821
 20
237.286
 21
237.375
  0
LINE
  8
0
 10
96.821
 11
97.133
 20
237.375
 21
237.405
  0
LINE
  8
0
 10
97.133
 11
97.446
 20
237.405
 21
237.375
  0
LINE
  8
0
 10
97.446
 11
97.75
 20
237.375
 21
237.286
  0
LINE
  8
0
 10
97.75
 11
98.043
 20
237.286
 21
237.142
  0
LINE
  8
0
 10
98.043
 11
98.324
 20
237.142
 21
236.946
  0
LINE
  8
0
 10
98.324
 11
98.591
 20
236.946
 21
236.7
  0
LINE
  8
0
 10
98.591
 11
98.843
 20
236.7
 21
236.408
  0
LINE
  8
0
 10
98.843
 11
99.078
 20
236.408
 21
236.071
  0
LINE
  8
0
 10
99.078
 11
99.296
 20
236.071
 21
235.695
  0
LINE
  8
0
 10
99.296
 11
99.493
 20
235.695
 21
235.28
  0
LINE
  8
0
 10
99.493
 11
99.669
 20
235.28
 21
234.831
  0
LINE
  8
0
 10
99.669
 11
99.822
 20
234.831
 21
234.35
  0
LINE
  8
0
 10
99.822
 11
99.951
 20
234.35
 21
233.839
  0
LINE
  8
0
 10
99.951
 11
100.054
 20
233.839
 21
233.303
  0
LINE
  8
0
 10
100.054
 11
100.129
 20
233.303
 21
232.744
  0
LINE
  8
0
 10
100.129
 11
100.175
 20
232.744
 21
232.165
  0
LINE
  8
0
 10
100.175
 11
100.191
 20
232.165
 21
231.568
  0
LINE
  8
0
 10
100.191
 11
100.175
 20
231.568
 21
230.972
  0
LINE
  8
0
 10
100.175
 11
100.129
 20
230.972
 21
230.393
  0
LINE
  8
0
 10
100.129
 11
100.054
 20
230.393
 21
229.834
  0
LINE
  8
0
 10
100.054
 11
99.951
 20
229.834
 21
229.298
  0
LINE
  8
0
 10
99.951
 11
99.822
 20
229.298
 21
228.789
  0
LINE
  8
0
 10
99.822
 11
99.669
 20
228.789
 21
228.308
  0
LINE
  8
0
 10
99.669
 11
99.493
 20
228.308
 21
227.859
  0
LINE
  8
0
 10
99.493
 11
99.296
 20
227.859
 21
227.445
  0
LINE
  8
0
 10
99.296
 11
99.078
 20
227.445
 21
227.069
  0
LINE
  8
0
 10
99.078
 11
98.843
 20
227.069
 21
226.733
  0
LINE
  8
0
 10
98.843
 11
98.591
 20
226.733
 21
226.441
  0
LINE
  8
0
 10
98.591
 11
98.324
 20
226.441
 21
226.196
  0
LINE
  8
0
 10
98.324
 11
98.043
 20
226.196
 21
226
  0
LINE
  8
0
 10
98.043
 11
97.75
 20
226
 21
225.856
  0
LINE
  8
0
 10
97.75
 11
97.446
 20
225.856
 21
225.768
  0
LINE
  8
0
 10
97.446
 11
97.133
 20
225.768
 21
225.738
  0
LINE
  8
0
 10
97.133
 11
96.821
 20
225.738
 21
225.768
  0
LINE
  8
0
 10
96.821
 11
96.517
 20
225.768
 21
225.856
  0
LINE
  8
0
 10
96.517
 11
96.224
 20
225.856
 21
226
  0
LINE
  8
0
 10
96.224
 11
95.943
 20
226
 21
226.196
  0
LINE
  8
0
 10
95.943
 11
95.676
 20
226.196
 21
226.441
  0
LINE
  8
0
 10
95.676
 11
95.424
 20
226.441
 21
226.733
  0
LINE
  8
0
 10
95.424
 11
95.188
 20
226.733
 21
227.069
  0
LINE
  8
0
 10
95.188
 11
94.971
 20
227.069
 21
227.445
  0
LINE
  8
0
 10
94.971
 11
94.774
 20
227.445
 21
227.859
  0
LINE
  8
0
 10
94.774
 11
94.598
 20
227.859
 21
228.308
  0
LINE
  8
0
 10
94.598
 11
94.444
 20
228.308
 21
228.789
  0
LINE
  8
0
 10
94.444
 11
94.316
 20
228.789
 21
229.298
  0
LINE
  8
0
 10
94.316
 11
94.213
 20
229.298
 21
229.834
  0
LINE
  8
0
 10
94.213
 11
94.137
 20
229.834
 21
230.393
  0
LINE
  8
0
 10
94.137
 11
94.091
 20
230.393
 21
230.972
  0
LINE
  8
0
 10
94.091
 11
94.075
 20
230.972
 21
231.568
  0
LINE
  8
0
 10
95.319
 11
95.328
 20
231.521
 21
231.956
  0
LINE
  8
0
 10
95.328
 11
95.354
 20
231.956
 21
232.379
  0
LINE
  8
0
 10
95.354
 11
95.397
 20
232.379
 21
232.787
  0
LINE
  8
0
 10
95.397
 11
95.456
 20
232.787
 21
233.178
  0
LINE
  8
0
 10
95.456
 11
95.529
 20
233.178
 21
233.551
  0
LINE
  8
0
 10
95.529
 11
95.617
 20
233.551
 21
233.902
  0
LINE
  8
0
 10
95.617
 11
95.717
 20
233.902
 21
234.23
  0
LINE
  8
0
 10
95.717
 11
95.83
 20
234.23
 21
234.532
  0
LINE
  8
0
 10
95.83
 11
95.954
 20
234.532
 21
234.807
  0
LINE
  8
0
 10
95.954
 11
96.088
 20
234.807
 21
235.053
  0
LINE
  8
0
 10
96.088
 11
96.232
 20
235.053
 21
235.266
  0
LINE
  8
0
 10
96.232
 11
96.384
 20
235.266
 21
235.446
  0
LINE
  8
0
 10
96.384
 11
96.544
 20
235.446
 21
235.589
  0
LINE
  8
0
 10
96.544
 11
96.711
 20
235.589
 21
235.694
  0
LINE
  8
0
 10
96.711
 11
96.884
 20
235.694
 21
235.759
  0
LINE
  8
0
 10
96.884
 11
97.062
 20
235.759
 21
235.781
  0
LINE
  8
0
 10
97.062
 11
97.24
 20
235.781
 21
235.759
  0
LINE
  8
0
 10
97.24
 11
97.412
 20
235.759
 21
235.694
  0
LINE
  8
0
 10
97.412
 11
97.579
 20
235.694
 21
235.589
  0
LINE
  8
0
 10
97.579
 11
97.739
 20
235.589
 21
235.446
  0
LINE
  8
0
 10
97.739
 11
97.891
 20
235.446
 21
235.266
  0
LINE
  8
0
 10
97.891
 11
98.034
 20
235.266
 21
235.053
  0
LINE
  8
0
 10
98.034
 11
98.167
 20
235.053
 21
234.807
  0
LINE
  8
0
 10
98.167
 11
98.291
 20
234.807
 21
234.532
  0
LINE
  8
0
 10
98.291
 11
98.403
 20
234.532
 21
234.23
  0
LINE
  8
0
 10
98.403
 11
98.503
 20
234.23
 21
233.902
  0
LINE
  8
0
 10
98.503
 11
98.59
 20
233.902
 21
233.551
  0
LINE
  8
0
 10
98.59
 11
98.663
 20
233.551
 21
233.178
  0
LINE
  8
0
 10
98.663
 11
98.721
 20
233.178
 21
232.787
  0
LINE
  8
0
 10
98.721
 11
98.764
 20
232.787
 21
232.379
  0
LINE
  8
0
 10
98.764
 11
98.79
 20
232.379
 21
231.956
  0
LINE
  8
0
 10
98.79
 11
98.799
 20
231.956
 21
231.521
  0
LINE
  8
0
 10
98.799
 11
98.79
 20
231.521
 21
231.086
  0
LINE
  8
0
 10
98.79
 11
98.764
 20
231.086
 21
230.663
  0
LINE
  8
0
 10
98.764
 11
98.721
 20
230.663
 21
230.255
  0
LINE
  8
0
 10
98.721
 11
98.663
 20
230.255
 21
229.865
  0
LINE
  8
0
 10
98.663
 11
98.59
 20
229.865
 21
229.493
  0
LINE
  8
0
 10
98.59
 11
98.503
 20
229.493
 21
229.142
  0
LINE
  8
0
 10
98.503
 11
98.403
 20
229.142
 21
228.814
  0
LINE
  8
0
 10
98.403
 11
98.291
 20
228.814
 21
228.512
  0
LINE
  8
0
 10
98.291
 11
98.167
 20
228.512
 21
228.238
  0
LINE
  8
0
 10
98.167
 11
98.034
 20
228.238
 21
227.993
  0
LINE
  8
0
 10
98.034
 11
97.891
 20
227.993
 21
227.78
  0
LINE
  8
0
 10
97.891
 11
97.739
 20
227.78
 21
227.601
  0
LINE
  8
0
 10
97.739
 11
97.579
 20
227.601
 21
227.458
  0
LINE
  8
0
 10
97.579
 11
97.412
 20
227.458
 21
227.353
  0
LINE
  8
0
 10
97.412
 11
97.24
 20
227.353
 21
227.289
  0
LINE
  8
0
 10
97.24
 11
97.062
 20
227.289
 21
227.267
  0
LINE
  8
0
 10
97.062
 11
96.884
 20
227.267
 21
227.289
  0
LINE
  8
0
 10
96.884
 11
96.711
 20
227.289
 21
227.353
  0
LINE
  8
0
 10
96.711
 11
96.544
 20
227.353
 21
227.458
  0
LINE
  8
0
 10
96.544
 11
96.384
 20
227.458
 21
227.601
  0
LINE
  8
0
 10
96.384
 11
96.232
 20
227.601
 21
227.78
  0
LINE
  8
0
 10
96.232
 11
96.088
 20
227.78
 21
227.993
  0
LINE
  8
0
 10
96.088
 11
95.954
 20
227.993
 21
228.238
  0
LINE
  8
0
 10
95.954
 11
95.83
 20
228.238
 21
228.512
  0
LINE
  8
0
 10
95.83
 11
95.717
 20
228.512
 21
228.814
  0
LINE
  8
0
 10
95.717
 11
95.617
 20
228.814
 21
229.142
  0
LINE
  8
0
 10
95.617
 11
95.529
 20
229.142
 21
229.493
  0
LINE
  8
0
 10
95.529
 11
95.456
 20
229.493
 21
229.865
  0
LINE
  8
0
 10
95.456
 11
95.397
 20
229.865
 21
230.255
  0
LINE
  8
0
 10
95.397
 11
95.354
 20
230.255
 21
230.663
  0
LINE
  8
0
 10
95.354
 11
95.328
 20
230.663
 21
231.086
  0
LINE
  8
0
 10
95.328
 11
95.319
 20
231.086
 21
231.521
  0
LINE
  8
0
 10
101.347
 11
101.347
 20
236.258
 21
237.393
  0
LINE
  8
0
 10
101.347
 11
102.483
 20
237.393
 21
237.393
  0
LINE
  8
0
 10
102.483
 11
102.483
 20
237.393
 21
236.258
  0
LINE
  8
0
 10
102.483
 11
101.347
 20
236.258
 21
236.258
  0
LINE
  8
0
 10
104.451
 11
104.451
 20
225.595
 21
237.405
  0
LINE
  8
0
 10
104.451
 11
106.135
 20
237.405
 21
237.405
  0
LINE
  8
0
 10
106.135
 11
106.135
 20
237.405
 21
227.416
  0
LINE
  8
0
 10
106.135
 11
106.663
 20
227.416
 21
227.731
  0
LINE
  8
0
 10
106.663
 11
107.191
 20
227.731
 21
228.046
  0
LINE
  8
0
 10
107.191
 11
107.719
 20
228.046
 21
228.362
  0
LINE
  8
0
 10
107.719
 11
108.247
 20
228.362
 21
228.677
  0
LINE
  8
0
 10
108.247
 11
108.633
 20
228.677
 21
228.031
  0
LINE
  8
0
 10
108.633
 11
108.827
 20
228.031
 21
227.709
  0
LINE
  8
0
 10
108.827
 11
109.02
 20
227.709
 21
227.386
  0
LINE
  8
0
 10
109.02
 11
108.299
 20
227.386
 21
226.955
  0
LINE
  8
0
 10
108.299
 11
107.577
 20
226.955
 21
226.523
  0
LINE
  8
0
 10
107.577
 11
106.135
 20
226.523
 21
225.661
  0
LINE
  8
0
 10
106.135
 11
106.135
 20
225.661
 21
225.595
  0
LINE
  8
0
 10
106.135
 11
104.451
 20
225.595
 21
225.595
  0
LINE
  8
0
 10
113.22
 11
114.904
 20
237.405
 21
237.405
  0
LINE
  8
0
 10
114.904
 11
115.178
 20
237.405
 21
237.066
  0
LINE
  8
0
 10
115.178
 11
115.451
 20
237.066
 21
236.726
  0
LINE
  8
0
 10
115.451
 11
115.731
 20
236.726
 21
236.393
  0
LINE
  8
0
 10
115.731
 11
116.005
 20
236.393
 21
236.054
  0
LINE
  8
0
 10
116.005
 11
116.278
 20
236.054
 21
235.715
  0
LINE
  8
0
 10
116.278
 11
116.552
 20
235.715
 21
235.376
  0
LINE
  8
0
 10
116.552
 11
116.826
 20
235.376
 21
235.043
  0
LINE
  8
0
 10
116.826
 11
117.099
 20
235.043
 21
234.704
  0
LINE
  8
0
 10
117.099
 11
117.373
 20
234.704
 21
234.365
  0
LINE
  8
0
 10
117.373
 11
117.647
 20
234.365
 21
234.031
  0
LINE
  8
0
 10
117.647
 11
117.92
 20
234.031
 21
233.692
  0
LINE
  8
0
 10
117.92
 11
118.194
 20
233.692
 21
233.353
  0
LINE
  8
0
 10
118.194
 11
118.468
 20
233.353
 21
233.02
  0
LINE
  8
0
 10
118.468
 11
118.742
 20
233.02
 21
232.681
  0
LINE
  8
0
 10
118.742
 11
119.015
 20
232.681
 21
232.342
  0
LINE
  8
0
 10
119.015
 11
119.289
 20
232.342
 21
232.009
  0
LINE
  8
0
 10
119.289
 11
117.944
 20
232.009
 21
232.009
  0
LINE
  8
0
 10
117.944
 11
117.683
 20
232.009
 21
231.997
  0
LINE
  8
0
 10
117.683
 11
117.433
 20
231.997
 21
231.955
  0
LINE
  8
0
 10
117.433
 11
117.189
 20
231.955
 21
231.896
  0
LINE
  8
0
 10
117.189
 11
116.957
 20
231.896
 21
231.806
  0
LINE
  8
0
 10
116.957
 11
116.737
 20
231.806
 21
231.699
  0
LINE
  8
0
 10
116.737
 11
116.528
 20
231.699
 21
231.574
  0
LINE
  8
0
 10
116.528
 11
116.332
 20
231.574
 21
231.432
  0
LINE
  8
0
 10
116.332
 11
116.154
 20
231.432
 21
231.265
  0
LINE
  8
0
 10
116.154
 11
115.993
 20
231.265
 21
231.086
  0
LINE
  8
0
 10
115.993
 11
115.844
 20
231.086
 21
230.89
  0
LINE
  8
0
 10
115.844
 11
115.719
 20
230.89
 21
230.682
  0
LINE
  8
0
 10
115.719
 11
115.612
 20
230.682
 21
230.462
  0
LINE
  8
0
 10
115.612
 11
115.529
 20
230.462
 21
230.23
  0
LINE
  8
0
 10
115.529
 11
115.463
 20
230.23
 21
229.986
  0
LINE
  8
0
 10
115.463
 11
115.428
 20
229.986
 21
229.73
  0
LINE
  8
0
 10
115.428
 11
115.416
 20
229.73
 21
229.474
  0
LINE
  8
0
 10
115.416
 11
115.428
 20
229.474
 21
229.218
  0
LINE
  8
0
 10
115.428
 11
115.463
 20
229.218
 21
228.963
  0
LINE
  8
0
 10
115.463
 11
115.529
 20
228.963
 21
228.725
  0
LINE
  8
0
 10
115.529
 11
115.612
 20
228.725
 21
228.492
  0
LINE
  8
0
 10
115.612
 11
115.719
 20
228.492
 21
228.266
  0
LINE
  8
0
 10
115.719
 11
115.844
 20
228.266
 21
228.058
  0
LINE
  8
0
 10
115.844
 11
115.993
 20
228.058
 21
227.868
  0
LINE
  8
0
 10
115.993
 11
116.154
 20
227.868
 21
227.683
  0
LINE
  8
0
 10
116.154
 11
116.332
 20
227.683
 21
227.523
  0
LINE
  8
0
 10
116.332
 11
116.528
 20
227.523
 21
227.38
  0
LINE
  8
0
 10
116.528
 11
116.737
 20
227.38
 21
227.249
  0
LINE
  8
0
 10
116.737
 11
116.957
 20
227.249
 21
227.142
  0
LINE
  8
0
 10
116.957
 11
117.189
 20
227.142
 21
227.059
  0
LINE
  8
0
 10
117.189
 11
117.433
 20
227.059
 21
226.999
  0
LINE
  8
0
 10
117.433
 11
117.683
 20
226.999
 21
226.958
  0
LINE
  8
0
 10
117.683
 11
117.944
 20
226.958
 21
226.946
  0
LINE
  8
0
 10
117.944
 11
119.967
 20
226.946
 21
226.946
  0
LINE
  8
0
 10
119.967
 11
119.967
 20
226.946
 21
225.595
  0
LINE
  8
0
 10
119.967
 11
117.944
 20
225.595
 21
225.595
  0
LINE
  8
0
 10
117.944
 11
117.546
 20
225.595
 21
225.613
  0
LINE
  8
0
 10
117.546
 11
117.159
 20
225.613
 21
225.673
  0
LINE
  8
0
 10
117.159
 11
116.79
 20
225.673
 21
225.768
  0
LINE
  8
0
 10
116.79
 11
116.433
 20
225.768
 21
225.899
  0
LINE
  8
0
 10
116.433
 11
116.094
 20
225.899
 21
226.065
  0
LINE
  8
0
 10
116.094
 11
115.773
 20
226.065
 21
226.256
  0
LINE
  8
0
 10
115.773
 11
115.475
 20
226.256
 21
226.482
  0
LINE
  8
0
 10
115.475
 11
115.202
 20
226.482
 21
226.732
  0
LINE
  8
0
 10
115.202
 11
114.946
 20
226.732
 21
227.005
  0
LINE
  8
0
 10
114.946
 11
114.726
 20
227.005
 21
227.303
  0
LINE
  8
0
 10
114.726
 11
114.529
 20
227.303
 21
227.624
  0
LINE
  8
0
 10
114.529
 11
114.369
 20
227.624
 21
227.963
  0
LINE
  8
0
 10
114.369
 11
114.238
 20
227.963
 21
228.32
  0
LINE
  8
0
 10
114.238
 11
114.143
 20
228.32
 21
228.695
  0
LINE
  8
0
 10
114.143
 11
114.083
 20
228.695
 21
229.076
  0
LINE
  8
0
 10
114.083
 11
114.065
 20
229.076
 21
229.474
  0
LINE
  8
0
 10
114.065
 11
114.083
 20
229.474
 21
229.873
  0
LINE
  8
0
 10
114.083
 11
114.143
 20
229.873
 21
230.254
  0
LINE
  8
0
 10
114.143
 11
114.238
 20
230.254
 21
230.628
  0
LINE
  8
0
 10
114.238
 11
114.369
 20
230.628
 21
230.985
  0
LINE
  8
0
 10
114.369
 11
114.529
 20
230.985
 21
231.324
  0
LINE
  8
0
 10
114.529
 11
114.726
 20
231.324
 21
231.646
  0
LINE
  8
0
 10
114.726
 11
114.946
 20
231.646
 21
231.943
  0
LINE
  8
0
 10
114.946
 11
115.202
 20
231.943
 21
232.217
  0
LINE
  8
0
 10
115.202
 11
115.475
 20
232.217
 21
232.467
  0
LINE
  8
0
 10
115.475
 11
115.773
 20
232.467
 21
232.693
  0
LINE
  8
0
 10
115.773
 11
116.094
 20
232.693
 21
232.883
  0
LINE
  8
0
 10
116.094
 11
116.433
 20
232.883
 21
233.05
  0
LINE
  8
0
 10
116.433
 11
116.683
 20
233.05
 21
233.139
  0
LINE
  8
0
 10
116.683
 11
116.51
 20
233.139
 21
233.353
  0
LINE
  8
0
 10
116.51
 11
116.237
 20
233.353
 21
233.692
  0
LINE
  8
0
 10
116.237
 11
115.957
 20
233.692
 21
234.031
  0
LINE
  8
0
 10
115.957
 11
115.684
 20
234.031
 21
234.365
  0
LINE
  8
0
 10
115.684
 11
115.136
 20
234.365
 21
235.043
  0
LINE
  8
0
 10
115.136
 11
114.862
 20
235.043
 21
235.376
  0
LINE
  8
0
 10
114.862
 11
114.589
 20
235.376
 21
235.715
  0
LINE
  8
0
 10
114.589
 11
114.041
 20
235.715
 21
236.393
  0
LINE
  8
0
 10
114.041
 11
113.768
 20
236.393
 21
236.726
  0
LINE
  8
0
 10
113.768
 11
113.494
 20
236.726
 21
237.066
  0
LINE
  8
0
 10
113.494
 11
113.22
 20
237.066
 21
237.405
  0
LINE
  8
0
 10
118.617
 11
120.3
 20
237.405
 21
237.405
  0
LINE
  8
0
 10
120.3
 11
120.574
 20
237.405
 21
237.066
  0
LINE
  8
0
 10
120.574
 11
120.854
 20
237.066
 21
236.726
  0
LINE
  8
0
 10
120.854
 11
121.127
 20
236.726
 21
236.393
  0
LINE
  8
0
 10
121.127
 11
121.401
 20
236.393
 21
236.054
  0
LINE
  8
0
 10
121.401
 11
121.675
 20
236.054
 21
235.715
  0
LINE
  8
0
 10
121.675
 11
121.948
 20
235.715
 21
235.376
  0
LINE
  8
0
 10
121.948
 11
122.222
 20
235.376
 21
235.043
  0
LINE
  8
0
 10
122.222
 11
122.496
 20
235.043
 21
234.704
  0
LINE
  8
0
 10
122.496
 11
122.769
 20
234.704
 21
234.364
  0
LINE
  8
0
 10
122.769
 11
123.043
 20
234.364
 21
234.031
  0
LINE
  8
0
 10
123.043
 11
123.317
 20
234.031
 21
233.692
  0
LINE
  8
0
 10
123.317
 11
123.59
 20
233.692
 21
233.353
  0
LINE
  8
0
 10
123.59
 11
123.864
 20
233.353
 21
233.02
  0
LINE
  8
0
 10
123.864
 11
124.138
 20
233.02
 21
232.681
  0
LINE
  8
0
 10
124.138
 11
124.411
 20
232.681
 21
232.342
  0
LINE
  8
0
 10
124.411
 11
124.685
 20
232.342
 21
232.009
  0
LINE
  8
0
 10
124.685
 11
123.34
 20
232.009
 21
232.009
  0
LINE
  8
0
 10
123.34
 11
123.079
 20
232.009
 21
231.991
  0
LINE
  8
0
 10
123.079
 11
122.829
 20
231.991
 21
231.955
  0
LINE
  8
0
 10
122.829
 11
122.585
 20
231.955
 21
231.89
  0
LINE
  8
0
 10
122.585
 11
122.353
 20
231.89
 21
231.806
  0
LINE
  8
0
 10
122.353
 11
122.133
 20
231.806
 21
231.699
  0
LINE
  8
0
 10
122.133
 11
121.924
 20
231.699
 21
231.574
  0
LINE
  8
0
 10
121.924
 11
121.728
 20
231.574
 21
231.426
  0
LINE
  8
0
 10
121.728
 11
121.55
 20
231.426
 21
231.265
  0
LINE
  8
0
 10
121.55
 11
121.389
 20
231.265
 21
231.081
  0
LINE
  8
0
 10
121.389
 11
121.24
 20
231.081
 21
230.884
  0
LINE
  8
0
 10
121.24
 11
121.115
 20
230.884
 21
230.676
  0
LINE
  8
0
 10
121.115
 11
121.008
 20
230.676
 21
230.456
  0
LINE
  8
0
 10
121.008
 11
120.925
 20
230.456
 21
230.224
  0
LINE
  8
0
 10
120.925
 11
120.859
 20
230.224
 21
229.98
  0
LINE
  8
0
 10
120.859
 11
120.824
 20
229.98
 21
229.73
  0
LINE
  8
0
 10
120.824
 11
120.812
 20
229.73
 21
229.474
  0
LINE
  8
0
 10
120.812
 11
120.824
 20
229.474
 21
229.212
  0
LINE
  8
0
 10
120.824
 11
120.859
 20
229.212
 21
228.963
  0
LINE
  8
0
 10
120.859
 11
120.925
 20
228.963
 21
228.719
  0
LINE
  8
0
 10
120.925
 11
121.008
 20
228.719
 21
228.487
  0
LINE
  8
0
 10
121.008
 11
121.115
 20
228.487
 21
228.266
  0
LINE
  8
0
 10
121.115
 11
121.24
 20
228.266
 21
228.058
  0
LINE
  8
0
 10
121.24
 11
121.389
 20
228.058
 21
227.862
  0
LINE
  8
0
 10
121.389
 11
121.55
 20
227.862
 21
227.683
  0
LINE
  8
0
 10
121.55
 11
121.728
 20
227.683
 21
227.523
  0
LINE
  8
0
 10
121.728
 11
121.924
 20
227.523
 21
227.374
  0
LINE
  8
0
 10
121.924
 11
122.133
 20
227.374
 21
227.249
  0
LINE
  8
0
 10
122.133
 11
122.353
 20
227.249
 21
227.142
  0
LINE
  8
0
 10
122.353
 11
122.585
 20
227.142
 21
227.059
  0
LINE
  8
0
 10
122.585
 11
122.829
 20
227.059
 21
226.993
  0
LINE
  8
0
 10
122.829
 11
123.079
 20
226.993
 21
226.958
  0
LINE
  8
0
 10
123.079
 11
123.34
 20
226.958
 21
226.946
  0
LINE
  8
0
 10
123.34
 11
125.565
 20
226.946
 21
226.946
  0
LINE
  8
0
 10
125.565
 11
125.613
 20
226.946
 21
227.071
  0
LINE
  8
0
 10
125.613
 11
125.911
 20
227.071
 21
227.808
  0
LINE
  8
0
 10
125.911
 11
126.208
 20
227.808
 21
228.546
  0
LINE
  8
0
 10
126.208
 11
126.5
 20
228.546
 21
229.284
  0
LINE
  8
0
 10
126.5
 11
126.797
 20
229.284
 21
230.022
  0
LINE
  8
0
 10
126.797
 11
127.089
 20
230.022
 21
230.759
  0
LINE
  8
0
 10
127.089
 11
127.683
 20
230.759
 21
232.235
  0
LINE
  8
0
 10
127.683
 11
127.975
 20
232.235
 21
232.972
  0
LINE
  8
0
 10
127.975
 11
128.272
 20
232.972
 21
233.716
  0
LINE
  8
0
 10
128.272
 11
128.564
 20
233.716
 21
234.454
  0
LINE
  8
0
 10
128.564
 11
128.861
 20
234.454
 21
235.192
  0
LINE
  8
0
 10
128.861
 11
129.159
 20
235.192
 21
235.929
  0
LINE
  8
0
 10
129.159
 11
129.45
 20
235.929
 21
236.667
  0
LINE
  8
0
 10
129.45
 11
129.748
 20
236.667
 21
237.405
  0
LINE
  8
0
 10
129.748
 11
131.771
 20
237.405
 21
237.405
  0
LINE
  8
0
 10
131.771
 11
132.401
 20
237.405
 21
235.929
  0
LINE
  8
0
 10
132.401
 11
132.717
 20
235.929
 21
235.192
  0
LINE
  8
0
 10
132.717
 11
133.038
 20
235.192
 21
234.454
  0
LINE
  8
0
 10
133.038
 11
133.353
 20
234.454
 21
233.716
  0
LINE
  8
0
 10
133.353
 11
133.669
 20
233.716
 21
232.972
  0
LINE
  8
0
 10
133.669
 11
133.984
 20
232.972
 21
232.235
  0
LINE
  8
0
 10
133.984
 11
134.299
 20
232.235
 21
231.497
  0
LINE
  8
0
 10
134.299
 11
134.615
 20
231.497
 21
230.759
  0
LINE
  8
0
 10
134.615
 11
134.93
 20
230.759
 21
230.022
  0
LINE
  8
0
 10
134.93
 11
135.251
 20
230.022
 21
229.284
  0
LINE
  8
0
 10
135.251
 11
135.566
 20
229.284
 21
228.546
  0
LINE
  8
0
 10
135.566
 11
135.882
 20
228.546
 21
227.808
  0
LINE
  8
0
 10
135.882
 11
136.108
 20
227.808
 21
227.285
  0
LINE
  8
0
 10
136.108
 11
139.19
 20
227.285
 21
227.285
  0
LINE
  8
0
 10
139.19
 11
139.19
 20
227.285
 21
237.405
  0
LINE
  8
0
 10
139.19
 11
140.879
 20
237.405
 21
237.405
  0
LINE
  8
0
 10
140.879
 11
140.879
 20
237.405
 21
227.285
  0
LINE
  8
0
 10
140.879
 11
144.925
 20
227.285
 21
227.285
  0
LINE
  8
0
 10
144.925
 11
144.925
 20
227.285
 21
225.595
  0
LINE
  8
0
 10
144.925
 11
135.144
 20
225.595
 21
225.595
  0
LINE
  8
0
 10
135.144
 11
134.87
 20
225.595
 21
226.208
  0
LINE
  8
0
 10
134.87
 11
134.597
 20
226.208
 21
226.821
  0
LINE
  8
0
 10
134.597
 11
134.323
 20
226.821
 21
227.433
  0
LINE
  8
0
 10
134.323
 11
134.049
 20
227.433
 21
228.04
  0
LINE
  8
0
 10
134.049
 11
133.776
 20
228.04
 21
228.653
  0
LINE
  8
0
 10
133.776
 11
133.502
 20
228.653
 21
229.266
  0
LINE
  8
0
 10
133.502
 11
133.222
 20
229.266
 21
229.879
  0
LINE
  8
0
 10
133.222
 11
132.949
 20
229.879
 21
230.485
  0
LINE
  8
0
 10
132.949
 11
132.401
 20
230.485
 21
231.711
  0
LINE
  8
0
 10
132.401
 11
132.128
 20
231.711
 21
232.324
  0
LINE
  8
0
 10
132.128
 11
131.854
 20
232.324
 21
232.931
  0
LINE
  8
0
 10
131.854
 11
131.58
 20
232.931
 21
233.544
  0
LINE
  8
0
 10
131.58
 11
131.307
 20
233.544
 21
234.156
  0
LINE
  8
0
 10
131.307
 11
131.033
 20
234.156
 21
234.769
  0
LINE
  8
0
 10
131.033
 11
130.759
 20
234.769
 21
235.376
  0
LINE
  8
0
 10
130.759
 11
130.503
 20
235.376
 21
234.769
  0
LINE
  8
0
 10
130.503
 11
130.254
 20
234.769
 21
234.156
  0
LINE
  8
0
 10
130.254
 11
129.998
 20
234.156
 21
233.544
  0
LINE
  8
0
 10
129.998
 11
129.748
 20
233.544
 21
232.931
  0
LINE
  8
0
 10
129.748
 11
129.492
 20
232.931
 21
232.324
  0
LINE
  8
0
 10
129.492
 11
129.242
 20
232.324
 21
231.711
  0
LINE
  8
0
 10
129.242
 11
128.986
 20
231.711
 21
231.098
  0
LINE
  8
0
 10
128.986
 11
128.736
 20
231.098
 21
230.485
  0
LINE
  8
0
 10
128.736
 11
128.481
 20
230.485
 21
229.879
  0
LINE
  8
0
 10
128.481
 11
128.231
 20
229.879
 21
229.266
  0
LINE
  8
0
 10
128.231
 11
127.975
 20
229.266
 21
228.653
  0
LINE
  8
0
 10
127.975
 11
127.725
 20
228.653
 21
228.04
  0
LINE
  8
0
 10
127.725
 11
127.469
 20
228.04
 21
227.433
  0
LINE
  8
0
 10
127.469
 11
127.219
 20
227.433
 21
226.821
  0
LINE
  8
0
 10
127.219
 11
126.964
 20
226.821
 21
226.208
  0
LINE
  8
0
 10
126.964
 11
126.714
 20
226.208
 21
225.595
  0
LINE
  8
0
 10
126.714
 11
123.34
 20
225.595
 21
225.595
  0
LINE
  8
0
 10
123.34
 11
122.942
 20
225.595
 21
225.613
  0
LINE
  8
0
 10
122.942
 11
122.555
 20
225.613
 21
225.672
  0
LINE
  8
0
 10
122.555
 11
122.186
 20
225.672
 21
225.768
  0
LINE
  8
0
 10
122.186
 11
121.829
 20
225.768
 21
225.899
  0
LINE
  8
0
 10
121.829
 11
121.49
 20
225.899
 21
226.059
  0
LINE
  8
0
 10
121.49
 11
121.169
 20
226.059
 21
226.255
  0
LINE
  8
0
 10
121.169
 11
120.871
 20
226.255
 21
226.476
  0
LINE
  8
0
 10
120.871
 11
120.598
 20
226.476
 21
226.725
  0
LINE
  8
0
 10
120.598
 11
120.348
 20
226.725
 21
227.005
  0
LINE
  8
0
 10
120.348
 11
120.122
 20
227.005
 21
227.303
  0
LINE
  8
0
 10
120.122
 11
119.925
 20
227.303
 21
227.624
  0
LINE
  8
0
 10
119.925
 11
119.765
 20
227.624
 21
227.963
  0
LINE
  8
0
 10
119.765
 11
119.634
 20
227.963
 21
228.32
  0
LINE
  8
0
 10
119.634
 11
119.539
 20
228.32
 21
228.689
  0
LINE
  8
0
 10
119.539
 11
119.479
 20
228.689
 21
229.075
  0
LINE
  8
0
 10
119.479
 11
119.461
 20
229.075
 21
229.474
  0
LINE
  8
0
 10
119.461
 11
119.479
 20
229.474
 21
229.867
  0
LINE
  8
0
 10
119.479
 11
119.539
 20
229.867
 21
230.253
  0
LINE
  8
0
 10
119.539
 11
119.634
 20
230.253
 21
230.622
  0
LINE
  8
0
 10
119.634
 11
119.765
 20
230.622
 21
230.979
  0
LINE
  8
0
 10
119.765
 11
119.925
 20
230.979
 21
231.318
  0
LINE
  8
0
 10
119.925
 11
120.122
 20
231.318
 21
231.64
  0
LINE
  8
0
 10
120.122
 11
120.348
 20
231.64
 21
231.937
  0
LINE
  8
0
 10
120.348
 11
120.598
 20
231.937
 21
232.217
  0
LINE
  8
0
 10
120.598
 11
120.871
 20
232.217
 21
232.467
  0
LINE
  8
0
 10
120.871
 11
121.169
 20
232.467
 21
232.687
  0
LINE
  8
0
 10
121.169
 11
121.49
 20
232.687
 21
232.883
  0
LINE
  8
0
 10
121.49
 11
121.829
 20
232.883
 21
233.044
  0
LINE
  8
0
 10
121.829
 11
122.085
 20
233.044
 21
233.139
  0
LINE
  8
0
 10
122.085
 11
121.907
 20
233.139
 21
233.353
  0
LINE
  8
0
 10
121.907
 11
121.359
 20
233.353
 21
234.031
  0
LINE
  8
0
 10
121.359
 11
121.086
 20
234.031
 21
234.364
  0
LINE
  8
0
 10
121.086
 11
120.806
 20
234.364
 21
234.704
  0
LINE
  8
0
 10
120.806
 11
120.532
 20
234.704
 21
235.043
  0
LINE
  8
0
 10
120.532
 11
120.259
 20
235.043
 21
235.376
  0
LINE
  8
0
 10
120.259
 11
119.711
 20
235.376
 21
236.054
  0
LINE
  8
0
 10
119.711
 11
119.438
 20
236.054
 21
236.393
  0
LINE
  8
0
 10
119.438
 11
119.164
 20
236.393
 21
236.726
  0
LINE
  8
0
 10
119.164
 11
118.89
 20
236.726
 21
237.066
  0
LINE
  8
0
 10
118.89
 11
118.617
 20
237.066
 21
237.405
  0
LINE
  8
0
 10
222.4
 11
222.435
 20
15
 21
15.333
  0
LINE
  8
0
 10
222.435
 11
222.538
 20
15.333
 21
15.651
  0
LINE
  8
0
 10
222.538
 11
222.706
 20
15.651
 21
15.94
  0
LINE
  8
0
 10
222.706
 11
222.929
 20
15.94
 21
16.189
  0
LINE
  8
0
 10
222.929
 11
223.2
 20
16.189
 21
16.386
  0
LINE
  8
0
 10
223.2
 11
223.506
 20
16.386
 21
16.522
  0
LINE
  8
0
 10
223.506
 11
223.833
 20
16.522
 21
16.591
  0
LINE
  8
0
 10
223.833
 11
224.167
 20
16.591
 21
16.591
  0
LINE
  8
0
 10
224.167
 11
224.494
 20
16.591
 21
16.522
  0
LINE
  8
0
 10
224.494
 11
224.8
 20
16.522
 21
16.386
  0
LINE
  8
0
 10
224.8
 11
225.071
 20
16.386
 21
16.189
  0
LINE
  8
0
 10
225.071
 11
225.294
 20
16.189
 21
15.94
  0
LINE
  8
0
 10
225.294
 11
225.462
 20
15.94
 21
15.651
  0
LINE
  8
0
 10
225.462
 11
225.565
 20
15.651
 21
15.333
  0
LINE
  8
0
 10
225.565
 11
225.6
 20
15.333
 21
15
  0
LINE
  8
0
 10
225.6
 11
225.565
 20
15
 21
14.667
  0
LINE
  8
0
 10
225.565
 11
225.462
 20
14.667
 21
14.349
  0
LINE
  8
0
 10
225.462
 11
225.294
 20
14.349
 21
14.06
  0
LINE
  8
0
 10
225.294
 11
225.071
 20
14.06
 21
13.811
  0
LINE
  8
0
 10
225.071
 11
224.8
 20
13.811
 21
13.614
  0
LINE
  8
0
 10
224.8
 11
224.494
 20
13.614
 21
13.478
  0
LINE
  8
0
 10
224.494
 11
224.167
 20
13.478
 21
13.409
  0
LINE
  8
0
 10
224.167
 11
223.833
 20
13.409
 21
13.409
  0
LINE
  8
0
 10
223.833
 11
223.506
 20
13.409
 21
13.478
  0
LINE
  8
0
 10
223.506
 11
223.2
 20
13.478
 21
13.614
  0
LINE
  8
0
 10
223.2
 11
222.929
 20
13.614
 21
13.811
  0
LINE
  8
0
 10
222.929
 11
222.706
 20
13.811
 21
14.06
  0
LINE
  8
0
 10
222.706
 11
222.538
 20
14.06
 21
14.349
  0
LINE
  8
0
 10
222.538
 11
222.435
 20
14.349
 21
14.667
  0
LINE
  8
0
 10
222.435
 11
222.4
 20
14.667
 21
15
  0
LINE
  8
0
 10
222.4
 11
222.435
 20
224
 21
224.333
  0
LINE
  8
0
 10
222.435
 11
222.538
 20
224.333
 21
224.651
  0
LINE
  8
0
 10
222.538
 11
222.706
 20
224.651
 21
224.94
  0
LINE
  8
0
 10
222.706
 11
222.929
 20
224.94
 21
225.189
  0
LINE
  8
0
 10
222.929
 11
223.2
 20
225.189
 21
225.386
  0
LINE
  8
0
 10
223.2
 11
223.506
 20
225.386
 21
225.522
  0
LINE
  8
0
 10
223.506
 11
223.833
 20
225.522
 21
225.591
  0
LINE
  8
0
 10
223.833
 11
224.167
 20
225.591
 21
225.591
  0
LINE
  8
0
 10
224.167
 11
224.494
 20
225.591
 21
225.522
  0
LINE
  8
0
 10
224.494
 11
224.8
 20
225.522
 21
225.386
  0
LINE
  8
0
 10
224.8
 11
225.071
 20
225.386
 21
225.189
  0
LINE
  8
0
 10
225.071
 11
225.294
 20
225.189
 21
224.94
  0
LINE
  8
0
 10
225.294
 11
225.462
 20
224.94
 21
224.651
  0
LINE
  8
0
 10
225.462
 11
225.565
 20
224.651
 21
224.333
  0
LINE
  8
0
 10
225.565
 11
225.6
 20
224.333
 21
224
  0
LINE
  8
0
 10
225.6
 11
225.565
 20
224
 21
223.667
  0
LINE
  8
0
 10
225.565
 11
225.462
 20
223.667
 21
223.349
  0
LINE
  8
0
 10
225.462
 11
225.294
 20
223.349
 21
223.06
  0
LINE
  8
0
 10
225.294
 11
225.071
 20
223.06
 21
222.811
  0
LINE
  8
0
 10
225.071
 11
224.8
 20
222.811
 21
222.614
  0
LINE
  8
0
 10
224.8
 11
224.494
 20
222.614
 21
222.478
  0
LINE
  8
0
 10
224.494
 11
224.167
 20
222.478
 21
222.409
  0
LINE
  8
0
 10
224.167
 11
223.833
 20
222.409
 21
222.409
  0
LINE
  8
0
 10
223.833
 11
223.506
 20
222.409
 21
222.478
  0
LINE
  8
0
 10
223.506
 11
223.2
 20
222.478
 21
222.614
  0
LINE
  8
0
 10
223.2
 11
222.929
 20
222.614
 21
222.811
  0
LINE
  8
0
 10
222.929
 11
222.706
 20
222.811
 21
223.06
  0
LINE
  8
0
 10
222.706
 11
222.538
 20
223.06
 21
223.349
  0
LINE
  8
0
 10
222.538
 11
222.435
 20
223.349
 21
223.667
  0
LINE
  8
0
 10
222.435
 11
222.4
 20
223.667
 21
224
  0
LINE
  8
0
 10
229.4
 11
229.435
 20
57.5
 21
57.833
  0
LINE
  8
0
 10
229.435
 11
229.538
 20
57.833
 21
58.151
  0
LINE
  8
0
 10
229.538
 11
229.706
 20
58.151
 21
58.44
  0
LINE
  8
0
 10
229.706
 11
229.929
 20
58.44
 21
58.689
  0
LINE
  8
0
 10
229.929
 11
230.2
 20
58.689
 21
58.886
  0
LINE
  8
0
 10
230.2
 11
230.506
 20
58.886
 21
59.022
  0
LINE
  8
0
 10
230.506
 11
230.833
 20
59.022
 21
59.091
  0
LINE
  8
0
 10
230.833
 11
231.167
 20
59.091
 21
59.091
  0
LINE
  8
0
 10
231.167
 11
231.494
 20
59.091
 21
59.022
  0
LINE
  8
0
 10
231.494
 11
231.8
 20
59.022
 21
58.886
  0
LINE
  8
0
 10
231.8
 11
232.071
 20
58.886
 21
58.689
  0
LINE
  8
0
 10
232.071
 11
232.294
 20
58.689
 21
58.44
  0
LINE
  8
0
 10
232.294
 11
232.462
 20
58.44
 21
58.151
  0
LINE
  8
0
 10
232.462
 11
232.565
 20
58.151
 21
57.833
  0
LINE
  8
0
 10
232.565
 11
232.6
 20
57.833
 21
57.5
  0
LINE
  8
0
 10
232.6
 11
232.565
 20
57.5
 21
57.167
  0
LINE
  8
0
 10
232.565
 11
232.462
 20
57.167
 21
56.849
  0
LINE
  8
0
 10
232.462
 11
232.294
 20
56.849
 21
56.56
  0
LINE
  8
0
 10
232.294
 11
232.071
 20
56.56
 21
56.311
  0
LINE
  8
0
 10
232.071
 11
231.8
 20
56.311
 21
56.114
  0
LINE
  8
0
 10
231.8
 11
231.494
 20
56.114
 21
55.978
  0
LINE
  8
0
 10
231.494
 11
231.167
 20
55.978
 21
55.909
  0
LINE
  8
0
 10
231.167
 11
230.833
 20
55.909
 21
55.909
  0
LINE
  8
0
 10
230.833
 11
230.506
 20
55.909
 21
55.978
  0
LINE
  8
0
 10
230.506
 11
230.2
 20
55.978
 21
56.114
  0
LINE
  8
0
 10
230.2
 11
229.929
 20
56.114
 21
56.311
  0
LINE
  8
0
 10
229.929
 11
229.706
 20
56.311
 21
56.56
  0
LINE
  8
0
 10
229.706
 11
229.538
 20
56.56
 21
56.849
  0
LINE
  8
0
 10
229.538
 11
229.435
 20
56.849
 21
57.167
  0
LINE
  8
0
 10
229.435
 11
229.4
 20
57.167
 21
57.5
  0
LINE
  8
0
 10
229.4
 11
229.435
 20
181.5
 21
181.833
  0
LINE
  8
0
 10
229.435
 11
229.538
 20
181.833
 21
182.151
  0
LINE
  8
0
 10
229.538
 11
229.706
 20
182.151
 21
182.44
  0
LINE
  8
0
 10
229.706
 11
229.929
 20
182.44
 21
182.689
  0
LINE
  8
0
 10
229.929
 11
230.2
 20
182.689
 21
182.886
  0
LINE
  8
0
 10
230.2
 11
230.506
 20
182.886
 21
183.022
  0
LINE
  8
0
 10
230.506
 11
230.833
 20
183.022
 21
183.091
  0
LINE
  8
0
 10
230.833
 11
231.167
 20
183.091
 21
183.091
  0
LINE
  8
0
 10
231.167
 11
231.494
 20
183.091
 21
183.022
  0
LINE
  8
0
 10
231.494
 11
231.8
 20
183.022
 21
182.886
  0
LINE
  8
0
 10
231.8
 11
232.071
 20
182.886
 21
182.689
  0
LINE
  8
0
 10
232.071
 11
232.294
 20
182.689
 21
182.44
  0
LINE
  8
0
 10
232.294
 11
232.462
 20
182.44
 21
182.151
  0
LINE
  8
0
 10
232.462
 11
232.565
 20
182.151
 21
181.833
  0
LINE
  8
0
 10
232.565
 11
232.6
 20
181.833
 21
181.5
  0
LINE
  8
0
 10
232.6
 11
232.565
 20
181.5
 21
181.167
  0
LINE
  8
0
 10
232.565
 11
232.462
 20
181.167
 21
180.849
  0
LINE
  8
0
 10
232.462
 11
232.294
 20
180.849
 21
180.56
  0
LINE
  8
0
 10
232.294
 11
232.071
 20
180.56
 21
180.311
  0
LINE
  8
0
 10
232.071
 11
231.8
 20
180.311
 21
180.114
  0
LINE
  8
0
 10
231.8
 11
231.494
 20
180.114
 21
179.978
  0
LINE
  8
0
 10
231.494
 11
231.167
 20
179.978
 21
179.909
  0
LINE
  8
0
 10
231.167
 11
230.833
 20
179.909
 21
179.909
  0
LINE
  8
0
 10
230.833
 11
230.506
 20
179.909
 21
179.978
  0
LINE
  8
0
 10
230.506
 11
230.2
 20
179.978
 21
180.114
  0
LINE
  8
0
 10
230.2
 11
229.929
 20
180.114
 21
180.311
  0
LINE
  8
0
 10
229.929
 11
229.706
 20
180.311
 21
180.56
  0
LINE
  8
0
 10
229.706
 11
229.538
 20
180.56
 21
180.849
  0
LINE
  8
0
 10
229.538
 11
229.435
 20
180.849
 21
181.167
  0
LINE
  8
0
 10
229.435
 11
229.4
 20
181.167
 21
181.5
  0
ENDSEC
  0
SECTION
  2
OBJECTS
  0
DICTIONARY
  0
ENDSEC
  0
EOF
