  0
SECTION
  2
BLOCKS
  0
ENDSEC
  0
SECTION
  2
ENTITIES
  0
LINE
  8
0
 10
7.95
 11
7.954
 20
8
 21
8.019
  0
LINE
  8
0
 10
7.954
 11
7.965
 20
8.019
 21
8.035
  0
LINE
  8
0
 10
7.965
 11
7.981
 20
8.035
 21
8.046
  0
LINE
  8
0
 10
7.981
 11
8
 20
8.046
 21
8.05
  0
LINE
  8
0
 10
8
 11
8.019
 20
8.05
 21
8.046
  0
LINE
  8
0
 10
8.019
 11
8.035
 20
8.046
 21
8.035
  0
LINE
  8
0
 10
8.035
 11
8.046
 20
8.035
 21
8.019
  0
LINE
  8
0
 10
8.046
 11
8.05
 20
8.019
 21
8
  0
LINE
  8
0
 10
8.05
 11
8.046
 20
8
 21
7.981
  0
LINE
  8
0
 10
8.046
 11
8.035
 20
7.981
 21
7.965
  0
LINE
  8
0
 10
8.035
 11
8.019
 20
7.965
 21
7.954
  0
LINE
  8
0
 10
8.019
 11
8
 20
7.954
 21
7.95
  0
LINE
  8
0
 10
8
 11
7.981
 20
7.95
 21
7.954
  0
LINE
  8
0
 10
7.981
 11
7.965
 20
7.954
 21
7.965
  0
LINE
  8
0
 10
7.965
 11
7.954
 20
7.965
 21
7.981
  0
LINE
  8
0
 10
7.954
 11
7.95
 20
7.981
 21
8
  0
LINE
  8
0
 10
7.95
 11
7.954
 20
132
 21
132.019
  0
LINE
  8
0
 10
7.954
 11
7.965
 20
132.019
 21
132.035
  0
LINE
  8
0
 10
7.965
 11
7.981
 20
132.035
 21
132.046
  0
LINE
  8
0
 10
7.981
 11
8
 20
132.046
 21
132.05
  0
LINE
  8
0
 10
8
 11
8.019
 20
132.05
 21
132.046
  0
LINE
  8
0
 10
8.019
 11
8.035
 20
132.046
 21
132.035
  0
LINE
  8
0
 10
8.035
 11
8.046
 20
132.035
 21
132.019
  0
LINE
  8
0
 10
8.046
 11
8.05
 20
132.019
 21
132
  0
LINE
  8
0
 10
8.05
 11
8.046
 20
132
 21
131.981
  0
LINE
  8
0
 10
8.046
 11
8.035
 20
131.981
 21
131.965
  0
LINE
  8
0
 10
8.035
 11
8.019
 20
131.965
 21
131.954
  0
LINE
  8
0
 10
8.019
 11
8
 20
131.954
 21
131.95
  0
LINE
  8
0
 10
8
 11
7.981
 20
131.95
 21
131.954
  0
LINE
  8
0
 10
7.981
 11
7.965
 20
131.954
 21
131.965
  0
LINE
  8
0
 10
7.965
 11
7.954
 20
131.965
 21
131.981
  0
LINE
  8
0
 10
7.954
 11
7.95
 20
131.981
 21
132
  0
LINE
  8
0
 10
29.95
 11
29.954
 20
5
 21
5.019
  0
LINE
  8
0
 10
29.954
 11
29.965
 20
5.019
 21
5.035
  0
LINE
  8
0
 10
29.965
 11
29.981
 20
5.035
 21
5.046
  0
LINE
  8
0
 10
29.981
 11
30
 20
5.046
 21
5.05
  0
LINE
  8
0
 10
30
 11
30.019
 20
5.05
 21
5.046
  0
LINE
  8
0
 10
30.019
 11
30.035
 20
5.046
 21
5.035
  0
LINE
  8
0
 10
30.035
 11
30.046
 20
5.035
 21
5.019
  0
LINE
  8
0
 10
30.046
 11
30.05
 20
5.019
 21
5
  0
LINE
  8
0
 10
30.05
 11
30.046
 20
5
 21
4.981
  0
LINE
  8
0
 10
30.046
 11
30.035
 20
4.981
 21
4.965
  0
LINE
  8
0
 10
30.035
 11
30.019
 20
4.965
 21
4.954
  0
LINE
  8
0
 10
30.019
 11
30
 20
4.954
 21
4.95
  0
LINE
  8
0
 10
30
 11
29.981
 20
4.95
 21
4.954
  0
LINE
  8
0
 10
29.981
 11
29.965
 20
4.954
 21
4.965
  0
LINE
  8
0
 10
29.965
 11
29.954
 20
4.965
 21
4.981
  0
LINE
  8
0
 10
29.954
 11
29.95
 20
4.981
 21
5
  0
LINE
  8
0
 10
29.95
 11
29.954
 20
19
 21
19.019
  0
LINE
  8
0
 10
29.954
 11
29.965
 20
19.019
 21
19.035
  0
LINE
  8
0
 10
29.965
 11
29.981
 20
19.035
 21
19.046
  0
LINE
  8
0
 10
29.981
 11
30
 20
19.046
 21
19.05
  0
LINE
  8
0
 10
30
 11
30.019
 20
19.05
 21
19.046
  0
LINE
  8
0
 10
30.019
 11
30.035
 20
19.046
 21
19.035
  0
LINE
  8
0
 10
30.035
 11
30.046
 20
19.035
 21
19.019
  0
LINE
  8
0
 10
30.046
 11
30.05
 20
19.019
 21
19
  0
LINE
  8
0
 10
30.05
 11
30.046
 20
19
 21
18.981
  0
LINE
  8
0
 10
30.046
 11
30.035
 20
18.981
 21
18.965
  0
LINE
  8
0
 10
30.035
 11
30.019
 20
18.965
 21
18.954
  0
LINE
  8
0
 10
30.019
 11
30
 20
18.954
 21
18.95
  0
LINE
  8
0
 10
30
 11
29.981
 20
18.95
 21
18.954
  0
LINE
  8
0
 10
29.981
 11
29.965
 20
18.954
 21
18.965
  0
LINE
  8
0
 10
29.965
 11
29.954
 20
18.965
 21
18.981
  0
LINE
  8
0
 10
29.954
 11
29.95
 20
18.981
 21
19
  0
LINE
  8
0
 10
29.95
 11
29.954
 20
121
 21
121.019
  0
LINE
  8
0
 10
29.954
 11
29.965
 20
121.019
 21
121.035
  0
LINE
  8
0
 10
29.965
 11
29.981
 20
121.035
 21
121.046
  0
LINE
  8
0
 10
29.981
 11
30
 20
121.046
 21
121.05
  0
LINE
  8
0
 10
30
 11
30.019
 20
121.05
 21
121.046
  0
LINE
  8
0
 10
30.019
 11
30.035
 20
121.046
 21
121.035
  0
LINE
  8
0
 10
30.035
 11
30.046
 20
121.035
 21
121.019
  0
LINE
  8
0
 10
30.046
 11
30.05
 20
121.019
 21
121
  0
LINE
  8
0
 10
30.05
 11
30.046
 20
121
 21
120.981
  0
LINE
  8
0
 10
30.046
 11
30.035
 20
120.981
 21
120.965
  0
LINE
  8
0
 10
30.035
 11
30.019
 20
120.965
 21
120.954
  0
LINE
  8
0
 10
30.019
 11
30
 20
120.954
 21
120.95
  0
LINE
  8
0
 10
30
 11
29.981
 20
120.95
 21
120.954
  0
LINE
  8
0
 10
29.981
 11
29.965
 20
120.954
 21
120.965
  0
LINE
  8
0
 10
29.965
 11
29.954
 20
120.965
 21
120.981
  0
LINE
  8
0
 10
29.954
 11
29.95
 20
120.981
 21
121
  0
LINE
  8
0
 10
29.95
 11
29.954
 20
135
 21
135.019
  0
LINE
  8
0
 10
29.954
 11
29.965
 20
135.019
 21
135.035
  0
LINE
  8
0
 10
29.965
 11
29.981
 20
135.035
 21
135.046
  0
LINE
  8
0
 10
29.981
 11
30
 20
135.046
 21
135.05
  0
LINE
  8
0
 10
30
 11
30.019
 20
135.05
 21
135.046
  0
LINE
  8
0
 10
30.019
 11
30.035
 20
135.046
 21
135.035
  0
LINE
  8
0
 10
30.035
 11
30.046
 20
135.035
 21
135.019
  0
LINE
  8
0
 10
30.046
 11
30.05
 20
135.019
 21
135
  0
LINE
  8
0
 10
30.05
 11
30.046
 20
135
 21
134.981
  0
LINE
  8
0
 10
30.046
 11
30.035
 20
134.981
 21
134.965
  0
LINE
  8
0
 10
30.035
 11
30.019
 20
134.965
 21
134.954
  0
LINE
  8
0
 10
30.019
 11
30
 20
134.954
 21
134.95
  0
LINE
  8
0
 10
30
 11
29.981
 20
134.95
 21
134.954
  0
LINE
  8
0
 10
29.981
 11
29.965
 20
134.954
 21
134.965
  0
LINE
  8
0
 10
29.965
 11
29.954
 20
134.965
 21
134.981
  0
LINE
  8
0
 10
29.954
 11
29.95
 20
134.981
 21
135
  0
LINE
  8
0
 10
0
 11
0
 20
0
 21
140
  0
LINE
  8
0
 10
0
 11
239
 20
140
 21
140
  0
LINE
  8
0
 10
239
 11
239
 20
140
 21
0
  0
LINE
  8
0
 10
239
 11
0
 20
0
 21
0
  0
LINE
  8
0
 10
60.95
 11
60.954
 20
5
 21
5.019
  0
LINE
  8
0
 10
60.954
 11
60.965
 20
5.019
 21
5.035
  0
LINE
  8
0
 10
60.965
 11
60.981
 20
5.035
 21
5.046
  0
LINE
  8
0
 10
60.981
 11
61
 20
5.046
 21
5.05
  0
LINE
  8
0
 10
61
 11
61.019
 20
5.05
 21
5.046
  0
LINE
  8
0
 10
61.019
 11
61.035
 20
5.046
 21
5.035
  0
LINE
  8
0
 10
61.035
 11
61.046
 20
5.035
 21
5.019
  0
LINE
  8
0
 10
61.046
 11
61.05
 20
5.019
 21
5
  0
LINE
  8
0
 10
61.05
 11
61.046
 20
5
 21
4.981
  0
LINE
  8
0
 10
61.046
 11
61.035
 20
4.981
 21
4.965
  0
LINE
  8
0
 10
61.035
 11
61.019
 20
4.965
 21
4.954
  0
LINE
  8
0
 10
61.019
 11
61
 20
4.954
 21
4.95
  0
LINE
  8
0
 10
61
 11
60.981
 20
4.95
 21
4.954
  0
LINE
  8
0
 10
60.981
 11
60.965
 20
4.954
 21
4.965
  0
LINE
  8
0
 10
60.965
 11
60.954
 20
4.965
 21
4.981
  0
LINE
  8
0
 10
60.954
 11
60.95
 20
4.981
 21
5
  0
LINE
  8
0
 10
60.95
 11
60.954
 20
19
 21
19.019
  0
LINE
  8
0
 10
60.954
 11
60.965
 20
19.019
 21
19.035
  0
LINE
  8
0
 10
60.965
 11
60.981
 20
19.035
 21
19.046
  0
LINE
  8
0
 10
60.981
 11
61
 20
19.046
 21
19.05
  0
LINE
  8
0
 10
61
 11
61.019
 20
19.05
 21
19.046
  0
LINE
  8
0
 10
61.019
 11
61.035
 20
19.046
 21
19.035
  0
LINE
  8
0
 10
61.035
 11
61.046
 20
19.035
 21
19.019
  0
LINE
  8
0
 10
61.046
 11
61.05
 20
19.019
 21
19
  0
LINE
  8
0
 10
61.05
 11
61.046
 20
19
 21
18.981
  0
LINE
  8
0
 10
61.046
 11
61.035
 20
18.981
 21
18.965
  0
LINE
  8
0
 10
61.035
 11
61.019
 20
18.965
 21
18.954
  0
LINE
  8
0
 10
61.019
 11
61
 20
18.954
 21
18.95
  0
LINE
  8
0
 10
61
 11
60.981
 20
18.95
 21
18.954
  0
LINE
  8
0
 10
60.981
 11
60.965
 20
18.954
 21
18.965
  0
LINE
  8
0
 10
60.965
 11
60.954
 20
18.965
 21
18.981
  0
LINE
  8
0
 10
60.954
 11
60.95
 20
18.981
 21
19
  0
LINE
  8
0
 10
60.95
 11
60.954
 20
121
 21
121.019
  0
LINE
  8
0
 10
60.954
 11
60.965
 20
121.019
 21
121.035
  0
LINE
  8
0
 10
60.965
 11
60.981
 20
121.035
 21
121.046
  0
LINE
  8
0
 10
60.981
 11
61
 20
121.046
 21
121.05
  0
LINE
  8
0
 10
61
 11
61.019
 20
121.05
 21
121.046
  0
LINE
  8
0
 10
61.019
 11
61.035
 20
121.046
 21
121.035
  0
LINE
  8
0
 10
61.035
 11
61.046
 20
121.035
 21
121.019
  0
LINE
  8
0
 10
61.046
 11
61.05
 20
121.019
 21
121
  0
LINE
  8
0
 10
61.05
 11
61.046
 20
121
 21
120.981
  0
LINE
  8
0
 10
61.046
 11
61.035
 20
120.981
 21
120.965
  0
LINE
  8
0
 10
61.035
 11
61.019
 20
120.965
 21
120.954
  0
LINE
  8
0
 10
61.019
 11
61
 20
120.954
 21
120.95
  0
LINE
  8
0
 10
61
 11
60.981
 20
120.95
 21
120.954
  0
LINE
  8
0
 10
60.981
 11
60.965
 20
120.954
 21
120.965
  0
LINE
  8
0
 10
60.965
 11
60.954
 20
120.965
 21
120.981
  0
LINE
  8
0
 10
60.954
 11
60.95
 20
120.981
 21
121
  0
LINE
  8
0
 10
60.95
 11
60.954
 20
135
 21
135.019
  0
LINE
  8
0
 10
60.954
 11
60.965
 20
135.019
 21
135.035
  0
LINE
  8
0
 10
60.965
 11
60.981
 20
135.035
 21
135.046
  0
LINE
  8
0
 10
60.981
 11
61
 20
135.046
 21
135.05
  0
LINE
  8
0
 10
61
 11
61.019
 20
135.05
 21
135.046
  0
LINE
  8
0
 10
61.019
 11
61.035
 20
135.046
 21
135.035
  0
LINE
  8
0
 10
61.035
 11
61.046
 20
135.035
 21
135.019
  0
LINE
  8
0
 10
61.046
 11
61.05
 20
135.019
 21
135
  0
LINE
  8
0
 10
61.05
 11
61.046
 20
135
 21
134.981
  0
LINE
  8
0
 10
61.046
 11
61.035
 20
134.981
 21
134.965
  0
LINE
  8
0
 10
61.035
 11
61.019
 20
134.965
 21
134.954
  0
LINE
  8
0
 10
61.019
 11
61
 20
134.954
 21
134.95
  0
LINE
  8
0
 10
61
 11
60.981
 20
134.95
 21
134.954
  0
LINE
  8
0
 10
60.981
 11
60.965
 20
134.954
 21
134.965
  0
LINE
  8
0
 10
60.965
 11
60.954
 20
134.965
 21
134.981
  0
LINE
  8
0
 10
60.954
 11
60.95
 20
134.981
 21
135
  0
LINE
  8
0
 10
128.45
 11
128.454
 20
15
 21
15.019
  0
LINE
  8
0
 10
128.454
 11
128.465
 20
15.019
 21
15.035
  0
LINE
  8
0
 10
128.465
 11
128.481
 20
15.035
 21
15.046
  0
LINE
  8
0
 10
128.481
 11
128.5
 20
15.046
 21
15.05
  0
LINE
  8
0
 10
128.5
 11
128.519
 20
15.05
 21
15.046
  0
LINE
  8
0
 10
128.519
 11
128.535
 20
15.046
 21
15.035
  0
LINE
  8
0
 10
128.535
 11
128.546
 20
15.035
 21
15.019
  0
LINE
  8
0
 10
128.546
 11
128.55
 20
15.019
 21
15
  0
LINE
  8
0
 10
128.55
 11
128.546
 20
15
 21
14.981
  0
LINE
  8
0
 10
128.546
 11
128.535
 20
14.981
 21
14.965
  0
LINE
  8
0
 10
128.535
 11
128.519
 20
14.965
 21
14.954
  0
LINE
  8
0
 10
128.519
 11
128.5
 20
14.954
 21
14.95
  0
LINE
  8
0
 10
128.5
 11
128.481
 20
14.95
 21
14.954
  0
LINE
  8
0
 10
128.481
 11
128.465
 20
14.954
 21
14.965
  0
LINE
  8
0
 10
128.465
 11
128.454
 20
14.965
 21
14.981
  0
LINE
  8
0
 10
128.454
 11
128.45
 20
14.981
 21
15
  0
LINE
  8
0
 10
128.45
 11
128.454
 20
125
 21
125.019
  0
LINE
  8
0
 10
128.454
 11
128.465
 20
125.019
 21
125.035
  0
LINE
  8
0
 10
128.465
 11
128.481
 20
125.035
 21
125.046
  0
LINE
  8
0
 10
128.481
 11
128.5
 20
125.046
 21
125.05
  0
LINE
  8
0
 10
128.5
 11
128.519
 20
125.05
 21
125.046
  0
LINE
  8
0
 10
128.519
 11
128.535
 20
125.046
 21
125.035
  0
LINE
  8
0
 10
128.535
 11
128.546
 20
125.035
 21
125.019
  0
LINE
  8
0
 10
128.546
 11
128.55
 20
125.019
 21
125
  0
LINE
  8
0
 10
128.55
 11
128.546
 20
125
 21
124.981
  0
LINE
  8
0
 10
128.546
 11
128.535
 20
124.981
 21
124.965
  0
LINE
  8
0
 10
128.535
 11
128.519
 20
124.965
 21
124.954
  0
LINE
  8
0
 10
128.519
 11
128.5
 20
124.954
 21
124.95
  0
LINE
  8
0
 10
128.5
 11
128.481
 20
124.95
 21
124.954
  0
LINE
  8
0
 10
128.481
 11
128.465
 20
124.954
 21
124.965
  0
LINE
  8
0
 10
128.465
 11
128.454
 20
124.965
 21
124.981
  0
LINE
  8
0
 10
128.454
 11
128.45
 20
124.981
 21
125
  0
LINE
  8
0
 10
146.45
 11
146.454
 20
15
 21
15.019
  0
LINE
  8
0
 10
146.454
 11
146.465
 20
15.019
 21
15.035
  0
LINE
  8
0
 10
146.465
 11
146.481
 20
15.035
 21
15.046
  0
LINE
  8
0
 10
146.481
 11
146.5
 20
15.046
 21
15.05
  0
LINE
  8
0
 10
146.5
 11
146.519
 20
15.05
 21
15.046
  0
LINE
  8
0
 10
146.519
 11
146.535
 20
15.046
 21
15.035
  0
LINE
  8
0
 10
146.535
 11
146.546
 20
15.035
 21
15.019
  0
LINE
  8
0
 10
146.546
 11
146.55
 20
15.019
 21
15
  0
LINE
  8
0
 10
146.55
 11
146.546
 20
15
 21
14.981
  0
LINE
  8
0
 10
146.546
 11
146.535
 20
14.981
 21
14.965
  0
LINE
  8
0
 10
146.535
 11
146.519
 20
14.965
 21
14.954
  0
LINE
  8
0
 10
146.519
 11
146.5
 20
14.954
 21
14.95
  0
LINE
  8
0
 10
146.5
 11
146.481
 20
14.95
 21
14.954
  0
LINE
  8
0
 10
146.481
 11
146.465
 20
14.954
 21
14.965
  0
LINE
  8
0
 10
146.465
 11
146.454
 20
14.965
 21
14.981
  0
LINE
  8
0
 10
146.454
 11
146.45
 20
14.981
 21
15
  0
LINE
  8
0
 10
146.45
 11
146.454
 20
125
 21
125.019
  0
LINE
  8
0
 10
146.454
 11
146.465
 20
125.019
 21
125.035
  0
LINE
  8
0
 10
146.465
 11
146.481
 20
125.035
 21
125.046
  0
LINE
  8
0
 10
146.481
 11
146.5
 20
125.046
 21
125.05
  0
LINE
  8
0
 10
146.5
 11
146.519
 20
125.05
 21
125.046
  0
LINE
  8
0
 10
146.519
 11
146.535
 20
125.046
 21
125.035
  0
LINE
  8
0
 10
146.535
 11
146.546
 20
125.035
 21
125.019
  0
LINE
  8
0
 10
146.546
 11
146.55
 20
125.019
 21
125
  0
LINE
  8
0
 10
146.55
 11
146.546
 20
125
 21
124.981
  0
LINE
  8
0
 10
146.546
 11
146.535
 20
124.981
 21
124.965
  0
LINE
  8
0
 10
146.535
 11
146.519
 20
124.965
 21
124.954
  0
LINE
  8
0
 10
146.519
 11
146.5
 20
124.954
 21
124.95
  0
LINE
  8
0
 10
146.5
 11
146.481
 20
124.95
 21
124.954
  0
LINE
  8
0
 10
146.481
 11
146.465
 20
124.954
 21
124.965
  0
LINE
  8
0
 10
146.465
 11
146.454
 20
124.965
 21
124.981
  0
LINE
  8
0
 10
146.454
 11
146.45
 20
124.981
 21
125
  0
LINE
  8
0
 10
177.95
 11
177.954
 20
5
 21
5.019
  0
LINE
  8
0
 10
177.954
 11
177.965
 20
5.019
 21
5.035
  0
LINE
  8
0
 10
177.965
 11
177.981
 20
5.035
 21
5.046
  0
LINE
  8
0
 10
177.981
 11
178
 20
5.046
 21
5.05
  0
LINE
  8
0
 10
178
 11
178.019
 20
5.05
 21
5.046
  0
LINE
  8
0
 10
178.019
 11
178.035
 20
5.046
 21
5.035
  0
LINE
  8
0
 10
178.035
 11
178.046
 20
5.035
 21
5.019
  0
LINE
  8
0
 10
178.046
 11
178.05
 20
5.019
 21
5
  0
LINE
  8
0
 10
178.05
 11
178.046
 20
5
 21
4.981
  0
LINE
  8
0
 10
178.046
 11
178.035
 20
4.981
 21
4.965
  0
LINE
  8
0
 10
178.035
 11
178.019
 20
4.965
 21
4.954
  0
LINE
  8
0
 10
178.019
 11
178
 20
4.954
 21
4.95
  0
LINE
  8
0
 10
178
 11
177.981
 20
4.95
 21
4.954
  0
LINE
  8
0
 10
177.981
 11
177.965
 20
4.954
 21
4.965
  0
LINE
  8
0
 10
177.965
 11
177.954
 20
4.965
 21
4.981
  0
LINE
  8
0
 10
177.954
 11
177.95
 20
4.981
 21
5
  0
LINE
  8
0
 10
177.95
 11
177.954
 20
19
 21
19.019
  0
LINE
  8
0
 10
177.954
 11
177.965
 20
19.019
 21
19.035
  0
LINE
  8
0
 10
177.965
 11
177.981
 20
19.035
 21
19.046
  0
LINE
  8
0
 10
177.981
 11
178
 20
19.046
 21
19.05
  0
LINE
  8
0
 10
178
 11
178.019
 20
19.05
 21
19.046
  0
LINE
  8
0
 10
178.019
 11
178.035
 20
19.046
 21
19.035
  0
LINE
  8
0
 10
178.035
 11
178.046
 20
19.035
 21
19.019
  0
LINE
  8
0
 10
178.046
 11
178.05
 20
19.019
 21
19
  0
LINE
  8
0
 10
178.05
 11
178.046
 20
19
 21
18.981
  0
LINE
  8
0
 10
178.046
 11
178.035
 20
18.981
 21
18.965
  0
LINE
  8
0
 10
178.035
 11
178.019
 20
18.965
 21
18.954
  0
LINE
  8
0
 10
178.019
 11
178
 20
18.954
 21
18.95
  0
LINE
  8
0
 10
178
 11
177.981
 20
18.95
 21
18.954
  0
LINE
  8
0
 10
177.981
 11
177.965
 20
18.954
 21
18.965
  0
LINE
  8
0
 10
177.965
 11
177.954
 20
18.965
 21
18.981
  0
LINE
  8
0
 10
177.954
 11
177.95
 20
18.981
 21
19
  0
LINE
  8
0
 10
177.95
 11
177.954
 20
63
 21
63.019
  0
LINE
  8
0
 10
177.954
 11
177.965
 20
63.019
 21
63.035
  0
LINE
  8
0
 10
177.965
 11
177.981
 20
63.035
 21
63.046
  0
LINE
  8
0
 10
177.981
 11
178
 20
63.046
 21
63.05
  0
LINE
  8
0
 10
178
 11
178.019
 20
63.05
 21
63.046
  0
LINE
  8
0
 10
178.019
 11
178.035
 20
63.046
 21
63.035
  0
LINE
  8
0
 10
178.035
 11
178.046
 20
63.035
 21
63.019
  0
LINE
  8
0
 10
178.046
 11
178.05
 20
63.019
 21
63
  0
LINE
  8
0
 10
178.05
 11
178.046
 20
63
 21
62.981
  0
LINE
  8
0
 10
178.046
 11
178.035
 20
62.981
 21
62.965
  0
LINE
  8
0
 10
178.035
 11
178.019
 20
62.965
 21
62.954
  0
LINE
  8
0
 10
178.019
 11
178
 20
62.954
 21
62.95
  0
LINE
  8
0
 10
178
 11
177.981
 20
62.95
 21
62.954
  0
LINE
  8
0
 10
177.981
 11
177.965
 20
62.954
 21
62.965
  0
LINE
  8
0
 10
177.965
 11
177.954
 20
62.965
 21
62.981
  0
LINE
  8
0
 10
177.954
 11
177.95
 20
62.981
 21
63
  0
LINE
  8
0
 10
177.95
 11
177.954
 20
77
 21
77.019
  0
LINE
  8
0
 10
177.954
 11
177.965
 20
77.019
 21
77.035
  0
LINE
  8
0
 10
177.965
 11
177.981
 20
77.035
 21
77.046
  0
LINE
  8
0
 10
177.981
 11
178
 20
77.046
 21
77.05
  0
LINE
  8
0
 10
178
 11
178.019
 20
77.05
 21
77.046
  0
LINE
  8
0
 10
178.019
 11
178.035
 20
77.046
 21
77.035
  0
LINE
  8
0
 10
178.035
 11
178.046
 20
77.035
 21
77.019
  0
LINE
  8
0
 10
178.046
 11
178.05
 20
77.019
 21
77
  0
LINE
  8
0
 10
178.05
 11
178.046
 20
77
 21
76.981
  0
LINE
  8
0
 10
178.046
 11
178.035
 20
76.981
 21
76.965
  0
LINE
  8
0
 10
178.035
 11
178.019
 20
76.965
 21
76.954
  0
LINE
  8
0
 10
178.019
 11
178
 20
76.954
 21
76.95
  0
LINE
  8
0
 10
178
 11
177.981
 20
76.95
 21
76.954
  0
LINE
  8
0
 10
177.981
 11
177.965
 20
76.954
 21
76.965
  0
LINE
  8
0
 10
177.965
 11
177.954
 20
76.965
 21
76.981
  0
LINE
  8
0
 10
177.954
 11
177.95
 20
76.981
 21
77
  0
LINE
  8
0
 10
177.95
 11
177.954
 20
121
 21
121.019
  0
LINE
  8
0
 10
177.954
 11
177.965
 20
121.019
 21
121.035
  0
LINE
  8
0
 10
177.965
 11
177.981
 20
121.035
 21
121.046
  0
LINE
  8
0
 10
177.981
 11
178
 20
121.046
 21
121.05
  0
LINE
  8
0
 10
178
 11
178.019
 20
121.05
 21
121.046
  0
LINE
  8
0
 10
178.019
 11
178.035
 20
121.046
 21
121.035
  0
LINE
  8
0
 10
178.035
 11
178.046
 20
121.035
 21
121.019
  0
LINE
  8
0
 10
178.046
 11
178.05
 20
121.019
 21
121
  0
LINE
  8
0
 10
178.05
 11
178.046
 20
121
 21
120.981
  0
LINE
  8
0
 10
178.046
 11
178.035
 20
120.981
 21
120.965
  0
LINE
  8
0
 10
178.035
 11
178.019
 20
120.965
 21
120.954
  0
LINE
  8
0
 10
178.019
 11
178
 20
120.954
 21
120.95
  0
LINE
  8
0
 10
178
 11
177.981
 20
120.95
 21
120.954
  0
LINE
  8
0
 10
177.981
 11
177.965
 20
120.954
 21
120.965
  0
LINE
  8
0
 10
177.965
 11
177.954
 20
120.965
 21
120.981
  0
LINE
  8
0
 10
177.954
 11
177.95
 20
120.981
 21
121
  0
LINE
  8
0
 10
177.95
 11
177.954
 20
135
 21
135.019
  0
LINE
  8
0
 10
177.954
 11
177.965
 20
135.019
 21
135.035
  0
LINE
  8
0
 10
177.965
 11
177.981
 20
135.035
 21
135.046
  0
LINE
  8
0
 10
177.981
 11
178
 20
135.046
 21
135.05
  0
LINE
  8
0
 10
178
 11
178.019
 20
135.05
 21
135.046
  0
LINE
  8
0
 10
178.019
 11
178.035
 20
135.046
 21
135.035
  0
LINE
  8
0
 10
178.035
 11
178.046
 20
135.035
 21
135.019
  0
LINE
  8
0
 10
178.046
 11
178.05
 20
135.019
 21
135
  0
LINE
  8
0
 10
178.05
 11
178.046
 20
135
 21
134.981
  0
LINE
  8
0
 10
178.046
 11
178.035
 20
134.981
 21
134.965
  0
LINE
  8
0
 10
178.035
 11
178.019
 20
134.965
 21
134.954
  0
LINE
  8
0
 10
178.019
 11
178
 20
134.954
 21
134.95
  0
LINE
  8
0
 10
178
 11
177.981
 20
134.95
 21
134.954
  0
LINE
  8
0
 10
177.981
 11
177.965
 20
134.954
 21
134.965
  0
LINE
  8
0
 10
177.965
 11
177.954
 20
134.965
 21
134.981
  0
LINE
  8
0
 10
177.954
 11
177.95
 20
134.981
 21
135
  0
LINE
  8
0
 10
208.95
 11
208.954
 20
5
 21
5.019
  0
LINE
  8
0
 10
208.954
 11
208.965
 20
5.019
 21
5.035
  0
LINE
  8
0
 10
208.965
 11
208.981
 20
5.035
 21
5.046
  0
LINE
  8
0
 10
208.981
 11
209
 20
5.046
 21
5.05
  0
LINE
  8
0
 10
209
 11
209.019
 20
5.05
 21
5.046
  0
LINE
  8
0
 10
209.019
 11
209.035
 20
5.046
 21
5.035
  0
LINE
  8
0
 10
209.035
 11
209.046
 20
5.035
 21
5.019
  0
LINE
  8
0
 10
209.046
 11
209.05
 20
5.019
 21
5
  0
LINE
  8
0
 10
209.05
 11
209.046
 20
5
 21
4.981
  0
LINE
  8
0
 10
209.046
 11
209.035
 20
4.981
 21
4.965
  0
LINE
  8
0
 10
209.035
 11
209.019
 20
4.965
 21
4.954
  0
LINE
  8
0
 10
209.019
 11
209
 20
4.954
 21
4.95
  0
LINE
  8
0
 10
209
 11
208.981
 20
4.95
 21
4.954
  0
LINE
  8
0
 10
208.981
 11
208.965
 20
4.954
 21
4.965
  0
LINE
  8
0
 10
208.965
 11
208.954
 20
4.965
 21
4.981
  0
LINE
  8
0
 10
208.954
 11
208.95
 20
4.981
 21
5
  0
LINE
  8
0
 10
208.95
 11
208.954
 20
19
 21
19.019
  0
LINE
  8
0
 10
208.954
 11
208.965
 20
19.019
 21
19.035
  0
LINE
  8
0
 10
208.965
 11
208.981
 20
19.035
 21
19.046
  0
LINE
  8
0
 10
208.981
 11
209
 20
19.046
 21
19.05
  0
LINE
  8
0
 10
209
 11
209.019
 20
19.05
 21
19.046
  0
LINE
  8
0
 10
209.019
 11
209.035
 20
19.046
 21
19.035
  0
LINE
  8
0
 10
209.035
 11
209.046
 20
19.035
 21
19.019
  0
LINE
  8
0
 10
209.046
 11
209.05
 20
19.019
 21
19
  0
LINE
  8
0
 10
209.05
 11
209.046
 20
19
 21
18.981
  0
LINE
  8
0
 10
209.046
 11
209.035
 20
18.981
 21
18.965
  0
LINE
  8
0
 10
209.035
 11
209.019
 20
18.965
 21
18.954
  0
LINE
  8
0
 10
209.019
 11
209
 20
18.954
 21
18.95
  0
LINE
  8
0
 10
209
 11
208.981
 20
18.95
 21
18.954
  0
LINE
  8
0
 10
208.981
 11
208.965
 20
18.954
 21
18.965
  0
LINE
  8
0
 10
208.965
 11
208.954
 20
18.965
 21
18.981
  0
LINE
  8
0
 10
208.954
 11
208.95
 20
18.981
 21
19
  0
LINE
  8
0
 10
208.95
 11
208.954
 20
63
 21
63.019
  0
LINE
  8
0
 10
208.954
 11
208.965
 20
63.019
 21
63.035
  0
LINE
  8
0
 10
208.965
 11
208.981
 20
63.035
 21
63.046
  0
LINE
  8
0
 10
208.981
 11
209
 20
63.046
 21
63.05
  0
LINE
  8
0
 10
209
 11
209.019
 20
63.05
 21
63.046
  0
LINE
  8
0
 10
209.019
 11
209.035
 20
63.046
 21
63.035
  0
LINE
  8
0
 10
209.035
 11
209.046
 20
63.035
 21
63.019
  0
LINE
  8
0
 10
209.046
 11
209.05
 20
63.019
 21
63
  0
LINE
  8
0
 10
209.05
 11
209.046
 20
63
 21
62.981
  0
LINE
  8
0
 10
209.046
 11
209.035
 20
62.981
 21
62.965
  0
LINE
  8
0
 10
209.035
 11
209.019
 20
62.965
 21
62.954
  0
LINE
  8
0
 10
209.019
 11
209
 20
62.954
 21
62.95
  0
LINE
  8
0
 10
209
 11
208.981
 20
62.95
 21
62.954
  0
LINE
  8
0
 10
208.981
 11
208.965
 20
62.954
 21
62.965
  0
LINE
  8
0
 10
208.965
 11
208.954
 20
62.965
 21
62.981
  0
LINE
  8
0
 10
208.954
 11
208.95
 20
62.981
 21
63
  0
LINE
  8
0
 10
208.95
 11
208.954
 20
77
 21
77.019
  0
LINE
  8
0
 10
208.954
 11
208.965
 20
77.019
 21
77.035
  0
LINE
  8
0
 10
208.965
 11
208.981
 20
77.035
 21
77.046
  0
LINE
  8
0
 10
208.981
 11
209
 20
77.046
 21
77.05
  0
LINE
  8
0
 10
209
 11
209.019
 20
77.05
 21
77.046
  0
LINE
  8
0
 10
209.019
 11
209.035
 20
77.046
 21
77.035
  0
LINE
  8
0
 10
209.035
 11
209.046
 20
77.035
 21
77.019
  0
LINE
  8
0
 10
209.046
 11
209.05
 20
77.019
 21
77
  0
LINE
  8
0
 10
209.05
 11
209.046
 20
77
 21
76.981
  0
LINE
  8
0
 10
209.046
 11
209.035
 20
76.981
 21
76.965
  0
LINE
  8
0
 10
209.035
 11
209.019
 20
76.965
 21
76.954
  0
LINE
  8
0
 10
209.019
 11
209
 20
76.954
 21
76.95
  0
LINE
  8
0
 10
209
 11
208.981
 20
76.95
 21
76.954
  0
LINE
  8
0
 10
208.981
 11
208.965
 20
76.954
 21
76.965
  0
LINE
  8
0
 10
208.965
 11
208.954
 20
76.965
 21
76.981
  0
LINE
  8
0
 10
208.954
 11
208.95
 20
76.981
 21
77
  0
LINE
  8
0
 10
208.95
 11
208.954
 20
121
 21
121.019
  0
LINE
  8
0
 10
208.954
 11
208.965
 20
121.019
 21
121.035
  0
LINE
  8
0
 10
208.965
 11
208.981
 20
121.035
 21
121.046
  0
LINE
  8
0
 10
208.981
 11
209
 20
121.046
 21
121.05
  0
LINE
  8
0
 10
209
 11
209.019
 20
121.05
 21
121.046
  0
LINE
  8
0
 10
209.019
 11
209.035
 20
121.046
 21
121.035
  0
LINE
  8
0
 10
209.035
 11
209.046
 20
121.035
 21
121.019
  0
LINE
  8
0
 10
209.046
 11
209.05
 20
121.019
 21
121
  0
LINE
  8
0
 10
209.05
 11
209.046
 20
121
 21
120.981
  0
LINE
  8
0
 10
209.046
 11
209.035
 20
120.981
 21
120.965
  0
LINE
  8
0
 10
209.035
 11
209.019
 20
120.965
 21
120.954
  0
LINE
  8
0
 10
209.019
 11
209
 20
120.954
 21
120.95
  0
LINE
  8
0
 10
209
 11
208.981
 20
120.95
 21
120.954
  0
LINE
  8
0
 10
208.981
 11
208.965
 20
120.954
 21
120.965
  0
LINE
  8
0
 10
208.965
 11
208.954
 20
120.965
 21
120.981
  0
LINE
  8
0
 10
208.954
 11
208.95
 20
120.981
 21
121
  0
LINE
  8
0
 10
208.95
 11
208.954
 20
135
 21
135.019
  0
LINE
  8
0
 10
208.954
 11
208.965
 20
135.019
 21
135.035
  0
LINE
  8
0
 10
208.965
 11
208.981
 20
135.035
 21
135.046
  0
LINE
  8
0
 10
208.981
 11
209
 20
135.046
 21
135.05
  0
LINE
  8
0
 10
209
 11
209.019
 20
135.05
 21
135.046
  0
LINE
  8
0
 10
209.019
 11
209.035
 20
135.046
 21
135.035
  0
LINE
  8
0
 10
209.035
 11
209.046
 20
135.035
 21
135.019
  0
LINE
  8
0
 10
209.046
 11
209.05
 20
135.019
 21
135
  0
LINE
  8
0
 10
209.05
 11
209.046
 20
135
 21
134.981
  0
LINE
  8
0
 10
209.046
 11
209.035
 20
134.981
 21
134.965
  0
LINE
  8
0
 10
209.035
 11
209.019
 20
134.965
 21
134.954
  0
LINE
  8
0
 10
209.019
 11
209
 20
134.954
 21
134.95
  0
LINE
  8
0
 10
209
 11
208.981
 20
134.95
 21
134.954
  0
LINE
  8
0
 10
208.981
 11
208.965
 20
134.954
 21
134.965
  0
LINE
  8
0
 10
208.965
 11
208.954
 20
134.965
 21
134.981
  0
LINE
  8
0
 10
208.954
 11
208.95
 20
134.981
 21
135
  0
LINE
  8
0
 10
230.95
 11
230.954
 20
8
 21
8.019
  0
LINE
  8
0
 10
230.954
 11
230.965
 20
8.019
 21
8.035
  0
LINE
  8
0
 10
230.965
 11
230.981
 20
8.035
 21
8.046
  0
LINE
  8
0
 10
230.981
 11
231
 20
8.046
 21
8.05
  0
LINE
  8
0
 10
231
 11
231.019
 20
8.05
 21
8.046
  0
LINE
  8
0
 10
231.019
 11
231.035
 20
8.046
 21
8.035
  0
LINE
  8
0
 10
231.035
 11
231.046
 20
8.035
 21
8.019
  0
LINE
  8
0
 10
231.046
 11
231.05
 20
8.019
 21
8
  0
LINE
  8
0
 10
231.05
 11
231.046
 20
8
 21
7.981
  0
LINE
  8
0
 10
231.046
 11
231.035
 20
7.981
 21
7.965
  0
LINE
  8
0
 10
231.035
 11
231.019
 20
7.965
 21
7.954
  0
LINE
  8
0
 10
231.019
 11
231
 20
7.954
 21
7.95
  0
LINE
  8
0
 10
231
 11
230.981
 20
7.95
 21
7.954
  0
LINE
  8
0
 10
230.981
 11
230.965
 20
7.954
 21
7.965
  0
LINE
  8
0
 10
230.965
 11
230.954
 20
7.965
 21
7.981
  0
LINE
  8
0
 10
230.954
 11
230.95
 20
7.981
 21
8
  0
LINE
  8
0
 10
230.95
 11
230.954
 20
132
 21
132.019
  0
LINE
  8
0
 10
230.954
 11
230.965
 20
132.019
 21
132.035
  0
LINE
  8
0
 10
230.965
 11
230.981
 20
132.035
 21
132.046
  0
LINE
  8
0
 10
230.981
 11
231
 20
132.046
 21
132.05
  0
LINE
  8
0
 10
231
 11
231.019
 20
132.05
 21
132.046
  0
LINE
  8
0
 10
231.019
 11
231.035
 20
132.046
 21
132.035
  0
LINE
  8
0
 10
231.035
 11
231.046
 20
132.035
 21
132.019
  0
LINE
  8
0
 10
231.046
 11
231.05
 20
132.019
 21
132
  0
LINE
  8
0
 10
231.05
 11
231.046
 20
132
 21
131.981
  0
LINE
  8
0
 10
231.046
 11
231.035
 20
131.981
 21
131.965
  0
LINE
  8
0
 10
231.035
 11
231.019
 20
131.965
 21
131.954
  0
LINE
  8
0
 10
231.019
 11
231
 20
131.954
 21
131.95
  0
LINE
  8
0
 10
231
 11
230.981
 20
131.95
 21
131.954
  0
LINE
  8
0
 10
230.981
 11
230.965
 20
131.954
 21
131.965
  0
LINE
  8
0
 10
230.965
 11
230.954
 20
131.965
 21
131.981
  0
LINE
  8
0
 10
230.954
 11
230.95
 20
131.981
 21
132
  0
ENDSEC
  0
SECTION
  2
OBJECTS
  0
DICTIONARY
  0
ENDSEC
  0
EOF
