999
DXF created by Inkscape
  0
SECTION
  2
HEADER
  9
$ACADVER
  1
AC1014
  9
$HANDSEED
  5
FFFF
  9
$MEASUREMENT
 70
     1
  0
ENDSEC
  0
SECTION
  2
TABLES
  0
TABLE
  2
VPORT
  5
8
330
0
100
AcDbSymbolTable
 70
     4
  0
VPORT
  5
2E
330
8
100
AcDbSymbolTableRecord
100
AcDbViewportTableRecord
  2
*ACTIVE
 70
     0
 10
0.0
 20
0.0
 11
1.0
 21
1.0
 12
210.0
 22
148.5
 13
0.0
 23
0.0
 14
10.0
 24
10.0
 15
10.0
 25
10.0
 16
0.0
 26
0.0
 36
1.0
 17
0.0
 27
0.0
 37
0.0
 40
341.0
 41
1.24
 42
50.0
 43
0.0
 44
0.0
 50
0.0
 51
0.0
 71
     0
 72
   100
 73
     1
 74
     3
 75
     0
 76
     0
 77
     0
 78
     0
  0
ENDTAB
  0
TABLE
  2
LTYPE
  5
5
330
0
100
AcDbSymbolTable
 70
     1
  0
LTYPE
  5
14
330
5
100
AcDbSymbolTableRecord
100
AcDbLinetypeTableRecord
  2
BYBLOCK
 70
     0
  3

 72
    65
 73
     0
 40
0.0
  0
LTYPE
  5
15
330
5
100
AcDbSymbolTableRecord
100
AcDbLinetypeTableRecord
  2
BYLAYER
 70
     0
  3

 72
    65
 73
     0
 40
0.0
  0
LTYPE
  5
16
330
5
100
AcDbSymbolTableRecord
100
AcDbLinetypeTableRecord
  2
CONTINUOUS
 70
     0
  3
Solid line
 72
    65
 73
     0
 40
0.0
  0
ENDTAB
  0
TABLE
  2
LAYER
  5
2
100
AcDbSymbolTable
 70
2
  0
LAYER
  5
50
100
AcDbSymbolTableRecord
100
AcDbLayerTableRecord
  2
0
 70
0
  6
CONTINUOUS
  0
LAYER
  5
51
100
AcDbSymbolTableRecord
100
AcDbLayerTableRecord
  2
Layer_1
 70
0
  6
CONTINUOUS
  0
ENDTAB
  0
TABLE
  2
STYLE
  5
3
330
0
100
AcDbSymbolTable
 70
     1
  0
STYLE
  5
11
330
3
100
AcDbSymbolTableRecord
100
AcDbTextStyleTableRecord
  2
STANDARD
 70
     0
 40
0.0
 41
1.0
 50
0.0
 71
     0
 42
2.5
  3
txt
  4

  0
ENDTAB
  0
TABLE
  2
VIEW
  5
6
330
0
100
AcDbSymbolTable
 70
     0
  0
ENDTAB
  0
TABLE
  2
UCS
  5
7
330
0
100
AcDbSymbolTable
 70
     0
  0
ENDTAB
  0
TABLE
  2
APPID
  5
9
330
0
100
AcDbSymbolTable
 70
     2
  0
APPID
  5
12
330
9
100
AcDbSymbolTableRecord
100
AcDbRegAppTableRecord
  2
ACAD
 70
     0
  0
ENDTAB
  0
TABLE
  2
DIMSTYLE
  5
A
330
0
100
AcDbSymbolTable
 70
     1
  0
DIMSTYLE
105
27
330
A
100
AcDbSymbolTableRecord
100
AcDbDimStyleTableRecord
  2
ISO-25
 70
     0
  3

  4

  5

  6

  7

 40
1.0
 41
2.5
 42
0.625
 43
3.75
 44
1.25
 45
0.0
 46
0.0
 47
0.0
 48
0.0
140
2.5
141
2.5
142
0.0
143
0.03937007874016
144
1.0
145
0.0
146
1.0
147
0.625
 71
     0
 72
     0
 73
     0
 74
     0
 75
     0
 76
     0
 77
     1
 78
     8
170
     0
171
     3
172
     1
173
     0
174
     0
175
     0
176
     0
177
     0
178
     0
270
     2
271
     2
272
     2
273
     2
274
     3
340
11
275
     0
280
     0
281
     0
282
     0
283
     0
284
     8
285
     0
286
     0
287
     3
288
     0
  0
ENDTAB
  0
TABLE
  2
BLOCK_RECORD
  5
1
330
0
100
AcDbSymbolTable
 70
     1
  0
BLOCK_RECORD
  5
1F
330
1
100
AcDbSymbolTableRecord
100
AcDbBlockTableRecord
  2
*MODEL_SPACE
  0
BLOCK_RECORD
  5
1B
330
1
100
AcDbSymbolTableRecord
100
AcDbBlockTableRecord
  2
*PAPER_SPACE
  0
ENDTAB
  0
ENDSEC
  0
SECTION
  2
BLOCKS
  0
BLOCK
  5
20
330
1F
100
AcDbEntity
  8
0
100
AcDbBlockBegin
  2
*MODEL_SPACE
 70
     0
 10
0.0
 20
0.0
 30
0.0
  3
*MODEL_SPACE
  1

  0
ENDBLK
  5
21
330
1F
100
AcDbEntity
  8
0
100
AcDbBlockEnd
  0
BLOCK
  5
1C
330
1B
100
AcDbEntity
 67
     1
  8
0
100
AcDbBlockBegin
  2
*PAPER_SPACE
  1

  0
ENDBLK
  5
1D
330
1B
100
AcDbEntity
 67
     1
  8
0
100
AcDbBlockEnd
  0
ENDSEC
  0
SECTION
  2
ENTITIES
  0
LWPOLYLINE
  5
100
100
AcDbEntity
  8
Layer_1
 62
7
100
AcDbPolyline
 90
331
 70
0
 10
-25.424810
 20
5.904824
 30
0.0
 10
-25.424810
 20
5.797721
 30
0.0
 10
-25.424810
 20
5.690646
 30
0.0
 10
-25.424810
 20
5.589497
 30
0.0
 10
-25.424810
 20
5.482422
 30
0.0
 10
-25.424810
 20
5.375319
 30
0.0
 10
-25.424810
 20
5.268244
 30
0.0
 10
-25.424810
 20
5.167095
 30
0.0
 10
-25.424810
 20
5.060020
 30
0.0
 10
-25.424810
 20
4.952917
 30
0.0
 10
-25.424810
 20
4.845842
 30
0.0
 10
-25.424810
 20
4.744693
 30
0.0
 10
-25.424810
 20
4.637590
 30
0.0
 10
-25.424810
 20
4.530515
 30
0.0
 10
-25.424810
 20
4.429366
 30
0.0
 10
-25.424810
 20
4.322291
 30
0.0
 10
-25.424810
 20
4.215188
 30
0.0
 10
-24.812021
 20
4.215188
 30
0.0
 10
-24.199233
 20
4.215188
 30
0.0
 10
-23.592395
 20
4.215188
 30
0.0
 10
-22.979606
 20
4.215188
 30
0.0
 10
-22.366818
 20
4.215188
 30
0.0
 10
-21.754030
 20
4.215188
 30
0.0
 10
-21.379218
 20
4.215188
 30
0.0
 10
-21.379218
 20
3.691637
 30
0.0
 10
-21.379218
 20
2.953908
 30
0.0
 10
-21.379218
 20
2.216180
 30
0.0
 10
-21.379218
 20
1.478451
 30
0.0
 10
-21.379218
 20
0.740722
 30
0.0
 10
-21.379218
 20
0.002993
 30
0.0
 10
-21.379218
 20
-0.734708
 30
0.0
 10
-21.379218
 20
-1.472437
 30
0.0
 10
-21.379218
 20
-2.216120
 30
0.0
 10
-21.379218
 20
-2.953849
 30
0.0
 10
-21.379218
 20
-3.691550
 30
0.0
 10
-21.379218
 20
-4.429279
 30
0.0
 10
-21.379218
 20
-5.167008
 30
0.0
 10
-21.379218
 20
-5.904737
 30
0.0
 10
-21.272129
 20
-5.904737
 30
0.0
 10
-21.165039
 20
-5.904737
 30
0.0
 10
-21.063900
 20
-5.904737
 30
0.0
 10
-20.956810
 20
-5.904737
 30
0.0
 10
-20.849721
 20
-5.904737
 30
0.0
 10
-20.742632
 20
-5.904737
 30
0.0
 10
-20.641492
 20
-5.904737
 30
0.0
 10
-20.534403
 20
-5.904737
 30
0.0
 10
-20.427314
 20
-5.904737
 30
0.0
 10
-20.326174
 20
-5.904737
 30
0.0
 10
-20.219085
 20
-5.904737
 30
0.0
 10
-20.111996
 20
-5.904737
 30
0.0
 10
-20.004907
 20
-5.904737
 30
0.0
 10
-19.903767
 20
-5.904737
 30
0.0
 10
-19.796678
 20
-5.904737
 30
0.0
 10
-19.689588
 20
-5.904737
 30
0.0
 10
-19.689588
 20
-5.167008
 30
0.0
 10
-19.689588
 20
-4.429279
 30
0.0
 10
-19.689588
 20
-3.691550
 30
0.0
 10
-19.689588
 20
-2.953849
 30
0.0
 10
-19.689588
 20
-2.216120
 30
0.0
 10
-19.689588
 20
-1.472437
 30
0.0
 10
-19.689588
 20
-0.734708
 30
0.0
 10
-19.689588
 20
0.002993
 30
0.0
 10
-19.689588
 20
0.740722
 30
0.0
 10
-19.689588
 20
1.478451
 30
0.0
 10
-19.689588
 20
2.216180
 30
0.0
 10
-19.689588
 20
2.953908
 30
0.0
 10
-19.689588
 20
3.691637
 30
0.0
 10
-19.689588
 20
4.215188
 30
0.0
 10
-19.308827
 20
4.215188
 30
0.0
 10
-18.701988
 20
4.215188
 30
0.0
 10
-18.089200
 20
4.215188
 30
0.0
 10
-17.476412
 20
4.215188
 30
0.0
 10
-16.863624
 20
4.215188
 30
0.0
 10
-16.607799
 20
4.215188
 30
0.0
 10
-16.381722
 20
3.691637
 30
0.0
 10
-16.066404
 20
2.953908
 30
0.0
 10
-15.751086
 20
2.216180
 30
0.0
 10
-15.429818
 20
1.478451
 30
0.0
 10
-15.114500
 20
0.740722
 30
0.0
 10
-14.799182
 20
0.002993
 30
0.0
 10
-14.483864
 20
-0.734708
 30
0.0
 10
-14.168546
 20
-1.472437
 30
0.0
 10
-13.853227
 20
-2.216120
 30
0.0
 10
-13.537909
 20
-2.953849
 30
0.0
 10
-13.216642
 20
-3.691550
 30
0.0
 10
-12.901324
 20
-4.429279
 30
0.0
 10
-12.586005
 20
-5.167008
 30
0.0
 10
-12.270687
 20
-5.904737
 30
0.0
 10
-12.145750
 20
-5.904737
 30
0.0
 10
-12.014863
 20
-5.904737
 30
0.0
 10
-11.889925
 20
-5.904737
 30
0.0
 10
-11.764988
 20
-5.904737
 30
0.0
 10
-11.640051
 20
-5.904737
 30
0.0
 10
-11.509164
 20
-5.904737
 30
0.0
 10
-11.384226
 20
-5.904737
 30
0.0
 10
-11.259289
 20
-5.904737
 30
0.0
 10
-11.134352
 20
-5.904737
 30
0.0
 10
-11.003465
 20
-5.904737
 30
0.0
 10
-10.878528
 20
-5.904737
 30
0.0
 10
-10.753590
 20
-5.904737
 30
0.0
 10
-10.628653
 20
-5.904737
 30
0.0
 10
-10.497766
 20
-5.904737
 30
0.0
 10
-10.372829
 20
-5.904737
 30
0.0
 10
-10.247891
 20
-5.904737
 30
0.0
 10
-9.950421
 20
-5.167008
 30
0.0
 10
-9.658901
 20
-4.429279
 30
0.0
 10
-9.361430
 20
-3.691550
 30
0.0
 10
-9.063961
 20
-2.953849
 30
0.0
 10
-8.772440
 20
-2.216120
 30
0.0
 10
-8.474970
 20
-1.472437
 30
0.0
 10
-8.183450
 20
-0.734708
 30
0.0
 10
-7.885979
 20
0.002993
 30
0.0
 10
-7.588510
 20
0.740722
 30
0.0
 10
-7.296989
 20
1.478451
 30
0.0
 10
-6.999519
 20
2.216180
 30
0.0
 10
-6.707998
 20
2.953908
 30
0.0
 10
-6.410528
 20
3.691637
 30
0.0
 10
-6.113058
 20
4.429366
 30
0.0
 10
-6.065463
 20
4.554306
 30
0.0
 10
-5.922678
 20
4.554306
 30
0.0
 10
-5.738246
 20
4.554306
 30
0.0
 10
-5.547865
 20
4.554306
 30
0.0
 10
-5.357485
 20
4.554306
 30
0.0
 10
-5.167104
 20
4.554306
 30
0.0
 10
-4.976723
 20
4.554306
 30
0.0
 10
-4.786342
 20
4.554306
 30
0.0
 10
-4.595962
 20
4.554306
 30
0.0
 10
-4.405581
 20
4.554306
 30
0.0
 10
-4.215200
 20
4.554306
 30
0.0
 10
-4.030769
 20
4.554306
 30
0.0
 10
-3.840388
 20
4.554306
 30
0.0
 10
-3.578614
 20
4.542453
 30
0.0
 10
-3.328739
 20
4.506752
 30
0.0
 10
-3.084814
 20
4.441304
 30
0.0
 10
-2.852787
 20
4.358020
 30
0.0
 10
-2.632659
 20
4.250917
 30
0.0
 10
-2.424431
 20
4.125977
 30
0.0
 10
-2.228100
 20
3.977246
 30
0.0
 10
-2.049619
 20
3.816605
 30
0.0
 10
-1.888985
 20
3.638128
 30
0.0
 10
-1.740250
 20
3.441814
 30
0.0
 10
-1.615312
 20
3.233562
 30
0.0
 10
-1.508223
 20
3.013457
 30
0.0
 10
-1.424932
 20
2.781414
 30
0.0
 10
-1.359488
 20
2.537490
 30
0.0
 10
-1.323792
 20
2.287610
 30
0.0
 10
-1.311893
 20
2.025821
 30
0.0
 10
-1.323792
 20
1.770014
 30
0.0
 10
-1.359488
 20
1.520135
 30
0.0
 10
-1.424932
 20
1.276210
 30
0.0
 10
-1.508223
 20
1.044195
 30
0.0
 10
-1.615312
 20
0.824062
 30
0.0
 10
-1.740250
 20
0.615838
 30
0.0
 10
-1.888985
 20
0.419496
 30
0.0
 10
-2.049619
 20
0.235064
 30
0.0
 10
-2.228100
 20
0.074423
 30
0.0
 10
-2.424431
 20
-0.074308
 30
0.0
 10
-2.632659
 20
-0.199219
 30
0.0
 10
-2.852787
 20
-0.306323
 30
0.0
 10
-3.084814
 20
-0.389606
 30
0.0
 10
-3.328739
 20
-0.455054
 30
0.0
 10
-3.578614
 20
-0.490755
 30
0.0
 10
-3.840388
 20
-0.508535
 30
0.0
 10
-3.923679
 20
-0.508535
 30
0.0
 10
-4.030769
 20
-0.508535
 30
0.0
 10
-4.131908
 20
-0.508535
 30
0.0
 10
-4.238998
 20
-0.508535
 30
0.0
 10
-4.346087
 20
-0.508535
 30
0.0
 10
-4.447226
 20
-0.508535
 30
0.0
 10
-4.554316
 20
-0.508535
 30
0.0
 10
-4.661405
 20
-0.508535
 30
0.0
 10
-4.768494
 20
-0.508535
 30
0.0
 10
-4.869634
 20
-0.508535
 30
0.0
 10
-4.976723
 20
-0.508535
 30
0.0
 10
-5.083812
 20
-0.508535
 30
0.0
 10
-5.184952
 20
-0.508535
 30
0.0
 10
-4.911280
 20
-0.841698
 30
0.0
 10
-4.637607
 20
-1.180845
 30
0.0
 10
-4.363935
 20
-1.519963
 30
0.0
 10
-4.090262
 20
-1.853126
 30
0.0
 10
-3.816590
 20
-2.192216
 30
0.0
 10
-3.542918
 20
-2.531334
 30
0.0
 10
-3.269245
 20
-2.864498
 30
0.0
 10
-2.995573
 20
-3.203616
 30
0.0
 10
-2.721901
 20
-3.542762
 30
0.0
 10
-2.448228
 20
-3.875926
 30
0.0
 10
-2.174556
 20
-4.215016
 30
0.0
 10
-1.900883
 20
-4.554134
 30
0.0
 10
-1.627211
 20
-4.893252
 30
0.0
 10
-1.353539
 20
-5.226416
 30
0.0
 10
-1.073917
 20
-5.565562
 30
0.0
 10
-0.800244
 20
-5.904652
 30
0.0
 10
-0.699105
 20
-5.904652
 30
0.0
 10
-0.592016
 20
-5.904652
 30
0.0
 10
-0.484926
 20
-5.904652
 30
0.0
 10
-0.383787
 20
-5.904652
 30
0.0
 10
-0.276697
 20
-5.904652
 30
0.0
 10
-0.169608
 20
-5.904652
 30
0.0
 10
-0.062519
 20
-5.904652
 30
0.0
 10
0.038621
 20
-5.904652
 30
0.0
 10
0.145710
 20
-5.904652
 30
0.0
 10
0.252799
 20
-5.904652
 30
0.0
 10
0.353939
 20
-5.904652
 30
0.0
 10
0.461028
 20
-5.904652
 30
0.0
 10
0.568117
 20
-5.904652
 30
0.0
 10
0.675207
 20
-5.904652
 30
0.0
 10
0.776347
 20
-5.904652
 30
0.0
 10
0.883436
 20
-5.904652
 30
0.0
 10
0.609763
 20
-5.565562
 30
0.0
 10
0.336091
 20
-5.226416
 30
0.0
 10
0.062419
 20
-4.893252
 30
0.0
 10
-0.211254
 20
-4.554134
 30
0.0
 10
-0.484926
 20
-4.215016
 30
0.0
 10
-0.758599
 20
-3.875926
 30
0.0
 10
-1.032271
 20
-3.542762
 30
0.0
 10
-1.305944
 20
-3.203616
 30
0.0
 10
-1.585565
 20
-2.864498
 30
0.0
 10
-1.859238
 20
-2.531334
 30
0.0
 10
-2.132910
 20
-2.192216
 30
0.0
 10
-2.406583
 20
-1.853126
 30
0.0
 10
-2.585064
 20
-1.638948
 30
0.0
 10
-2.329240
 20
-1.543754
 30
0.0
 10
-1.990124
 20
-1.383113
 30
0.0
 10
-1.668857
 20
-1.186800
 30
0.0
 10
-1.371387
 20
-0.966666
 30
0.0
 10
-1.097715
 20
-0.716787
 30
0.0
 10
-0.847840
 20
-0.437161
 30
0.0
 10
-0.621763
 20
-0.139699
 30
0.0
 10
-0.425432
 20
0.181583
 30
0.0
 10
-0.264799
 20
0.520701
 30
0.0
 10
-0.133912
 20
0.877656
 30
0.0
 10
-0.038721
 20
1.246520
 30
0.0
 10
0.020773
 20
1.633250
 30
0.0
 10
0.038612
 20
2.025877
 30
0.0
 10
0.020773
 20
2.424516
 30
0.0
 10
-0.038721
 20
2.811217
 30
0.0
 10
-0.133912
 20
3.180081
 30
0.0
 10
-0.264799
 20
3.537064
 30
0.0
 10
-0.425432
 20
3.876154
 30
0.0
 10
-0.621763
 20
4.197436
 30
0.0
 10
-0.847840
 20
4.494898
 30
0.0
 10
-1.097715
 20
4.774524
 30
0.0
 10
-1.371387
 20
5.024404
 30
0.0
 10
-1.668857
 20
5.244537
 30
0.0
 10
-1.990124
 20
5.440851
 30
0.0
 10
-2.329240
 20
5.601492
 30
0.0
 10
-2.686204
 20
5.732386
 30
0.0
 10
-3.055067
 20
5.827552
 30
0.0
 10
-3.441778
 20
5.887072
 30
0.0
 10
-3.840388
 20
5.904852
 30
0.0
 10
-4.030769
 20
5.904852
 30
0.0
 10
-4.215200
 20
5.904852
 30
0.0
 10
-4.405581
 20
5.904852
 30
0.0
 10
-4.595962
 20
5.904852
 30
0.0
 10
-4.786342
 20
5.904852
 30
0.0
 10
-4.976723
 20
5.904852
 30
0.0
 10
-5.167104
 20
5.904852
 30
0.0
 10
-5.357485
 20
5.904852
 30
0.0
 10
-5.524068
 20
5.904852
 30
0.0
 10
-5.547865
 20
5.904852
 30
0.0
 10
-5.738246
 20
5.904852
 30
0.0
 10
-5.839385
 20
5.904852
 30
0.0
 10
-5.922677
 20
5.904852
 30
0.0
 10
-6.053564
 20
5.904852
 30
0.0
 10
-6.113058
 20
5.904852
 30
0.0
 10
-6.261793
 20
5.904852
 30
0.0
 10
-6.303439
 20
5.904852
 30
0.0
 10
-6.475971
 20
5.904852
 30
0.0
 10
-6.493819
 20
5.904852
 30
0.0
 10
-6.684200
 20
5.904852
 30
0.0
 10
-6.791289
 20
5.904852
 30
0.0
 10
-6.892429
 20
5.904852
 30
0.0
 10
-6.999518
 20
5.904852
 30
0.0
 10
-7.106607
 20
5.904852
 30
0.0
 10
-7.213697
 20
5.904852
 30
0.0
 10
-7.463571
 20
5.292063
 30
0.0
 10
-7.719396
 20
4.679330
 30
0.0
 10
-7.969270
 20
4.066541
 30
0.0
 10
-8.225094
 20
3.459707
 30
0.0
 10
-8.474969
 20
2.846918
 30
0.0
 10
-8.730793
 20
2.234129
 30
0.0
 10
-8.980668
 20
1.621340
 30
0.0
 10
-9.236492
 20
1.014506
 30
0.0
 10
-9.486367
 20
0.401716
 30
0.0
 10
-9.742191
 20
-0.211101
 30
0.0
 10
-9.992066
 20
-0.823862
 30
0.0
 10
-10.247890
 20
-1.430696
 30
0.0
 10
-10.497765
 20
-2.043513
 30
0.0
 10
-10.753589
 20
-2.656274
 30
0.0
 10
-11.003464
 20
-3.269063
 30
0.0
 10
-11.259288
 20
-3.875926
 30
0.0
 10
-11.532961
 20
-3.269063
 30
0.0
 10
-11.806633
 20
-2.656274
 30
0.0
 10
-12.080305
 20
-2.043513
 30
0.0
 10
-12.353978
 20
-1.430696
 30
0.0
 10
-12.627650
 20
-0.823862
 30
0.0
 10
-12.901323
 20
-0.211101
 30
0.0
 10
-13.174995
 20
0.401716
 30
0.0
 10
-13.448667
 20
1.014506
 30
0.0
 10
-13.722340
 20
1.621340
 30
0.0
 10
-14.001961
 20
2.234129
 30
0.0
 10
-14.275634
 20
2.846918
 30
0.0
 10
-14.549306
 20
3.459707
 30
0.0
 10
-14.822979
 20
4.066541
 30
0.0
 10
-15.096651
 20
4.679330
 30
0.0
 10
-15.370323
 20
5.292120
 30
0.0
 10
-15.643996
 20
5.904909
 30
0.0
 10
-16.167543
 20
5.904909
 30
0.0
 10
-16.256784
 20
5.904909
 30
0.0
 10
-16.804129
 20
5.904909
 30
0.0
 10
-16.863623
 20
5.904909
 30
0.0
 10
-17.327676
 20
5.904909
 30
0.0
 10
-17.476411
 20
5.904909
 30
0.0
 10
-18.089199
 20
5.904909
 30
0.0
 10
-18.701987
 20
5.904909
 30
0.0
 10
-19.308826
 20
5.904909
 30
0.0
 10
-19.689588
 20
5.904909
 30
0.0
 10
-19.903766
 20
5.904909
 30
0.0
 10
-19.921614
 20
5.904909
 30
0.0
 10
-20.427312
 20
5.904909
 30
0.0
 10
-20.534402
 20
5.904909
 30
0.0
 10
-21.063898
 20
5.904909
 30
0.0
 10
-21.147190
 20
5.904909
 30
0.0
 10
-21.379216
 20
5.904909
 30
0.0
 10
-21.754029
 20
5.904909
 30
0.0
 10
-22.366817
 20
5.904909
 30
0.0
 10
-22.979605
 20
5.904909
 30
0.0
 10
-23.592393
 20
5.904909
 30
0.0
 10
-24.199232
 20
5.904909
 30
0.0
 10
-24.812020
 20
5.904909
 30
0.0
 10
-25.424810
 20
5.904824
 30
0.0
  0
LWPOLYLINE
  5
101
100
AcDbEntity
  8
Layer_1
 62
7
100
AcDbPolyline
 90
168
 70
0
 10
-0.467078
 20
5.904824
 30
0.0
 10
-0.467078
 20
5.815585
 30
0.0
 10
-0.467078
 20
5.732302
 30
0.0
 10
-0.467078
 20
5.648990
 30
0.0
 10
-0.467078
 20
5.565706
 30
0.0
 10
-0.467078
 20
5.482422
 30
0.0
 10
-0.467078
 20
5.399110
 30
0.0
 10
-0.467078
 20
5.309871
 30
0.0
 10
-0.467078
 20
5.226588
 30
0.0
 10
-0.467078
 20
5.143304
 30
0.0
 10
-0.467078
 20
5.060020
 30
0.0
 10
-0.467078
 20
4.976708
 30
0.0
 10
-0.467078
 20
4.893424
 30
0.0
 10
-0.467078
 20
4.804186
 30
0.0
 10
-0.467078
 20
4.720902
 30
0.0
 10
-0.467078
 20
4.637590
 30
0.0
 10
-0.467078
 20
4.554306
 30
0.0
 10
-0.336191
 20
4.554306
 30
0.0
 10
-0.211254
 20
4.554306
 30
0.0
 10
-0.086316
 20
4.554306
 30
0.0
 10
0.038621
 20
4.554306
 30
0.0
 10
0.169508
 20
4.554306
 30
0.0
 10
0.294445
 20
4.554306
 30
0.0
 10
0.419383
 20
4.554306
 30
0.0
 10
0.544320
 20
4.554306
 30
0.0
 10
0.675207
 20
4.554306
 30
0.0
 10
0.800144
 20
4.554306
 30
0.0
 10
0.925081
 20
4.554306
 30
0.0
 10
1.050019
 20
4.554306
 30
0.0
 10
1.180906
 20
4.554306
 30
0.0
 10
1.305843
 20
4.554306
 30
0.0
 10
1.430780
 20
4.554306
 30
0.0
 10
1.555718
 20
4.554306
 30
0.0
 10
1.817491
 20
4.542453
 30
0.0
 10
2.067366
 20
4.500797
 30
0.0
 10
2.311291
 20
4.441304
 30
0.0
 10
2.543318
 20
4.358020
 30
0.0
 10
2.763445
 20
4.250917
 30
0.0
 10
2.971674
 20
4.120022
 30
0.0
 10
3.168005
 20
3.977246
 30
0.0
 10
3.346488
 20
3.816605
 30
0.0
 10
3.507120
 20
3.632173
 30
0.0
 10
3.655857
 20
3.441814
 30
0.0
 10
3.780794
 20
3.233562
 30
0.0
 10
3.887883
 20
3.007502
 30
0.0
 10
3.971175
 20
2.775459
 30
0.0
 10
4.036617
 20
2.537490
 30
0.0
 10
4.072315
 20
2.281655
 30
0.0
 10
4.084225
 20
2.025821
 30
0.0
 10
4.072315
 20
1.770014
 30
0.0
 10
4.036617
 20
1.514208
 30
0.0
 10
3.971175
 20
1.270255
 30
0.0
 10
3.887883
 20
1.038240
 30
0.0
 10
3.780794
 20
0.818107
 30
0.0
 10
3.655857
 20
0.609884
 30
0.0
 10
3.507120
 20
0.413542
 30
0.0
 10
3.346488
 20
0.235064
 30
0.0
 10
3.168005
 20
0.068497
 30
0.0
 10
2.971674
 20
-0.074308
 30
0.0
 10
2.763445
 20
-0.199219
 30
0.0
 10
2.543318
 20
-0.306323
 30
0.0
 10
2.311291
 20
-0.395561
 30
0.0
 10
2.067366
 20
-0.455054
 30
0.0
 10
1.817491
 20
-0.496710
 30
0.0
 10
1.555718
 20
-0.508563
 30
0.0
 10
1.472426
 20
-0.508563
 30
0.0
 10
1.371286
 20
-0.508563
 30
0.0
 10
1.264197
 20
-0.508563
 30
0.0
 10
1.157108
 20
-0.508563
 30
0.0
 10
1.050019
 20
-0.508563
 30
0.0
 10
0.948879
 20
-0.508563
 30
0.0
 10
0.841790
 20
-0.508563
 30
0.0
 10
0.734701
 20
-0.508563
 30
0.0
 10
0.633561
 20
-0.508563
 30
0.0
 10
0.526472
 20
-0.508563
 30
0.0
 10
0.419383
 20
-0.508563
 30
0.0
 10
0.312293
 20
-0.508563
 30
0.0
 10
0.211153
 20
-0.508563
 30
0.0
 10
0.484826
 20
-0.841755
 30
0.0
 10
0.758498
 20
-1.180873
 30
0.0
 10
1.032171
 20
-1.519991
 30
0.0
 10
1.305843
 20
-1.853154
 30
0.0
 10
1.579515
 20
-2.192273
 30
0.0
 10
1.853188
 20
-2.531363
 30
0.0
 10
2.126860
 20
-2.864526
 30
0.0
 10
2.400533
 20
-3.203672
 30
0.0
 10
2.674205
 20
-3.542791
 30
0.0
 10
2.947877
 20
-3.875954
 30
0.0
 10
3.221551
 20
-4.215072
 30
0.0
 10
3.495221
 20
-4.554162
 30
0.0
 10
3.768895
 20
-4.893280
 30
0.0
 10
4.048515
 20
-5.226472
 30
0.0
 10
4.322189
 20
-5.565590
 30
0.0
 10
4.595860
 20
-5.904680
 30
0.0
 10
4.697000
 20
-5.904680
 30
0.0
 10
4.804089
 20
-5.904680
 30
0.0
 10
4.911178
 20
-5.904680
 30
0.0
 10
5.018268
 20
-5.904680
 30
0.0
 10
5.119408
 20
-5.904680
 30
0.0
 10
5.226497
 20
-5.904680
 30
0.0
 10
5.333586
 20
-5.904680
 30
0.0
 10
5.434726
 20
-5.904680
 30
0.0
 10
5.541815
 20
-5.904680
 30
0.0
 10
5.648904
 20
-5.904680
 30
0.0
 10
5.755994
 20
-5.904680
 30
0.0
 10
5.857134
 20
-5.904680
 30
0.0
 10
5.964223
 20
-5.904680
 30
0.0
 10
6.071312
 20
-5.904680
 30
0.0
 10
6.172452
 20
-5.904680
 30
0.0
 10
6.279541
 20
-5.904680
 30
0.0
 10
6.005868
 20
-5.565590
 30
0.0
 10
5.732197
 20
-5.226472
 30
0.0
 10
5.458523
 20
-4.893280
 30
0.0
 10
5.184852
 20
-4.554162
 30
0.0
 10
4.911178
 20
-4.215072
 30
0.0
 10
4.637507
 20
-3.875954
 30
0.0
 10
4.363834
 20
-3.542791
 30
0.0
 10
4.090163
 20
-3.203672
 30
0.0
 10
3.816489
 20
-2.864526
 30
0.0
 10
3.542818
 20
-2.531363
 30
0.0
 10
3.263195
 20
-2.192273
 30
0.0
 10
2.989524
 20
-1.853154
 30
0.0
 10
2.816991
 20
-1.638976
 30
0.0
 10
3.066865
 20
-1.549737
 30
0.0
 10
3.405980
 20
-1.383142
 30
0.0
 10
3.727248
 20
-1.192754
 30
0.0
 10
4.024718
 20
-0.966694
 30
0.0
 10
4.298392
 20
-0.716815
 30
0.0
 10
4.554215
 20
-0.443144
 30
0.0
 10
4.774343
 20
-0.145682
 30
0.0
 10
4.970674
 20
0.175600
 30
0.0
 10
5.131306
 20
0.514718
 30
0.0
 10
5.262195
 20
0.871673
 30
0.0
 10
5.357383
 20
1.246492
 30
0.0
 10
5.416878
 20
1.627238
 30
0.0
 10
5.434715
 20
2.025849
 30
0.0
 10
5.416878
 20
2.424460
 30
0.0
 10
5.357383
 20
2.805234
 30
0.0
 10
5.262195
 20
3.180053
 30
0.0
 10
5.131306
 20
3.536951
 30
0.0
 10
4.970674
 20
3.876041
 30
0.0
 10
4.774343
 20
4.197323
 30
0.0
 10
4.554215
 20
4.494785
 30
0.0
 10
4.298392
 20
4.768456
 30
0.0
 10
4.024718
 20
5.018336
 30
0.0
 10
3.727248
 20
5.244424
 30
0.0
 10
3.405980
 20
5.434783
 30
0.0
 10
3.066865
 20
5.601379
 30
0.0
 10
2.709901
 20
5.732273
 30
0.0
 10
2.341038
 20
5.827439
 30
0.0
 10
1.954327
 20
5.886959
 30
0.0
 10
1.555718
 20
5.904739
 30
0.0
 10
1.430780
 20
5.904739
 30
0.0
 10
1.305843
 20
5.904739
 30
0.0
 10
1.180906
 20
5.904739
 30
0.0
 10
1.050019
 20
5.904739
 30
0.0
 10
0.925081
 20
5.904739
 30
0.0
 10
0.800144
 20
5.904739
 30
0.0
 10
0.675207
 20
5.904739
 30
0.0
 10
0.544320
 20
5.904739
 30
0.0
 10
0.419383
 20
5.904739
 30
0.0
 10
0.294445
 20
5.904739
 30
0.0
 10
0.169508
 20
5.904739
 30
0.0
 10
0.038621
 20
5.904739
 30
0.0
 10
-0.086316
 20
5.904739
 30
0.0
 10
-0.211254
 20
5.904739
 30
0.0
 10
-0.336191
 20
5.904739
 30
0.0
 10
-0.467078
 20
5.904824
 30
0.0
  0
LWPOLYLINE
  5
102
100
AcDbEntity
  8
Layer_1
 62
7
100
AcDbPolyline
 90
265
 70
0
 10
13.365275
 20
5.904824
 30
0.0
 10
13.365275
 20
5.888455
 30
0.0
 10
13.365275
 20
5.872086
 30
0.0
 10
13.365275
 20
5.855717
 30
0.0
 10
13.365275
 20
5.839348
 30
0.0
 10
12.643912
 20
5.408028
 30
0.0
 10
11.922546
 20
4.976680
 30
0.0
 10
11.201181
 20
4.545360
 30
0.0
 10
10.479818
 20
4.114039
 30
0.0
 10
10.673171
 20
3.791290
 30
0.0
 10
10.866527
 20
3.468512
 30
0.0
 10
11.059883
 20
3.145763
 30
0.0
 10
11.253239
 20
2.823014
 30
0.0
 10
11.781249
 20
3.138341
 30
0.0
 10
12.309256
 20
3.453668
 30
0.0
 10
12.837265
 20
3.768966
 30
0.0
 10
13.365275
 20
4.084265
 30
0.0
 10
13.365275
 20
3.986108
 30
0.0
 10
13.365275
 20
3.887951
 30
0.0
 10
13.365275
 20
3.789766
 30
0.0
 10
13.365275
 20
3.691609
 30
0.0
 10
13.365275
 20
3.507205
 30
0.0
 10
13.365275
 20
3.322745
 30
0.0
 10
13.365275
 20
3.138341
 30
0.0
 10
13.365275
 20
2.953880
 30
0.0
 10
13.365275
 20
2.769476
 30
0.0
 10
13.365275
 20
2.585016
 30
0.0
 10
13.365275
 20
2.400612
 30
0.0
 10
13.365275
 20
2.216151
 30
0.0
 10
13.365275
 20
2.031747
 30
0.0
 10
13.365275
 20
1.847287
 30
0.0
 10
13.365275
 20
1.662883
 30
0.0
 10
13.365275
 20
1.478451
 30
0.0
 10
13.365275
 20
1.294018
 30
0.0
 10
13.365275
 20
1.109586
 30
0.0
 10
13.365275
 20
0.925154
 30
0.0
 10
13.365275
 20
0.740722
 30
0.0
 10
13.365275
 20
0.556290
 30
0.0
 10
13.365275
 20
0.371857
 30
0.0
 10
13.365275
 20
0.187425
 30
0.0
 10
13.365275
 20
0.002993
 30
0.0
 10
13.365275
 20
-0.181439
 30
0.0
 10
13.365275
 20
-0.365872
 30
0.0
 10
13.365275
 20
-0.550304
 30
0.0
 10
13.365275
 20
-0.734736
 30
0.0
 10
13.365275
 20
-0.919168
 30
0.0
 10
13.365275
 20
-1.103600
 30
0.0
 10
13.365275
 20
-1.288033
 30
0.0
 10
13.365275
 20
-1.472465
 30
0.0
 10
13.365275
 20
-1.658393
 30
0.0
 10
13.365275
 20
-1.844293
 30
0.0
 10
13.365275
 20
-2.030221
 30
0.0
 10
13.365275
 20
-2.216120
 30
0.0
 10
13.365275
 20
-2.400581
 30
0.0
 10
13.365275
 20
-2.584985
 30
0.0
 10
13.365275
 20
-2.769445
 30
0.0
 10
13.365275
 20
-2.953849
 30
0.0
 10
13.365275
 20
-3.138310
 30
0.0
 10
13.365275
 20
-3.322714
 30
0.0
 10
13.365275
 20
-3.507146
 30
0.0
 10
13.365275
 20
-3.691578
 30
0.0
 10
13.365275
 20
-3.876010
 30
0.0
 10
13.365275
 20
-4.060443
 30
0.0
 10
13.365275
 20
-4.244875
 30
0.0
 10
13.365275
 20
-4.429307
 30
0.0
 10
13.365275
 20
-4.613739
 30
0.0
 10
13.365275
 20
-4.798172
 30
0.0
 10
13.365275
 20
-4.982604
 30
0.0
 10
13.365275
 20
-5.167036
 30
0.0
 10
13.365275
 20
-5.351468
 30
0.0
 10
13.365275
 20
-5.535900
 30
0.0
 10
13.365275
 20
-5.720333
 30
0.0
 10
13.365275
 20
-5.904765
 30
0.0
 10
13.390562
 20
-5.904765
 30
0.0
 10
13.415849
 20
-5.904765
 30
0.0
 10
13.441136
 20
-5.904765
 30
0.0
 10
13.466423
 20
-5.904765
 30
0.0
 10
13.493206
 20
-5.904765
 30
0.0
 10
13.519989
 20
-5.904765
 30
0.0
 10
13.546772
 20
-5.904765
 30
0.0
 10
13.573555
 20
-5.904765
 30
0.0
 10
13.600338
 20
-5.904765
 30
0.0
 10
13.627121
 20
-5.904765
 30
0.0
 10
13.653903
 20
-5.904765
 30
0.0
 10
13.680686
 20
-5.904765
 30
0.0
 10
13.707469
 20
-5.904765
 30
0.0
 10
13.734252
 20
-5.904765
 30
0.0
 10
13.761035
 20
-5.904765
 30
0.0
 10
13.787818
 20
-5.904765
 30
0.0
 10
13.813105
 20
-5.904765
 30
0.0
 10
13.838392
 20
-5.904765
 30
0.0
 10
13.863679
 20
-5.904765
 30
0.0
 10
13.888966
 20
-5.904765
 30
0.0
 10
13.915749
 20
-5.904765
 30
0.0
 10
13.942532
 20
-5.904765
 30
0.0
 10
13.969315
 20
-5.904765
 30
0.0
 10
13.996098
 20
-5.904765
 30
0.0
 10
14.022881
 20
-5.904765
 30
0.0
 10
14.049664
 20
-5.904765
 30
0.0
 10
14.076447
 20
-5.904765
 30
0.0
 10
14.103229
 20
-5.904765
 30
0.0
 10
14.128517
 20
-5.904765
 30
0.0
 10
14.153804
 20
-5.904765
 30
0.0
 10
14.179091
 20
-5.904765
 30
0.0
 10
14.204378
 20
-5.904765
 30
0.0
 10
14.231161
 20
-5.904765
 30
0.0
 10
14.257944
 20
-5.904765
 30
0.0
 10
14.284727
 20
-5.904765
 30
0.0
 10
14.311509
 20
-5.904765
 30
0.0
 10
14.338292
 20
-5.904765
 30
0.0
 10
14.365075
 20
-5.904765
 30
0.0
 10
14.391858
 20
-5.904765
 30
0.0
 10
14.418641
 20
-5.904765
 30
0.0
 10
14.445424
 20
-5.904765
 30
0.0
 10
14.472207
 20
-5.904765
 30
0.0
 10
14.498990
 20
-5.904765
 30
0.0
 10
14.525773
 20
-5.904765
 30
0.0
 10
14.551060
 20
-5.904765
 30
0.0
 10
14.576347
 20
-5.904765
 30
0.0
 10
14.601634
 20
-5.904765
 30
0.0
 10
14.626921
 20
-5.904765
 30
0.0
 10
14.653704
 20
-5.904765
 30
0.0
 10
14.680487
 20
-5.904765
 30
0.0
 10
14.707270
 20
-5.904765
 30
0.0
 10
14.734053
 20
-5.904765
 30
0.0
 10
14.760835
 20
-5.904765
 30
0.0
 10
14.787618
 20
-5.904765
 30
0.0
 10
14.814401
 20
-5.904765
 30
0.0
 10
14.841184
 20
-5.904765
 30
0.0
 10
14.866471
 20
-5.904765
 30
0.0
 10
14.891758
 20
-5.904765
 30
0.0
 10
14.917045
 20
-5.904765
 30
0.0
 10
14.942333
 20
-5.904765
 30
0.0
 10
14.969115
 20
-5.904765
 30
0.0
 10
14.995898
 20
-5.904765
 30
0.0
 10
15.022681
 20
-5.904765
 30
0.0
 10
15.049464
 20
-5.904765
 30
0.0
 10
15.049464
 20
-5.720333
 30
0.0
 10
15.049464
 20
-5.535900
 30
0.0
 10
15.049464
 20
-5.351468
 30
0.0
 10
15.049464
 20
-5.167036
 30
0.0
 10
15.049464
 20
-4.982604
 30
0.0
 10
15.049464
 20
-4.798172
 30
0.0
 10
15.049464
 20
-4.613739
 30
0.0
 10
15.049464
 20
-4.429307
 30
0.0
 10
15.049464
 20
-4.244875
 30
0.0
 10
15.049464
 20
-4.060443
 30
0.0
 10
15.049464
 20
-3.876010
 30
0.0
 10
15.049464
 20
-3.691578
 30
0.0
 10
15.049464
 20
-3.507146
 30
0.0
 10
15.049464
 20
-3.322714
 30
0.0
 10
15.049464
 20
-3.138310
 30
0.0
 10
15.049464
 20
-2.953849
 30
0.0
 10
15.049464
 20
-2.769445
 30
0.0
 10
15.049464
 20
-2.584985
 30
0.0
 10
15.049464
 20
-2.400581
 30
0.0
 10
15.049464
 20
-2.216120
 30
0.0
 10
15.049464
 20
-2.030221
 30
0.0
 10
15.049464
 20
-1.844293
 30
0.0
 10
15.049464
 20
-1.658393
 30
0.0
 10
15.049464
 20
-1.472465
 30
0.0
 10
15.049464
 20
-1.288033
 30
0.0
 10
15.049464
 20
-1.103600
 30
0.0
 10
15.049464
 20
-0.919168
 30
0.0
 10
15.049464
 20
-0.734736
 30
0.0
 10
15.049464
 20
-0.550304
 30
0.0
 10
15.049464
 20
-0.365872
 30
0.0
 10
15.049464
 20
-0.181439
 30
0.0
 10
15.049464
 20
0.002993
 30
0.0
 10
15.049464
 20
0.187425
 30
0.0
 10
15.049464
 20
0.371857
 30
0.0
 10
15.049464
 20
0.556290
 30
0.0
 10
15.049464
 20
0.740722
 30
0.0
 10
15.049464
 20
0.925154
 30
0.0
 10
15.049464
 20
1.109586
 30
0.0
 10
15.049464
 20
1.294018
 30
0.0
 10
15.049464
 20
1.478451
 30
0.0
 10
15.049464
 20
1.662883
 30
0.0
 10
15.049464
 20
1.847287
 30
0.0
 10
15.049464
 20
2.031747
 30
0.0
 10
15.049464
 20
2.216151
 30
0.0
 10
15.049464
 20
2.400612
 30
0.0
 10
15.049464
 20
2.585016
 30
0.0
 10
15.049464
 20
2.769476
 30
0.0
 10
15.049464
 20
2.953880
 30
0.0
 10
15.049464
 20
3.138341
 30
0.0
 10
15.049464
 20
3.322745
 30
0.0
 10
15.049464
 20
3.507205
 30
0.0
 10
15.049464
 20
3.691609
 30
0.0
 10
15.049464
 20
3.876070
 30
0.0
 10
15.049464
 20
4.060474
 30
0.0
 10
15.049464
 20
4.244906
 30
0.0
 10
15.049464
 20
4.429338
 30
0.0
 10
15.049464
 20
4.613770
 30
0.0
 10
15.049464
 20
4.798202
 30
0.0
 10
15.049464
 20
4.982635
 30
0.0
 10
15.049464
 20
5.167067
 30
0.0
 10
15.049464
 20
5.351499
 30
0.0
 10
15.049464
 20
5.535931
 30
0.0
 10
15.049464
 20
5.720364
 30
0.0
 10
15.049464
 20
5.904796
 30
0.0
 10
15.022681
 20
5.904796
 30
0.0
 10
14.995898
 20
5.904796
 30
0.0
 10
14.969115
 20
5.904796
 30
0.0
 10
14.942333
 20
5.904796
 30
0.0
 10
14.917045
 20
5.904796
 30
0.0
 10
14.891758
 20
5.904796
 30
0.0
 10
14.866471
 20
5.904796
 30
0.0
 10
14.841184
 20
5.904796
 30
0.0
 10
14.814401
 20
5.904796
 30
0.0
 10
14.787618
 20
5.904796
 30
0.0
 10
14.760835
 20
5.904796
 30
0.0
 10
14.734053
 20
5.904796
 30
0.0
 10
14.707270
 20
5.904796
 30
0.0
 10
14.680487
 20
5.904796
 30
0.0
 10
14.653704
 20
5.904796
 30
0.0
 10
14.626921
 20
5.904796
 30
0.0
 10
14.601634
 20
5.904796
 30
0.0
 10
14.576347
 20
5.904796
 30
0.0
 10
14.551060
 20
5.904796
 30
0.0
 10
14.525773
 20
5.904796
 30
0.0
 10
14.498990
 20
5.904796
 30
0.0
 10
14.472207
 20
5.904796
 30
0.0
 10
14.445424
 20
5.904796
 30
0.0
 10
14.418641
 20
5.904796
 30
0.0
 10
14.391858
 20
5.904796
 30
0.0
 10
14.365075
 20
5.904796
 30
0.0
 10
14.338292
 20
5.904796
 30
0.0
 10
14.311509
 20
5.904796
 30
0.0
 10
14.284727
 20
5.904796
 30
0.0
 10
14.257944
 20
5.904796
 30
0.0
 10
14.231161
 20
5.904796
 30
0.0
 10
14.204378
 20
5.904796
 30
0.0
 10
14.179091
 20
5.904796
 30
0.0
 10
14.153804
 20
5.904796
 30
0.0
 10
14.128517
 20
5.904796
 30
0.0
 10
14.103229
 20
5.904796
 30
0.0
 10
14.076447
 20
5.904796
 30
0.0
 10
14.049664
 20
5.904796
 30
0.0
 10
14.022881
 20
5.904796
 30
0.0
 10
13.996098
 20
5.904796
 30
0.0
 10
13.969315
 20
5.904796
 30
0.0
 10
13.942532
 20
5.904796
 30
0.0
 10
13.915749
 20
5.904796
 30
0.0
 10
13.888966
 20
5.904796
 30
0.0
 10
13.863679
 20
5.904796
 30
0.0
 10
13.838392
 20
5.904796
 30
0.0
 10
13.813105
 20
5.904796
 30
0.0
 10
13.787818
 20
5.904796
 30
0.0
 10
13.761035
 20
5.904796
 30
0.0
 10
13.734252
 20
5.904796
 30
0.0
 10
13.707469
 20
5.904796
 30
0.0
 10
13.680686
 20
5.904796
 30
0.0
 10
13.653903
 20
5.904796
 30
0.0
 10
13.627121
 20
5.904796
 30
0.0
 10
13.600338
 20
5.904796
 30
0.0
 10
13.573555
 20
5.904796
 30
0.0
 10
13.546772
 20
5.904796
 30
0.0
 10
13.519989
 20
5.904796
 30
0.0
 10
13.493206
 20
5.904796
 30
0.0
 10
13.466423
 20
5.904796
 30
0.0
 10
13.441136
 20
5.904796
 30
0.0
 10
13.415849
 20
5.904796
 30
0.0
 10
13.390562
 20
5.904796
 30
0.0
 10
13.365275
 20
5.904824
 30
0.0
  0
LWPOLYLINE
  5
103
100
AcDbEntity
  8
Layer_1
 62
7
100
AcDbPolyline
 90
17
 70
0
 10
17.017219
 20
-4.757701
 30
0.0
 10
17.301061
 20
-4.757701
 30
0.0
 10
17.584906
 20
-4.757701
 30
0.0
 10
17.868748
 20
-4.757701
 30
0.0
 10
18.152593
 20
-4.757701
 30
0.0
 10
18.152593
 20
-5.041560
 30
0.0
 10
18.152593
 20
-5.325419
 30
0.0
 10
18.152593
 20
-5.609250
 30
0.0
 10
18.152593
 20
-5.893081
 30
0.0
 10
17.868748
 20
-5.893081
 30
0.0
 10
17.584906
 20
-5.893081
 30
0.0
 10
17.301061
 20
-5.893081
 30
0.0
 10
17.017219
 20
-5.893081
 30
0.0
 10
17.017219
 20
-5.609250
 30
0.0
 10
17.017219
 20
-5.325419
 30
0.0
 10
17.017219
 20
-5.041560
 30
0.0
 10
17.017219
 20
-4.757701
 30
0.0
  0
LWPOLYLINE
  5
104
100
AcDbEntity
  8
Layer_1
 62
7
100
AcDbPolyline
 90
65
 70
0
 10
22.366719
 20
5.761991
 30
0.0
 10
22.054090
 20
5.731906
 30
0.0
 10
21.750487
 20
5.643599
 30
0.0
 10
21.457441
 20
5.499976
 30
0.0
 10
21.176497
 20
5.304001
 30
0.0
 10
20.909188
 20
5.058581
 30
0.0
 10
20.657056
 20
4.766622
 30
0.0
 10
20.421638
 20
4.431060
 30
0.0
 10
20.204468
 20
4.054829
 30
0.0
 10
20.007090
 20
3.640837
 30
0.0
 10
19.831037
 20
3.192048
 30
0.0
 10
19.677852
 20
2.711310
 30
0.0
 10
19.549066
 20
2.201617
 30
0.0
 10
19.446224
 20
1.665874
 30
0.0
 10
19.370862
 20
1.107018
 30
0.0
 10
19.324516
 20
0.527926
 30
0.0
 10
19.308739
 20
-0.068438
 30
0.0
 10
19.324516
 20
-0.664858
 30
0.0
 10
19.370862
 20
-1.244147
 30
0.0
 10
19.446224
 20
-1.803314
 30
0.0
 10
19.549066
 20
-2.339452
 30
0.0
 10
19.677852
 20
-2.849568
 30
0.0
 10
19.831037
 20
-3.330785
 30
0.0
 10
20.007090
 20
-3.780140
 30
0.0
 10
20.204468
 20
-4.194696
 30
0.0
 10
20.421638
 20
-4.571462
 30
0.0
 10
20.657056
 20
-4.907533
 30
0.0
 10
20.909188
 20
-5.200000
 30
0.0
 10
21.176497
 20
-5.445872
 30
0.0
 10
21.457441
 20
-5.642242
 30
0.0
 10
21.750487
 20
-5.786147
 30
0.0
 10
22.054090
 20
-5.874652
 30
0.0
 10
22.366719
 20
-5.904793
 30
0.0
 10
22.679345
 20
-5.874652
 30
0.0
 10
22.982951
 20
-5.786147
 30
0.0
 10
23.275994
 20
-5.642242
 30
0.0
 10
23.556937
 20
-5.445872
 30
0.0
 10
23.824247
 20
-5.200000
 30
0.0
 10
24.076379
 20
-4.907533
 30
0.0
 10
24.311797
 20
-4.571462
 30
0.0
 10
24.528967
 20
-4.194696
 30
0.0
 10
24.726348
 20
-3.780140
 30
0.0
 10
24.902398
 20
-3.330785
 30
0.0
 10
25.055582
 20
-2.849568
 30
0.0
 10
25.184369
 20
-2.339452
 30
0.0
 10
25.287211
 20
-1.803314
 30
0.0
 10
25.362573
 20
-1.244147
 30
0.0
 10
25.408919
 20
-0.664858
 30
0.0
 10
25.424695
 20
-0.068438
 30
0.0
 10
25.408919
 20
0.527926
 30
0.0
 10
25.362573
 20
1.107018
 30
0.0
 10
25.287211
 20
1.665874
 30
0.0
 10
25.184369
 20
2.201617
 30
0.0
 10
25.055582
 20
2.711310
 30
0.0
 10
24.902398
 20
3.192048
 30
0.0
 10
24.726348
 20
3.640837
 30
0.0
 10
24.528967
 20
4.054829
 30
0.0
 10
24.311797
 20
4.431060
 30
0.0
 10
24.076379
 20
4.766622
 30
0.0
 10
23.824247
 20
5.058581
 30
0.0
 10
23.556937
 20
5.304001
 30
0.0
 10
23.275994
 20
5.499976
 30
0.0
 10
22.982951
 20
5.643599
 30
0.0
 10
22.679345
 20
5.731906
 30
0.0
 10
22.366719
 20
5.761991
 30
0.0
  0
LWPOLYLINE
  5
105
100
AcDbEntity
  8
Layer_1
 62
7
100
AcDbPolyline
 90
65
 70
0
 10
22.438110
 20
4.232996
 30
0.0
 10
22.616025
 20
4.210983
 30
0.0
 10
22.788872
 20
4.146580
 30
0.0
 10
22.955767
 20
4.041819
 30
0.0
 10
23.115827
 20
3.898817
 30
0.0
 10
23.268162
 20
3.719803
 30
0.0
 10
23.411895
 20
3.506810
 30
0.0
 10
23.546137
 20
3.262010
 30
0.0
 10
23.670004
 20
2.987521
 30
0.0
 10
23.782611
 20
2.685515
 30
0.0
 10
23.883073
 20
2.358081
 30
0.0
 10
23.970509
 20
2.007335
 30
0.0
 10
24.044027
 20
1.635451
 30
0.0
 10
24.102749
 20
1.244573
 30
0.0
 10
24.145791
 20
0.836790
 30
0.0
 10
24.172264
 20
0.414247
 30
0.0
 10
24.181295
 20
-0.020911
 30
0.0
 10
24.172264
 20
-0.456126
 30
0.0
 10
24.145791
 20
-0.878867
 30
0.0
 10
24.102749
 20
-1.286932
 30
0.0
 10
24.044027
 20
-1.678177
 30
0.0
 10
23.970509
 20
-2.050512
 30
0.0
 10
23.883073
 20
-2.401738
 30
0.0
 10
23.782611
 20
-2.729708
 30
0.0
 10
23.670004
 20
-3.032279
 30
0.0
 10
23.546137
 20
-3.307333
 30
0.0
 10
23.411895
 20
-3.552668
 30
0.0
 10
23.268162
 20
-3.766141
 30
0.0
 10
23.115827
 20
-3.945635
 30
0.0
 10
22.955767
 20
-4.089004
 30
0.0
 10
22.788872
 20
-4.194047
 30
0.0
 10
22.616025
 20
-4.258676
 30
0.0
 10
22.438110
 20
-4.280689
 30
0.0
 10
22.260262
 20
-4.258676
 30
0.0
 10
22.087604
 20
-4.194047
 30
0.0
 10
21.921005
 20
-4.089004
 30
0.0
 10
21.761327
 20
-3.945663
 30
0.0
 10
21.609437
 20
-3.766141
 30
0.0
 10
21.466210
 20
-3.552668
 30
0.0
 10
21.332504
 20
-3.307333
 30
0.0
 10
21.209193
 20
-3.032307
 30
0.0
 10
21.097139
 20
-2.729708
 30
0.0
 10
20.997216
 20
-2.401738
 30
0.0
 10
20.910283
 20
-2.050512
 30
0.0
 10
20.837213
 20
-1.678205
 30
0.0
 10
20.778869
 20
-1.286932
 30
0.0
 10
20.736123
 20
-0.878867
 30
0.0
 10
20.709849
 20
-0.456126
 30
0.0
 10
20.700902
 20
-0.020911
 30
0.0
 10
20.709849
 20
0.414247
 30
0.0
 10
20.736123
 20
0.836790
 30
0.0
 10
20.778869
 20
1.244573
 30
0.0
 10
20.837213
 20
1.635451
 30
0.0
 10
20.910283
 20
2.007335
 30
0.0
 10
20.997216
 20
2.358081
 30
0.0
 10
21.097139
 20
2.685515
 30
0.0
 10
21.209193
 20
2.987521
 30
0.0
 10
21.332504
 20
3.262010
 30
0.0
 10
21.466210
 20
3.506810
 30
0.0
 10
21.609437
 20
3.719803
 30
0.0
 10
21.761327
 20
3.898817
 30
0.0
 10
21.921005
 20
4.041819
 30
0.0
 10
22.087604
 20
4.146580
 30
0.0
 10
22.260262
 20
4.210983
 30
0.0
 10
22.438110
 20
4.232996
 30
0.0
  0
ENDSEC
  0
SECTION
  2
OBJECTS
  0
DICTIONARY
  5
C
330
0
100
AcDbDictionary
  3
ACAD_GROUP
350
D
  3
ACAD_MLINESTYLE
350
17
  0
DICTIONARY
  5
D
330
C
100
AcDbDictionary
  0
DICTIONARY
  5
1A
330
C
100
AcDbDictionary
  0
DICTIONARY
  5
17
330
C
100
AcDbDictionary
  3
STANDARD
350
18
  0
DICTIONARY
  5
19
330
C
100
AcDbDictionary
  0
ENDSEC
  0
EOF
