999
DXF created by Inkscape
  0
SECTION
  2
HEADER
  9
$ACADVER
  1
AC1014
  9
$HANDSEED
  5
FFFF
  9
$MEASUREMENT
 70
     1
  0
ENDSEC
  0
SECTION
  2
TABLES
  0
TABLE
  2
VPORT
  5
8
330
0
100
AcDbSymbolTable
 70
     4
  0
VPORT
  5
2E
330
8
100
AcDbSymbolTableRecord
100
AcDbViewportTableRecord
  2
*ACTIVE
 70
     0
 10
0.0
 20
0.0
 11
1.0
 21
1.0
 12
210.0
 22
148.5
 13
0.0
 23
0.0
 14
10.0
 24
10.0
 15
10.0
 25
10.0
 16
0.0
 26
0.0
 36
1.0
 17
0.0
 27
0.0
 37
0.0
 40
341.0
 41
1.24
 42
50.0
 43
0.0
 44
0.0
 50
0.0
 51
0.0
 71
     0
 72
   100
 73
     1
 74
     3
 75
     0
 76
     0
 77
     0
 78
     0
  0
ENDTAB
  0
TABLE
  2
LTYPE
  5
5
330
0
100
AcDbSymbolTable
 70
     1
  0
LTYPE
  5
14
330
5
100
AcDbSymbolTableRecord
100
AcDbLinetypeTableRecord
  2
BYBLOCK
 70
     0
  3

 72
    65
 73
     0
 40
0.0
  0
LTYPE
  5
15
330
5
100
AcDbSymbolTableRecord
100
AcDbLinetypeTableRecord
  2
BYLAYER
 70
     0
  3

 72
    65
 73
     0
 40
0.0
  0
LTYPE
  5
16
330
5
100
AcDbSymbolTableRecord
100
AcDbLinetypeTableRecord
  2
CONTINUOUS
 70
     0
  3
Solid line
 72
    65
 73
     0
 40
0.0
  0
ENDTAB
  0
TABLE
  2
LAYER
  5
2
100
AcDbSymbolTable
 70
2
  0
LAYER
  5
50
100
AcDbSymbolTableRecord
100
AcDbLayerTableRecord
  2
0
 70
0
  6
CONTINUOUS
  0
LAYER
  5
51
100
AcDbSymbolTableRecord
100
AcDbLayerTableRecord
  2
Layer_1
 70
0
  6
CONTINUOUS
  0
ENDTAB
  0
TABLE
  2
STYLE
  5
3
330
0
100
AcDbSymbolTable
 70
     1
  0
STYLE
  5
11
330
3
100
AcDbSymbolTableRecord
100
AcDbTextStyleTableRecord
  2
STANDARD
 70
     0
 40
0.0
 41
1.0
 50
0.0
 71
     0
 42
2.5
  3
txt
  4

  0
ENDTAB
  0
TABLE
  2
VIEW
  5
6
330
0
100
AcDbSymbolTable
 70
     0
  0
ENDTAB
  0
TABLE
  2
UCS
  5
7
330
0
100
AcDbSymbolTable
 70
     0
  0
ENDTAB
  0
TABLE
  2
APPID
  5
9
330
0
100
AcDbSymbolTable
 70
     2
  0
APPID
  5
12
330
9
100
AcDbSymbolTableRecord
100
AcDbRegAppTableRecord
  2
ACAD
 70
     0
  0
ENDTAB
  0
TABLE
  2
DIMSTYLE
  5
A
330
0
100
AcDbSymbolTable
 70
     1
  0
DIMSTYLE
105
27
330
A
100
AcDbSymbolTableRecord
100
AcDbDimStyleTableRecord
  2
ISO-25
 70
     0
  3

  4

  5

  6

  7

 40
1.0
 41
2.5
 42
0.625
 43
3.75
 44
1.25
 45
0.0
 46
0.0
 47
0.0
 48
0.0
140
2.5
141
2.5
142
0.0
143
0.03937007874016
144
1.0
145
0.0
146
1.0
147
0.625
 71
     0
 72
     0
 73
     0
 74
     0
 75
     0
 76
     0
 77
     1
 78
     8
170
     0
171
     3
172
     1
173
     0
174
     0
175
     0
176
     0
177
     0
178
     0
270
     2
271
     2
272
     2
273
     2
274
     3
340
11
275
     0
280
     0
281
     0
282
     0
283
     0
284
     8
285
     0
286
     0
287
     3
288
     0
  0
ENDTAB
  0
TABLE
  2
BLOCK_RECORD
  5
1
330
0
100
AcDbSymbolTable
 70
     1
  0
BLOCK_RECORD
  5
1F
330
1
100
AcDbSymbolTableRecord
100
AcDbBlockTableRecord
  2
*MODEL_SPACE
  0
BLOCK_RECORD
  5
1B
330
1
100
AcDbSymbolTableRecord
100
AcDbBlockTableRecord
  2
*PAPER_SPACE
  0
ENDTAB
  0
ENDSEC
  0
SECTION
  2
BLOCKS
  0
BLOCK
  5
20
330
1F
100
AcDbEntity
  8
0
100
AcDbBlockBegin
  2
*MODEL_SPACE
 70
     0
 10
0.0
 20
0.0
 30
0.0
  3
*MODEL_SPACE
  1

  0
ENDBLK
  5
21
330
1F
100
AcDbEntity
  8
0
100
AcDbBlockEnd
  0
BLOCK
  5
1C
330
1B
100
AcDbEntity
 67
     1
  8
0
100
AcDbBlockBegin
  2
*PAPER_SPACE
  1

  0
ENDBLK
  5
1D
330
1B
100
AcDbEntity
 67
     1
  8
0
100
AcDbBlockEnd
  0
ENDSEC
  0
SECTION
  2
ENTITIES
  0
LWPOLYLINE
  5
100
100
AcDbEntity
  8
Layer_1
 62
7
100
AcDbPolyline
 90
833
 70
0
 10
2.998611
 20
17.502986
 30
0.0
 10
2.998611
 20
17.424715
 30
0.0
 10
2.998611
 20
17.346440
 30
0.0
 10
2.998611
 20
17.268169
 30
0.0
 10
2.998611
 20
17.189897
 30
0.0
 10
2.998611
 20
17.111623
 30
0.0
 10
2.998611
 20
17.033351
 30
0.0
 10
2.998611
 20
16.955077
 30
0.0
 10
2.998611
 20
16.876806
 30
0.0
 10
2.998611
 20
16.798534
 30
0.0
 10
2.998611
 20
16.720260
 30
0.0
 10
2.998611
 20
16.641988
 30
0.0
 10
2.998611
 20
16.563717
 30
0.0
 10
2.998611
 20
16.485442
 30
0.0
 10
2.998611
 20
16.407171
 30
0.0
 10
2.998611
 20
16.328897
 30
0.0
 10
2.998611
 20
16.250625
 30
0.0
 10
2.998611
 20
16.172353
 30
0.0
 10
2.998611
 20
16.094079
 30
0.0
 10
2.998611
 20
16.015808
 30
0.0
 10
2.998611
 20
15.937536
 30
0.0
 10
2.998611
 20
15.859262
 30
0.0
 10
2.998611
 20
15.780990
 30
0.0
 10
2.998611
 20
15.702716
 30
0.0
 10
2.998611
 20
15.624444
 30
0.0
 10
2.998611
 20
15.546173
 30
0.0
 10
2.998611
 20
15.467899
 30
0.0
 10
2.998611
 20
15.389627
 30
0.0
 10
2.998611
 20
15.311356
 30
0.0
 10
2.998611
 20
15.233081
 30
0.0
 10
2.998611
 20
15.154810
 30
0.0
 10
2.998611
 20
15.076535
 30
0.0
 10
2.998611
 20
14.998264
 30
0.0
 10
3.186024
 20
14.998264
 30
0.0
 10
3.373437
 20
14.998264
 30
0.0
 10
3.560851
 20
14.998264
 30
0.0
 10
3.748264
 20
14.998264
 30
0.0
 10
3.935677
 20
14.998264
 30
0.0
 10
4.123090
 20
14.998264
 30
0.0
 10
4.310504
 20
14.998264
 30
0.0
 10
4.497917
 20
14.998264
 30
0.0
 10
4.685330
 20
14.998264
 30
0.0
 10
4.872743
 20
14.998264
 30
0.0
 10
5.060156
 20
14.998264
 30
0.0
 10
5.247569
 20
14.998264
 30
0.0
 10
5.434982
 20
14.998264
 30
0.0
 10
5.622396
 20
14.998264
 30
0.0
 10
5.809809
 20
14.998264
 30
0.0
 10
5.997222
 20
14.998264
 30
0.0
 10
6.184635
 20
14.998264
 30
0.0
 10
6.372049
 20
14.998264
 30
0.0
 10
6.559462
 20
14.998264
 30
0.0
 10
6.746875
 20
14.998264
 30
0.0
 10
6.934288
 20
14.998264
 30
0.0
 10
7.121701
 20
14.998264
 30
0.0
 10
7.309114
 20
14.998264
 30
0.0
 10
7.496528
 20
14.998264
 30
0.0
 10
7.683941
 20
14.998264
 30
0.0
 10
7.871354
 20
14.998264
 30
0.0
 10
8.058767
 20
14.998264
 30
0.0
 10
8.246181
 20
14.998264
 30
0.0
 10
8.433594
 20
14.998264
 30
0.0
 10
8.621007
 20
14.998264
 30
0.0
 10
8.808420
 20
14.998264
 30
0.0
 10
8.995833
 20
14.998264
 30
0.0
 10
8.995833
 20
14.529450
 30
0.0
 10
8.995833
 20
14.060651
 30
0.0
 10
8.995833
 20
13.591852
 30
0.0
 10
8.995833
 20
13.123024
 30
0.0
 10
8.995833
 20
12.654225
 30
0.0
 10
8.995833
 20
12.185426
 30
0.0
 10
8.995833
 20
11.716598
 30
0.0
 10
8.995833
 20
11.247799
 30
0.0
 10
8.995833
 20
10.778999
 30
0.0
 10
8.995833
 20
10.310172
 30
0.0
 10
8.995833
 20
9.841372
 30
0.0
 10
8.995833
 20
9.372573
 30
0.0
 10
8.995833
 20
8.903746
 30
0.0
 10
8.995833
 20
8.434946
 30
0.0
 10
8.995833
 20
7.966147
 30
0.0
 10
8.995833
 20
7.497319
 30
0.0
 10
8.995833
 20
7.028520
 30
0.0
 10
8.995833
 20
6.559721
 30
0.0
 10
8.995833
 20
6.090893
 30
0.0
 10
8.995833
 20
5.622094
 30
0.0
 10
8.995833
 20
5.153294
 30
0.0
 10
8.995833
 20
4.684467
 30
0.0
 10
8.995833
 20
4.215668
 30
0.0
 10
8.995833
 20
3.746868
 30
0.0
 10
8.995833
 20
3.278041
 30
0.0
 10
8.995833
 20
2.809241
 30
0.0
 10
8.995833
 20
2.340442
 30
0.0
 10
8.995833
 20
1.871614
 30
0.0
 10
8.995833
 20
1.402815
 30
0.0
 10
8.995833
 20
0.934016
 30
0.0
 10
8.995833
 20
0.465188
 30
0.0
 10
8.995833
 20
-0.003611
 30
0.0
 10
9.074106
 20
-0.003611
 30
0.0
 10
9.152378
 20
-0.003611
 30
0.0
 10
9.230651
 20
-0.003611
 30
0.0
 10
9.308924
 20
-0.003611
 30
0.0
 10
9.387196
 20
-0.003611
 30
0.0
 10
9.465469
 20
-0.003611
 30
0.0
 10
9.543741
 20
-0.003611
 30
0.0
 10
9.622014
 20
-0.003611
 30
0.0
 10
9.700287
 20
-0.003611
 30
0.0
 10
9.778559
 20
-0.003611
 30
0.0
 10
9.856832
 20
-0.003611
 30
0.0
 10
9.935104
 20
-0.003611
 30
0.0
 10
10.013377
 20
-0.003611
 30
0.0
 10
10.091649
 20
-0.003611
 30
0.0
 10
10.169922
 20
-0.003611
 30
0.0
 10
10.248194
 20
-0.003611
 30
0.0
 10
10.326467
 20
-0.003611
 30
0.0
 10
10.404739
 20
-0.003611
 30
0.0
 10
10.483012
 20
-0.003611
 30
0.0
 10
10.561285
 20
-0.003611
 30
0.0
 10
10.639557
 20
-0.003611
 30
0.0
 10
10.717830
 20
-0.003611
 30
0.0
 10
10.796102
 20
-0.003611
 30
0.0
 10
10.874375
 20
-0.003611
 30
0.0
 10
10.952648
 20
-0.003611
 30
0.0
 10
11.030920
 20
-0.003611
 30
0.0
 10
11.109193
 20
-0.003611
 30
0.0
 10
11.187465
 20
-0.003611
 30
0.0
 10
11.265738
 20
-0.003611
 30
0.0
 10
11.344010
 20
-0.003611
 30
0.0
 10
11.422283
 20
-0.003611
 30
0.0
 10
11.500556
 20
-0.003611
 30
0.0
 10
11.500556
 20
0.465188
 30
0.0
 10
11.500556
 20
0.934016
 30
0.0
 10
11.500556
 20
1.402815
 30
0.0
 10
11.500556
 20
1.871614
 30
0.0
 10
11.500556
 20
2.340442
 30
0.0
 10
11.500556
 20
2.809241
 30
0.0
 10
11.500556
 20
3.278041
 30
0.0
 10
11.500556
 20
3.746868
 30
0.0
 10
11.500556
 20
4.215668
 30
0.0
 10
11.500556
 20
4.684467
 30
0.0
 10
11.500556
 20
5.153294
 30
0.0
 10
11.500556
 20
5.622094
 30
0.0
 10
11.500556
 20
6.090893
 30
0.0
 10
11.500556
 20
6.559721
 30
0.0
 10
11.500556
 20
7.028520
 30
0.0
 10
11.500556
 20
7.497319
 30
0.0
 10
11.500556
 20
7.966147
 30
0.0
 10
11.500556
 20
8.434946
 30
0.0
 10
11.500556
 20
8.903746
 30
0.0
 10
11.500556
 20
9.372573
 30
0.0
 10
11.500556
 20
9.841372
 30
0.0
 10
11.500556
 20
10.310172
 30
0.0
 10
11.500556
 20
10.778999
 30
0.0
 10
11.500556
 20
11.247799
 30
0.0
 10
11.500556
 20
11.716598
 30
0.0
 10
11.500556
 20
12.185426
 30
0.0
 10
11.500556
 20
12.654225
 30
0.0
 10
11.500556
 20
13.123024
 30
0.0
 10
11.500556
 20
13.591852
 30
0.0
 10
11.500556
 20
14.060651
 30
0.0
 10
11.500556
 20
14.529450
 30
0.0
 10
11.500556
 20
14.998264
 30
0.0
 10
11.643596
 20
14.998264
 30
0.0
 10
11.786636
 20
14.998264
 30
0.0
 10
11.929677
 20
14.998264
 30
0.0
 10
12.072717
 20
14.998264
 30
0.0
 10
12.215757
 20
14.998264
 30
0.0
 10
12.358798
 20
14.998264
 30
0.0
 10
12.501838
 20
14.998264
 30
0.0
 10
12.644878
 20
14.998264
 30
0.0
 10
12.787919
 20
14.998264
 30
0.0
 10
12.930959
 20
14.998264
 30
0.0
 10
13.073999
 20
14.998264
 30
0.0
 10
13.217040
 20
14.998264
 30
0.0
 10
13.360080
 20
14.998264
 30
0.0
 10
13.503121
 20
14.998264
 30
0.0
 10
13.646161
 20
14.998264
 30
0.0
 10
13.789201
 20
14.998264
 30
0.0
 10
13.932242
 20
14.998264
 30
0.0
 10
14.075282
 20
14.998264
 30
0.0
 10
14.218323
 20
14.998264
 30
0.0
 10
14.361363
 20
14.998264
 30
0.0
 10
14.504403
 20
14.998264
 30
0.0
 10
14.647444
 20
14.998264
 30
0.0
 10
14.790484
 20
14.998264
 30
0.0
 10
14.933524
 20
14.998264
 30
0.0
 10
15.076565
 20
14.998264
 30
0.0
 10
15.219605
 20
14.998264
 30
0.0
 10
15.362645
 20
14.998264
 30
0.0
 10
15.505686
 20
14.998264
 30
0.0
 10
15.648726
 20
14.998264
 30
0.0
 10
15.791766
 20
14.998264
 30
0.0
 10
15.934807
 20
14.998264
 30
0.0
 10
16.077847
 20
14.998264
 30
0.0
 10
16.278489
 20
14.529450
 30
0.0
 10
16.479132
 20
14.060651
 30
0.0
 10
16.679774
 20
13.591852
 30
0.0
 10
16.880417
 20
13.123024
 30
0.0
 10
17.081059
 20
12.654225
 30
0.0
 10
17.281701
 20
12.185426
 30
0.0
 10
17.482344
 20
11.716598
 30
0.0
 10
17.682986
 20
11.247799
 30
0.0
 10
17.883628
 20
10.778999
 30
0.0
 10
18.084271
 20
10.310172
 30
0.0
 10
18.284913
 20
9.841372
 30
0.0
 10
18.485556
 20
9.372573
 30
0.0
 10
18.686198
 20
8.903746
 30
0.0
 10
18.886840
 20
8.434946
 30
0.0
 10
19.087482
 20
7.966147
 30
0.0
 10
19.288125
 20
7.497319
 30
0.0
 10
19.488767
 20
7.028520
 30
0.0
 10
19.689410
 20
6.559721
 30
0.0
 10
19.890052
 20
6.090893
 30
0.0
 10
20.090694
 20
5.622094
 30
0.0
 10
20.291337
 20
5.153294
 30
0.0
 10
20.491979
 20
4.684467
 30
0.0
 10
20.692621
 20
4.215668
 30
0.0
 10
20.893264
 20
3.746868
 30
0.0
 10
21.093906
 20
3.278041
 30
0.0
 10
21.294549
 20
2.809241
 30
0.0
 10
21.495191
 20
2.340442
 30
0.0
 10
21.695833
 20
1.871614
 30
0.0
 10
21.896476
 20
1.402815
 30
0.0
 10
22.097118
 20
0.934016
 30
0.0
 10
22.297760
 20
0.465188
 30
0.0
 10
22.498403
 20
-0.003611
 30
0.0
 10
22.592109
 20
-0.003611
 30
0.0
 10
22.685816
 20
-0.003611
 30
0.0
 10
22.779523
 20
-0.003611
 30
0.0
 10
22.873229
 20
-0.003611
 30
0.0
 10
22.966936
 20
-0.003611
 30
0.0
 10
23.060642
 20
-0.003611
 30
0.0
 10
23.154349
 20
-0.003611
 30
0.0
 10
23.248056
 20
-0.003611
 30
0.0
 10
23.341762
 20
-0.003611
 30
0.0
 10
23.435469
 20
-0.003611
 30
0.0
 10
23.529175
 20
-0.003611
 30
0.0
 10
23.622882
 20
-0.003611
 30
0.0
 10
23.716588
 20
-0.003611
 30
0.0
 10
23.810295
 20
-0.003611
 30
0.0
 10
23.904002
 20
-0.003611
 30
0.0
 10
23.997708
 20
-0.003611
 30
0.0
 10
24.091415
 20
-0.003611
 30
0.0
 10
24.185121
 20
-0.003611
 30
0.0
 10
24.278828
 20
-0.003611
 30
0.0
 10
24.372535
 20
-0.003611
 30
0.0
 10
24.466241
 20
-0.003611
 30
0.0
 10
24.559948
 20
-0.003611
 30
0.0
 10
24.653655
 20
-0.003611
 30
0.0
 10
24.747361
 20
-0.003611
 30
0.0
 10
24.841068
 20
-0.003611
 30
0.0
 10
24.934774
 20
-0.003611
 30
0.0
 10
25.028481
 20
-0.003611
 30
0.0
 10
25.122187
 20
-0.003611
 30
0.0
 10
25.215894
 20
-0.003611
 30
0.0
 10
25.309601
 20
-0.003611
 30
0.0
 10
25.403307
 20
-0.003611
 30
0.0
 10
25.497014
 20
-0.003611
 30
0.0
 10
25.690766
 20
0.480908
 30
0.0
 10
25.884518
 20
0.965427
 30
0.0
 10
26.078270
 20
1.449946
 30
0.0
 10
26.272023
 20
1.934465
 30
0.0
 10
26.465775
 20
2.418984
 30
0.0
 10
26.659527
 20
2.903504
 30
0.0
 10
26.853279
 20
3.388023
 30
0.0
 10
27.047031
 20
3.872542
 30
0.0
 10
27.240783
 20
4.357061
 30
0.0
 10
27.434535
 20
4.841580
 30
0.0
 10
27.628288
 20
5.326099
 30
0.0
 10
27.822040
 20
5.810618
 30
0.0
 10
28.015792
 20
6.295137
 30
0.0
 10
28.209544
 20
6.779656
 30
0.0
 10
28.403296
 20
7.264176
 30
0.0
 10
28.597050
 20
7.748666
 30
0.0
 10
28.790801
 20
8.233186
 30
0.0
 10
28.984552
 20
8.717705
 30
0.0
 10
29.178306
 20
9.202224
 30
0.0
 10
29.372058
 20
9.686743
 30
0.0
 10
29.565809
 20
10.171262
 30
0.0
 10
29.759563
 20
10.655781
 30
0.0
 10
29.953314
 20
11.140300
 30
0.0
 10
30.147065
 20
11.624819
 30
0.0
 10
30.340819
 20
12.109338
 30
0.0
 10
30.534570
 20
12.593858
 30
0.0
 10
30.728322
 20
13.078377
 30
0.0
 10
30.922076
 20
13.562896
 30
0.0
 10
31.115827
 20
14.047415
 30
0.0
 10
31.309578
 20
14.531934
 30
0.0
 10
31.503332
 20
15.016453
 30
0.0
 10
31.697083
 20
15.500972
 30
0.0
 10
31.800436
 20
15.500972
 30
0.0
 10
31.903789
 20
15.500972
 30
0.0
 10
32.007141
 20
15.500972
 30
0.0
 10
32.110494
 20
15.500972
 30
0.0
 10
32.213846
 20
15.500972
 30
0.0
 10
32.317202
 20
15.500972
 30
0.0
 10
32.420554
 20
15.500972
 30
0.0
 10
32.523907
 20
15.500972
 30
0.0
 10
32.627260
 20
15.500972
 30
0.0
 10
32.730612
 20
15.500972
 30
0.0
 10
32.833965
 20
15.500972
 30
0.0
 10
32.937317
 20
15.500972
 30
0.0
 10
33.040670
 20
15.500972
 30
0.0
 10
33.144023
 20
15.500972
 30
0.0
 10
33.247375
 20
15.500972
 30
0.0
 10
33.350731
 20
15.500972
 30
0.0
 10
33.454083
 20
15.500972
 30
0.0
 10
33.557436
 20
15.500972
 30
0.0
 10
33.660788
 20
15.500972
 30
0.0
 10
33.764141
 20
15.500972
 30
0.0
 10
33.867494
 20
15.500972
 30
0.0
 10
33.970846
 20
15.500972
 30
0.0
 10
34.074199
 20
15.500972
 30
0.0
 10
34.177551
 20
15.500972
 30
0.0
 10
34.280904
 20
15.500972
 30
0.0
 10
34.384257
 20
15.500972
 30
0.0
 10
34.487612
 20
15.500972
 30
0.0
 10
34.590965
 20
15.500972
 30
0.0
 10
34.694317
 20
15.500972
 30
0.0
 10
34.797670
 20
15.500972
 30
0.0
 10
34.901022
 20
15.500972
 30
0.0
 10
35.004375
 20
15.500972
 30
0.0
 10
35.197344
 20
15.496090
 30
0.0
 10
35.387771
 20
15.481612
 30
0.0
 10
35.575421
 20
15.457792
 30
0.0
 10
35.760056
 20
15.424848
 30
0.0
 10
35.941446
 20
15.383015
 30
0.0
 10
36.119350
 20
15.332528
 30
0.0
 10
36.293538
 20
15.273625
 30
0.0
 10
36.463774
 20
15.206541
 30
0.0
 10
36.629820
 20
15.131507
 30
0.0
 10
36.791446
 20
15.048762
 30
0.0
 10
36.948412
 20
14.958541
 30
0.0
 10
37.100487
 20
14.861076
 30
0.0
 10
37.247432
 20
14.756597
 30
0.0
 10
37.389017
 20
14.645345
 30
0.0
 10
37.525003
 20
14.527574
 30
0.0
 10
37.655159
 20
14.403481
 30
0.0
 10
37.779243
 20
14.273348
 30
0.0
 10
37.897029
 20
14.137345
 30
0.0
 10
38.008275
 20
13.995754
 30
0.0
 10
38.112748
 20
13.848829
 30
0.0
 10
38.210213
 20
13.696740
 30
0.0
 10
38.300437
 20
13.539768
 30
0.0
 10
38.383182
 20
13.378139
 30
0.0
 10
38.458216
 20
13.212108
 30
0.0
 10
38.525303
 20
13.041871
 30
0.0
 10
38.584206
 20
12.867684
 30
0.0
 10
38.634693
 20
12.689771
 30
0.0
 10
38.676526
 20
12.508387
 30
0.0
 10
38.709473
 20
12.323729
 30
0.0
 10
38.733293
 20
12.136079
 30
0.0
 10
38.747771
 20
11.945664
 30
0.0
 10
38.752653
 20
11.752680
 30
0.0
 10
38.747771
 20
11.559697
 30
0.0
 10
38.733293
 20
11.369197
 30
0.0
 10
38.709473
 20
11.181434
 30
0.0
 10
38.676526
 20
10.996635
 30
0.0
 10
38.634693
 20
10.815053
 30
0.0
 10
38.584206
 20
10.636915
 30
0.0
 10
38.525303
 20
10.462445
 30
0.0
 10
38.458216
 20
10.291926
 30
0.0
 10
38.383182
 20
10.125556
 30
0.0
 10
38.300437
 20
9.963589
 30
0.0
 10
38.210213
 20
9.806250
 30
0.0
 10
38.112748
 20
9.653793
 30
0.0
 10
38.008275
 20
9.506473
 30
0.0
 10
37.897029
 20
9.364487
 30
0.0
 10
37.779243
 20
9.228089
 30
0.0
 10
37.655159
 20
9.097505
 30
0.0
 10
37.525003
 20
8.973017
 30
0.0
 10
37.389017
 20
8.854822
 30
0.0
 10
37.247432
 20
8.743175
 30
0.0
 10
37.100487
 20
8.638301
 30
0.0
 10
36.948412
 20
8.540455
 30
0.0
 10
36.791446
 20
8.449862
 30
0.0
 10
36.629820
 20
8.366775
 30
0.0
 10
36.463774
 20
8.291422
 30
0.0
 10
36.293538
 20
8.224056
 30
0.0
 10
36.119350
 20
8.164874
 30
0.0
 10
35.941446
 20
8.114158
 30
0.0
 10
35.760056
 20
8.072107
 30
0.0
 10
35.575421
 20
8.039003
 30
0.0
 10
35.387771
 20
8.015014
 30
0.0
 10
35.197344
 20
8.000620
 30
0.0
 10
35.004375
 20
7.995823
 30
0.0
 10
34.941812
 20
7.995823
 30
0.0
 10
34.879249
 20
7.995823
 30
0.0
 10
34.816686
 20
7.995823
 30
0.0
 10
34.754123
 20
7.995823
 30
0.0
 10
34.691560
 20
7.995823
 30
0.0
 10
34.628997
 20
7.995823
 30
0.0
 10
34.566434
 20
7.995823
 30
0.0
 10
34.503871
 20
7.995823
 30
0.0
 10
34.441308
 20
7.995823
 30
0.0
 10
34.378745
 20
7.995823
 30
0.0
 10
34.316182
 20
7.995823
 30
0.0
 10
34.253619
 20
7.995823
 30
0.0
 10
34.191056
 20
7.995823
 30
0.0
 10
34.128493
 20
7.995823
 30
0.0
 10
34.065930
 20
7.995823
 30
0.0
 10
34.003369
 20
7.995823
 30
0.0
 10
33.940806
 20
7.995823
 30
0.0
 10
33.878243
 20
7.995823
 30
0.0
 10
33.815680
 20
7.995823
 30
0.0
 10
33.753117
 20
7.995823
 30
0.0
 10
33.690554
 20
7.995823
 30
0.0
 10
33.627991
 20
7.995823
 30
0.0
 10
33.565428
 20
7.995823
 30
0.0
 10
33.502865
 20
7.995823
 30
0.0
 10
33.440302
 20
7.995823
 30
0.0
 10
33.377739
 20
7.995823
 30
0.0
 10
33.315176
 20
7.995823
 30
0.0
 10
33.252613
 20
7.995823
 30
0.0
 10
33.190050
 20
7.995823
 30
0.0
 10
33.127487
 20
7.995823
 30
0.0
 10
33.064924
 20
7.995823
 30
0.0
 10
33.002361
 20
7.995823
 30
0.0
 10
33.205485
 20
7.745858
 30
0.0
 10
33.408606
 20
7.495866
 30
0.0
 10
33.611730
 20
7.245902
 30
0.0
 10
33.814853
 20
6.995909
 30
0.0
 10
34.017974
 20
6.745945
 30
0.0
 10
34.221098
 20
6.495953
 30
0.0
 10
34.424222
 20
6.245988
 30
0.0
 10
34.627343
 20
5.995996
 30
0.0
 10
34.830467
 20
5.746032
 30
0.0
 10
35.033591
 20
5.496067
 30
0.0
 10
35.236712
 20
5.246075
 30
0.0
 10
35.439835
 20
4.996111
 30
0.0
 10
35.642959
 20
4.746118
 30
0.0
 10
35.846080
 20
4.496154
 30
0.0
 10
36.049204
 20
4.246162
 30
0.0
 10
36.252325
 20
3.996197
 30
0.0
 10
36.455449
 20
3.746233
 30
0.0
 10
36.658573
 20
3.496241
 30
0.0
 10
36.861694
 20
3.246277
 30
0.0
 10
37.064817
 20
2.996284
 30
0.0
 10
37.267941
 20
2.746320
 30
0.0
 10
37.471062
 20
2.496327
 30
0.0
 10
37.674186
 20
2.246363
 30
0.0
 10
37.877310
 20
1.996399
 30
0.0
 10
38.080431
 20
1.746407
 30
0.0
 10
38.283555
 20
1.496442
 30
0.0
 10
38.486678
 20
1.246450
 30
0.0
 10
38.689799
 20
0.996486
 30
0.0
 10
38.892923
 20
0.746493
 30
0.0
 10
39.096047
 20
0.496529
 30
0.0
 10
39.299168
 20
0.246537
 30
0.0
 10
39.502292
 20
-0.003428
 30
0.0
 10
39.580289
 20
-0.003428
 30
0.0
 10
39.658284
 20
-0.003428
 30
0.0
 10
39.736282
 20
-0.003428
 30
0.0
 10
39.814280
 20
-0.003428
 30
0.0
 10
39.892278
 20
-0.003428
 30
0.0
 10
39.970273
 20
-0.003428
 30
0.0
 10
40.048270
 20
-0.003428
 30
0.0
 10
40.126268
 20
-0.003428
 30
0.0
 10
40.204263
 20
-0.003428
 30
0.0
 10
40.282261
 20
-0.003428
 30
0.0
 10
40.360259
 20
-0.003428
 30
0.0
 10
40.438256
 20
-0.003428
 30
0.0
 10
40.516251
 20
-0.003428
 30
0.0
 10
40.594249
 20
-0.003428
 30
0.0
 10
40.672247
 20
-0.003428
 30
0.0
 10
40.750242
 20
-0.003428
 30
0.0
 10
40.828239
 20
-0.003428
 30
0.0
 10
40.906237
 20
-0.003428
 30
0.0
 10
40.984235
 20
-0.003428
 30
0.0
 10
41.062230
 20
-0.003428
 30
0.0
 10
41.140228
 20
-0.003428
 30
0.0
 10
41.218225
 20
-0.003428
 30
0.0
 10
41.296223
 20
-0.003428
 30
0.0
 10
41.374218
 20
-0.003428
 30
0.0
 10
41.452216
 20
-0.003428
 30
0.0
 10
41.530214
 20
-0.003428
 30
0.0
 10
41.608208
 20
-0.003428
 30
0.0
 10
41.686206
 20
-0.003428
 30
0.0
 10
41.764204
 20
-0.003428
 30
0.0
 10
41.842202
 20
-0.003428
 30
0.0
 10
41.920197
 20
-0.003428
 30
0.0
 10
41.998194
 20
-0.003428
 30
0.0
 10
41.837514
 20
0.194184
 30
0.0
 10
41.676836
 20
0.391796
 30
0.0
 10
41.516156
 20
0.589408
 30
0.0
 10
41.355478
 20
0.787020
 30
0.0
 10
41.194798
 20
0.984632
 30
0.0
 10
41.034118
 20
1.182244
 30
0.0
 10
40.873440
 20
1.379856
 30
0.0
 10
40.712760
 20
1.577440
 30
0.0
 10
40.552082
 20
1.775052
 30
0.0
 10
40.391402
 20
1.972664
 30
0.0
 10
40.230721
 20
2.170276
 30
0.0
 10
40.070044
 20
2.367888
 30
0.0
 10
39.909363
 20
2.565500
 30
0.0
 10
39.748686
 20
2.763112
 30
0.0
 10
39.588005
 20
2.960724
 30
0.0
 10
39.427325
 20
3.158336
 30
0.0
 10
39.266647
 20
3.355948
 30
0.0
 10
39.105967
 20
3.553560
 30
0.0
 10
38.945289
 20
3.751172
 30
0.0
 10
38.784609
 20
3.948784
 30
0.0
 10
38.623931
 20
4.146396
 30
0.0
 10
38.463251
 20
4.344008
 30
0.0
 10
38.302571
 20
4.541620
 30
0.0
 10
38.141893
 20
4.739204
 30
0.0
 10
37.981213
 20
4.936816
 30
0.0
 10
37.820535
 20
5.134428
 30
0.0
 10
37.659855
 20
5.332040
 30
0.0
 10
37.499174
 20
5.529652
 30
0.0
 10
37.338497
 20
5.727264
 30
0.0
 10
37.177816
 20
5.924876
 30
0.0
 10
37.017139
 20
6.122488
 30
0.0
 10
36.856458
 20
6.320100
 30
0.0
 10
37.066677
 20
6.396582
 30
0.0
 10
37.273038
 20
6.480854
 30
0.0
 10
37.475363
 20
6.572773
 30
0.0
 10
37.673463
 20
6.672116
 30
0.0
 10
37.867155
 20
6.778739
 30
0.0
 10
38.056253
 20
6.892418
 30
0.0
 10
38.240569
 20
7.013040
 30
0.0
 10
38.419924
 20
7.140379
 30
0.0
 10
38.594132
 20
7.274265
 30
0.0
 10
38.763005
 20
7.414529
 30
0.0
 10
38.926361
 20
7.561003
 30
0.0
 10
39.084010
 20
7.713487
 30
0.0
 10
39.235775
 20
7.871786
 30
0.0
 10
39.381464
 20
8.035785
 30
0.0
 10
39.520899
 20
8.205260
 30
0.0
 10
39.653887
 20
8.380040
 30
0.0
 10
39.780250
 20
8.559928
 30
0.0
 10
39.899802
 20
8.744784
 30
0.0
 10
40.012352
 20
8.934409
 30
0.0
 10
40.117722
 20
9.128634
 30
0.0
 10
40.215727
 20
9.327262
 30
0.0
 10
40.306179
 20
9.530152
 30
0.0
 10
40.388893
 20
9.737077
 30
0.0
 10
40.463684
 20
9.947897
 30
0.0
 10
40.530371
 20
10.162443
 30
0.0
 10
40.588765
 20
10.380487
 30
0.0
 10
40.638682
 20
10.601891
 30
0.0
 10
40.679937
 20
10.826455
 30
0.0
 10
40.712348
 20
11.054011
 30
0.0
 10
40.735716
 20
11.284389
 30
0.0
 10
40.749883
 20
11.517420
 30
0.0
 10
40.754653
 20
11.752878
 30
0.0
 10
40.747174
 20
12.048788
 30
0.0
 10
40.724963
 20
12.340803
 30
0.0
 10
40.688393
 20
12.628557
 30
0.0
 10
40.637821
 20
12.911739
 30
0.0
 10
40.573610
 20
13.189925
 30
0.0
 10
40.496117
 20
13.462806
 30
0.0
 10
40.405710
 20
13.729985
 30
0.0
 10
40.302747
 20
13.991097
 30
0.0
 10
40.187586
 20
14.245803
 30
0.0
 10
40.060595
 20
14.493763
 30
0.0
 10
39.922131
 20
14.734555
 30
0.0
 10
39.772556
 20
14.967869
 30
0.0
 10
39.612231
 20
15.193319
 30
0.0
 10
39.441521
 20
15.410548
 30
0.0
 10
39.260780
 20
15.619198
 30
0.0
 10
39.070379
 20
15.818904
 30
0.0
 10
38.870670
 20
16.009308
 30
0.0
 10
38.662023
 20
16.190046
 30
0.0
 10
38.444791
 20
16.360757
 30
0.0
 10
38.219343
 20
16.521079
 30
0.0
 10
37.986036
 20
16.670654
 30
0.0
 10
37.745230
 20
16.809117
 30
0.0
 10
37.497292
 20
16.936109
 30
0.0
 10
37.242578
 20
17.051267
 30
0.0
 10
36.981452
 20
17.154230
 30
0.0
 10
36.714275
 20
17.244637
 30
0.0
 10
36.441408
 20
17.322127
 30
0.0
 10
36.163213
 20
17.386338
 30
0.0
 10
35.880051
 20
17.436909
 30
0.0
 10
35.592283
 20
17.473480
 30
0.0
 10
35.300271
 20
17.495691
 30
0.0
 10
35.004375
 20
17.503170
 30
0.0
 10
34.926103
 20
17.503170
 30
0.0
 10
34.847829
 20
17.503170
 30
0.0
 10
34.769558
 20
17.503170
 30
0.0
 10
34.691286
 20
17.503170
 30
0.0
 10
34.613012
 20
17.503170
 30
0.0
 10
34.534740
 20
17.503170
 30
0.0
 10
34.456466
 20
17.503170
 30
0.0
 10
34.378194
 20
17.503170
 30
0.0
 10
34.299923
 20
17.503170
 30
0.0
 10
34.221649
 20
17.503170
 30
0.0
 10
34.143377
 20
17.503170
 30
0.0
 10
34.065106
 20
17.503170
 30
0.0
 10
33.986831
 20
17.503170
 30
0.0
 10
33.908560
 20
17.503170
 30
0.0
 10
33.830285
 20
17.503170
 30
0.0
 10
33.752014
 20
17.503170
 30
0.0
 10
33.673742
 20
17.503170
 30
0.0
 10
33.595468
 20
17.503170
 30
0.0
 10
33.517197
 20
17.503170
 30
0.0
 10
33.438925
 20
17.503170
 30
0.0
 10
33.360651
 20
17.503170
 30
0.0
 10
33.282379
 20
17.503170
 30
0.0
 10
33.204105
 20
17.503170
 30
0.0
 10
33.125833
 20
17.503170
 30
0.0
 10
33.047562
 20
17.503170
 30
0.0
 10
32.969287
 20
17.503170
 30
0.0
 10
32.891016
 20
17.503170
 30
0.0
 10
32.812744
 20
17.503170
 30
0.0
 10
32.734470
 20
17.503170
 30
0.0
 10
32.656199
 20
17.503170
 30
0.0
 10
32.577924
 20
17.503170
 30
0.0
 10
32.499653
 20
17.503170
 30
0.0
 10
32.421655
 20
17.503170
 30
0.0
 10
32.343660
 20
17.503170
 30
0.0
 10
32.265662
 20
17.503170
 30
0.0
 10
32.187665
 20
17.503170
 30
0.0
 10
32.109667
 20
17.503170
 30
0.0
 10
32.031672
 20
17.503170
 30
0.0
 10
31.953674
 20
17.503170
 30
0.0
 10
31.875676
 20
17.503170
 30
0.0
 10
31.797681
 20
17.503170
 30
0.0
 10
31.719684
 20
17.503170
 30
0.0
 10
31.641686
 20
17.503170
 30
0.0
 10
31.563688
 20
17.503170
 30
0.0
 10
31.485693
 20
17.503170
 30
0.0
 10
31.407695
 20
17.503170
 30
0.0
 10
31.329698
 20
17.503170
 30
0.0
 10
31.251703
 20
17.503170
 30
0.0
 10
31.173705
 20
17.503170
 30
0.0
 10
31.095707
 20
17.503170
 30
0.0
 10
31.017710
 20
17.503170
 30
0.0
 10
30.939715
 20
17.503170
 30
0.0
 10
30.861717
 20
17.503170
 30
0.0
 10
30.783719
 20
17.503170
 30
0.0
 10
30.705721
 20
17.503170
 30
0.0
 10
30.627726
 20
17.503170
 30
0.0
 10
30.549729
 20
17.503170
 30
0.0
 10
30.471731
 20
17.503170
 30
0.0
 10
30.393736
 20
17.503170
 30
0.0
 10
30.315738
 20
17.503170
 30
0.0
 10
30.237740
 20
17.503170
 30
0.0
 10
30.159743
 20
17.503170
 30
0.0
 10
30.081748
 20
17.503170
 30
0.0
 10
30.003750
 20
17.503170
 30
0.0
 10
29.816061
 20
17.050070
 30
0.0
 10
29.628372
 20
16.596971
 30
0.0
 10
29.440683
 20
16.143872
 30
0.0
 10
29.252994
 20
15.690772
 30
0.0
 10
29.065305
 20
15.237673
 30
0.0
 10
28.877618
 20
14.784574
 30
0.0
 10
28.689929
 20
14.331486
 30
0.0
 10
28.502240
 20
13.878378
 30
0.0
 10
28.314551
 20
13.425270
 30
0.0
 10
28.126862
 20
12.972162
 30
0.0
 10
27.939173
 20
12.519083
 30
0.0
 10
27.751484
 20
12.065975
 30
0.0
 10
27.563796
 20
11.612867
 30
0.0
 10
27.376107
 20
11.159788
 30
0.0
 10
27.188418
 20
10.706680
 30
0.0
 10
27.000729
 20
10.253572
 30
0.0
 10
26.813040
 20
9.800493
 30
0.0
 10
26.625352
 20
9.347385
 30
0.0
 10
26.437663
 20
8.894277
 30
0.0
 10
26.249974
 20
8.441169
 30
0.0
 10
26.062285
 20
7.988090
 30
0.0
 10
25.874596
 20
7.534982
 30
0.0
 10
25.686908
 20
7.081874
 30
0.0
 10
25.499219
 20
6.628795
 30
0.0
 10
25.311530
 20
6.175687
 30
0.0
 10
25.123841
 20
5.722579
 30
0.0
 10
24.936152
 20
5.269499
 30
0.0
 10
24.748463
 20
4.816392
 30
0.0
 10
24.560775
 20
4.363284
 30
0.0
 10
24.373086
 20
3.910176
 30
0.0
 10
24.185397
 20
3.457097
 30
0.0
 10
23.997708
 20
3.003989
 30
0.0
 10
23.794585
 20
3.457097
 30
0.0
 10
23.591463
 20
3.910176
 30
0.0
 10
23.388340
 20
4.363284
 30
0.0
 10
23.185217
 20
4.816392
 30
0.0
 10
22.982094
 20
5.269499
 30
0.0
 10
22.778971
 20
5.722579
 30
0.0
 10
22.575849
 20
6.175687
 30
0.0
 10
22.372726
 20
6.628795
 30
0.0
 10
22.169603
 20
7.081874
 30
0.0
 10
21.966480
 20
7.534982
 30
0.0
 10
21.763357
 20
7.988090
 30
0.0
 10
21.560234
 20
8.441169
 30
0.0
 10
21.357112
 20
8.894277
 30
0.0
 10
21.153989
 20
9.347385
 30
0.0
 10
20.950866
 20
9.800493
 30
0.0
 10
20.747743
 20
10.253572
 30
0.0
 10
20.544620
 20
10.706680
 30
0.0
 10
20.341497
 20
11.159788
 30
0.0
 10
20.138374
 20
11.612867
 30
0.0
 10
19.935252
 20
12.065975
 30
0.0
 10
19.732129
 20
12.519083
 30
0.0
 10
19.529006
 20
12.972162
 30
0.0
 10
19.325883
 20
13.425270
 30
0.0
 10
19.122760
 20
13.878378
 30
0.0
 10
18.919638
 20
14.331486
 30
0.0
 10
18.716515
 20
14.784574
 30
0.0
 10
18.513392
 20
15.237673
 30
0.0
 10
18.310269
 20
15.690772
 30
0.0
 10
18.107146
 20
16.143872
 30
0.0
 10
17.904023
 20
16.596971
 30
0.0
 10
17.700901
 20
17.050070
 30
0.0
 10
17.497778
 20
17.502986
 30
0.0
 10
17.419781
 20
17.502986
 30
0.0
 10
17.341784
 20
17.502986
 30
0.0
 10
17.263787
 20
17.502986
 30
0.0
 10
17.185790
 20
17.502986
 30
0.0
 10
17.107793
 20
17.502986
 30
0.0
 10
17.029796
 20
17.502986
 30
0.0
 10
16.951799
 20
17.502986
 30
0.0
 10
16.873802
 20
17.502986
 30
0.0
 10
16.795805
 20
17.502986
 30
0.0
 10
16.717808
 20
17.502986
 30
0.0
 10
16.639811
 20
17.502986
 30
0.0
 10
16.561814
 20
17.502986
 30
0.0
 10
16.483817
 20
17.502986
 30
0.0
 10
16.405820
 20
17.502986
 30
0.0
 10
16.327823
 20
17.502986
 30
0.0
 10
16.249826
 20
17.502986
 30
0.0
 10
16.171829
 20
17.502986
 30
0.0
 10
16.093833
 20
17.502986
 30
0.0
 10
16.015835
 20
17.502986
 30
0.0
 10
15.937838
 20
17.502986
 30
0.0
 10
15.859842
 20
17.502986
 30
0.0
 10
15.781845
 20
17.502986
 30
0.0
 10
15.703848
 20
17.502986
 30
0.0
 10
15.625851
 20
17.502986
 30
0.0
 10
15.547854
 20
17.502986
 30
0.0
 10
15.469857
 20
17.502986
 30
0.0
 10
15.391860
 20
17.502986
 30
0.0
 10
15.313863
 20
17.502986
 30
0.0
 10
15.235866
 20
17.502986
 30
0.0
 10
15.157869
 20
17.502986
 30
0.0
 10
15.079872
 20
17.502986
 30
0.0
 10
15.001875
 20
17.502986
 30
0.0
 10
14.892459
 20
17.502986
 30
0.0
 10
14.783042
 20
17.502986
 30
0.0
 10
14.673626
 20
17.502986
 30
0.0
 10
14.564210
 20
17.502986
 30
0.0
 10
14.454794
 20
17.502986
 30
0.0
 10
14.345378
 20
17.502986
 30
0.0
 10
14.235961
 20
17.502986
 30
0.0
 10
14.126545
 20
17.502986
 30
0.0
 10
14.017129
 20
17.502986
 30
0.0
 10
13.907713
 20
17.502986
 30
0.0
 10
13.798297
 20
17.502986
 30
0.0
 10
13.688880
 20
17.502986
 30
0.0
 10
13.579464
 20
17.502986
 30
0.0
 10
13.470048
 20
17.502986
 30
0.0
 10
13.360631
 20
17.502986
 30
0.0
 10
13.251215
 20
17.502986
 30
0.0
 10
13.141799
 20
17.502986
 30
0.0
 10
13.032383
 20
17.502986
 30
0.0
 10
12.922967
 20
17.502986
 30
0.0
 10
12.813550
 20
17.502986
 30
0.0
 10
12.704134
 20
17.502986
 30
0.0
 10
12.594718
 20
17.502986
 30
0.0
 10
12.485302
 20
17.502986
 30
0.0
 10
12.375885
 20
17.502986
 30
0.0
 10
12.266469
 20
17.502986
 30
0.0
 10
12.157053
 20
17.502986
 30
0.0
 10
12.047637
 20
17.502986
 30
0.0
 10
11.938220
 20
17.502986
 30
0.0
 10
11.828804
 20
17.502986
 30
0.0
 10
11.719388
 20
17.502986
 30
0.0
 10
11.609972
 20
17.502986
 30
0.0
 10
11.500556
 20
17.502986
 30
0.0
 10
11.422283
 20
17.502986
 30
0.0
 10
11.344010
 20
17.502986
 30
0.0
 10
11.265738
 20
17.502986
 30
0.0
 10
11.187465
 20
17.502986
 30
0.0
 10
11.109193
 20
17.502986
 30
0.0
 10
11.030920
 20
17.502986
 30
0.0
 10
10.952648
 20
17.502986
 30
0.0
 10
10.874375
 20
17.502986
 30
0.0
 10
10.796102
 20
17.502986
 30
0.0
 10
10.717830
 20
17.502986
 30
0.0
 10
10.639557
 20
17.502986
 30
0.0
 10
10.561285
 20
17.502986
 30
0.0
 10
10.483012
 20
17.502986
 30
0.0
 10
10.404739
 20
17.502986
 30
0.0
 10
10.326467
 20
17.502986
 30
0.0
 10
10.248194
 20
17.502986
 30
0.0
 10
10.169922
 20
17.502986
 30
0.0
 10
10.091649
 20
17.502986
 30
0.0
 10
10.013377
 20
17.502986
 30
0.0
 10
9.935104
 20
17.502986
 30
0.0
 10
9.856832
 20
17.502986
 30
0.0
 10
9.778559
 20
17.502986
 30
0.0
 10
9.700287
 20
17.502986
 30
0.0
 10
9.622014
 20
17.502986
 30
0.0
 10
9.543741
 20
17.502986
 30
0.0
 10
9.465469
 20
17.502986
 30
0.0
 10
9.387196
 20
17.502986
 30
0.0
 10
9.308924
 20
17.502986
 30
0.0
 10
9.230651
 20
17.502986
 30
0.0
 10
9.152378
 20
17.502986
 30
0.0
 10
9.074106
 20
17.502986
 30
0.0
 10
8.995833
 20
17.502986
 30
0.0
 10
8.808420
 20
17.502986
 30
0.0
 10
8.621007
 20
17.502986
 30
0.0
 10
8.433594
 20
17.502986
 30
0.0
 10
8.246181
 20
17.502986
 30
0.0
 10
8.058767
 20
17.502986
 30
0.0
 10
7.871354
 20
17.502986
 30
0.0
 10
7.683941
 20
17.502986
 30
0.0
 10
7.496528
 20
17.502986
 30
0.0
 10
7.309114
 20
17.502986
 30
0.0
 10
7.121701
 20
17.502986
 30
0.0
 10
6.934288
 20
17.502986
 30
0.0
 10
6.746875
 20
17.502986
 30
0.0
 10
6.559462
 20
17.502986
 30
0.0
 10
6.372049
 20
17.502986
 30
0.0
 10
6.184635
 20
17.502986
 30
0.0
 10
5.997222
 20
17.502986
 30
0.0
 10
5.809809
 20
17.502986
 30
0.0
 10
5.622396
 20
17.502986
 30
0.0
 10
5.434982
 20
17.502986
 30
0.0
 10
5.247569
 20
17.502986
 30
0.0
 10
5.060156
 20
17.502986
 30
0.0
 10
4.872743
 20
17.502986
 30
0.0
 10
4.685330
 20
17.502986
 30
0.0
 10
4.497917
 20
17.502986
 30
0.0
 10
4.310504
 20
17.502986
 30
0.0
 10
4.123090
 20
17.502986
 30
0.0
 10
3.935677
 20
17.502986
 30
0.0
 10
3.748264
 20
17.502986
 30
0.0
 10
3.560851
 20
17.502986
 30
0.0
 10
3.373438
 20
17.502986
 30
0.0
 10
3.186024
 20
17.502986
 30
0.0
 10
2.998611
 20
17.502986
 30
0.0
  0
LWPOLYLINE
  5
101
100
AcDbEntity
  8
Layer_1
 62
7
100
AcDbPolyline
 90
353
 70
0
 10
39.996181
 20
17.502986
 30
0.0
 10
39.996181
 20
17.440423
 30
0.0
 10
39.996181
 20
17.377860
 30
0.0
 10
39.996181
 20
17.315297
 30
0.0
 10
39.996181
 20
17.252734
 30
0.0
 10
39.996181
 20
17.190171
 30
0.0
 10
39.996181
 20
17.127608
 30
0.0
 10
39.996181
 20
17.065045
 30
0.0
 10
39.996181
 20
17.002482
 30
0.0
 10
39.996181
 20
16.939919
 30
0.0
 10
39.996181
 20
16.877356
 30
0.0
 10
39.996181
 20
16.814793
 30
0.0
 10
39.996181
 20
16.752230
 30
0.0
 10
39.996181
 20
16.689667
 30
0.0
 10
39.996181
 20
16.627104
 30
0.0
 10
39.996181
 20
16.564541
 30
0.0
 10
39.996181
 20
16.501981
 30
0.0
 10
39.996181
 20
16.439418
 30
0.0
 10
39.996181
 20
16.376855
 30
0.0
 10
39.996181
 20
16.314292
 30
0.0
 10
39.996181
 20
16.251728
 30
0.0
 10
39.996181
 20
16.189165
 30
0.0
 10
39.996181
 20
16.126602
 30
0.0
 10
39.996181
 20
16.064039
 30
0.0
 10
39.996181
 20
16.001476
 30
0.0
 10
39.996181
 20
15.938913
 30
0.0
 10
39.996181
 20
15.876350
 30
0.0
 10
39.996181
 20
15.813787
 30
0.0
 10
39.996181
 20
15.751224
 30
0.0
 10
39.996181
 20
15.688661
 30
0.0
 10
39.996181
 20
15.626098
 30
0.0
 10
39.996181
 20
15.563535
 30
0.0
 10
39.996181
 20
15.500972
 30
0.0
 10
40.090163
 20
15.500972
 30
0.0
 10
40.184146
 20
15.500972
 30
0.0
 10
40.278126
 20
15.500972
 30
0.0
 10
40.372109
 20
15.500972
 30
0.0
 10
40.466092
 20
15.500972
 30
0.0
 10
40.560075
 20
15.500972
 30
0.0
 10
40.654055
 20
15.500972
 30
0.0
 10
40.748037
 20
15.500972
 30
0.0
 10
40.842020
 20
15.500972
 30
0.0
 10
40.936003
 20
15.500972
 30
0.0
 10
41.029986
 20
15.500972
 30
0.0
 10
41.123966
 20
15.500972
 30
0.0
 10
41.217949
 20
15.500972
 30
0.0
 10
41.311932
 20
15.500972
 30
0.0
 10
41.405914
 20
15.500972
 30
0.0
 10
41.499894
 20
15.500972
 30
0.0
 10
41.593877
 20
15.500972
 30
0.0
 10
41.687860
 20
15.500972
 30
0.0
 10
41.781843
 20
15.500972
 30
0.0
 10
41.875826
 20
15.500972
 30
0.0
 10
41.969806
 20
15.500972
 30
0.0
 10
42.063789
 20
15.500972
 30
0.0
 10
42.157771
 20
15.500972
 30
0.0
 10
42.251754
 20
15.500972
 30
0.0
 10
42.345737
 20
15.500972
 30
0.0
 10
42.439717
 20
15.500972
 30
0.0
 10
42.533700
 20
15.500972
 30
0.0
 10
42.627683
 20
15.500972
 30
0.0
 10
42.721665
 20
15.500972
 30
0.0
 10
42.815645
 20
15.500972
 30
0.0
 10
42.909628
 20
15.500972
 30
0.0
 10
43.003611
 20
15.500972
 30
0.0
 10
43.196581
 20
15.496090
 30
0.0
 10
43.387007
 20
15.481612
 30
0.0
 10
43.574657
 20
15.457792
 30
0.0
 10
43.759292
 20
15.424848
 30
0.0
 10
43.940682
 20
15.383015
 30
0.0
 10
44.118586
 20
15.332528
 30
0.0
 10
44.292774
 20
15.273625
 30
0.0
 10
44.463010
 20
15.206541
 30
0.0
 10
44.629056
 20
15.131507
 30
0.0
 10
44.790682
 20
15.048762
 30
0.0
 10
44.947648
 20
14.958541
 30
0.0
 10
45.099724
 20
14.861076
 30
0.0
 10
45.246668
 20
14.756597
 30
0.0
 10
45.388253
 20
14.645345
 30
0.0
 10
45.524239
 20
14.527574
 30
0.0
 10
45.654395
 20
14.403481
 30
0.0
 10
45.778479
 20
14.273348
 30
0.0
 10
45.896265
 20
14.137345
 30
0.0
 10
46.007511
 20
13.995754
 30
0.0
 10
46.111984
 20
13.848829
 30
0.0
 10
46.209450
 20
13.696740
 30
0.0
 10
46.299673
 20
13.539768
 30
0.0
 10
46.382418
 20
13.378139
 30
0.0
 10
46.457452
 20
13.212108
 30
0.0
 10
46.524539
 20
13.041871
 30
0.0
 10
46.583442
 20
12.867684
 30
0.0
 10
46.633929
 20
12.689771
 30
0.0
 10
46.675762
 20
12.508387
 30
0.0
 10
46.708709
 20
12.323729
 30
0.0
 10
46.732529
 20
12.136079
 30
0.0
 10
46.747007
 20
11.945664
 30
0.0
 10
46.751889
 20
11.752680
 30
0.0
 10
46.747007
 20
11.559697
 30
0.0
 10
46.732529
 20
11.369197
 30
0.0
 10
46.708709
 20
11.181434
 30
0.0
 10
46.675762
 20
10.996635
 30
0.0
 10
46.633929
 20
10.815053
 30
0.0
 10
46.583442
 20
10.636915
 30
0.0
 10
46.524539
 20
10.462445
 30
0.0
 10
46.457452
 20
10.291926
 30
0.0
 10
46.382418
 20
10.125556
 30
0.0
 10
46.299673
 20
9.963589
 30
0.0
 10
46.209450
 20
9.806250
 30
0.0
 10
46.111984
 20
9.653793
 30
0.0
 10
46.007511
 20
9.506473
 30
0.0
 10
45.896265
 20
9.364487
 30
0.0
 10
45.778479
 20
9.228089
 30
0.0
 10
45.654395
 20
9.097505
 30
0.0
 10
45.524239
 20
8.973017
 30
0.0
 10
45.388253
 20
8.854822
 30
0.0
 10
45.246668
 20
8.743175
 30
0.0
 10
45.099724
 20
8.638301
 30
0.0
 10
44.947648
 20
8.540455
 30
0.0
 10
44.790682
 20
8.449862
 30
0.0
 10
44.629056
 20
8.366775
 30
0.0
 10
44.463010
 20
8.291422
 30
0.0
 10
44.292774
 20
8.224056
 30
0.0
 10
44.118586
 20
8.164874
 30
0.0
 10
43.940682
 20
8.114158
 30
0.0
 10
43.759292
 20
8.072107
 30
0.0
 10
43.574657
 20
8.039003
 30
0.0
 10
43.387007
 20
8.015014
 30
0.0
 10
43.196581
 20
8.000620
 30
0.0
 10
43.003611
 20
7.995823
 30
0.0
 10
42.941048
 20
7.995823
 30
0.0
 10
42.878485
 20
7.995823
 30
0.0
 10
42.815922
 20
7.995823
 30
0.0
 10
42.753359
 20
7.995823
 30
0.0
 10
42.690796
 20
7.995823
 30
0.0
 10
42.628233
 20
7.995823
 30
0.0
 10
42.565670
 20
7.995823
 30
0.0
 10
42.503107
 20
7.995823
 30
0.0
 10
42.440544
 20
7.995823
 30
0.0
 10
42.377981
 20
7.995823
 30
0.0
 10
42.315418
 20
7.995823
 30
0.0
 10
42.252855
 20
7.995823
 30
0.0
 10
42.190292
 20
7.995823
 30
0.0
 10
42.127729
 20
7.995823
 30
0.0
 10
42.065166
 20
7.995823
 30
0.0
 10
42.002603
 20
7.995823
 30
0.0
 10
41.940043
 20
7.995823
 30
0.0
 10
41.877480
 20
7.995823
 30
0.0
 10
41.814917
 20
7.995823
 30
0.0
 10
41.752353
 20
7.995823
 30
0.0
 10
41.689790
 20
7.995823
 30
0.0
 10
41.627227
 20
7.995823
 30
0.0
 10
41.564664
 20
7.995823
 30
0.0
 10
41.502101
 20
7.995823
 30
0.0
 10
41.439538
 20
7.995823
 30
0.0
 10
41.376975
 20
7.995823
 30
0.0
 10
41.314412
 20
7.995823
 30
0.0
 10
41.251849
 20
7.995823
 30
0.0
 10
41.189286
 20
7.995823
 30
0.0
 10
41.126723
 20
7.995823
 30
0.0
 10
41.064160
 20
7.995823
 30
0.0
 10
41.001597
 20
7.995823
 30
0.0
 10
41.204721
 20
7.745858
 30
0.0
 10
41.407842
 20
7.495866
 30
0.0
 10
41.610966
 20
7.245902
 30
0.0
 10
41.814090
 20
6.995909
 30
0.0
 10
42.017211
 20
6.745945
 30
0.0
 10
42.220334
 20
6.495953
 30
0.0
 10
42.423458
 20
6.245988
 30
0.0
 10
42.626579
 20
5.995996
 30
0.0
 10
42.829703
 20
5.746032
 30
0.0
 10
43.032827
 20
5.496067
 30
0.0
 10
43.235948
 20
5.246075
 30
0.0
 10
43.439072
 20
4.996111
 30
0.0
 10
43.642195
 20
4.746118
 30
0.0
 10
43.845316
 20
4.496154
 30
0.0
 10
44.048440
 20
4.246162
 30
0.0
 10
44.251561
 20
3.996197
 30
0.0
 10
44.454685
 20
3.746233
 30
0.0
 10
44.657809
 20
3.496241
 30
0.0
 10
44.860930
 20
3.246277
 30
0.0
 10
45.064053
 20
2.996284
 30
0.0
 10
45.267177
 20
2.746320
 30
0.0
 10
45.470298
 20
2.496327
 30
0.0
 10
45.673422
 20
2.246363
 30
0.0
 10
45.876546
 20
1.996399
 30
0.0
 10
46.079667
 20
1.746407
 30
0.0
 10
46.282791
 20
1.496442
 30
0.0
 10
46.485914
 20
1.246450
 30
0.0
 10
46.689035
 20
0.996486
 30
0.0
 10
46.892159
 20
0.746493
 30
0.0
 10
47.095283
 20
0.496529
 30
0.0
 10
47.298404
 20
0.246537
 30
0.0
 10
47.501528
 20
-0.003428
 30
0.0
 10
47.579526
 20
-0.003428
 30
0.0
 10
47.657520
 20
-0.003428
 30
0.0
 10
47.735518
 20
-0.003428
 30
0.0
 10
47.813516
 20
-0.003428
 30
0.0
 10
47.891514
 20
-0.003428
 30
0.0
 10
47.969509
 20
-0.003428
 30
0.0
 10
48.047506
 20
-0.003428
 30
0.0
 10
48.125504
 20
-0.003428
 30
0.0
 10
48.203499
 20
-0.003428
 30
0.0
 10
48.281497
 20
-0.003428
 30
0.0
 10
48.359495
 20
-0.003428
 30
0.0
 10
48.437492
 20
-0.003428
 30
0.0
 10
48.515487
 20
-0.003428
 30
0.0
 10
48.593485
 20
-0.003428
 30
0.0
 10
48.671483
 20
-0.003428
 30
0.0
 10
48.749478
 20
-0.003428
 30
0.0
 10
48.827476
 20
-0.003428
 30
0.0
 10
48.905473
 20
-0.003428
 30
0.0
 10
48.983471
 20
-0.003428
 30
0.0
 10
49.061466
 20
-0.003428
 30
0.0
 10
49.139464
 20
-0.003428
 30
0.0
 10
49.217461
 20
-0.003428
 30
0.0
 10
49.295459
 20
-0.003428
 30
0.0
 10
49.373454
 20
-0.003428
 30
0.0
 10
49.451452
 20
-0.003428
 30
0.0
 10
49.529450
 20
-0.003428
 30
0.0
 10
49.607445
 20
-0.003428
 30
0.0
 10
49.685442
 20
-0.003428
 30
0.0
 10
49.763440
 20
-0.003428
 30
0.0
 10
49.841438
 20
-0.003428
 30
0.0
 10
49.919433
 20
-0.003428
 30
0.0
 10
49.997431
 20
-0.003428
 30
0.0
 10
49.837027
 20
0.193902
 30
0.0
 10
49.676623
 20
0.391232
 30
0.0
 10
49.516219
 20
0.588590
 30
0.0
 10
49.355815
 20
0.785920
 30
0.0
 10
49.195411
 20
0.983249
 30
0.0
 10
49.035008
 20
1.180579
 30
0.0
 10
48.874604
 20
1.377909
 30
0.0
 10
48.714200
 20
1.575239
 30
0.0
 10
48.553799
 20
1.772597
 30
0.0
 10
48.393395
 20
1.969927
 30
0.0
 10
48.232991
 20
2.167256
 30
0.0
 10
48.072588
 20
2.364586
 30
0.0
 10
47.912184
 20
2.561916
 30
0.0
 10
47.751780
 20
2.759274
 30
0.0
 10
47.591376
 20
2.956604
 30
0.0
 10
47.430972
 20
3.153933
 30
0.0
 10
47.270568
 20
3.351263
 30
0.0
 10
47.110165
 20
3.548593
 30
0.0
 10
46.949761
 20
3.745951
 30
0.0
 10
46.789357
 20
3.943281
 30
0.0
 10
46.628953
 20
4.140611
 30
0.0
 10
46.468549
 20
4.337940
 30
0.0
 10
46.308145
 20
4.535270
 30
0.0
 10
46.147742
 20
4.732600
 30
0.0
 10
45.987341
 20
4.929958
 30
0.0
 10
45.826937
 20
5.127288
 30
0.0
 10
45.666533
 20
5.324617
 30
0.0
 10
45.506129
 20
5.521947
 30
0.0
 10
45.345725
 20
5.719277
 30
0.0
 10
45.185322
 20
5.916635
 30
0.0
 10
45.024918
 20
6.113965
 30
0.0
 10
44.864514
 20
6.311295
 30
0.0
 10
45.074603
 20
6.387861
 30
0.0
 10
45.280806
 20
6.472274
 30
0.0
 10
45.482933
 20
6.564363
 30
0.0
 10
45.680808
 20
6.663903
 30
0.0
 10
45.874246
 20
6.770781
 30
0.0
 10
46.063064
 20
6.884742
 30
0.0
 10
46.247081
 20
7.005674
 30
0.0
 10
46.426114
 20
7.133323
 30
0.0
 10
46.599980
 20
7.267576
 30
0.0
 10
46.768501
 20
7.408208
 30
0.0
 10
46.931490
 20
7.555076
 30
0.0
 10
47.088766
 20
7.707956
 30
0.0
 10
47.240148
 20
7.866678
 30
0.0
 10
47.385453
 20
8.031100
 30
0.0
 10
47.524495
 20
8.200970
 30
0.0
 10
47.657100
 20
8.376173
 30
0.0
 10
47.783078
 20
8.556485
 30
0.0
 10
47.902249
 20
8.741764
 30
0.0
 10
48.014433
 20
8.931784
 30
0.0
 10
48.119445
 20
9.126377
 30
0.0
 10
48.217102
 20
9.325371
 30
0.0
 10
48.307227
 20
9.528600
 30
0.0
 10
48.389630
 20
9.735864
 30
0.0
 10
48.464137
 20
9.946966
 30
0.0
 10
48.530558
 20
10.161765
 30
0.0
 10
48.588716
 20
10.380036
 30
0.0
 10
48.638426
 20
10.601609
 30
0.0
 10
48.679506
 20
10.826342
 30
0.0
 10
48.711776
 20
11.054011
 30
0.0
 10
48.735059
 20
11.284445
 30
0.0
 10
48.749170
 20
11.517448
 30
0.0
 10
48.753911
 20
11.752878
 30
0.0
 10
48.746433
 20
12.048788
 30
0.0
 10
48.724222
 20
12.340803
 30
0.0
 10
48.687651
 20
12.628585
 30
0.0
 10
48.637080
 20
12.911739
 30
0.0
 10
48.572869
 20
13.189925
 30
0.0
 10
48.495376
 20
13.462806
 30
0.0
 10
48.404969
 20
13.729985
 30
0.0
 10
48.302006
 20
13.991126
 30
0.0
 10
48.186845
 20
14.245831
 30
0.0
 10
48.059854
 20
14.493763
 30
0.0
 10
47.921390
 20
14.734584
 30
0.0
 10
47.771815
 20
14.967885
 30
0.0
 10
47.611490
 20
15.193333
 30
0.0
 10
47.440779
 20
15.410562
 30
0.0
 10
47.260039
 20
15.619212
 30
0.0
 10
47.069637
 20
15.818918
 30
0.0
 10
46.869929
 20
16.009319
 30
0.0
 10
46.661282
 20
16.190057
 30
0.0
 10
46.444050
 20
16.360765
 30
0.0
 10
46.218602
 20
16.521090
 30
0.0
 10
45.985295
 20
16.670662
 30
0.0
 10
45.744488
 20
16.809123
 30
0.0
 10
45.496551
 20
16.936115
 30
0.0
 10
45.241837
 20
17.051273
 30
0.0
 10
44.980710
 20
17.154233
 30
0.0
 10
44.713533
 20
17.244640
 30
0.0
 10
44.440667
 20
17.322130
 30
0.0
 10
44.162472
 20
17.386341
 30
0.0
 10
43.879310
 20
17.436912
 30
0.0
 10
43.591542
 20
17.473480
 30
0.0
 10
43.299530
 20
17.495691
 30
0.0
 10
43.003634
 20
17.503170
 30
0.0
 10
42.909651
 20
17.503170
 30
0.0
 10
42.815668
 20
17.503170
 30
0.0
 10
42.721688
 20
17.503170
 30
0.0
 10
42.627705
 20
17.503170
 30
0.0
 10
42.533722
 20
17.503170
 30
0.0
 10
42.439740
 20
17.503170
 30
0.0
 10
42.345760
 20
17.503170
 30
0.0
 10
42.251777
 20
17.503170
 30
0.0
 10
42.157794
 20
17.503170
 30
0.0
 10
42.063811
 20
17.503170
 30
0.0
 10
41.969828
 20
17.503170
 30
0.0
 10
41.875848
 20
17.503170
 30
0.0
 10
41.781865
 20
17.503170
 30
0.0
 10
41.687883
 20
17.503170
 30
0.0
 10
41.593900
 20
17.503170
 30
0.0
 10
41.499917
 20
17.503170
 30
0.0
 10
41.405937
 20
17.503170
 30
0.0
 10
41.311954
 20
17.503170
 30
0.0
 10
41.217971
 20
17.503170
 30
0.0
 10
41.123989
 20
17.503170
 30
0.0
 10
41.030009
 20
17.503170
 30
0.0
 10
40.936026
 20
17.503170
 30
0.0
 10
40.842043
 20
17.503170
 30
0.0
 10
40.748060
 20
17.503170
 30
0.0
 10
40.654077
 20
17.503170
 30
0.0
 10
40.560097
 20
17.503170
 30
0.0
 10
40.466114
 20
17.503170
 30
0.0
 10
40.372132
 20
17.503170
 30
0.0
 10
40.278149
 20
17.503170
 30
0.0
 10
40.184169
 20
17.503170
 30
0.0
 10
40.090186
 20
17.503170
 30
0.0
 10
39.996181
 20
17.502986
 30
0.0
  0
ENDSEC
  0
SECTION
  2
OBJECTS
  0
DICTIONARY
  5
C
330
0
100
AcDbDictionary
  3
ACAD_GROUP
350
D
  3
ACAD_MLINESTYLE
350
17
  0
DICTIONARY
  5
D
330
C
100
AcDbDictionary
  0
DICTIONARY
  5
1A
330
C
100
AcDbDictionary
  0
DICTIONARY
  5
17
330
C
100
AcDbDictionary
  3
STANDARD
350
18
  0
DICTIONARY
  5
19
330
C
100
AcDbDictionary
  0
ENDSEC
  0
EOF
